<svg width="540" height="190" viewBox="0 0 540 190" fill="none" xmlns="http://www.w3.org/2000/svg">
<rect opacity="0.15" x="0.5" y="0.5" width="539" height="189" rx="29.5" fill="#FAFAFA" stroke="#4B7D74"/>
<path d="M56.8814 93.932C56.8814 95.228 56.4734 96.29 55.6574 97.118C54.9254 97.85 54.0254 98.216 52.9574 98.216C51.7214 98.216 50.7254 97.748 49.9694 96.812C49.3334 96.02 49.0154 95.06 49.0154 93.932C49.0154 92.612 49.4114 91.544 50.2034 90.728C50.9234 89.984 51.8414 89.612 52.9574 89.612C54.2174 89.612 55.2194 90.086 55.9634 91.034C56.5754 91.826 56.8814 92.792 56.8814 93.932ZM50.3114 93.932C50.3114 94.976 50.5814 95.804 51.1214 96.416C51.6014 96.956 52.2074 97.226 52.9394 97.226C53.7314 97.226 54.3674 96.926 54.8474 96.326C55.3394 95.714 55.5854 94.916 55.5854 93.932C55.5854 92.9 55.3214 92.072 54.7934 91.448C54.3134 90.872 53.7014 90.584 52.9574 90.584C52.1654 90.584 51.5234 90.896 51.0314 91.52C50.5514 92.132 50.3114 92.936 50.3114 93.932ZM59.153 89.828H60.107L60.269 90.71C60.941 89.978 61.829 89.612 62.933 89.612C64.109 89.612 65.039 90.056 65.723 90.944C66.299 91.7 66.587 92.636 66.587 93.752C66.587 95.228 66.167 96.38 65.327 97.208C64.643 97.88 63.815 98.216 62.843 98.216C61.787 98.216 60.959 97.892 60.359 97.244V101.276H59.153V89.828ZM60.359 92.042V95.912C60.503 96.284 60.785 96.596 61.205 96.848C61.637 97.1 62.081 97.226 62.537 97.226C63.365 97.226 64.031 96.926 64.535 96.326C65.039 95.726 65.291 94.928 65.291 93.932C65.291 92.816 65.015 91.958 64.463 91.358C64.007 90.854 63.407 90.602 62.663 90.602C62.195 90.602 61.739 90.74 61.295 91.016C60.851 91.292 60.539 91.634 60.359 92.042ZM75.4981 94.328H69.6661C69.7141 95.204 70.0141 95.906 70.5661 96.434C71.1301 96.962 71.8561 97.226 72.7441 97.226C73.4881 97.226 74.2141 97.004 74.9221 96.56L75.3361 97.28C74.5441 97.904 73.5901 98.216 72.4741 98.216C71.1781 98.216 70.1461 97.79 69.3781 96.938C68.6701 96.17 68.3161 95.174 68.3161 93.95C68.3161 92.678 68.6941 91.616 69.4501 90.764C70.1341 89.996 70.9801 89.612 71.9881 89.612C73.2001 89.612 74.1241 90.104 74.7601 91.088C75.2521 91.856 75.4981 92.804 75.4981 93.932V94.328ZM69.6481 93.356H74.2561C74.2201 92.48 74.0041 91.796 73.6081 91.304C73.2241 90.812 72.6901 90.566 72.0061 90.566C71.3581 90.566 70.8121 90.824 70.3681 91.34C69.9361 91.856 69.6961 92.528 69.6481 93.356ZM84.6443 98H83.4563V93.212C83.4563 91.508 82.7123 90.656 81.2243 90.656C80.7923 90.656 80.3663 90.758 79.9463 90.962C79.5263 91.166 79.2023 91.424 78.9743 91.736V98H77.7683V89.828H78.7763L78.8843 90.692H78.9383C79.6463 89.972 80.5343 89.612 81.6023 89.612C83.6303 89.612 84.6443 90.782 84.6443 93.122V98ZM91.6499 91.052C91.0499 90.74 90.3959 90.584 89.6879 90.584C89.2079 90.584 88.8299 90.692 88.5539 90.908C88.2899 91.112 88.1579 91.394 88.1579 91.754C88.1579 92.138 88.2779 92.438 88.5179 92.654C88.7699 92.858 89.2439 93.062 89.9399 93.266C90.9239 93.566 91.6079 93.902 91.9919 94.274C92.3759 94.646 92.5679 95.168 92.5679 95.84C92.5679 96.548 92.2979 97.124 91.7579 97.568C91.2299 98 90.5459 98.216 89.7059 98.216C88.6019 98.216 87.6419 97.916 86.8259 97.316C86.8619 97.256 86.9219 97.154 87.0059 97.01C87.0899 96.854 87.1619 96.734 87.2219 96.65C87.9179 97.034 88.6679 97.226 89.4719 97.226C90.7319 97.226 91.3619 96.752 91.3619 95.804C91.3619 95.42 91.2239 95.12 90.9479 94.904C90.6839 94.688 90.1859 94.484 89.4539 94.292C87.7499 93.812 86.8979 92.978 86.8979 91.79C86.8979 91.154 87.1439 90.632 87.6359 90.224C88.1399 89.816 88.7819 89.612 89.5619 89.612C90.4859 89.612 91.3139 89.87 92.0459 90.386L91.6499 91.052ZM101.987 93.932C101.987 95.228 101.579 96.29 100.763 97.118C100.031 97.85 99.1308 98.216 98.0628 98.216C96.8268 98.216 95.8308 97.748 95.0748 96.812C94.4388 96.02 94.1208 95.06 94.1208 93.932C94.1208 92.612 94.5168 91.544 95.3088 90.728C96.0288 89.984 96.9468 89.612 98.0628 89.612C99.3228 89.612 100.325 90.086 101.069 91.034C101.681 91.826 101.987 92.792 101.987 93.932ZM95.4168 93.932C95.4168 94.976 95.6868 95.804 96.2268 96.416C96.7068 96.956 97.3128 97.226 98.0448 97.226C98.8368 97.226 99.4728 96.926 99.9528 96.326C100.445 95.714 100.691 94.916 100.691 93.932C100.691 92.9 100.427 92.072 99.8988 91.448C99.4188 90.872 98.8068 90.584 98.0628 90.584C97.2708 90.584 96.6288 90.896 96.1368 91.52C95.6568 92.132 95.4168 92.936 95.4168 93.932ZM110.846 89.828V98H109.91L109.802 97.064L109.748 97.082C109.016 97.838 108.128 98.216 107.084 98.216C106.208 98.216 105.518 97.91 105.014 97.298C104.51 96.674 104.258 95.816 104.258 94.724V89.828H105.464V94.508C105.464 96.272 106.124 97.154 107.444 97.154C107.852 97.154 108.26 97.052 108.668 96.848C109.088 96.644 109.418 96.38 109.658 96.056V89.828H110.846ZM118.991 90.53L118.001 91.214C117.593 90.854 117.155 90.674 116.687 90.674C116.003 90.674 115.397 91.028 114.869 91.736V98H113.663V89.828H114.689L114.797 90.692H114.833C115.541 89.972 116.267 89.612 117.011 89.612C117.887 89.612 118.547 89.918 118.991 90.53ZM126.429 90.476L126.033 91.16C125.421 90.776 124.755 90.584 124.035 90.584C123.051 90.584 122.283 90.944 121.731 91.664C121.251 92.288 121.011 93.068 121.011 94.004C121.011 95 121.317 95.798 121.929 96.398C122.493 96.95 123.231 97.226 124.143 97.226C124.911 97.226 125.589 97.004 126.177 96.56L126.573 97.28C125.901 97.904 125.001 98.216 123.873 98.216C122.553 98.216 121.503 97.772 120.723 96.884C120.051 96.104 119.715 95.126 119.715 93.95C119.715 92.63 120.153 91.55 121.029 90.71C121.785 89.978 122.697 89.612 123.765 89.612C124.809 89.612 125.697 89.9 126.429 90.476ZM135.369 94.328H129.537C129.585 95.204 129.885 95.906 130.437 96.434C131.001 96.962 131.727 97.226 132.615 97.226C133.359 97.226 134.085 97.004 134.793 96.56L135.207 97.28C134.415 97.904 133.461 98.216 132.345 98.216C131.049 98.216 130.017 97.79 129.249 96.938C128.541 96.17 128.187 95.174 128.187 93.95C128.187 92.678 128.565 91.616 129.321 90.764C130.005 89.996 130.851 89.612 131.859 89.612C133.071 89.612 133.995 90.104 134.631 91.088C135.123 91.856 135.369 92.804 135.369 93.932V94.328ZM129.519 93.356H134.127C134.091 92.48 133.875 91.796 133.479 91.304C133.095 90.812 132.561 90.566 131.877 90.566C131.229 90.566 130.683 90.824 130.239 91.34C129.807 91.856 129.567 92.528 129.519 93.356ZM139.367 97.28C139.367 97.292 139.367 97.304 139.367 97.316C139.367 97.832 139.121 98.09 138.629 98.09C138.113 98.09 137.855 97.826 137.855 97.298C137.879 96.806 138.137 96.56 138.629 96.56C139.121 96.56 139.367 96.8 139.367 97.28ZM142.385 89.828H143.339L143.501 90.71C144.173 89.978 145.061 89.612 146.165 89.612C147.341 89.612 148.271 90.056 148.955 90.944C149.531 91.7 149.819 92.636 149.819 93.752C149.819 95.228 149.399 96.38 148.559 97.208C147.875 97.88 147.047 98.216 146.075 98.216C145.019 98.216 144.191 97.892 143.591 97.244V101.276H142.385V89.828ZM143.591 92.042V95.912C143.735 96.284 144.017 96.596 144.437 96.848C144.869 97.1 145.313 97.226 145.769 97.226C146.597 97.226 147.263 96.926 147.767 96.326C148.271 95.726 148.523 94.928 148.523 93.932C148.523 92.816 148.247 91.958 147.695 91.358C147.239 90.854 146.639 90.602 145.895 90.602C145.427 90.602 144.971 90.74 144.527 91.016C144.083 91.292 143.771 91.634 143.591 92.042ZM153.295 86.39V98H152.089V87.038L153.295 86.39ZM162.09 98H161.19L161.01 97.118C160.278 97.85 159.366 98.216 158.274 98.216C157.446 98.216 156.786 97.988 156.294 97.532C155.802 97.064 155.556 96.446 155.556 95.678C155.556 93.806 156.924 92.87 159.66 92.87H160.902V92.762C160.902 91.334 160.206 90.62 158.814 90.62C158.022 90.62 157.26 90.884 156.528 91.412L156.132 90.746C156.96 89.99 157.968 89.612 159.156 89.612C160.104 89.612 160.83 89.906 161.334 90.494C161.838 91.082 162.09 91.928 162.09 93.032V98ZM160.902 93.752H159.804C157.836 93.752 156.852 94.358 156.852 95.57C156.852 96.086 157.002 96.494 157.302 96.794C157.614 97.082 158.046 97.226 158.598 97.226C159.078 97.226 159.54 97.106 159.984 96.866C160.428 96.626 160.734 96.326 160.902 95.966V93.752ZM171.042 90.476L170.646 91.16C170.034 90.776 169.368 90.584 168.648 90.584C167.664 90.584 166.896 90.944 166.344 91.664C165.864 92.288 165.624 93.068 165.624 94.004C165.624 95 165.93 95.798 166.542 96.398C167.106 96.95 167.844 97.226 168.756 97.226C169.524 97.226 170.202 97.004 170.79 96.56L171.186 97.28C170.514 97.904 169.614 98.216 168.486 98.216C167.166 98.216 166.116 97.772 165.336 96.884C164.664 96.104 164.328 95.126 164.328 93.95C164.328 92.63 164.766 91.55 165.642 90.71C166.398 89.978 167.31 89.612 168.378 89.612C169.422 89.612 170.31 89.9 171.042 90.476ZM179.983 94.328H174.151C174.199 95.204 174.499 95.906 175.051 96.434C175.615 96.962 176.341 97.226 177.229 97.226C177.973 97.226 178.699 97.004 179.407 96.56L179.821 97.28C179.029 97.904 178.075 98.216 176.959 98.216C175.663 98.216 174.631 97.79 173.863 96.938C173.155 96.17 172.801 95.174 172.801 93.95C172.801 92.678 173.179 91.616 173.935 90.764C174.619 89.996 175.465 89.612 176.473 89.612C177.685 89.612 178.609 90.104 179.245 91.088C179.737 91.856 179.983 92.804 179.983 93.932V94.328ZM174.133 93.356H178.741C178.705 92.48 178.489 91.796 178.093 91.304C177.709 90.812 177.175 90.566 176.491 90.566C175.843 90.566 175.297 90.824 174.853 91.34C174.421 91.856 174.181 92.528 174.133 93.356Z" fill="#4B7D74"/>
<path d="M481.648 75.576C482.448 75.576 483.108 75.84 483.628 76.368C484.132 76.912 484.384 77.584 484.384 78.384C484.384 79.192 484.132 79.86 483.628 80.388C483.116 80.924 482.456 81.192 481.648 81.192C480.96 81.192 480.368 80.988 479.872 80.58C479.056 79.9 478.648 78.644 478.648 76.812C478.632 75.428 478.876 74.328 479.38 73.512C479.892 72.696 480.676 72.28 481.732 72.264C482.396 72.264 482.952 72.46 483.4 72.852C483.848 73.236 484.136 73.748 484.264 74.388H483.928C483.808 73.836 483.552 73.396 483.16 73.068C482.776 72.74 482.3 72.576 481.732 72.576C480.804 72.576 480.112 72.944 479.656 73.68C479.208 74.416 478.984 75.456 478.984 76.8C478.984 77.208 479.008 77.592 479.056 77.952C479.128 77.248 479.408 76.676 479.896 76.236C480.368 75.796 480.952 75.576 481.648 75.576ZM479.932 80.172C480.38 80.644 480.952 80.88 481.648 80.88C482.344 80.88 482.916 80.644 483.364 80.172C483.804 79.708 484.024 79.112 484.024 78.384C484.024 77.656 483.804 77.06 483.364 76.596C482.916 76.124 482.344 75.888 481.648 75.888C480.944 75.888 480.372 76.12 479.932 76.584C479.484 77.056 479.26 77.656 479.26 78.384C479.26 79.104 479.484 79.7 479.932 80.172ZM490.018 78.204H491.398V78.516H490.018V81H489.682V78.516H485.05V78.18L489.622 72.456H490.018V78.204ZM489.682 78.204V72.876L485.434 78.204H489.682Z" fill="black"/>
<path d="M482.928 123.456H483.252V132H482.916V124.032C482.652 124.36 482.304 124.632 481.872 124.848C481.44 125.064 480.992 125.192 480.528 125.232V124.944C481.032 124.896 481.5 124.744 481.932 124.488C482.364 124.224 482.696 123.88 482.928 123.456ZM484.991 131.688H490.019V132H484.619L484.631 131.82C484.639 130.46 485.419 129.352 486.971 128.496L487.871 128.004C488.455 127.692 488.879 127.352 489.143 126.984C489.415 126.608 489.551 126.164 489.551 125.652C489.551 125.1 489.355 124.616 488.963 124.2C488.571 123.784 487.999 123.576 487.247 123.576C486.511 123.576 485.947 123.784 485.555 124.2C485.155 124.624 484.943 125.128 484.919 125.712H484.583C484.591 125.032 484.831 124.452 485.303 123.972C485.775 123.5 486.423 123.264 487.247 123.264C488.079 123.264 488.731 123.5 489.203 123.972C489.667 124.436 489.899 124.996 489.899 125.652C489.899 126.732 489.299 127.6 488.099 128.256L487.235 128.724C486.475 129.148 485.915 129.596 485.555 130.068C485.195 130.54 485.007 131.08 484.991 131.688Z" fill="black"/>
<path d="M481.385 97.456H481.709V106H481.373V98.032C481.109 98.36 480.761 98.632 480.329 98.848C479.897 99.064 479.449 99.192 478.985 99.232V98.944C479.489 98.896 479.957 98.744 480.389 98.488C480.821 98.224 481.153 97.88 481.385 97.456ZM488.176 105.004C487.696 105.796 486.976 106.192 486.016 106.192C485.056 106.192 484.336 105.796 483.856 105.004C483.376 104.228 483.136 103.136 483.136 101.728C483.136 100.328 483.376 99.232 483.856 98.44C484.336 97.656 485.056 97.264 486.016 97.264C486.976 97.264 487.696 97.656 488.176 98.44C488.656 99.232 488.896 100.328 488.896 101.728C488.896 103.136 488.656 104.228 488.176 105.004ZM483.484 101.728C483.484 103.024 483.696 104.04 484.12 104.776C484.544 105.512 485.176 105.88 486.016 105.88C486.864 105.88 487.5 105.512 487.924 104.776C488.34 104.048 488.548 103.032 488.548 101.728C488.548 100.424 488.34 99.408 487.924 98.68C487.5 97.944 486.864 97.576 486.016 97.576C485.176 97.576 484.544 97.944 484.12 98.68C483.696 99.416 483.484 100.432 483.484 101.728Z" fill="black"/>
<path d="M472.898 75.7877C472.755 75.5922 469.35 71 465 71C460.65 71 457.244 75.5922 457.102 75.7875C456.966 75.973 456.966 76.2246 457.102 76.4101C457.244 76.6056 460.65 81.1978 465 81.1978C469.35 81.1978 472.755 76.6056 472.898 76.4103C473.034 76.2248 473.034 75.973 472.898 75.7877ZM465 80.1429C461.796 80.1429 459.021 77.0949 458.199 76.0985C459.02 75.1013 461.789 72.0549 465 72.0549C468.204 72.0549 470.979 75.1023 471.8 76.0993C470.98 77.0965 468.211 80.1429 465 80.1429Z" fill="#4B7D74"/>
<path d="M465 72.9341C463.255 72.9341 461.835 74.3539 461.835 76.0989C461.835 77.844 463.255 79.2638 465 79.2638C466.745 79.2638 468.165 77.844 468.165 76.0989C468.165 74.3539 466.745 72.9341 465 72.9341ZM465 78.2088C463.836 78.2088 462.89 77.2623 462.89 76.0989C462.89 74.9355 463.836 73.9891 465 73.9891C466.163 73.9891 467.11 74.9355 467.11 76.0989C467.11 77.2623 466.163 78.2088 465 78.2088Z" fill="#4B7D74"/>
<path d="M463.667 127H468.667C469.851 127 470.83 126.117 470.98 124.973C469.859 124.803 469 123.835 469 122.667C469 121.378 470.045 120.333 471.333 120.333C472.622 120.333 473.667 121.378 473.667 122.667C473.667 123.848 472.789 124.824 471.651 124.979C471.495 126.489 470.218 127.667 468.667 127.667H463.667V129.024C464.797 129.185 465.667 130.158 465.667 131.333C465.667 132.622 464.622 133.667 463.333 133.667C462.045 133.667 461 132.622 461 131.333C461 130.158 461.869 129.185 463 129.024V124.976C461.869 124.815 461 123.842 461 122.667C461 121.378 462.045 120.333 463.333 120.333C464.622 120.333 465.667 121.378 465.667 122.667C465.667 123.842 464.797 124.815 463.667 124.976V127ZM461.667 131.333C461.667 132.254 462.413 133 463.333 133C464.254 133 465 132.254 465 131.333C465 130.413 464.254 129.667 463.333 129.667C462.413 129.667 461.667 130.413 461.667 131.333ZM461.667 122.667C461.667 123.587 462.413 124.333 463.333 124.333C464.254 124.333 465 123.587 465 122.667C465 121.746 464.254 121 463.333 121C462.413 121 461.667 121.746 461.667 122.667ZM471.333 121C470.413 121 469.667 121.746 469.667 122.667C469.667 123.587 470.413 124.333 471.333 124.333C472.254 124.333 473 123.587 473 122.667C473 121.746 472.254 121 471.333 121Z" fill="#4B7D74"/>
<path d="M473 98.853L467.742 98.4761L465 93L462.227 98.4761L457 98.853L460.5 103.081L459.5 108.493L465 106.002L470.5 108.492L469.483 103.08C469.483 103.08 473 98.853 473 98.853Z" fill="#4B7D74"/>
<path d="M470.5 108.493L469.483 103.08L472.997 98.8565V98.8525L467.742 98.4761L465 93V106.002L470.5 108.493Z" fill="#4B7D74"/>
<path d="M441.058 54.03C441.058 54.51 440.998 54.94 440.878 55.32C440.762 55.7 440.588 56.022 440.356 56.286C440.128 56.546 439.846 56.746 439.51 56.886C439.174 57.026 438.788 57.096 438.352 57.096C437.956 57.096 437.552 57.04 437.14 56.928C437.148 56.812 437.158 56.698 437.17 56.586C437.182 56.47 437.192 56.356 437.2 56.244C437.208 56.176 437.232 56.122 437.272 56.082C437.316 56.038 437.382 56.016 437.47 56.016C437.542 56.016 437.636 56.034 437.752 56.07C437.872 56.106 438.032 56.124 438.232 56.124C438.496 56.124 438.732 56.084 438.94 56.004C439.148 55.924 439.322 55.8 439.462 55.632C439.602 55.464 439.708 55.25 439.78 54.99C439.856 54.726 439.894 54.414 439.894 54.054V48.402H441.058V54.03ZM445.976 54.264C445.484 54.28 445.064 54.32 444.716 54.384C444.372 54.444 444.09 54.524 443.87 54.624C443.654 54.724 443.496 54.842 443.396 54.978C443.3 55.114 443.252 55.266 443.252 55.434C443.252 55.594 443.278 55.732 443.33 55.848C443.382 55.964 443.452 56.06 443.54 56.136C443.632 56.208 443.738 56.262 443.858 56.298C443.982 56.33 444.114 56.346 444.254 56.346C444.442 56.346 444.614 56.328 444.77 56.292C444.926 56.252 445.072 56.196 445.208 56.124C445.348 56.052 445.48 55.966 445.604 55.866C445.732 55.766 445.856 55.652 445.976 55.524V54.264ZM442.526 51.78C442.862 51.456 443.224 51.214 443.612 51.054C444 50.894 444.43 50.814 444.902 50.814C445.242 50.814 445.544 50.87 445.808 50.982C446.072 51.094 446.294 51.25 446.474 51.45C446.654 51.65 446.79 51.892 446.882 52.176C446.974 52.46 447.02 52.772 447.02 53.112V57H446.546C446.442 57 446.362 56.984 446.306 56.952C446.25 56.916 446.206 56.848 446.174 56.748L446.054 56.172C445.894 56.32 445.738 56.452 445.586 56.568C445.434 56.68 445.274 56.776 445.106 56.856C444.938 56.932 444.758 56.99 444.566 57.03C444.378 57.074 444.168 57.096 443.936 57.096C443.7 57.096 443.478 57.064 443.27 57C443.062 56.932 442.88 56.832 442.724 56.7C442.572 56.568 442.45 56.402 442.358 56.202C442.27 55.998 442.226 55.758 442.226 55.482C442.226 55.242 442.292 55.012 442.424 54.792C442.556 54.568 442.77 54.37 443.066 54.198C443.362 54.026 443.748 53.886 444.224 53.778C444.7 53.666 445.284 53.602 445.976 53.586V53.112C445.976 52.64 445.874 52.284 445.67 52.044C445.466 51.8 445.168 51.678 444.776 51.678C444.512 51.678 444.29 51.712 444.11 51.78C443.934 51.844 443.78 51.918 443.648 52.002C443.52 52.082 443.408 52.156 443.312 52.224C443.22 52.288 443.128 52.32 443.036 52.32C442.964 52.32 442.902 52.302 442.85 52.266C442.798 52.226 442.754 52.178 442.718 52.122L442.526 51.78ZM453.726 50.922L451.248 57H450.288L447.81 50.922H448.68C448.768 50.922 448.84 50.944 448.896 50.988C448.952 51.032 448.99 51.084 449.01 51.144L450.552 55.056C450.6 55.204 450.642 55.348 450.678 55.488C450.714 55.628 450.748 55.768 450.78 55.908C450.812 55.768 450.846 55.628 450.882 55.488C450.918 55.348 450.962 55.204 451.014 55.056L452.574 51.144C452.598 51.08 452.638 51.028 452.694 50.988C452.75 50.944 452.816 50.922 452.892 50.922H453.726ZM457.87 54.264C457.378 54.28 456.958 54.32 456.61 54.384C456.266 54.444 455.984 54.524 455.764 54.624C455.548 54.724 455.39 54.842 455.29 54.978C455.194 55.114 455.146 55.266 455.146 55.434C455.146 55.594 455.172 55.732 455.224 55.848C455.276 55.964 455.346 56.06 455.434 56.136C455.526 56.208 455.632 56.262 455.752 56.298C455.876 56.33 456.008 56.346 456.148 56.346C456.336 56.346 456.508 56.328 456.664 56.292C456.82 56.252 456.966 56.196 457.102 56.124C457.242 56.052 457.374 55.966 457.498 55.866C457.626 55.766 457.75 55.652 457.87 55.524V54.264ZM454.42 51.78C454.756 51.456 455.118 51.214 455.506 51.054C455.894 50.894 456.324 50.814 456.796 50.814C457.136 50.814 457.438 50.87 457.702 50.982C457.966 51.094 458.188 51.25 458.368 51.45C458.548 51.65 458.684 51.892 458.776 52.176C458.868 52.46 458.914 52.772 458.914 53.112V57H458.44C458.336 57 458.256 56.984 458.2 56.952C458.144 56.916 458.1 56.848 458.068 56.748L457.948 56.172C457.788 56.32 457.632 56.452 457.48 56.568C457.328 56.68 457.168 56.776 457 56.856C456.832 56.932 456.652 56.99 456.46 57.03C456.272 57.074 456.062 57.096 455.83 57.096C455.594 57.096 455.372 57.064 455.164 57C454.956 56.932 454.774 56.832 454.618 56.7C454.466 56.568 454.344 56.402 454.252 56.202C454.164 55.998 454.12 55.758 454.12 55.482C454.12 55.242 454.186 55.012 454.318 54.792C454.45 54.568 454.664 54.37 454.96 54.198C455.256 54.026 455.642 53.886 456.118 53.778C456.594 53.666 457.178 53.602 457.87 53.586V53.112C457.87 52.64 457.768 52.284 457.564 52.044C457.36 51.8 457.062 51.678 456.67 51.678C456.406 51.678 456.184 51.712 456.004 51.78C455.828 51.844 455.674 51.918 455.542 52.002C455.414 52.082 455.302 52.156 455.206 52.224C455.114 52.288 455.022 52.32 454.93 52.32C454.858 52.32 454.796 52.302 454.744 52.266C454.692 52.226 454.648 52.178 454.612 52.122L454.42 51.78ZM465.086 49.746C465.05 49.806 465.01 49.852 464.966 49.884C464.926 49.912 464.876 49.926 464.816 49.926C464.748 49.926 464.668 49.892 464.576 49.824C464.484 49.756 464.368 49.682 464.228 49.602C464.092 49.518 463.926 49.442 463.73 49.374C463.538 49.306 463.304 49.272 463.028 49.272C462.768 49.272 462.538 49.308 462.338 49.38C462.142 49.448 461.976 49.542 461.84 49.662C461.708 49.782 461.608 49.924 461.54 50.088C461.472 50.248 461.438 50.422 461.438 50.61C461.438 50.85 461.496 51.05 461.612 51.21C461.732 51.366 461.888 51.5 462.08 51.612C462.276 51.724 462.496 51.822 462.74 51.906C462.988 51.986 463.24 52.07 463.496 52.158C463.756 52.246 464.008 52.346 464.252 52.458C464.5 52.566 464.72 52.704 464.912 52.872C465.108 53.04 465.264 53.246 465.38 53.49C465.5 53.734 465.56 54.034 465.56 54.39C465.56 54.766 465.496 55.12 465.368 55.452C465.24 55.78 465.052 56.066 464.804 56.31C464.56 56.554 464.258 56.746 463.898 56.886C463.542 57.026 463.136 57.096 462.68 57.096C462.12 57.096 461.612 56.996 461.156 56.796C460.7 56.592 460.31 56.318 459.986 55.974L460.322 55.422C460.354 55.378 460.392 55.342 460.436 55.314C460.484 55.282 460.536 55.266 460.592 55.266C460.644 55.266 460.702 55.288 460.766 55.332C460.834 55.372 460.91 55.424 460.994 55.488C461.078 55.552 461.174 55.622 461.282 55.698C461.39 55.774 461.512 55.844 461.648 55.908C461.788 55.972 461.946 56.026 462.122 56.07C462.298 56.11 462.496 56.13 462.716 56.13C462.992 56.13 463.238 56.092 463.454 56.016C463.67 55.94 463.852 55.834 464 55.698C464.152 55.558 464.268 55.392 464.348 55.2C464.428 55.008 464.468 54.794 464.468 54.558C464.468 54.298 464.408 54.086 464.288 53.922C464.172 53.754 464.018 53.614 463.826 53.502C463.634 53.39 463.414 53.296 463.166 53.22C462.918 53.14 462.666 53.06 462.41 52.98C462.154 52.896 461.902 52.8 461.654 52.692C461.406 52.584 461.186 52.444 460.994 52.272C460.802 52.1 460.646 51.886 460.526 51.63C460.41 51.37 460.352 51.05 460.352 50.67C460.352 50.366 460.41 50.072 460.526 49.788C460.646 49.504 460.818 49.252 461.042 49.032C461.27 48.812 461.548 48.636 461.876 48.504C462.208 48.372 462.588 48.306 463.016 48.306C463.496 48.306 463.932 48.382 464.324 48.534C464.72 48.686 465.068 48.906 465.368 49.194L465.086 49.746ZM471.146 52.002C471.114 52.046 471.082 52.08 471.05 52.104C471.018 52.128 470.974 52.14 470.918 52.14C470.858 52.14 470.792 52.116 470.72 52.068C470.648 52.016 470.558 51.96 470.45 51.9C470.346 51.84 470.216 51.786 470.06 51.738C469.908 51.686 469.72 51.66 469.496 51.66C469.196 51.66 468.932 51.714 468.704 51.822C468.476 51.926 468.284 52.078 468.128 52.278C467.976 52.478 467.86 52.72 467.78 53.004C467.704 53.288 467.666 53.606 467.666 53.958C467.666 54.326 467.708 54.654 467.792 54.942C467.876 55.226 467.994 55.466 468.146 55.662C468.302 55.854 468.488 56.002 468.704 56.106C468.924 56.206 469.17 56.256 469.442 56.256C469.702 56.256 469.916 56.226 470.084 56.166C470.252 56.102 470.39 56.032 470.498 55.956C470.61 55.88 470.702 55.812 470.774 55.752C470.85 55.688 470.924 55.656 470.996 55.656C471.084 55.656 471.152 55.69 471.2 55.758L471.5 56.148C471.368 56.312 471.218 56.452 471.05 56.568C470.882 56.684 470.7 56.782 470.504 56.862C470.312 56.938 470.11 56.994 469.898 57.03C469.686 57.066 469.47 57.084 469.25 57.084C468.87 57.084 468.516 57.014 468.188 56.874C467.864 56.734 467.582 56.532 467.342 56.268C467.102 56 466.914 55.672 466.778 55.284C466.642 54.896 466.574 54.454 466.574 53.958C466.574 53.506 466.636 53.088 466.76 52.704C466.888 52.32 467.072 51.99 467.312 51.714C467.556 51.434 467.854 51.216 468.206 51.06C468.562 50.904 468.97 50.826 469.43 50.826C469.858 50.826 470.234 50.896 470.558 51.036C470.886 51.172 471.176 51.366 471.428 51.618L471.146 52.002ZM473.661 52.14C473.853 51.724 474.089 51.4 474.369 51.168C474.649 50.932 474.991 50.814 475.395 50.814C475.523 50.814 475.645 50.828 475.761 50.856C475.881 50.884 475.987 50.928 476.079 50.988L476.001 51.786C475.977 51.886 475.917 51.936 475.821 51.936C475.765 51.936 475.683 51.924 475.575 51.9C475.467 51.876 475.345 51.864 475.209 51.864C475.017 51.864 474.845 51.892 474.693 51.948C474.545 52.004 474.411 52.088 474.291 52.2C474.175 52.308 474.069 52.444 473.973 52.608C473.881 52.768 473.797 52.952 473.721 53.16V57H472.647V50.922H473.259C473.375 50.922 473.455 50.944 473.499 50.988C473.543 51.032 473.573 51.108 473.589 51.216L473.661 52.14ZM478.146 50.922V57H477.078V50.922H478.146ZM478.374 49.014C478.374 49.118 478.352 49.216 478.308 49.308C478.268 49.396 478.212 49.476 478.14 49.548C478.072 49.616 477.99 49.67 477.894 49.71C477.802 49.75 477.704 49.77 477.6 49.77C477.496 49.77 477.398 49.75 477.306 49.71C477.218 49.67 477.14 49.616 477.072 49.548C477.004 49.476 476.95 49.396 476.91 49.308C476.87 49.216 476.85 49.118 476.85 49.014C476.85 48.91 476.87 48.812 476.91 48.72C476.95 48.624 477.004 48.542 477.072 48.474C477.14 48.402 477.218 48.346 477.306 48.306C477.398 48.266 477.496 48.246 477.6 48.246C477.704 48.246 477.802 48.266 477.894 48.306C477.99 48.346 478.072 48.402 478.14 48.474C478.212 48.542 478.268 48.624 478.308 48.72C478.352 48.812 478.374 48.91 478.374 49.014ZM480.975 55.536C481.171 55.8 481.385 55.986 481.617 56.094C481.849 56.202 482.109 56.256 482.397 56.256C482.965 56.256 483.401 56.054 483.705 55.65C484.009 55.246 484.161 54.67 484.161 53.922C484.161 53.526 484.125 53.186 484.053 52.902C483.985 52.618 483.885 52.386 483.753 52.206C483.621 52.022 483.459 51.888 483.267 51.804C483.075 51.72 482.857 51.678 482.613 51.678C482.265 51.678 481.959 51.758 481.695 51.918C481.435 52.078 481.195 52.304 480.975 52.596V55.536ZM480.921 51.864C481.177 51.548 481.473 51.294 481.809 51.102C482.145 50.91 482.529 50.814 482.961 50.814C483.313 50.814 483.631 50.882 483.915 51.018C484.199 51.15 484.441 51.348 484.641 51.612C484.841 51.872 484.995 52.196 485.103 52.584C485.211 52.972 485.265 53.418 485.265 53.922C485.265 54.37 485.205 54.788 485.085 55.176C484.965 55.56 484.791 55.894 484.563 56.178C484.339 56.458 484.063 56.68 483.735 56.844C483.411 57.004 483.045 57.084 482.637 57.084C482.265 57.084 481.945 57.022 481.677 56.898C481.413 56.77 481.179 56.594 480.975 56.37V59.058H479.901V50.922H480.543C480.695 50.922 480.789 50.996 480.825 51.144L480.921 51.864ZM488.411 57.096C487.931 57.096 487.561 56.962 487.301 56.694C487.045 56.426 486.917 56.04 486.917 55.536V51.816H486.185C486.121 51.816 486.067 51.798 486.023 51.762C485.979 51.722 485.957 51.662 485.957 51.582V51.156L486.953 51.03L487.199 49.152C487.211 49.092 487.237 49.044 487.277 49.008C487.321 48.968 487.377 48.948 487.445 48.948H487.985V51.042H489.743V51.816H487.985V55.464C487.985 55.72 488.047 55.91 488.171 56.034C488.295 56.158 488.455 56.22 488.651 56.22C488.763 56.22 488.859 56.206 488.939 56.178C489.023 56.146 489.095 56.112 489.155 56.076C489.215 56.04 489.265 56.008 489.305 55.98C489.349 55.948 489.387 55.932 489.419 55.932C489.475 55.932 489.525 55.966 489.569 56.034L489.881 56.544C489.697 56.716 489.475 56.852 489.215 56.952C488.955 57.048 488.687 57.096 488.411 57.096Z" fill="#00463A"/>
<path d="M303.54 143.485C309.893 142.115 315.914 139.507 321.259 135.811C326.604 132.114 331.168 127.401 334.692 121.94C338.216 116.479 340.629 110.378 341.795 103.984C342.96 97.5906 342.855 91.0302 341.485 84.6773C340.115 78.3244 337.507 72.3036 333.811 66.9585C330.114 61.6135 325.401 57.0489 319.94 53.5253C314.479 50.0018 308.378 47.5884 301.984 46.4228C295.591 45.2573 289.03 45.3625 282.677 46.7323C276.324 48.1022 270.304 50.7099 264.959 54.4067C259.613 58.1034 255.049 62.8167 251.525 68.2775C248.002 73.7383 245.588 79.8396 244.423 86.2332C243.257 92.6267 243.362 99.1871 244.732 105.54C246.102 111.893 248.71 117.914 252.407 123.259C256.103 128.604 260.817 133.168 266.278 136.692C271.738 140.215 277.84 142.629 284.233 143.794C290.627 144.96 297.187 144.855 303.54 143.485L303.54 143.485Z" stroke="url(#paint0_linear)" stroke-width="8"/>
<path d="M313.435 66.2971C329.586 78.1584 333.064 100.867 321.202 117.018C309.341 133.169 286.632 136.647 270.481 124.785C254.33 112.924 250.853 90.2155 262.714 74.0644C274.575 57.9133 297.284 54.4358 313.435 66.2971Z" fill="#F2F2F2"/>
<path d="M280.296 82.8568C280.416 82.0248 280.648 81.2968 280.992 80.6728C281.336 80.0408 281.764 79.5168 282.276 79.1008C282.796 78.6768 283.388 78.3608 284.052 78.1528C284.724 77.9368 285.444 77.8288 286.212 77.8288C287.012 77.8288 287.732 77.9448 288.372 78.1768C289.02 78.4008 289.572 78.7168 290.028 79.1248C290.484 79.5248 290.832 79.9968 291.072 80.5408C291.32 81.0848 291.444 81.6728 291.444 82.3048C291.444 82.8568 291.38 83.3448 291.252 83.7688C291.132 84.1848 290.956 84.5488 290.724 84.8608C290.492 85.1728 290.204 85.4368 289.86 85.6528C289.516 85.8688 289.128 86.0488 288.696 86.1928C289.736 86.5208 290.512 87.0208 291.024 87.6928C291.536 88.3648 291.792 89.2088 291.792 90.2248C291.792 91.0888 291.632 91.8528 291.312 92.5168C290.992 93.1808 290.56 93.7408 290.016 94.1968C289.472 94.6448 288.84 94.9848 288.12 95.2168C287.408 95.4488 286.652 95.5648 285.852 95.5648C284.98 95.5648 284.22 95.4648 283.572 95.2648C282.924 95.0648 282.36 94.7688 281.88 94.3768C281.4 93.9848 280.992 93.5048 280.656 92.9368C280.32 92.3688 280.032 91.7128 279.792 90.9688L281.1 90.4288C281.444 90.2848 281.764 90.2488 282.06 90.3208C282.364 90.3848 282.584 90.5448 282.72 90.8008C282.864 91.0808 283.02 91.3568 283.188 91.6288C283.364 91.9008 283.572 92.1448 283.812 92.3608C284.052 92.5688 284.332 92.7408 284.652 92.8768C284.98 93.0048 285.368 93.0688 285.816 93.0688C286.32 93.0688 286.76 92.9888 287.136 92.8288C287.512 92.6608 287.824 92.4448 288.072 92.1808C288.328 91.9168 288.516 91.6248 288.636 91.3048C288.764 90.9768 288.828 90.6488 288.828 90.3208C288.828 89.9048 288.784 89.5288 288.696 89.1928C288.608 88.8488 288.424 88.5568 288.144 88.3168C287.864 88.0768 287.46 87.8888 286.932 87.7528C286.412 87.6168 285.712 87.5488 284.832 87.5488V85.4368C285.56 85.4288 286.164 85.3608 286.644 85.2328C287.124 85.1048 287.504 84.9288 287.784 84.7048C288.072 84.4728 288.272 84.1968 288.384 83.8768C288.496 83.5568 288.552 83.2048 288.552 82.8208C288.552 82.0048 288.324 81.3848 287.868 80.9608C287.412 80.5368 286.804 80.3248 286.044 80.3248C285.692 80.3248 285.368 80.3768 285.072 80.4808C284.776 80.5768 284.508 80.7168 284.268 80.9008C284.036 81.0768 283.84 81.2848 283.68 81.5248C283.52 81.7648 283.4 82.0288 283.32 82.3168C283.184 82.6848 283.004 82.9288 282.78 83.0488C282.564 83.1688 282.256 83.1968 281.856 83.1328L280.296 82.8568ZM301.466 88.8328V83.1568C301.466 82.6208 301.502 82.0288 301.574 81.3808L296.186 88.8328H301.466ZM306.23 88.8328V90.5488C306.23 90.7088 306.178 90.8488 306.074 90.9688C305.97 91.0808 305.822 91.1368 305.63 91.1368H304.046V95.3728H301.466V91.1368H294.146C293.946 91.1368 293.77 91.0768 293.618 90.9568C293.466 90.8288 293.37 90.6728 293.33 90.4888L293.018 88.9888L301.238 78.0088H304.046V88.8328H306.23Z" fill="black"/>
<path d="M278.974 105.922V112H277.906V105.922H278.974ZM279.202 104.014C279.202 104.118 279.18 104.216 279.136 104.308C279.096 104.396 279.04 104.476 278.968 104.548C278.9 104.616 278.818 104.67 278.722 104.71C278.63 104.75 278.532 104.77 278.428 104.77C278.324 104.77 278.226 104.75 278.134 104.71C278.046 104.67 277.968 104.616 277.9 104.548C277.832 104.476 277.778 104.396 277.738 104.308C277.698 104.216 277.678 104.118 277.678 104.014C277.678 103.91 277.698 103.812 277.738 103.72C277.778 103.624 277.832 103.542 277.9 103.474C277.968 103.402 278.046 103.346 278.134 103.306C278.226 103.266 278.324 103.246 278.428 103.246C278.532 103.246 278.63 103.266 278.722 103.306C278.818 103.346 278.9 103.402 278.968 103.474C279.04 103.542 279.096 103.624 279.136 103.72C279.18 103.812 279.202 103.91 279.202 104.014ZM284.269 106.924C284.221 107.012 284.147 107.056 284.047 107.056C283.987 107.056 283.919 107.034 283.843 106.99C283.767 106.946 283.673 106.898 283.561 106.846C283.453 106.79 283.323 106.74 283.171 106.696C283.019 106.648 282.839 106.624 282.631 106.624C282.451 106.624 282.289 106.648 282.145 106.696C282.001 106.74 281.877 106.802 281.773 106.882C281.673 106.962 281.595 107.056 281.539 107.164C281.487 107.268 281.461 107.382 281.461 107.506C281.461 107.662 281.505 107.792 281.593 107.896C281.685 108 281.805 108.09 281.953 108.166C282.101 108.242 282.269 108.31 282.457 108.37C282.645 108.426 282.837 108.488 283.033 108.556C283.233 108.62 283.427 108.692 283.615 108.772C283.803 108.852 283.971 108.952 284.119 109.072C284.267 109.192 284.385 109.34 284.473 109.516C284.565 109.688 284.611 109.896 284.611 110.14C284.611 110.42 284.561 110.68 284.461 110.92C284.361 111.156 284.213 111.362 284.017 111.538C283.821 111.71 283.581 111.846 283.297 111.946C283.013 112.046 282.685 112.096 282.313 112.096C281.889 112.096 281.505 112.028 281.161 111.892C280.817 111.752 280.525 111.574 280.285 111.358L280.537 110.95C280.569 110.898 280.607 110.858 280.651 110.83C280.695 110.802 280.751 110.788 280.819 110.788C280.891 110.788 280.967 110.816 281.047 110.872C281.127 110.928 281.223 110.99 281.335 111.058C281.451 111.126 281.591 111.188 281.755 111.244C281.919 111.3 282.123 111.328 282.367 111.328C282.575 111.328 282.757 111.302 282.913 111.25C283.069 111.194 283.199 111.12 283.303 111.028C283.407 110.936 283.483 110.83 283.531 110.71C283.583 110.59 283.609 110.462 283.609 110.326C283.609 110.158 283.563 110.02 283.471 109.912C283.383 109.8 283.265 109.706 283.117 109.63C282.969 109.55 282.799 109.482 282.607 109.426C282.419 109.366 282.225 109.304 282.025 109.24C281.829 109.176 281.635 109.104 281.443 109.024C281.255 108.94 281.087 108.836 280.939 108.712C280.791 108.588 280.671 108.436 280.579 108.256C280.491 108.072 280.447 107.85 280.447 107.59C280.447 107.358 280.495 107.136 280.591 106.924C280.687 106.708 280.827 106.52 281.011 106.36C281.195 106.196 281.421 106.066 281.689 105.97C281.957 105.874 282.263 105.826 282.607 105.826C283.007 105.826 283.365 105.89 283.681 106.018C284.001 106.142 284.277 106.314 284.509 106.534L284.269 106.924ZM289.46 106.924C289.412 107.012 289.338 107.056 289.238 107.056C289.178 107.056 289.11 107.034 289.034 106.99C288.958 106.946 288.864 106.898 288.752 106.846C288.644 106.79 288.514 106.74 288.362 106.696C288.21 106.648 288.03 106.624 287.822 106.624C287.642 106.624 287.48 106.648 287.336 106.696C287.192 106.74 287.068 106.802 286.964 106.882C286.864 106.962 286.786 107.056 286.73 107.164C286.678 107.268 286.652 107.382 286.652 107.506C286.652 107.662 286.696 107.792 286.784 107.896C286.876 108 286.996 108.09 287.144 108.166C287.292 108.242 287.46 108.31 287.648 108.37C287.836 108.426 288.028 108.488 288.224 108.556C288.424 108.62 288.618 108.692 288.806 108.772C288.994 108.852 289.162 108.952 289.31 109.072C289.458 109.192 289.576 109.34 289.664 109.516C289.756 109.688 289.802 109.896 289.802 110.14C289.802 110.42 289.752 110.68 289.652 110.92C289.552 111.156 289.404 111.362 289.208 111.538C289.012 111.71 288.772 111.846 288.488 111.946C288.204 112.046 287.876 112.096 287.504 112.096C287.08 112.096 286.696 112.028 286.352 111.892C286.008 111.752 285.716 111.574 285.476 111.358L285.728 110.95C285.76 110.898 285.798 110.858 285.842 110.83C285.886 110.802 285.942 110.788 286.01 110.788C286.082 110.788 286.158 110.816 286.238 110.872C286.318 110.928 286.414 110.99 286.526 111.058C286.642 111.126 286.782 111.188 286.946 111.244C287.11 111.3 287.314 111.328 287.558 111.328C287.766 111.328 287.948 111.302 288.104 111.25C288.26 111.194 288.39 111.12 288.494 111.028C288.598 110.936 288.674 110.83 288.722 110.71C288.774 110.59 288.8 110.462 288.8 110.326C288.8 110.158 288.754 110.02 288.662 109.912C288.574 109.8 288.456 109.706 288.308 109.63C288.16 109.55 287.99 109.482 287.798 109.426C287.61 109.366 287.416 109.304 287.216 109.24C287.02 109.176 286.826 109.104 286.634 109.024C286.446 108.94 286.278 108.836 286.13 108.712C285.982 108.588 285.862 108.436 285.77 108.256C285.682 108.072 285.638 107.85 285.638 107.59C285.638 107.358 285.686 107.136 285.782 106.924C285.878 106.708 286.018 106.52 286.202 106.36C286.386 106.196 286.612 106.066 286.88 105.97C287.148 105.874 287.454 105.826 287.798 105.826C288.198 105.826 288.556 105.89 288.872 106.018C289.192 106.142 289.468 106.314 289.7 106.534L289.46 106.924ZM296.11 105.922V112H295.474C295.322 112 295.226 111.926 295.186 111.778L295.102 111.124C294.838 111.416 294.542 111.652 294.214 111.832C293.886 112.008 293.51 112.096 293.086 112.096C292.754 112.096 292.46 112.042 292.204 111.934C291.952 111.822 291.74 111.666 291.568 111.466C291.396 111.266 291.266 111.024 291.178 110.74C291.094 110.456 291.052 110.142 291.052 109.798V105.922H292.12V109.798C292.12 110.258 292.224 110.614 292.432 110.866C292.644 111.118 292.966 111.244 293.398 111.244C293.714 111.244 294.008 111.17 294.28 111.022C294.556 110.87 294.81 110.662 295.042 110.398V105.922H296.11ZM301.871 108.298C301.871 108.05 301.835 107.824 301.763 107.62C301.695 107.412 301.593 107.234 301.457 107.086C301.325 106.934 301.163 106.818 300.971 106.738C300.779 106.654 300.561 106.612 300.317 106.612C299.805 106.612 299.399 106.762 299.099 107.062C298.803 107.358 298.619 107.77 298.547 108.298H301.871ZM302.735 111.148C302.603 111.308 302.445 111.448 302.261 111.568C302.077 111.684 301.879 111.78 301.667 111.856C301.459 111.932 301.243 111.988 301.019 112.024C300.795 112.064 300.573 112.084 300.353 112.084C299.933 112.084 299.545 112.014 299.189 111.874C298.837 111.73 298.531 111.522 298.271 111.25C298.015 110.974 297.815 110.634 297.671 110.23C297.527 109.826 297.455 109.362 297.455 108.838C297.455 108.414 297.519 108.018 297.647 107.65C297.779 107.282 297.967 106.964 298.211 106.696C298.455 106.424 298.753 106.212 299.105 106.06C299.457 105.904 299.853 105.826 300.293 105.826C300.657 105.826 300.993 105.888 301.301 106.012C301.613 106.132 301.881 106.308 302.105 106.54C302.333 106.768 302.511 107.052 302.639 107.392C302.767 107.728 302.831 108.112 302.831 108.544C302.831 108.712 302.813 108.824 302.777 108.88C302.741 108.936 302.673 108.964 302.573 108.964H298.511C298.523 109.348 298.575 109.682 298.667 109.966C298.763 110.25 298.895 110.488 299.063 110.68C299.231 110.868 299.431 111.01 299.663 111.106C299.895 111.198 300.155 111.244 300.443 111.244C300.711 111.244 300.941 111.214 301.133 111.154C301.329 111.09 301.497 111.022 301.637 110.95C301.777 110.878 301.893 110.812 301.985 110.752C302.081 110.688 302.163 110.656 302.231 110.656C302.319 110.656 302.387 110.69 302.435 110.758L302.735 111.148ZM307.683 106.924C307.635 107.012 307.561 107.056 307.461 107.056C307.401 107.056 307.333 107.034 307.257 106.99C307.181 106.946 307.087 106.898 306.975 106.846C306.867 106.79 306.737 106.74 306.585 106.696C306.433 106.648 306.253 106.624 306.045 106.624C305.865 106.624 305.703 106.648 305.559 106.696C305.415 106.74 305.291 106.802 305.187 106.882C305.087 106.962 305.009 107.056 304.953 107.164C304.901 107.268 304.875 107.382 304.875 107.506C304.875 107.662 304.919 107.792 305.007 107.896C305.099 108 305.219 108.09 305.367 108.166C305.515 108.242 305.683 108.31 305.871 108.37C306.059 108.426 306.251 108.488 306.447 108.556C306.647 108.62 306.841 108.692 307.029 108.772C307.217 108.852 307.385 108.952 307.533 109.072C307.681 109.192 307.799 109.34 307.887 109.516C307.979 109.688 308.025 109.896 308.025 110.14C308.025 110.42 307.975 110.68 307.875 110.92C307.775 111.156 307.627 111.362 307.431 111.538C307.235 111.71 306.995 111.846 306.711 111.946C306.427 112.046 306.099 112.096 305.727 112.096C305.303 112.096 304.919 112.028 304.575 111.892C304.231 111.752 303.939 111.574 303.699 111.358L303.951 110.95C303.983 110.898 304.021 110.858 304.065 110.83C304.109 110.802 304.165 110.788 304.233 110.788C304.305 110.788 304.381 110.816 304.461 110.872C304.541 110.928 304.637 110.99 304.749 111.058C304.865 111.126 305.005 111.188 305.169 111.244C305.333 111.3 305.537 111.328 305.781 111.328C305.989 111.328 306.171 111.302 306.327 111.25C306.483 111.194 306.613 111.12 306.717 111.028C306.821 110.936 306.897 110.83 306.945 110.71C306.997 110.59 307.023 110.462 307.023 110.326C307.023 110.158 306.977 110.02 306.885 109.912C306.797 109.8 306.679 109.706 306.531 109.63C306.383 109.55 306.213 109.482 306.021 109.426C305.833 109.366 305.639 109.304 305.439 109.24C305.243 109.176 305.049 109.104 304.857 109.024C304.669 108.94 304.501 108.836 304.353 108.712C304.205 108.588 304.085 108.436 303.993 108.256C303.905 108.072 303.861 107.85 303.861 107.59C303.861 107.358 303.909 107.136 304.005 106.924C304.101 106.708 304.241 106.52 304.425 106.36C304.609 106.196 304.835 106.066 305.103 105.97C305.371 105.874 305.677 105.826 306.021 105.826C306.421 105.826 306.779 105.89 307.095 106.018C307.415 106.142 307.691 106.314 307.923 106.534L307.683 106.924Z" fill="black"/>
<defs>
<linearGradient id="paint0_linear" x1="262.703" y1="121.352" x2="339.489" y2="87.8215" gradientUnits="userSpaceOnUse">
<stop offset="0.685712" stop-color="#4B7D74"/>
<stop offset="0.685812" stop-color="#18CFAB"/>
</linearGradient>
</defs>
</svg>
