<svg width="569" height="257" viewBox="0 0 569 257" fill="none" xmlns="http://www.w3.org/2000/svg">
<g filter="url(#filter0_d)">
<rect opacity="0.75" x="21.5" y="102.5" width="539" height="143" rx="29.5" fill="white" stroke="#4B7D74"/>
<path d="M77.8814 169.932C77.8814 171.228 77.4734 172.29 76.6574 173.118C75.9254 173.85 75.0254 174.216 73.9574 174.216C72.7214 174.216 71.7254 173.748 70.9694 172.812C70.3334 172.02 70.0154 171.06 70.0154 169.932C70.0154 168.612 70.4114 167.544 71.2034 166.728C71.9234 165.984 72.8414 165.612 73.9574 165.612C75.2174 165.612 76.2194 166.086 76.9634 167.034C77.5754 167.826 77.8814 168.792 77.8814 169.932ZM71.3114 169.932C71.3114 170.976 71.5814 171.804 72.1214 172.416C72.6014 172.956 73.2074 173.226 73.9394 173.226C74.7314 173.226 75.3674 172.926 75.8474 172.326C76.3394 171.714 76.5854 170.916 76.5854 169.932C76.5854 168.9 76.3214 168.072 75.7934 167.448C75.3134 166.872 74.7014 166.584 73.9574 166.584C73.1654 166.584 72.5234 166.896 72.0314 167.52C71.5514 168.132 71.3114 168.936 71.3114 169.932ZM80.153 165.828H81.107L81.269 166.71C81.941 165.978 82.829 165.612 83.933 165.612C85.109 165.612 86.039 166.056 86.723 166.944C87.299 167.7 87.587 168.636 87.587 169.752C87.587 171.228 87.167 172.38 86.327 173.208C85.643 173.88 84.815 174.216 83.843 174.216C82.787 174.216 81.959 173.892 81.359 173.244V177.276H80.153V165.828ZM81.359 168.042V171.912C81.503 172.284 81.785 172.596 82.205 172.848C82.637 173.1 83.081 173.226 83.537 173.226C84.365 173.226 85.031 172.926 85.535 172.326C86.039 171.726 86.291 170.928 86.291 169.932C86.291 168.816 86.015 167.958 85.463 167.358C85.007 166.854 84.407 166.602 83.663 166.602C83.195 166.602 82.739 166.74 82.295 167.016C81.851 167.292 81.539 167.634 81.359 168.042ZM96.4981 170.328H90.6661C90.7141 171.204 91.0141 171.906 91.5661 172.434C92.1301 172.962 92.8561 173.226 93.7441 173.226C94.4881 173.226 95.2141 173.004 95.9221 172.56L96.3361 173.28C95.5441 173.904 94.5901 174.216 93.4741 174.216C92.1781 174.216 91.1461 173.79 90.3781 172.938C89.6701 172.17 89.3161 171.174 89.3161 169.95C89.3161 168.678 89.6941 167.616 90.4501 166.764C91.1341 165.996 91.9801 165.612 92.9881 165.612C94.2001 165.612 95.1241 166.104 95.7601 167.088C96.2521 167.856 96.4981 168.804 96.4981 169.932V170.328ZM90.6481 169.356H95.2561C95.2201 168.48 95.0041 167.796 94.6081 167.304C94.2241 166.812 93.6901 166.566 93.0061 166.566C92.3581 166.566 91.8121 166.824 91.3681 167.34C90.9361 167.856 90.6961 168.528 90.6481 169.356ZM105.644 174H104.456V169.212C104.456 167.508 103.712 166.656 102.224 166.656C101.792 166.656 101.366 166.758 100.946 166.962C100.526 167.166 100.202 167.424 99.9743 167.736V174H98.7683V165.828H99.7763L99.8843 166.692H99.9383C100.646 165.972 101.534 165.612 102.602 165.612C104.63 165.612 105.644 166.782 105.644 169.122V174ZM112.65 167.052C112.05 166.74 111.396 166.584 110.688 166.584C110.208 166.584 109.83 166.692 109.554 166.908C109.29 167.112 109.158 167.394 109.158 167.754C109.158 168.138 109.278 168.438 109.518 168.654C109.77 168.858 110.244 169.062 110.94 169.266C111.924 169.566 112.608 169.902 112.992 170.274C113.376 170.646 113.568 171.168 113.568 171.84C113.568 172.548 113.298 173.124 112.758 173.568C112.23 174 111.546 174.216 110.706 174.216C109.602 174.216 108.642 173.916 107.826 173.316C107.862 173.256 107.922 173.154 108.006 173.01C108.09 172.854 108.162 172.734 108.222 172.65C108.918 173.034 109.668 173.226 110.472 173.226C111.732 173.226 112.362 172.752 112.362 171.804C112.362 171.42 112.224 171.12 111.948 170.904C111.684 170.688 111.186 170.484 110.454 170.292C108.75 169.812 107.898 168.978 107.898 167.79C107.898 167.154 108.144 166.632 108.636 166.224C109.14 165.816 109.782 165.612 110.562 165.612C111.486 165.612 112.314 165.87 113.046 166.386L112.65 167.052ZM122.987 169.932C122.987 171.228 122.579 172.29 121.763 173.118C121.031 173.85 120.131 174.216 119.063 174.216C117.827 174.216 116.831 173.748 116.075 172.812C115.439 172.02 115.121 171.06 115.121 169.932C115.121 168.612 115.517 167.544 116.309 166.728C117.029 165.984 117.947 165.612 119.063 165.612C120.323 165.612 121.325 166.086 122.069 167.034C122.681 167.826 122.987 168.792 122.987 169.932ZM116.417 169.932C116.417 170.976 116.687 171.804 117.227 172.416C117.707 172.956 118.313 173.226 119.045 173.226C119.837 173.226 120.473 172.926 120.953 172.326C121.445 171.714 121.691 170.916 121.691 169.932C121.691 168.9 121.427 168.072 120.899 167.448C120.419 166.872 119.807 166.584 119.063 166.584C118.271 166.584 117.629 166.896 117.137 167.52C116.657 168.132 116.417 168.936 116.417 169.932ZM131.846 165.828V174H130.91L130.802 173.064L130.748 173.082C130.016 173.838 129.128 174.216 128.084 174.216C127.208 174.216 126.518 173.91 126.014 173.298C125.51 172.674 125.258 171.816 125.258 170.724V165.828H126.464V170.508C126.464 172.272 127.124 173.154 128.444 173.154C128.852 173.154 129.26 173.052 129.668 172.848C130.088 172.644 130.418 172.38 130.658 172.056V165.828H131.846ZM139.991 166.53L139.001 167.214C138.593 166.854 138.155 166.674 137.687 166.674C137.003 166.674 136.397 167.028 135.869 167.736V174H134.663V165.828H135.689L135.797 166.692H135.833C136.541 165.972 137.267 165.612 138.011 165.612C138.887 165.612 139.547 165.918 139.991 166.53ZM147.429 166.476L147.033 167.16C146.421 166.776 145.755 166.584 145.035 166.584C144.051 166.584 143.283 166.944 142.731 167.664C142.251 168.288 142.011 169.068 142.011 170.004C142.011 171 142.317 171.798 142.929 172.398C143.493 172.95 144.231 173.226 145.143 173.226C145.911 173.226 146.589 173.004 147.177 172.56L147.573 173.28C146.901 173.904 146.001 174.216 144.873 174.216C143.553 174.216 142.503 173.772 141.723 172.884C141.051 172.104 140.715 171.126 140.715 169.95C140.715 168.63 141.153 167.55 142.029 166.71C142.785 165.978 143.697 165.612 144.765 165.612C145.809 165.612 146.697 165.9 147.429 166.476ZM156.369 170.328H150.537C150.585 171.204 150.885 171.906 151.437 172.434C152.001 172.962 152.727 173.226 153.615 173.226C154.359 173.226 155.085 173.004 155.793 172.56L156.207 173.28C155.415 173.904 154.461 174.216 153.345 174.216C152.049 174.216 151.017 173.79 150.249 172.938C149.541 172.17 149.187 171.174 149.187 169.95C149.187 168.678 149.565 167.616 150.321 166.764C151.005 165.996 151.851 165.612 152.859 165.612C154.071 165.612 154.995 166.104 155.631 167.088C156.123 167.856 156.369 168.804 156.369 169.932V170.328ZM150.519 169.356H155.127C155.091 168.48 154.875 167.796 154.479 167.304C154.095 166.812 153.561 166.566 152.877 166.566C152.229 166.566 151.683 166.824 151.239 167.34C150.807 167.856 150.567 168.528 150.519 169.356ZM160.367 173.28C160.367 173.292 160.367 173.304 160.367 173.316C160.367 173.832 160.121 174.09 159.629 174.09C159.113 174.09 158.855 173.826 158.855 173.298C158.879 172.806 159.137 172.56 159.629 172.56C160.121 172.56 160.367 172.8 160.367 173.28ZM163.385 165.828H164.339L164.501 166.71C165.173 165.978 166.061 165.612 167.165 165.612C168.341 165.612 169.271 166.056 169.955 166.944C170.531 167.7 170.819 168.636 170.819 169.752C170.819 171.228 170.399 172.38 169.559 173.208C168.875 173.88 168.047 174.216 167.075 174.216C166.019 174.216 165.191 173.892 164.591 173.244V177.276H163.385V165.828ZM164.591 168.042V171.912C164.735 172.284 165.017 172.596 165.437 172.848C165.869 173.1 166.313 173.226 166.769 173.226C167.597 173.226 168.263 172.926 168.767 172.326C169.271 171.726 169.523 170.928 169.523 169.932C169.523 168.816 169.247 167.958 168.695 167.358C168.239 166.854 167.639 166.602 166.895 166.602C166.427 166.602 165.971 166.74 165.527 167.016C165.083 167.292 164.771 167.634 164.591 168.042ZM174.295 162.39V174H173.089V163.038L174.295 162.39ZM183.09 174H182.19L182.01 173.118C181.278 173.85 180.366 174.216 179.274 174.216C178.446 174.216 177.786 173.988 177.294 173.532C176.802 173.064 176.556 172.446 176.556 171.678C176.556 169.806 177.924 168.87 180.66 168.87H181.902V168.762C181.902 167.334 181.206 166.62 179.814 166.62C179.022 166.62 178.26 166.884 177.528 167.412L177.132 166.746C177.96 165.99 178.968 165.612 180.156 165.612C181.104 165.612 181.83 165.906 182.334 166.494C182.838 167.082 183.09 167.928 183.09 169.032V174ZM181.902 169.752H180.804C178.836 169.752 177.852 170.358 177.852 171.57C177.852 172.086 178.002 172.494 178.302 172.794C178.614 173.082 179.046 173.226 179.598 173.226C180.078 173.226 180.54 173.106 180.984 172.866C181.428 172.626 181.734 172.326 181.902 171.966V169.752ZM192.042 166.476L191.646 167.16C191.034 166.776 190.368 166.584 189.648 166.584C188.664 166.584 187.896 166.944 187.344 167.664C186.864 168.288 186.624 169.068 186.624 170.004C186.624 171 186.93 171.798 187.542 172.398C188.106 172.95 188.844 173.226 189.756 173.226C190.524 173.226 191.202 173.004 191.79 172.56L192.186 173.28C191.514 173.904 190.614 174.216 189.486 174.216C188.166 174.216 187.116 173.772 186.336 172.884C185.664 172.104 185.328 171.126 185.328 169.95C185.328 168.63 185.766 167.55 186.642 166.71C187.398 165.978 188.31 165.612 189.378 165.612C190.422 165.612 191.31 165.9 192.042 166.476ZM200.983 170.328H195.151C195.199 171.204 195.499 171.906 196.051 172.434C196.615 172.962 197.341 173.226 198.229 173.226C198.973 173.226 199.699 173.004 200.407 172.56L200.821 173.28C200.029 173.904 199.075 174.216 197.959 174.216C196.663 174.216 195.631 173.79 194.863 172.938C194.155 172.17 193.801 171.174 193.801 169.95C193.801 168.678 194.179 167.616 194.935 166.764C195.619 165.996 196.465 165.612 197.473 165.612C198.685 165.612 199.609 166.104 200.245 167.088C200.737 167.856 200.983 168.804 200.983 169.932V170.328ZM195.133 169.356H199.741C199.705 168.48 199.489 167.796 199.093 167.304C198.709 166.812 198.175 166.566 197.491 166.566C196.843 166.566 196.297 166.824 195.853 167.34C195.421 167.856 195.181 168.528 195.133 169.356Z" fill="#4B7D74"/>
<path d="M502.648 151.576C503.448 151.576 504.108 151.84 504.628 152.368C505.132 152.912 505.384 153.584 505.384 154.384C505.384 155.192 505.132 155.86 504.628 156.388C504.116 156.924 503.456 157.192 502.648 157.192C501.96 157.192 501.368 156.988 500.872 156.58C500.056 155.9 499.648 154.644 499.648 152.812C499.632 151.428 499.876 150.328 500.38 149.512C500.892 148.696 501.676 148.28 502.732 148.264C503.396 148.264 503.952 148.46 504.4 148.852C504.848 149.236 505.136 149.748 505.264 150.388H504.928C504.808 149.836 504.552 149.396 504.16 149.068C503.776 148.74 503.3 148.576 502.732 148.576C501.804 148.576 501.112 148.944 500.656 149.68C500.208 150.416 499.984 151.456 499.984 152.8C499.984 153.208 500.008 153.592 500.056 153.952C500.128 153.248 500.408 152.676 500.896 152.236C501.368 151.796 501.952 151.576 502.648 151.576ZM500.932 156.172C501.38 156.644 501.952 156.88 502.648 156.88C503.344 156.88 503.916 156.644 504.364 156.172C504.804 155.708 505.024 155.112 505.024 154.384C505.024 153.656 504.804 153.06 504.364 152.596C503.916 152.124 503.344 151.888 502.648 151.888C501.944 151.888 501.372 152.12 500.932 152.584C500.484 153.056 500.26 153.656 500.26 154.384C500.26 155.104 500.484 155.7 500.932 156.172ZM511.018 154.204H512.398V154.516H511.018V157H510.682V154.516H506.05V154.18L510.622 148.456H511.018V154.204ZM510.682 154.204V148.876L506.434 154.204H510.682Z" fill="black"/>
<path d="M503.928 199.456H504.252V208H503.916V200.032C503.652 200.36 503.304 200.632 502.872 200.848C502.44 201.064 501.992 201.192 501.528 201.232V200.944C502.032 200.896 502.5 200.744 502.932 200.488C503.364 200.224 503.696 199.88 503.928 199.456ZM505.991 207.688H511.019V208H505.619L505.631 207.82C505.639 206.46 506.419 205.352 507.971 204.496L508.871 204.004C509.455 203.692 509.879 203.352 510.143 202.984C510.415 202.608 510.551 202.164 510.551 201.652C510.551 201.1 510.355 200.616 509.963 200.2C509.571 199.784 508.999 199.576 508.247 199.576C507.511 199.576 506.947 199.784 506.555 200.2C506.155 200.624 505.943 201.128 505.919 201.712H505.583C505.591 201.032 505.831 200.452 506.303 199.972C506.775 199.5 507.423 199.264 508.247 199.264C509.079 199.264 509.731 199.5 510.203 199.972C510.667 200.436 510.899 200.996 510.899 201.652C510.899 202.732 510.299 203.6 509.099 204.256L508.235 204.724C507.475 205.148 506.915 205.596 506.555 206.068C506.195 206.54 506.007 207.08 505.991 207.688Z" fill="black"/>
<path d="M502.385 173.456H502.709V182H502.373V174.032C502.109 174.36 501.761 174.632 501.329 174.848C500.897 175.064 500.449 175.192 499.985 175.232V174.944C500.489 174.896 500.957 174.744 501.389 174.488C501.821 174.224 502.153 173.88 502.385 173.456ZM509.176 181.004C508.696 181.796 507.976 182.192 507.016 182.192C506.056 182.192 505.336 181.796 504.856 181.004C504.376 180.228 504.136 179.136 504.136 177.728C504.136 176.328 504.376 175.232 504.856 174.44C505.336 173.656 506.056 173.264 507.016 173.264C507.976 173.264 508.696 173.656 509.176 174.44C509.656 175.232 509.896 176.328 509.896 177.728C509.896 179.136 509.656 180.228 509.176 181.004ZM504.484 177.728C504.484 179.024 504.696 180.04 505.12 180.776C505.544 181.512 506.176 181.88 507.016 181.88C507.864 181.88 508.5 181.512 508.924 180.776C509.34 180.048 509.548 179.032 509.548 177.728C509.548 176.424 509.34 175.408 508.924 174.68C508.5 173.944 507.864 173.576 507.016 173.576C506.176 173.576 505.544 173.944 505.12 174.68C504.696 175.416 504.484 176.432 504.484 177.728Z" fill="black"/>
<path d="M493.898 151.788C493.755 151.592 490.35 147 486 147C481.65 147 478.244 151.592 478.102 151.788C477.966 151.973 477.966 152.225 478.102 152.41C478.244 152.606 481.65 157.198 486 157.198C490.35 157.198 493.755 152.606 493.898 152.41C494.034 152.225 494.034 151.973 493.898 151.788ZM486 156.143C482.796 156.143 480.021 153.095 479.199 152.099C480.02 151.101 482.789 148.055 486 148.055C489.204 148.055 491.979 151.102 492.8 152.099C491.98 153.097 489.211 156.143 486 156.143Z" fill="#4B7D74"/>
<path d="M486 148.934C484.255 148.934 482.835 150.354 482.835 152.099C482.835 153.844 484.255 155.264 486 155.264C487.745 155.264 489.165 153.844 489.165 152.099C489.165 150.354 487.745 148.934 486 148.934ZM486 154.209C484.836 154.209 483.89 153.262 483.89 152.099C483.89 150.936 484.836 149.989 486 149.989C487.163 149.989 488.11 150.936 488.11 152.099C488.11 153.262 487.163 154.209 486 154.209Z" fill="#4B7D74"/>
<path d="M484.667 203H489.667C490.851 203 491.83 202.117 491.98 200.973C490.859 200.803 490 199.835 490 198.667C490 197.378 491.045 196.333 492.333 196.333C493.622 196.333 494.667 197.378 494.667 198.667C494.667 199.848 493.789 200.824 492.651 200.979C492.495 202.489 491.218 203.667 489.667 203.667H484.667V205.024C485.797 205.185 486.667 206.158 486.667 207.333C486.667 208.622 485.622 209.667 484.333 209.667C483.045 209.667 482 208.622 482 207.333C482 206.158 482.869 205.185 484 205.024V200.976C482.869 200.815 482 199.842 482 198.667C482 197.378 483.045 196.333 484.333 196.333C485.622 196.333 486.667 197.378 486.667 198.667C486.667 199.842 485.797 200.815 484.667 200.976V203ZM482.667 207.333C482.667 208.254 483.413 209 484.333 209C485.254 209 486 208.254 486 207.333C486 206.413 485.254 205.667 484.333 205.667C483.413 205.667 482.667 206.413 482.667 207.333ZM482.667 198.667C482.667 199.587 483.413 200.333 484.333 200.333C485.254 200.333 486 199.587 486 198.667C486 197.746 485.254 197 484.333 197C483.413 197 482.667 197.746 482.667 198.667ZM492.333 197C491.413 197 490.667 197.746 490.667 198.667C490.667 199.587 491.413 200.333 492.333 200.333C493.254 200.333 494 199.587 494 198.667C494 197.746 493.254 197 492.333 197Z" fill="#4B7D74"/>
<path d="M494 174.853L488.742 174.476L486 169L483.227 174.476L478 174.853L481.5 179.081L480.5 184.493L486 182.002L491.5 184.492L490.483 179.08C490.483 179.08 494 174.853 494 174.853Z" fill="#4B7D74"/>
<path d="M491.5 184.493L490.483 179.08L493.997 174.856V174.852L488.742 174.476L486 169V182.002L491.5 184.493Z" fill="#4B7D74"/>
<path d="M462.058 130.03C462.058 130.51 461.998 130.94 461.878 131.32C461.762 131.7 461.588 132.022 461.356 132.286C461.128 132.546 460.846 132.746 460.51 132.886C460.174 133.026 459.788 133.096 459.352 133.096C458.956 133.096 458.552 133.04 458.14 132.928C458.148 132.812 458.158 132.698 458.17 132.586C458.182 132.47 458.192 132.356 458.2 132.244C458.208 132.176 458.232 132.122 458.272 132.082C458.316 132.038 458.382 132.016 458.47 132.016C458.542 132.016 458.636 132.034 458.752 132.07C458.872 132.106 459.032 132.124 459.232 132.124C459.496 132.124 459.732 132.084 459.94 132.004C460.148 131.924 460.322 131.8 460.462 131.632C460.602 131.464 460.708 131.25 460.78 130.99C460.856 130.726 460.894 130.414 460.894 130.054V124.402H462.058V130.03ZM466.976 130.264C466.484 130.28 466.064 130.32 465.716 130.384C465.372 130.444 465.09 130.524 464.87 130.624C464.654 130.724 464.496 130.842 464.396 130.978C464.3 131.114 464.252 131.266 464.252 131.434C464.252 131.594 464.278 131.732 464.33 131.848C464.382 131.964 464.452 132.06 464.54 132.136C464.632 132.208 464.738 132.262 464.858 132.298C464.982 132.33 465.114 132.346 465.254 132.346C465.442 132.346 465.614 132.328 465.77 132.292C465.926 132.252 466.072 132.196 466.208 132.124C466.348 132.052 466.48 131.966 466.604 131.866C466.732 131.766 466.856 131.652 466.976 131.524V130.264ZM463.526 127.78C463.862 127.456 464.224 127.214 464.612 127.054C465 126.894 465.43 126.814 465.902 126.814C466.242 126.814 466.544 126.87 466.808 126.982C467.072 127.094 467.294 127.25 467.474 127.45C467.654 127.65 467.79 127.892 467.882 128.176C467.974 128.46 468.02 128.772 468.02 129.112V133H467.546C467.442 133 467.362 132.984 467.306 132.952C467.25 132.916 467.206 132.848 467.174 132.748L467.054 132.172C466.894 132.32 466.738 132.452 466.586 132.568C466.434 132.68 466.274 132.776 466.106 132.856C465.938 132.932 465.758 132.99 465.566 133.03C465.378 133.074 465.168 133.096 464.936 133.096C464.7 133.096 464.478 133.064 464.27 133C464.062 132.932 463.88 132.832 463.724 132.7C463.572 132.568 463.45 132.402 463.358 132.202C463.27 131.998 463.226 131.758 463.226 131.482C463.226 131.242 463.292 131.012 463.424 130.792C463.556 130.568 463.77 130.37 464.066 130.198C464.362 130.026 464.748 129.886 465.224 129.778C465.7 129.666 466.284 129.602 466.976 129.586V129.112C466.976 128.64 466.874 128.284 466.67 128.044C466.466 127.8 466.168 127.678 465.776 127.678C465.512 127.678 465.29 127.712 465.11 127.78C464.934 127.844 464.78 127.918 464.648 128.002C464.52 128.082 464.408 128.156 464.312 128.224C464.22 128.288 464.128 128.32 464.036 128.32C463.964 128.32 463.902 128.302 463.85 128.266C463.798 128.226 463.754 128.178 463.718 128.122L463.526 127.78ZM474.726 126.922L472.248 133H471.288L468.81 126.922H469.68C469.768 126.922 469.84 126.944 469.896 126.988C469.952 127.032 469.99 127.084 470.01 127.144L471.552 131.056C471.6 131.204 471.642 131.348 471.678 131.488C471.714 131.628 471.748 131.768 471.78 131.908C471.812 131.768 471.846 131.628 471.882 131.488C471.918 131.348 471.962 131.204 472.014 131.056L473.574 127.144C473.598 127.08 473.638 127.028 473.694 126.988C473.75 126.944 473.816 126.922 473.892 126.922H474.726ZM478.87 130.264C478.378 130.28 477.958 130.32 477.61 130.384C477.266 130.444 476.984 130.524 476.764 130.624C476.548 130.724 476.39 130.842 476.29 130.978C476.194 131.114 476.146 131.266 476.146 131.434C476.146 131.594 476.172 131.732 476.224 131.848C476.276 131.964 476.346 132.06 476.434 132.136C476.526 132.208 476.632 132.262 476.752 132.298C476.876 132.33 477.008 132.346 477.148 132.346C477.336 132.346 477.508 132.328 477.664 132.292C477.82 132.252 477.966 132.196 478.102 132.124C478.242 132.052 478.374 131.966 478.498 131.866C478.626 131.766 478.75 131.652 478.87 131.524V130.264ZM475.42 127.78C475.756 127.456 476.118 127.214 476.506 127.054C476.894 126.894 477.324 126.814 477.796 126.814C478.136 126.814 478.438 126.87 478.702 126.982C478.966 127.094 479.188 127.25 479.368 127.45C479.548 127.65 479.684 127.892 479.776 128.176C479.868 128.46 479.914 128.772 479.914 129.112V133H479.44C479.336 133 479.256 132.984 479.2 132.952C479.144 132.916 479.1 132.848 479.068 132.748L478.948 132.172C478.788 132.32 478.632 132.452 478.48 132.568C478.328 132.68 478.168 132.776 478 132.856C477.832 132.932 477.652 132.99 477.46 133.03C477.272 133.074 477.062 133.096 476.83 133.096C476.594 133.096 476.372 133.064 476.164 133C475.956 132.932 475.774 132.832 475.618 132.7C475.466 132.568 475.344 132.402 475.252 132.202C475.164 131.998 475.12 131.758 475.12 131.482C475.12 131.242 475.186 131.012 475.318 130.792C475.45 130.568 475.664 130.37 475.96 130.198C476.256 130.026 476.642 129.886 477.118 129.778C477.594 129.666 478.178 129.602 478.87 129.586V129.112C478.87 128.64 478.768 128.284 478.564 128.044C478.36 127.8 478.062 127.678 477.67 127.678C477.406 127.678 477.184 127.712 477.004 127.78C476.828 127.844 476.674 127.918 476.542 128.002C476.414 128.082 476.302 128.156 476.206 128.224C476.114 128.288 476.022 128.32 475.93 128.32C475.858 128.32 475.796 128.302 475.744 128.266C475.692 128.226 475.648 128.178 475.612 128.122L475.42 127.78ZM486.086 125.746C486.05 125.806 486.01 125.852 485.966 125.884C485.926 125.912 485.876 125.926 485.816 125.926C485.748 125.926 485.668 125.892 485.576 125.824C485.484 125.756 485.368 125.682 485.228 125.602C485.092 125.518 484.926 125.442 484.73 125.374C484.538 125.306 484.304 125.272 484.028 125.272C483.768 125.272 483.538 125.308 483.338 125.38C483.142 125.448 482.976 125.542 482.84 125.662C482.708 125.782 482.608 125.924 482.54 126.088C482.472 126.248 482.438 126.422 482.438 126.61C482.438 126.85 482.496 127.05 482.612 127.21C482.732 127.366 482.888 127.5 483.08 127.612C483.276 127.724 483.496 127.822 483.74 127.906C483.988 127.986 484.24 128.07 484.496 128.158C484.756 128.246 485.008 128.346 485.252 128.458C485.5 128.566 485.72 128.704 485.912 128.872C486.108 129.04 486.264 129.246 486.38 129.49C486.5 129.734 486.56 130.034 486.56 130.39C486.56 130.766 486.496 131.12 486.368 131.452C486.24 131.78 486.052 132.066 485.804 132.31C485.56 132.554 485.258 132.746 484.898 132.886C484.542 133.026 484.136 133.096 483.68 133.096C483.12 133.096 482.612 132.996 482.156 132.796C481.7 132.592 481.31 132.318 480.986 131.974L481.322 131.422C481.354 131.378 481.392 131.342 481.436 131.314C481.484 131.282 481.536 131.266 481.592 131.266C481.644 131.266 481.702 131.288 481.766 131.332C481.834 131.372 481.91 131.424 481.994 131.488C482.078 131.552 482.174 131.622 482.282 131.698C482.39 131.774 482.512 131.844 482.648 131.908C482.788 131.972 482.946 132.026 483.122 132.07C483.298 132.11 483.496 132.13 483.716 132.13C483.992 132.13 484.238 132.092 484.454 132.016C484.67 131.94 484.852 131.834 485 131.698C485.152 131.558 485.268 131.392 485.348 131.2C485.428 131.008 485.468 130.794 485.468 130.558C485.468 130.298 485.408 130.086 485.288 129.922C485.172 129.754 485.018 129.614 484.826 129.502C484.634 129.39 484.414 129.296 484.166 129.22C483.918 129.14 483.666 129.06 483.41 128.98C483.154 128.896 482.902 128.8 482.654 128.692C482.406 128.584 482.186 128.444 481.994 128.272C481.802 128.1 481.646 127.886 481.526 127.63C481.41 127.37 481.352 127.05 481.352 126.67C481.352 126.366 481.41 126.072 481.526 125.788C481.646 125.504 481.818 125.252 482.042 125.032C482.27 124.812 482.548 124.636 482.876 124.504C483.208 124.372 483.588 124.306 484.016 124.306C484.496 124.306 484.932 124.382 485.324 124.534C485.72 124.686 486.068 124.906 486.368 125.194L486.086 125.746ZM492.146 128.002C492.114 128.046 492.082 128.08 492.05 128.104C492.018 128.128 491.974 128.14 491.918 128.14C491.858 128.14 491.792 128.116 491.72 128.068C491.648 128.016 491.558 127.96 491.45 127.9C491.346 127.84 491.216 127.786 491.06 127.738C490.908 127.686 490.72 127.66 490.496 127.66C490.196 127.66 489.932 127.714 489.704 127.822C489.476 127.926 489.284 128.078 489.128 128.278C488.976 128.478 488.86 128.72 488.78 129.004C488.704 129.288 488.666 129.606 488.666 129.958C488.666 130.326 488.708 130.654 488.792 130.942C488.876 131.226 488.994 131.466 489.146 131.662C489.302 131.854 489.488 132.002 489.704 132.106C489.924 132.206 490.17 132.256 490.442 132.256C490.702 132.256 490.916 132.226 491.084 132.166C491.252 132.102 491.39 132.032 491.498 131.956C491.61 131.88 491.702 131.812 491.774 131.752C491.85 131.688 491.924 131.656 491.996 131.656C492.084 131.656 492.152 131.69 492.2 131.758L492.5 132.148C492.368 132.312 492.218 132.452 492.05 132.568C491.882 132.684 491.7 132.782 491.504 132.862C491.312 132.938 491.11 132.994 490.898 133.03C490.686 133.066 490.47 133.084 490.25 133.084C489.87 133.084 489.516 133.014 489.188 132.874C488.864 132.734 488.582 132.532 488.342 132.268C488.102 132 487.914 131.672 487.778 131.284C487.642 130.896 487.574 130.454 487.574 129.958C487.574 129.506 487.636 129.088 487.76 128.704C487.888 128.32 488.072 127.99 488.312 127.714C488.556 127.434 488.854 127.216 489.206 127.06C489.562 126.904 489.97 126.826 490.43 126.826C490.858 126.826 491.234 126.896 491.558 127.036C491.886 127.172 492.176 127.366 492.428 127.618L492.146 128.002ZM494.661 128.14C494.853 127.724 495.089 127.4 495.369 127.168C495.649 126.932 495.991 126.814 496.395 126.814C496.523 126.814 496.645 126.828 496.761 126.856C496.881 126.884 496.987 126.928 497.079 126.988L497.001 127.786C496.977 127.886 496.917 127.936 496.821 127.936C496.765 127.936 496.683 127.924 496.575 127.9C496.467 127.876 496.345 127.864 496.209 127.864C496.017 127.864 495.845 127.892 495.693 127.948C495.545 128.004 495.411 128.088 495.291 128.2C495.175 128.308 495.069 128.444 494.973 128.608C494.881 128.768 494.797 128.952 494.721 129.16V133H493.647V126.922H494.259C494.375 126.922 494.455 126.944 494.499 126.988C494.543 127.032 494.573 127.108 494.589 127.216L494.661 128.14ZM499.146 126.922V133H498.078V126.922H499.146ZM499.374 125.014C499.374 125.118 499.352 125.216 499.308 125.308C499.268 125.396 499.212 125.476 499.14 125.548C499.072 125.616 498.99 125.67 498.894 125.71C498.802 125.75 498.704 125.77 498.6 125.77C498.496 125.77 498.398 125.75 498.306 125.71C498.218 125.67 498.14 125.616 498.072 125.548C498.004 125.476 497.95 125.396 497.91 125.308C497.87 125.216 497.85 125.118 497.85 125.014C497.85 124.91 497.87 124.812 497.91 124.72C497.95 124.624 498.004 124.542 498.072 124.474C498.14 124.402 498.218 124.346 498.306 124.306C498.398 124.266 498.496 124.246 498.6 124.246C498.704 124.246 498.802 124.266 498.894 124.306C498.99 124.346 499.072 124.402 499.14 124.474C499.212 124.542 499.268 124.624 499.308 124.72C499.352 124.812 499.374 124.91 499.374 125.014ZM501.975 131.536C502.171 131.8 502.385 131.986 502.617 132.094C502.849 132.202 503.109 132.256 503.397 132.256C503.965 132.256 504.401 132.054 504.705 131.65C505.009 131.246 505.161 130.67 505.161 129.922C505.161 129.526 505.125 129.186 505.053 128.902C504.985 128.618 504.885 128.386 504.753 128.206C504.621 128.022 504.459 127.888 504.267 127.804C504.075 127.72 503.857 127.678 503.613 127.678C503.265 127.678 502.959 127.758 502.695 127.918C502.435 128.078 502.195 128.304 501.975 128.596V131.536ZM501.921 127.864C502.177 127.548 502.473 127.294 502.809 127.102C503.145 126.91 503.529 126.814 503.961 126.814C504.313 126.814 504.631 126.882 504.915 127.018C505.199 127.15 505.441 127.348 505.641 127.612C505.841 127.872 505.995 128.196 506.103 128.584C506.211 128.972 506.265 129.418 506.265 129.922C506.265 130.37 506.205 130.788 506.085 131.176C505.965 131.56 505.791 131.894 505.563 132.178C505.339 132.458 505.063 132.68 504.735 132.844C504.411 133.004 504.045 133.084 503.637 133.084C503.265 133.084 502.945 133.022 502.677 132.898C502.413 132.77 502.179 132.594 501.975 132.37V135.058H500.901V126.922H501.543C501.695 126.922 501.789 126.996 501.825 127.144L501.921 127.864ZM509.411 133.096C508.931 133.096 508.561 132.962 508.301 132.694C508.045 132.426 507.917 132.04 507.917 131.536V127.816H507.185C507.121 127.816 507.067 127.798 507.023 127.762C506.979 127.722 506.957 127.662 506.957 127.582V127.156L507.953 127.03L508.199 125.152C508.211 125.092 508.237 125.044 508.277 125.008C508.321 124.968 508.377 124.948 508.445 124.948H508.985V127.042H510.743V127.816H508.985V131.464C508.985 131.72 509.047 131.91 509.171 132.034C509.295 132.158 509.455 132.22 509.651 132.22C509.763 132.22 509.859 132.206 509.939 132.178C510.023 132.146 510.095 132.112 510.155 132.076C510.215 132.04 510.265 132.008 510.305 131.98C510.349 131.948 510.387 131.932 510.419 131.932C510.475 131.932 510.525 131.966 510.569 132.034L510.881 132.544C510.697 132.716 510.475 132.852 510.215 132.952C509.955 133.048 509.687 133.096 509.411 133.096Z" fill="#00463A"/>
<path d="M304.017 219.557C310.379 220.882 316.94 220.941 323.325 219.731C329.71 218.521 335.795 216.065 341.231 212.503C346.667 208.941 351.348 204.344 355.007 198.973C358.666 193.602 361.232 187.563 362.557 181.201C363.882 174.839 363.942 168.278 362.731 161.892C361.521 155.507 359.065 149.423 355.503 143.987C351.941 138.551 347.344 133.87 341.973 130.211C336.602 126.551 330.563 123.986 324.201 122.66C317.839 121.335 311.278 121.276 304.893 122.486C298.507 123.697 292.423 126.153 286.987 129.714C281.551 133.276 276.87 137.873 273.211 143.244C269.551 148.615 266.986 154.654 265.661 161.016C264.335 167.379 264.276 173.94 265.486 180.325C266.697 186.71 269.153 192.794 272.714 198.23C276.276 203.666 280.874 208.348 286.244 212.007C291.615 215.666 297.654 218.232 304.017 219.557L304.017 219.557Z" stroke="url(#paint0_linear)" stroke-width="8"/>
<path d="M344.376 153.021C354.326 170.415 348.291 192.582 330.898 202.532C313.504 212.482 291.337 206.447 281.387 189.053C271.437 171.659 277.472 149.493 294.866 139.543C312.259 129.593 334.426 135.627 344.376 153.021Z" fill="#F2F2F2"/>
<path d="M304.872 160.321C305.256 160.241 305.624 160.185 305.976 160.153C306.328 160.113 306.668 160.093 306.996 160.093C307.908 160.093 308.712 160.229 309.408 160.501C310.104 160.773 310.688 161.149 311.16 161.629C311.632 162.109 311.988 162.673 312.228 163.321C312.468 163.961 312.588 164.653 312.588 165.397C312.588 166.317 312.424 167.157 312.096 167.917C311.776 168.677 311.328 169.329 310.752 169.873C310.176 170.409 309.492 170.825 308.7 171.121C307.916 171.417 307.06 171.565 306.132 171.565C305.588 171.565 305.072 171.509 304.584 171.397C304.096 171.285 303.636 171.137 303.204 170.953C302.78 170.761 302.384 170.545 302.016 170.305C301.656 170.057 301.332 169.797 301.044 169.525L301.956 168.265C302.148 167.993 302.4 167.857 302.712 167.857C302.912 167.857 303.116 167.921 303.324 168.049C303.532 168.177 303.768 168.317 304.032 168.469C304.304 168.621 304.62 168.761 304.98 168.889C305.348 169.017 305.788 169.081 306.3 169.081C306.844 169.081 307.324 168.993 307.74 168.817C308.156 168.641 308.5 168.397 308.772 168.085C309.052 167.765 309.26 167.389 309.396 166.957C309.54 166.517 309.612 166.041 309.612 165.529C309.612 164.585 309.336 163.849 308.784 163.321C308.24 162.785 307.432 162.517 306.36 162.517C305.536 162.517 304.692 162.669 303.828 162.973L301.98 162.445L303.42 154.021H311.988V155.281C311.988 155.705 311.856 156.049 311.592 156.313C311.328 156.577 310.88 156.709 310.248 156.709H305.484L304.872 160.321ZM327.242 162.697C327.242 164.209 327.078 165.525 326.75 166.645C326.43 167.757 325.982 168.677 325.406 169.405C324.838 170.133 324.162 170.677 323.378 171.037C322.602 171.389 321.762 171.565 320.858 171.565C319.954 171.565 319.114 171.389 318.338 171.037C317.57 170.677 316.902 170.133 316.334 169.405C315.766 168.677 315.322 167.757 315.002 166.645C314.682 165.525 314.522 164.209 314.522 162.697C314.522 161.177 314.682 159.861 315.002 158.749C315.322 157.637 315.766 156.717 316.334 155.989C316.902 155.261 317.57 154.721 318.338 154.369C319.114 154.009 319.954 153.829 320.858 153.829C321.762 153.829 322.602 154.009 323.378 154.369C324.162 154.721 324.838 155.261 325.406 155.989C325.982 156.717 326.43 157.637 326.75 158.749C327.078 159.861 327.242 161.177 327.242 162.697ZM324.182 162.697C324.182 161.441 324.09 160.401 323.906 159.577C323.722 158.753 323.474 158.097 323.162 157.609C322.858 157.121 322.506 156.781 322.106 156.589C321.706 156.389 321.29 156.289 320.858 156.289C320.434 156.289 320.022 156.389 319.622 156.589C319.23 156.781 318.882 157.121 318.578 157.609C318.274 158.097 318.03 158.753 317.846 159.577C317.67 160.401 317.582 161.441 317.582 162.697C317.582 163.953 317.67 164.993 317.846 165.817C318.03 166.641 318.274 167.297 318.578 167.785C318.882 168.273 319.23 168.617 319.622 168.817C320.022 169.009 320.434 169.105 320.858 169.105C321.29 169.105 321.706 169.009 322.106 168.817C322.506 168.617 322.858 168.273 323.162 167.785C323.474 167.297 323.722 166.641 323.906 165.817C324.09 164.993 324.182 163.953 324.182 162.697Z" fill="black"/>
<path d="M299.974 181.922V188H298.906V181.922H299.974ZM300.202 180.014C300.202 180.118 300.18 180.216 300.136 180.308C300.096 180.396 300.04 180.476 299.968 180.548C299.9 180.616 299.818 180.67 299.722 180.71C299.63 180.75 299.532 180.77 299.428 180.77C299.324 180.77 299.226 180.75 299.134 180.71C299.046 180.67 298.968 180.616 298.9 180.548C298.832 180.476 298.778 180.396 298.738 180.308C298.698 180.216 298.678 180.118 298.678 180.014C298.678 179.91 298.698 179.812 298.738 179.72C298.778 179.624 298.832 179.542 298.9 179.474C298.968 179.402 299.046 179.346 299.134 179.306C299.226 179.266 299.324 179.246 299.428 179.246C299.532 179.246 299.63 179.266 299.722 179.306C299.818 179.346 299.9 179.402 299.968 179.474C300.04 179.542 300.096 179.624 300.136 179.72C300.18 179.812 300.202 179.91 300.202 180.014ZM305.269 182.924C305.221 183.012 305.147 183.056 305.047 183.056C304.987 183.056 304.919 183.034 304.843 182.99C304.767 182.946 304.673 182.898 304.561 182.846C304.453 182.79 304.323 182.74 304.171 182.696C304.019 182.648 303.839 182.624 303.631 182.624C303.451 182.624 303.289 182.648 303.145 182.696C303.001 182.74 302.877 182.802 302.773 182.882C302.673 182.962 302.595 183.056 302.539 183.164C302.487 183.268 302.461 183.382 302.461 183.506C302.461 183.662 302.505 183.792 302.593 183.896C302.685 184 302.805 184.09 302.953 184.166C303.101 184.242 303.269 184.31 303.457 184.37C303.645 184.426 303.837 184.488 304.033 184.556C304.233 184.62 304.427 184.692 304.615 184.772C304.803 184.852 304.971 184.952 305.119 185.072C305.267 185.192 305.385 185.34 305.473 185.516C305.565 185.688 305.611 185.896 305.611 186.14C305.611 186.42 305.561 186.68 305.461 186.92C305.361 187.156 305.213 187.362 305.017 187.538C304.821 187.71 304.581 187.846 304.297 187.946C304.013 188.046 303.685 188.096 303.313 188.096C302.889 188.096 302.505 188.028 302.161 187.892C301.817 187.752 301.525 187.574 301.285 187.358L301.537 186.95C301.569 186.898 301.607 186.858 301.651 186.83C301.695 186.802 301.751 186.788 301.819 186.788C301.891 186.788 301.967 186.816 302.047 186.872C302.127 186.928 302.223 186.99 302.335 187.058C302.451 187.126 302.591 187.188 302.755 187.244C302.919 187.3 303.123 187.328 303.367 187.328C303.575 187.328 303.757 187.302 303.913 187.25C304.069 187.194 304.199 187.12 304.303 187.028C304.407 186.936 304.483 186.83 304.531 186.71C304.583 186.59 304.609 186.462 304.609 186.326C304.609 186.158 304.563 186.02 304.471 185.912C304.383 185.8 304.265 185.706 304.117 185.63C303.969 185.55 303.799 185.482 303.607 185.426C303.419 185.366 303.225 185.304 303.025 185.24C302.829 185.176 302.635 185.104 302.443 185.024C302.255 184.94 302.087 184.836 301.939 184.712C301.791 184.588 301.671 184.436 301.579 184.256C301.491 184.072 301.447 183.85 301.447 183.59C301.447 183.358 301.495 183.136 301.591 182.924C301.687 182.708 301.827 182.52 302.011 182.36C302.195 182.196 302.421 182.066 302.689 181.97C302.957 181.874 303.263 181.826 303.607 181.826C304.007 181.826 304.365 181.89 304.681 182.018C305.001 182.142 305.277 182.314 305.509 182.534L305.269 182.924ZM310.46 182.924C310.412 183.012 310.338 183.056 310.238 183.056C310.178 183.056 310.11 183.034 310.034 182.99C309.958 182.946 309.864 182.898 309.752 182.846C309.644 182.79 309.514 182.74 309.362 182.696C309.21 182.648 309.03 182.624 308.822 182.624C308.642 182.624 308.48 182.648 308.336 182.696C308.192 182.74 308.068 182.802 307.964 182.882C307.864 182.962 307.786 183.056 307.73 183.164C307.678 183.268 307.652 183.382 307.652 183.506C307.652 183.662 307.696 183.792 307.784 183.896C307.876 184 307.996 184.09 308.144 184.166C308.292 184.242 308.46 184.31 308.648 184.37C308.836 184.426 309.028 184.488 309.224 184.556C309.424 184.62 309.618 184.692 309.806 184.772C309.994 184.852 310.162 184.952 310.31 185.072C310.458 185.192 310.576 185.34 310.664 185.516C310.756 185.688 310.802 185.896 310.802 186.14C310.802 186.42 310.752 186.68 310.652 186.92C310.552 187.156 310.404 187.362 310.208 187.538C310.012 187.71 309.772 187.846 309.488 187.946C309.204 188.046 308.876 188.096 308.504 188.096C308.08 188.096 307.696 188.028 307.352 187.892C307.008 187.752 306.716 187.574 306.476 187.358L306.728 186.95C306.76 186.898 306.798 186.858 306.842 186.83C306.886 186.802 306.942 186.788 307.01 186.788C307.082 186.788 307.158 186.816 307.238 186.872C307.318 186.928 307.414 186.99 307.526 187.058C307.642 187.126 307.782 187.188 307.946 187.244C308.11 187.3 308.314 187.328 308.558 187.328C308.766 187.328 308.948 187.302 309.104 187.25C309.26 187.194 309.39 187.12 309.494 187.028C309.598 186.936 309.674 186.83 309.722 186.71C309.774 186.59 309.8 186.462 309.8 186.326C309.8 186.158 309.754 186.02 309.662 185.912C309.574 185.8 309.456 185.706 309.308 185.63C309.16 185.55 308.99 185.482 308.798 185.426C308.61 185.366 308.416 185.304 308.216 185.24C308.02 185.176 307.826 185.104 307.634 185.024C307.446 184.94 307.278 184.836 307.13 184.712C306.982 184.588 306.862 184.436 306.77 184.256C306.682 184.072 306.638 183.85 306.638 183.59C306.638 183.358 306.686 183.136 306.782 182.924C306.878 182.708 307.018 182.52 307.202 182.36C307.386 182.196 307.612 182.066 307.88 181.97C308.148 181.874 308.454 181.826 308.798 181.826C309.198 181.826 309.556 181.89 309.872 182.018C310.192 182.142 310.468 182.314 310.7 182.534L310.46 182.924ZM317.11 181.922V188H316.474C316.322 188 316.226 187.926 316.186 187.778L316.102 187.124C315.838 187.416 315.542 187.652 315.214 187.832C314.886 188.008 314.51 188.096 314.086 188.096C313.754 188.096 313.46 188.042 313.204 187.934C312.952 187.822 312.74 187.666 312.568 187.466C312.396 187.266 312.266 187.024 312.178 186.74C312.094 186.456 312.052 186.142 312.052 185.798V181.922H313.12V185.798C313.12 186.258 313.224 186.614 313.432 186.866C313.644 187.118 313.966 187.244 314.398 187.244C314.714 187.244 315.008 187.17 315.28 187.022C315.556 186.87 315.81 186.662 316.042 186.398V181.922H317.11ZM322.871 184.298C322.871 184.05 322.835 183.824 322.763 183.62C322.695 183.412 322.593 183.234 322.457 183.086C322.325 182.934 322.163 182.818 321.971 182.738C321.779 182.654 321.561 182.612 321.317 182.612C320.805 182.612 320.399 182.762 320.099 183.062C319.803 183.358 319.619 183.77 319.547 184.298H322.871ZM323.735 187.148C323.603 187.308 323.445 187.448 323.261 187.568C323.077 187.684 322.879 187.78 322.667 187.856C322.459 187.932 322.243 187.988 322.019 188.024C321.795 188.064 321.573 188.084 321.353 188.084C320.933 188.084 320.545 188.014 320.189 187.874C319.837 187.73 319.531 187.522 319.271 187.25C319.015 186.974 318.815 186.634 318.671 186.23C318.527 185.826 318.455 185.362 318.455 184.838C318.455 184.414 318.519 184.018 318.647 183.65C318.779 183.282 318.967 182.964 319.211 182.696C319.455 182.424 319.753 182.212 320.105 182.06C320.457 181.904 320.853 181.826 321.293 181.826C321.657 181.826 321.993 181.888 322.301 182.012C322.613 182.132 322.881 182.308 323.105 182.54C323.333 182.768 323.511 183.052 323.639 183.392C323.767 183.728 323.831 184.112 323.831 184.544C323.831 184.712 323.813 184.824 323.777 184.88C323.741 184.936 323.673 184.964 323.573 184.964H319.511C319.523 185.348 319.575 185.682 319.667 185.966C319.763 186.25 319.895 186.488 320.063 186.68C320.231 186.868 320.431 187.01 320.663 187.106C320.895 187.198 321.155 187.244 321.443 187.244C321.711 187.244 321.941 187.214 322.133 187.154C322.329 187.09 322.497 187.022 322.637 186.95C322.777 186.878 322.893 186.812 322.985 186.752C323.081 186.688 323.163 186.656 323.231 186.656C323.319 186.656 323.387 186.69 323.435 186.758L323.735 187.148ZM328.683 182.924C328.635 183.012 328.561 183.056 328.461 183.056C328.401 183.056 328.333 183.034 328.257 182.99C328.181 182.946 328.087 182.898 327.975 182.846C327.867 182.79 327.737 182.74 327.585 182.696C327.433 182.648 327.253 182.624 327.045 182.624C326.865 182.624 326.703 182.648 326.559 182.696C326.415 182.74 326.291 182.802 326.187 182.882C326.087 182.962 326.009 183.056 325.953 183.164C325.901 183.268 325.875 183.382 325.875 183.506C325.875 183.662 325.919 183.792 326.007 183.896C326.099 184 326.219 184.09 326.367 184.166C326.515 184.242 326.683 184.31 326.871 184.37C327.059 184.426 327.251 184.488 327.447 184.556C327.647 184.62 327.841 184.692 328.029 184.772C328.217 184.852 328.385 184.952 328.533 185.072C328.681 185.192 328.799 185.34 328.887 185.516C328.979 185.688 329.025 185.896 329.025 186.14C329.025 186.42 328.975 186.68 328.875 186.92C328.775 187.156 328.627 187.362 328.431 187.538C328.235 187.71 327.995 187.846 327.711 187.946C327.427 188.046 327.099 188.096 326.727 188.096C326.303 188.096 325.919 188.028 325.575 187.892C325.231 187.752 324.939 187.574 324.699 187.358L324.951 186.95C324.983 186.898 325.021 186.858 325.065 186.83C325.109 186.802 325.165 186.788 325.233 186.788C325.305 186.788 325.381 186.816 325.461 186.872C325.541 186.928 325.637 186.99 325.749 187.058C325.865 187.126 326.005 187.188 326.169 187.244C326.333 187.3 326.537 187.328 326.781 187.328C326.989 187.328 327.171 187.302 327.327 187.25C327.483 187.194 327.613 187.12 327.717 187.028C327.821 186.936 327.897 186.83 327.945 186.71C327.997 186.59 328.023 186.462 328.023 186.326C328.023 186.158 327.977 186.02 327.885 185.912C327.797 185.8 327.679 185.706 327.531 185.63C327.383 185.55 327.213 185.482 327.021 185.426C326.833 185.366 326.639 185.304 326.439 185.24C326.243 185.176 326.049 185.104 325.857 185.024C325.669 184.94 325.501 184.836 325.353 184.712C325.205 184.588 325.085 184.436 324.993 184.256C324.905 184.072 324.861 183.85 324.861 183.59C324.861 183.358 324.909 183.136 325.005 182.924C325.101 182.708 325.241 182.52 325.425 182.36C325.609 182.196 325.835 182.066 326.103 181.97C326.371 181.874 326.677 181.826 327.021 181.826C327.421 181.826 327.779 181.89 328.095 182.018C328.415 182.142 328.691 182.314 328.923 182.534L328.683 182.924Z" fill="black"/>
<mask id="mask0" mask-type="alpha" maskUnits="userSpaceOnUse" x="8" y="6" width="143" height="143">
<circle cx="79.5" cy="77.5" r="71.5" fill="white"/>
<circle cx="79.5" cy="77.5" r="71.5" stroke="black"/>
</mask>
<g mask="url(#mask0)">
<g filter="url(#filter1_d)">
<rect x="-7.21875" y="-122.696" width="170.935" height="278.926" rx="30" fill="white"/>
<rect x="-6.71875" y="-122.196" width="169.935" height="277.926" rx="29.5" stroke="#4B7D74"/>
</g>
<g filter="url(#filter2_d)">
<rect x="-7.21875" y="-122.199" width="170.935" height="278.926" rx="30" fill="white"/>
<rect x="-6.71875" y="-121.699" width="169.935" height="277.926" rx="29.5" stroke="#4B7D74"/>
</g>
<rect x="35.3608" y="27.2573" width="8.6393" height="69.1144" rx="2" fill="#8DD3C7"/>
<rect x="51.4052" y="22.3206" width="8.6393" height="74.0511" rx="2" fill="#FCF2B3"/>
<rect x="68.6833" y="1.33936" width="8.6393" height="95.0323" rx="3" fill="#BEBADA"/>
<path d="M84.728 18.5325C84.728 16.8757 86.0712 15.5325 87.728 15.5325H90.3673C92.0242 15.5325 93.3673 16.8757 93.3673 18.5325V93.3717C93.3673 95.0285 92.0242 96.3717 90.3673 96.3717H87.728C86.0712 96.3717 84.728 95.0285 84.728 93.3717V18.5325Z" fill="#F17E71"/>
<rect x="101.39" y="-1.12897" width="8.02221" height="97.5007" rx="3" fill="#8DD3C7"/>
<rect x="117.434" y="9.97864" width="8.6393" height="86.393" rx="3" fill="#80B1D3"/>
<rect x="30" y="102" width="98.7349" height="22.2153" rx="8" fill="#3E8974"/>
<path d="M67.8836 113.939C67.8836 114.681 67.7599 115.362 67.5126 115.983C67.2652 116.604 66.9176 117.138 66.4696 117.586C66.0216 118.034 65.4826 118.382 64.8526 118.629C64.2226 118.876 63.5226 119 62.7526 119H58.8956V108.878H62.7526C63.5226 108.878 64.2226 109.004 64.8526 109.256C65.4826 109.503 66.0216 109.851 66.4696 110.299C66.9176 110.742 67.2652 111.274 67.5126 111.895C67.7599 112.516 67.8836 113.197 67.8836 113.939ZM65.9516 113.939C65.9516 113.384 65.8769 112.887 65.7276 112.448C65.5829 112.005 65.3706 111.631 65.0906 111.328C64.8152 111.02 64.4792 110.784 64.0826 110.621C63.6906 110.458 63.2472 110.376 62.7526 110.376H60.7856V117.502H62.7526C63.2472 117.502 63.6906 117.42 64.0826 117.257C64.4792 117.094 64.8152 116.86 65.0906 116.557C65.3706 116.249 65.5829 115.876 65.7276 115.437C65.8769 114.994 65.9516 114.494 65.9516 113.939ZM73.8042 114.583C73.8042 114.359 73.7716 114.149 73.7062 113.953C73.6456 113.752 73.5522 113.577 73.4262 113.428C73.3002 113.279 73.1392 113.162 72.9432 113.078C72.7519 112.989 72.5279 112.945 72.2712 112.945C71.7719 112.945 71.3776 113.087 71.0882 113.372C70.8036 113.657 70.6216 114.06 70.5422 114.583H73.8042ZM70.5072 115.626C70.5352 115.995 70.6006 116.314 70.7032 116.585C70.8059 116.851 70.9412 117.073 71.1092 117.25C71.2772 117.423 71.4756 117.553 71.7042 117.642C71.9376 117.726 72.1942 117.768 72.4742 117.768C72.7542 117.768 72.9946 117.735 73.1952 117.67C73.4006 117.605 73.5779 117.532 73.7272 117.453C73.8812 117.374 74.0142 117.301 74.1262 117.236C74.2429 117.171 74.3549 117.138 74.4622 117.138C74.6069 117.138 74.7142 117.192 74.7842 117.299L75.2812 117.929C75.0899 118.153 74.8752 118.342 74.6372 118.496C74.3992 118.645 74.1496 118.767 73.8882 118.86C73.6316 118.949 73.3679 119.012 73.0972 119.049C72.8312 119.086 72.5722 119.105 72.3202 119.105C71.8209 119.105 71.3566 119.023 70.9272 118.86C70.4979 118.692 70.1246 118.447 69.8072 118.125C69.4899 117.798 69.2402 117.397 69.0582 116.921C68.8762 116.44 68.7852 115.885 68.7852 115.255C68.7852 114.765 68.8646 114.305 69.0232 113.876C69.1819 113.442 69.4082 113.066 69.7022 112.749C70.0009 112.427 70.3626 112.173 70.7872 111.986C71.2166 111.799 71.6996 111.706 72.2362 111.706C72.6889 111.706 73.1066 111.778 73.4892 111.923C73.8719 112.068 74.2009 112.28 74.4762 112.56C74.7516 112.835 74.9662 113.176 75.1202 113.582C75.2789 113.983 75.3582 114.443 75.3582 114.961C75.3582 115.222 75.3302 115.4 75.2742 115.493C75.2182 115.582 75.1109 115.626 74.9522 115.626H70.5072ZM78.9814 119.112C78.3561 119.112 77.8754 118.937 77.5394 118.587C77.2081 118.232 77.0424 117.745 77.0424 117.124V113.113H76.3074C76.2141 113.113 76.1347 113.083 76.0694 113.022C76.0041 112.961 75.9714 112.87 75.9714 112.749V112.063L77.1264 111.874L77.4904 109.914C77.5137 109.821 77.5581 109.748 77.6234 109.697C77.6887 109.646 77.7727 109.62 77.8754 109.62H78.7714V111.881H80.6894V113.113H78.7714V117.005C78.7714 117.229 78.8251 117.404 78.9324 117.53C79.0444 117.656 79.1961 117.719 79.3874 117.719C79.4947 117.719 79.5834 117.707 79.6534 117.684C79.7281 117.656 79.7911 117.628 79.8424 117.6C79.8984 117.572 79.9474 117.546 79.9894 117.523C80.0314 117.495 80.0734 117.481 80.1154 117.481C80.1667 117.481 80.2087 117.495 80.2414 117.523C80.2741 117.546 80.3091 117.584 80.3464 117.635L80.8644 118.475C80.6124 118.685 80.3231 118.844 79.9964 118.951C79.6697 119.058 79.3314 119.112 78.9814 119.112ZM85.5904 115.934C85.091 115.957 84.671 116.002 84.3304 116.067C83.9897 116.128 83.7167 116.207 83.5114 116.305C83.306 116.403 83.159 116.517 83.0704 116.648C82.9817 116.779 82.9374 116.921 82.9374 117.075C82.9374 117.378 83.026 117.595 83.2034 117.726C83.3854 117.857 83.621 117.922 83.9104 117.922C84.265 117.922 84.5707 117.859 84.8274 117.733C85.0887 117.602 85.343 117.406 85.5904 117.145V115.934ZM81.6284 112.819C82.4544 112.063 83.4484 111.685 84.6104 111.685C85.0304 111.685 85.406 111.755 85.7374 111.895C86.0687 112.03 86.3487 112.222 86.5774 112.469C86.806 112.712 86.9787 113.003 87.0954 113.344C87.2167 113.685 87.2774 114.058 87.2774 114.464V119H86.4934C86.33 119 86.204 118.977 86.1154 118.93C86.0267 118.879 85.9567 118.778 85.9054 118.629L85.7514 118.111C85.5694 118.274 85.392 118.419 85.2194 118.545C85.0467 118.666 84.867 118.769 84.6804 118.853C84.4937 118.937 84.293 119 84.0784 119.042C83.8684 119.089 83.635 119.112 83.3784 119.112C83.075 119.112 82.795 119.072 82.5384 118.993C82.2817 118.909 82.06 118.785 81.8734 118.622C81.6867 118.459 81.542 118.256 81.4394 118.013C81.3367 117.77 81.2854 117.488 81.2854 117.166C81.2854 116.984 81.3157 116.804 81.3764 116.627C81.437 116.445 81.535 116.272 81.6704 116.109C81.8104 115.946 81.99 115.792 82.2094 115.647C82.4287 115.502 82.697 115.376 83.0144 115.269C83.3364 115.162 83.7097 115.075 84.1344 115.01C84.559 114.94 85.0444 114.898 85.5904 114.884V114.464C85.5904 113.983 85.4877 113.629 85.2824 113.4C85.077 113.167 84.7807 113.05 84.3934 113.05C84.1134 113.05 83.88 113.083 83.6934 113.148C83.5114 113.213 83.3504 113.288 83.2104 113.372C83.0704 113.451 82.942 113.524 82.8254 113.589C82.7134 113.654 82.5874 113.687 82.4474 113.687C82.326 113.687 82.2234 113.657 82.1394 113.596C82.0554 113.531 81.9877 113.456 81.9364 113.372L81.6284 112.819ZM90.6978 111.818V119H88.9618V111.818H90.6978ZM90.9358 109.725C90.9358 109.874 90.9054 110.014 90.8448 110.145C90.7841 110.276 90.7024 110.39 90.5998 110.488C90.5018 110.586 90.3851 110.665 90.2498 110.726C90.1144 110.782 89.9698 110.81 89.8158 110.81C89.6664 110.81 89.5241 110.782 89.3888 110.726C89.2581 110.665 89.1438 110.586 89.0458 110.488C88.9478 110.39 88.8684 110.276 88.8078 110.145C88.7518 110.014 88.7238 109.874 88.7238 109.725C88.7238 109.571 88.7518 109.426 88.8078 109.291C88.8684 109.156 88.9478 109.039 89.0458 108.941C89.1438 108.843 89.2581 108.766 89.3888 108.71C89.5241 108.649 89.6664 108.619 89.8158 108.619C89.9698 108.619 90.1144 108.649 90.2498 108.71C90.3851 108.766 90.5018 108.843 90.5998 108.941C90.7024 109.039 90.7841 109.156 90.8448 109.291C90.9054 109.426 90.9358 109.571 90.9358 109.725ZM94.2104 108.598V119H92.4814V108.598H94.2104ZM100.315 113.218C100.268 113.293 100.219 113.346 100.168 113.379C100.117 113.407 100.051 113.421 99.9721 113.421C99.8881 113.421 99.7971 113.398 99.6991 113.351C99.6058 113.304 99.4961 113.253 99.3701 113.197C99.2441 113.136 99.0994 113.083 98.9361 113.036C98.7774 112.989 98.5884 112.966 98.3691 112.966C98.0284 112.966 97.7601 113.038 97.5641 113.183C97.3728 113.328 97.2771 113.517 97.2771 113.75C97.2771 113.904 97.3261 114.035 97.4241 114.142C97.5268 114.245 97.6598 114.336 97.8231 114.415C97.9911 114.494 98.1801 114.567 98.3901 114.632C98.6001 114.693 98.8124 114.76 99.0271 114.835C99.2464 114.91 99.4611 114.996 99.6711 115.094C99.8811 115.187 100.068 115.309 100.231 115.458C100.399 115.603 100.532 115.778 100.63 115.983C100.733 116.188 100.784 116.436 100.784 116.725C100.784 117.07 100.721 117.39 100.595 117.684C100.474 117.973 100.292 118.225 100.049 118.44C99.8064 118.65 99.5054 118.816 99.1461 118.937C98.7914 119.054 98.3808 119.112 97.9141 119.112C97.6668 119.112 97.4241 119.089 97.1861 119.042C96.9528 119 96.7264 118.939 96.5071 118.86C96.2924 118.781 96.0918 118.687 95.9051 118.58C95.7231 118.473 95.5621 118.356 95.4221 118.23L95.8211 117.572C95.8724 117.493 95.9331 117.432 96.0031 117.39C96.0731 117.348 96.1618 117.327 96.2691 117.327C96.3764 117.327 96.4768 117.357 96.5701 117.418C96.6681 117.479 96.7801 117.544 96.9061 117.614C97.0321 117.684 97.1791 117.749 97.3471 117.81C97.5198 117.871 97.7368 117.901 97.9981 117.901C98.2034 117.901 98.3784 117.878 98.5231 117.831C98.6724 117.78 98.7938 117.714 98.8871 117.635C98.9851 117.556 99.0551 117.465 99.0971 117.362C99.1438 117.255 99.1671 117.145 99.1671 117.033C99.1671 116.865 99.1158 116.727 99.0131 116.62C98.9151 116.513 98.7821 116.419 98.6141 116.34C98.4508 116.261 98.2618 116.191 98.0471 116.13C97.8371 116.065 97.6201 115.995 97.3961 115.92C97.1768 115.845 96.9598 115.759 96.7451 115.661C96.5351 115.558 96.3461 115.43 96.1781 115.276C96.0148 115.122 95.8818 114.933 95.7791 114.709C95.6811 114.485 95.6321 114.214 95.6321 113.897C95.6321 113.603 95.6904 113.323 95.8071 113.057C95.9238 112.791 96.0941 112.56 96.3181 112.364C96.5468 112.163 96.8291 112.005 97.1651 111.888C97.5058 111.767 97.8978 111.706 98.3411 111.706C98.8358 111.706 99.2861 111.788 99.6921 111.951C100.098 112.114 100.436 112.329 100.707 112.595L100.315 113.218Z" fill="white"/>
<circle cx="79.5" cy="77.5" r="71" stroke="#4C7E75"/>
</g>
<g clip-path="url(#clip0)">
<path d="M149.542 126.578L148.254 123.648C148.178 123.475 148.093 123.303 148.002 123.137C147.465 122.155 146.583 121.415 145.52 121.054C144.46 120.695 143.31 120.743 142.283 121.19L141.787 121.405L141.153 119.963C141.153 119.962 141.152 119.962 141.152 119.962L140.685 118.899C140.286 117.991 139.555 117.294 138.629 116.937C137.706 116.582 136.703 116.607 135.803 117.009L134.156 117.723C133.851 117.289 133.481 116.959 133.05 116.735C132.149 116.269 131.064 116.308 129.827 116.852L128.649 117.37L127.123 113.9C126.502 112.487 125.35 111.518 123.961 111.24C122.656 110.979 121.327 111.348 120.405 112.228C119.023 113.547 118.626 115.528 119.393 117.273L125.172 130.501C124.688 130.403 124.178 130.358 123.661 130.371C122.316 130.404 121.108 130.832 120.299 131.552C120.246 131.587 120.196 131.627 120.15 131.674C119.337 132.512 118.936 133.525 118.99 134.604C119.059 135.953 119.829 137.282 121.218 138.45C121.225 138.456 121.232 138.462 121.239 138.467L133.118 147.817C133.272 147.938 133.459 148 133.648 148C133.765 148 133.882 147.976 133.993 147.928L151.011 140.446C151.304 140.318 151.501 140.036 151.521 139.716L151.613 138.233C151.862 134.256 151.146 130.226 149.542 126.578ZM149.904 138.126L149.844 139.088L133.774 146.152L122.31 137.13C121.316 136.291 120.744 135.363 120.702 134.517C120.674 133.969 120.862 133.458 121.261 132.997C121.289 132.974 121.317 132.949 121.343 132.922C122.369 131.866 124.926 131.793 126.261 132.773L129.212 135.607C129.378 135.766 129.592 135.845 129.805 135.845C130.03 135.845 130.255 135.757 130.423 135.582C130.751 135.241 130.74 134.699 130.398 134.371L127.528 131.614L120.962 116.585C120.387 115.276 120.908 114.116 121.589 113.467C122.098 112.98 122.879 112.771 123.626 112.92C124.471 113.089 125.156 113.682 125.555 114.589L130.529 125.902C130.67 126.223 130.984 126.414 131.313 126.414C131.428 126.414 131.545 126.391 131.657 126.342C132.09 126.151 132.287 125.646 132.097 125.213L129.339 118.938L130.517 118.42C131.257 118.095 131.844 118.04 132.263 118.257C132.559 118.41 132.809 118.714 133.005 119.16L135.938 125.832C136.079 126.153 136.393 126.344 136.722 126.344C136.838 126.344 136.955 126.32 137.067 126.271C137.5 126.081 137.697 125.575 137.506 125.142L134.92 119.259L136.489 118.579C136.492 118.578 136.496 118.576 136.499 118.575C136.981 118.359 137.519 118.345 138.013 118.535C138.511 118.727 138.903 119.101 139.117 119.588L142.602 127.517C142.743 127.838 143.057 128.029 143.387 128.029C143.502 128.029 143.619 128.006 143.731 127.956C144.164 127.766 144.361 127.261 144.171 126.828L142.476 122.974L142.966 122.761C144.291 122.184 145.81 122.699 146.499 123.959C146.566 124.082 146.629 124.209 146.685 124.337L147.974 127.268C149.468 130.666 150.135 134.421 149.904 138.126Z" fill="#424242"/>
<path d="M146.538 137.899L145.693 138.27C145.26 138.46 145.063 138.965 145.253 139.398C145.394 139.719 145.708 139.911 146.038 139.911C146.153 139.911 146.269 139.888 146.381 139.838L147.226 139.468C147.659 139.278 147.857 138.773 147.667 138.339C147.477 137.906 146.971 137.709 146.538 137.899Z" fill="#424242"/>
<path d="M143.13 139.413L134.105 143.371C133.672 143.561 133.475 144.066 133.665 144.499C133.806 144.821 134.12 145.012 134.45 145.012C134.565 145.012 134.682 144.989 134.794 144.94L143.818 140.982C144.251 140.792 144.448 140.287 144.258 139.853C144.068 139.42 143.563 139.223 143.13 139.413Z" fill="#424242"/>
<path d="M120.88 108.871C120.964 109.276 121.32 109.555 121.718 109.555C121.775 109.555 121.834 109.549 121.892 109.537C122.355 109.442 122.653 108.988 122.558 108.525L121.971 105.683C121.875 105.22 121.422 104.922 120.959 105.018C120.496 105.113 120.198 105.567 120.293 106.03L120.88 108.871Z" fill="#424242"/>
<path d="M113.515 109.018C113.764 108.616 113.64 108.088 113.238 107.839L112.646 107.473C112.244 107.224 111.716 107.348 111.467 107.75C111.218 108.152 111.342 108.68 111.744 108.929L112.336 109.296C112.476 109.383 112.632 109.424 112.786 109.424C113.073 109.424 113.353 109.28 113.515 109.018Z" fill="#424242"/>
<path d="M115.178 111.188L117.006 112.39C117.151 112.486 117.314 112.531 117.476 112.531C117.754 112.531 118.027 112.395 118.192 112.145C118.452 111.75 118.342 111.219 117.947 110.959L116.12 109.757C115.724 109.497 115.193 109.607 114.933 110.002C114.673 110.397 114.783 110.928 115.178 111.188Z" fill="#424242"/>
<path d="M117.42 116.606C117.324 116.143 116.871 115.845 116.408 115.94L113.566 116.527C113.103 116.623 112.805 117.076 112.9 117.539C112.984 117.944 113.341 118.223 113.738 118.223C113.796 118.223 113.854 118.217 113.913 118.205L116.754 117.618C117.217 117.522 117.515 117.069 117.42 116.606Z" fill="#424242"/>
<path d="M119.574 121.016C119.179 120.756 118.648 120.866 118.388 121.261L116.793 123.686C116.534 124.081 116.643 124.612 117.038 124.872C117.184 124.967 117.347 125.013 117.508 125.013C117.787 125.013 118.06 124.877 118.225 124.627L119.819 122.203C120.079 121.808 119.969 121.276 119.574 121.016Z" fill="#424242"/>
<path d="M128.961 114.009C129.044 114.414 129.401 114.693 129.799 114.693C129.856 114.693 129.914 114.687 129.973 114.675L131.867 114.284C132.331 114.188 132.629 113.735 132.533 113.272C132.437 112.808 131.984 112.51 131.521 112.606L129.626 112.997C129.163 113.093 128.865 113.546 128.961 114.009Z" fill="#424242"/>
<path d="M135.127 113.593C135.184 113.593 135.242 113.587 135.301 113.575L135.893 113.453C136.356 113.357 136.654 112.904 136.559 112.441C136.463 111.977 136.01 111.679 135.546 111.775L134.954 111.897C134.491 111.993 134.193 112.446 134.289 112.909C134.372 113.314 134.729 113.593 135.127 113.593Z" fill="#424242"/>
<path d="M126.353 110.309C126.498 110.405 126.661 110.45 126.822 110.45C127.101 110.45 127.374 110.314 127.539 110.064L129.133 107.64C129.393 107.245 129.284 106.714 128.888 106.454C128.493 106.194 127.962 106.303 127.702 106.699L126.108 109.123C125.848 109.518 125.957 110.049 126.353 110.309Z" fill="#424242"/>
</g>
</g>
<defs>
<filter id="filter0_d" x="0" y="0" width="569" height="256.736" filterUnits="userSpaceOnUse" color-interpolation-filters="sRGB">
<feFlood flood-opacity="0" result="BackgroundImageFix"/>
<feColorMatrix in="SourceAlpha" type="matrix" values="0 0 0 0 0 0 0 0 0 0 0 0 0 0 0 0 0 0 127 0"/>
<feOffset dy="2"/>
<feGaussianBlur stdDeviation="4"/>
<feColorMatrix type="matrix" values="0 0 0 0 0 0 0 0 0 0 0 0 0 0 0 0 0 0 0.18 0"/>
<feBlend mode="normal" in2="BackgroundImageFix" result="effect1_dropShadow"/>
<feBlend mode="normal" in="SourceGraphic" in2="effect1_dropShadow" result="shape"/>
</filter>
<filter id="filter1_d" x="-11.2188" y="-122.696" width="178.935" height="286.926" filterUnits="userSpaceOnUse" color-interpolation-filters="sRGB">
<feFlood flood-opacity="0" result="BackgroundImageFix"/>
<feColorMatrix in="SourceAlpha" type="matrix" values="0 0 0 0 0 0 0 0 0 0 0 0 0 0 0 0 0 0 127 0"/>
<feOffset dy="4"/>
<feGaussianBlur stdDeviation="2"/>
<feColorMatrix type="matrix" values="0 0 0 0 0 0 0 0 0 0 0 0 0 0 0 0 0 0 0.25 0"/>
<feBlend mode="normal" in2="BackgroundImageFix" result="effect1_dropShadow"/>
<feBlend mode="normal" in="SourceGraphic" in2="effect1_dropShadow" result="shape"/>
</filter>
<filter id="filter2_d" x="-9.21875" y="-122.199" width="174.935" height="282.926" filterUnits="userSpaceOnUse" color-interpolation-filters="sRGB">
<feFlood flood-opacity="0" result="BackgroundImageFix"/>
<feColorMatrix in="SourceAlpha" type="matrix" values="0 0 0 0 0 0 0 0 0 0 0 0 0 0 0 0 0 0 127 0"/>
<feOffset dy="2"/>
<feGaussianBlur stdDeviation="1"/>
<feColorMatrix type="matrix" values="0 0 0 0 0 0 0 0 0 0 0 0 0 0 0 0 0 0 0.25 0"/>
<feBlend mode="normal" in2="BackgroundImageFix" result="effect1_dropShadow"/>
<feBlend mode="normal" in="SourceGraphic" in2="effect1_dropShadow" result="shape"/>
</filter>
<linearGradient id="paint0_linear" x1="275.671" y1="182.759" x2="359.457" y2="183.265" gradientUnits="userSpaceOnUse">
<stop offset="0.451233" stop-color="#4B7D74"/>
<stop offset="0.451333" stop-color="#18CFAB"/>
<stop offset="0.56071" stop-color="#18CFAB"/>
</linearGradient>
<clipPath id="clip0">
<rect width="43" height="43" fill="white" transform="translate(110 105)"/>
</clipPath>
</defs>
</svg>
