<svg xmlns="http://www.w3.org/2000/svg" viewBox="0 0 400 300" width="406" height="306" class="illustration"><g id="_491_phone_maintenance_flatline" data-name="#491_phone_maintenance_flatline"><path d="M126,120.79s22.66-.66,27.85-21l-16.21-1-23.51,18.58Z" fill="#68e1fd"></path><polygon points="80.94 223.67 72.49 225.83 73.24 234.74 83.38 233.62 80.94 223.67" fill="#fff"></polygon><path d="M73.24,235.24a.49.49,0,0,1-.5-.45L72,225.87a.51.51,0,0,1,.37-.53l8.45-2.15a.46.46,0,0,1,.38.05.48.48,0,0,1,.23.31l2.44,9.95a.47.47,0,0,1-.07.4.5.5,0,0,1-.36.21l-10.14,1.13Zm-.22-9,.67,8,9.06-1-2.18-8.9Z" fill="#231f20"></path><path d="M313.51,63.61s-2.33-4.28-6-10.19c0,0-11.83,8.83-11.73,8.34S313.51,63.61,313.51,63.61Z" fill="#231f20"></path><path d="M313.5,64.11h-.06c-6.22-.83-16.38-2.06-17.48-1.91-.29.12-.38.06-.48,0a.52.52,0,0,1-.23-.54c0-.14.06-.28.38-.36h0c.69-.27,7.44-5.22,11.54-8.28a.49.49,0,0,1,.39-.09.53.53,0,0,1,.33.22c3.68,5.86,6,10.18,6.05,10.22a.5.5,0,0,1-.44.74Zm-16-2.84c2.18.12,6.48.59,15,1.72-.83-1.49-2.7-4.76-5.26-8.84C302,58.15,299.1,60.22,297.54,61.27Z" fill="#231f20"></path><polygon points="156.89 241.96 150.99 232.12 159.15 224.74 156.89 241.96" fill="#231f20"></polygon><path d="M156.89,242.46a.5.5,0,0,1-.43-.24l-5.9-9.84a.51.51,0,0,1,.09-.63l8.17-7.38a.48.48,0,0,1,.56-.07.5.5,0,0,1,.27.51L157.38,242a.48.48,0,0,1-.39.43Zm-5.26-10.24,5,8.25,1.9-14.45Z" fill="#231f20"></path><path d="M160.72,244l95,13.53a8.28,8.28,0,0,0,9-5.83l49.15-183.9c1-3.81-1.43-7.16-5.46-7.49l-96.86-7.81a8.57,8.57,0,0,0-8.63,6.12L155.75,236.44A5.92,5.92,0,0,0,160.72,244Z" fill="#231f20"></path><path d="M256.77,258.14a8.77,8.77,0,0,1-1.15-.08l-95-13.54h0a6.45,6.45,0,0,1-4.56-2.81,6.56,6.56,0,0,1-.81-5.4L202.41,58.52A9.11,9.11,0,0,1,211.56,52l96.86,7.81a6.67,6.67,0,0,1,5,2.72,6.36,6.36,0,0,1,.87,5.4l-49.16,183.9A8.82,8.82,0,0,1,256.77,258.14Zm-96-14.61,95,13.54a7.76,7.76,0,0,0,8.44-5.47L313.36,67.71a5.41,5.41,0,0,0-.71-4.57,5.67,5.67,0,0,0-4.31-2.3L211.48,53a8,8,0,0,0-8.1,5.75L156.23,236.57a5.63,5.63,0,0,0,.68,4.59A5.5,5.5,0,0,0,160.79,243.53Z" fill="#231f20"></path><path d="M154.53,233.88l95,13.53a8.26,8.26,0,0,0,9-5.83l49.16-183.9c1-3.81-1.43-7.16-5.46-7.49l-96.87-7.81a8.57,8.57,0,0,0-8.62,6.12L149.57,226.29A5.92,5.92,0,0,0,154.53,233.88Z" fill="#fff"></path><path d="M250.58,248a8.74,8.74,0,0,1-1.14-.08l-95-13.54h0a6.45,6.45,0,0,1-4.57-2.81,6.59,6.59,0,0,1-.81-5.4L196.23,48.38a9.08,9.08,0,0,1,9.14-6.5l96.87,7.81a6.69,6.69,0,0,1,5,2.72,6.33,6.33,0,0,1,.86,5.4L259,241.71A8.83,8.83,0,0,1,250.58,248ZM204.75,42.86a8.08,8.08,0,0,0-7.56,5.77L150.05,226.42a5.63,5.63,0,0,0,.68,4.59,5.48,5.48,0,0,0,3.87,2.37h0l95,13.54a7.78,7.78,0,0,0,8.44-5.47L307.18,57.56a5.37,5.37,0,0,0-.72-4.57,5.67,5.67,0,0,0-4.3-2.3l-96.87-7.81Z" fill="#231f20"></path><polygon points="298.28 69.78 199.11 61.19 161.06 204.65 258.77 217.64 298.28 69.78" fill="#e6e7e8"></polygon><path d="M193.79,232.81l18.53,2.61a5,5,0,0,0,5.41-3.56l1.84-6.91a3.72,3.72,0,0,0-3.19-4.75l-18.57-2.52a5,5,0,0,0-5.34,3.56l-1.82,6.85A3.69,3.69,0,0,0,193.79,232.81Z" fill="#fff"></path><path d="M213,236a4.2,4.2,0,0,1-.7-.05l-18.53-2.6h0a4.2,4.2,0,0,1-3.56-5.35l1.83-6.85a5.49,5.49,0,0,1,5.89-3.92l18.57,2.51a4.3,4.3,0,0,1,3.07,1.87,4.26,4.26,0,0,1,.54,3.51L218.21,232A5.53,5.53,0,0,1,213,236Zm-19.09-3.64,18.53,2.6a4.49,4.49,0,0,0,4.86-3.19l1.84-6.91a3.26,3.26,0,0,0-.4-2.7,3.36,3.36,0,0,0-2.38-1.43l-18.56-2.51a4.47,4.47,0,0,0-4.8,3.18l-1.82,6.86a3.21,3.21,0,0,0,2.73,4.1Z" fill="#e6e7e8"></path><path d="M268.94,57.45h0l-28.33-2.37a.5.5,0,0,1-.46-.54.49.49,0,0,1,.54-.45L269,56.45a.5.5,0,0,1,0,1Z" fill="#e6e7e8"></path><path d="M236.68,54.75h-.05l-3.75-.31a.5.5,0,0,1-.46-.54.5.5,0,0,1,.54-.46l3.76.32a.5.5,0,0,1,0,1Z" fill="#e6e7e8"></path><path d="M262.81,139a.52.52,0,0,1-.42-.22L217.52,73.22a.5.5,0,0,1,.83-.56l44.87,65.51a.5.5,0,0,1-.13.69A.51.51,0,0,1,262.81,139Z" fill="#fff"></path><path d="M226.36,194.37a.51.51,0,0,1-.41-.21l-27-38.8a.5.5,0,1,1,.82-.57l27,38.79a.5.5,0,0,1-.12.7A.52.52,0,0,1,226.36,194.37Z" fill="#fff"></path><path d="M233.76,157.62a.52.52,0,0,1-.42-.22l-10.55-15.69a.51.51,0,0,1,.14-.7.5.5,0,0,1,.69.14l10.55,15.69a.49.49,0,0,1-.13.69A.51.51,0,0,1,233.76,157.62Z" fill="#fff"></path><path d="M231.31,181.69c.85-2.49,1.68-5,2.56-7.45.45-1.29,1-2.55,1.49-3.81A3.66,3.66,0,0,1,239.3,168c2,.23,4,.65,6,1a18.92,18.92,0,0,0,3.24.42,3.61,3.61,0,0,0,2.23-.72c2.3-2.2,4.51-4.49,6.69-6.81a3.46,3.46,0,0,0,.68-3.18c-.51-2.43-1.1-4.84-1.59-7.27a9.74,9.74,0,0,1-.27-2.88,2.68,2.68,0,0,1,.94-1.84,44,44,0,0,1,12-5.48,3,3,0,0,1,3.43,1.24c1.53,2.1,3.15,4.15,4.62,6.31a4.85,4.85,0,0,0,4.73,2.38c2.66-.19,5.33-.24,8-.36a3,3,0,0,0,2.4-1.45c.95-1.4,1.85-2.85,2.78-4.26.8-1.22,1.58-2.44,2.43-3.62a3.05,3.05,0,0,1,3.67-1.27c3.69,1.27,7.37,2.58,11,4a3.23,3.23,0,0,1,2,3.56c-.2,2-.66,4.06-1,6.09-.15,1-.3,1.92-.37,2.89a3.93,3.93,0,0,0,1.23,3.37c1.93,1.84,3.9,3.64,5.77,5.54a4.33,4.33,0,0,0,4.32,1.23c2.64-.57,5.25-1.21,7.89-1.78a3.51,3.51,0,0,1,4.41,2.1q2.25,4.71,4.34,9.5c1,2.32.65,3.66-1.36,5.25-1.35,1.07-2.81,2-4.2,3-1,.74-2,1.52-2.91,2.33a3.39,3.39,0,0,0-1.23,2.73c.07,2.75.11,5.51.24,8.27a4.32,4.32,0,0,0,2.21,3.66c1.5.9,3,1.77,4.53,2.69a29.13,29.13,0,0,1,2.71,1.82,3.25,3.25,0,0,1,1.22,4q-1.82,5-3.71,9.94a7.47,7.47,0,0,1-.82,1.42,2.93,2.93,0,0,1-3.09,1.45L327.31,222l-.54-.09a5.14,5.14,0,0,0-5.48,1.92c-1.35,1.59-2.87,3-4.32,4.55a5.17,5.17,0,0,0-1.34,5.19c.59,2.32,1.16,4.64,1.64,7s0,3.54-2.25,4.64q-4.86,2.33-9.85,4.43a3.29,3.29,0,0,1-4.36-1.14c-1.28-1.62-2.45-3.32-3.65-5-2.57-3.61-3.21-3.94-7.64-3.71l-5.17.29a4.77,4.77,0,0,0-4.06,2.37c-1.05,1.74-2.06,3.51-3.16,5.21a16.82,16.82,0,0,1-2,2.47,2.42,2.42,0,0,1-2.73.7c-3.49-1.3-7-2.58-10.45-3.9a7.15,7.15,0,0,1-1.34-.77,2.93,2.93,0,0,1-1.47-3.09c.38-2.36.78-4.72,1.15-7.08.11-.72.18-1.45.22-2.17a3.76,3.76,0,0,0-1.2-3.2c-1.9-1.74-3.78-3.51-5.65-5.27a4.17,4.17,0,0,0-4.12-1c-2.32.57-4.66,1.08-7,1.62a2.44,2.44,0,0,1-.26.06c-3.05.56-4,.16-5.36-2.64-1.47-3.12-2.81-6.3-4.11-9.5-.79-2-.45-3.07,1.26-4.36s3.75-2.79,5.71-4a5.62,5.62,0,0,0,2.8-5.5c-.17-2.48-.24-5-.37-7.45a3.08,3.08,0,0,0-1.45-2.59c-2.06-1.33-4.15-2.62-6.2-3.95-1.35-.88-2.72-1.75-3.27-3.4Zm79,13.86A23.57,23.57,0,0,0,286.55,172c-10.87,0-23.22,9.49-23.21,23.62A23.58,23.58,0,0,0,286.71,219C301.85,219.07,310.94,206,310.3,195.55Z" fill="#68e1fd"></path><path d="M273.29,251.52a3.1,3.1,0,0,1-1.06-.2l-2.88-1.07-7.57-2.83a7.2,7.2,0,0,1-1.25-.7l-.18-.12a3.44,3.44,0,0,1-1.69-3.59l.51-3.15c.22-1.31.43-2.62.64-3.93.1-.62.16-1.3.21-2.12a3.26,3.26,0,0,0-1-2.8c-1.68-1.54-3.35-3.1-5-4.66l-.65-.61a3.64,3.64,0,0,0-3.65-.89c-1.63.4-3.26.77-4.9,1.14l-2.1.48-.29.07c-3.34.61-4.5,0-5.9-2.93-1.27-2.69-2.54-5.63-4.11-9.52-.88-2.16-.49-3.5,1.42-5,2.16-1.65,4-2.94,5.74-4.07a5.13,5.13,0,0,0,2.57-5c-.11-1.54-.17-3.09-.24-4.64,0-.94-.08-1.88-.13-2.81a2.58,2.58,0,0,0-1.22-2.2c-.85-.55-1.71-1.09-2.57-1.63l-3.64-2.32c-1.43-.93-2.86-1.86-3.46-3.67a.4.4,0,0,1,0-.15v-.91a.41.41,0,0,1,0-.16l.74-2.17c.59-1.76,1.19-3.53,1.82-5.29.47-1.33,1-2.63,1.5-3.83a4.17,4.17,0,0,1,4.45-2.72c1.35.15,2.69.39,4,.62l2,.35.8.14a12.32,12.32,0,0,0,2.35.28,3.18,3.18,0,0,0,1.9-.59c2.45-2.33,4.74-4.74,6.66-6.78a2.9,2.9,0,0,0,.56-2.74c-.22-1.07-.47-2.15-.71-3.22-.3-1.35-.61-2.7-.88-4.05a10.31,10.31,0,0,1-.28-3,3.18,3.18,0,0,1,1.18-2.22,44.09,44.09,0,0,1,12.15-5.53,3.47,3.47,0,0,1,4,1.42q.82,1.13,1.65,2.22c1,1.33,2,2.71,3,4.1a4.4,4.4,0,0,0,4.29,2.18c1.72-.13,3.48-.2,5.18-.26l2.81-.11a2.51,2.51,0,0,0,2-1.23c.56-.83,1.1-1.67,1.64-2.51l1.13-1.75.4-.62c.66-1,1.33-2,2.05-3a3.56,3.56,0,0,1,4.24-1.44c4.44,1.53,7.84,2.76,11,4a3.69,3.69,0,0,1,2.3,4.07c-.13,1.37-.38,2.74-.63,4.07-.12.68-.25,1.37-.36,2.05-.14.9-.29,1.87-.37,2.85a3.47,3.47,0,0,0,1.08,3l1.36,1.28c1.47,1.38,3,2.81,4.43,4.27a3.83,3.83,0,0,0,3.86,1.09c1.28-.28,2.56-.57,3.83-.87s2.7-.62,4-.91a4,4,0,0,1,5,2.37c1.5,3.14,3,6.34,4.35,9.52,1.09,2.52.69,4.11-1.51,5.84-.8.64-1.66,1.24-2.49,1.82-.57.4-1.15.8-1.72,1.22-1.05.79-2,1.54-2.88,2.3a2.91,2.91,0,0,0-1.06,2.35l0,1.71c0,2.15.1,4.37.2,6.54a3.82,3.82,0,0,0,2,3.26l1.92,1.13c.87.51,1.75,1,2.62,1.56a30.94,30.94,0,0,1,2.76,1.85,3.76,3.76,0,0,1,1.38,4.52c-1.13,3.12-2.35,6.37-3.72,10a6.72,6.72,0,0,1-.78,1.39L338,222a3.44,3.44,0,0,1-3.59,1.67c-1.63-.26-3.26-.54-4.89-.81l-2.46-.41-.39-.06a4.66,4.66,0,0,0-5,1.75c-.95,1.13-2,2.2-3,3.23-.44.45-.88.89-1.31,1.34a4.7,4.7,0,0,0-1.21,4.73c.56,2.22,1.15,4.61,1.64,7,.56,2.74-.06,4-2.52,5.19-3,1.42-6.19,2.87-9.87,4.44a3.79,3.79,0,0,1-4.95-1.29c-1.06-1.34-2.05-2.74-3-4.11l-.64-.9c-2.48-3.49-3-3.72-7.21-3.5l-2.94.16-2.24.13a4.25,4.25,0,0,0-3.65,2.13c-.35.58-.7,1.16-1,1.74-.68,1.15-1.39,2.34-2.13,3.48a16.31,16.31,0,0,1-2.05,2.54A3,3,0,0,1,273.29,251.52ZM250.83,223.7A4.51,4.51,0,0,1,254,225l.65.61c1.66,1.55,3.32,3.11,5,4.65a4.26,4.26,0,0,1,1.36,3.6c0,.85-.12,1.56-.22,2.21-.21,1.32-.43,2.63-.64,3.94-.17,1-.35,2.1-.51,3.15a2.42,2.42,0,0,0,1.25,2.59l.18.12a5.39,5.39,0,0,0,1.05.6c2.52,1,5.05,1.89,7.57,2.83l2.88,1.07a1.94,1.94,0,0,0,2.2-.58,15.93,15.93,0,0,0,1.93-2.39c.73-1.13,1.43-2.31,2.1-3.45l1.05-1.75a5.26,5.26,0,0,1,4.46-2.61l2.23-.12,2.95-.17c4.58-.23,5.4.17,8.07,3.92l.65.91c.95,1.35,1.94,2.74,3,4.05a2.81,2.81,0,0,0,3.78,1c3.66-1.56,6.88-3,9.82-4.43,2-1,2.44-1.81,2-4.08s-1.07-4.76-1.63-7a5.69,5.69,0,0,1,1.46-5.66c.43-.45.88-.9,1.32-1.35,1-1,2.05-2.07,3-3.17a5.64,5.64,0,0,1,6-2.09,1.57,1.57,0,0,0,.3.05l.21,0,2.29.38,4.88.82a2.46,2.46,0,0,0,2.6-1.24l.08-.13a6,6,0,0,0,.68-1.18c1.36-3.58,2.58-6.83,3.71-9.94a2.76,2.76,0,0,0-1.06-3.39,28.86,28.86,0,0,0-2.66-1.79c-.86-.53-1.74-1-2.61-1.55l-1.92-1.13a4.83,4.83,0,0,1-2.45-4.07c-.1-2.19-.15-4.42-.2-6.57l0-1.71a3.92,3.92,0,0,1,1.4-3.12c.91-.78,1.87-1.55,2.94-2.35l1.75-1.24c.82-.57,1.66-1.16,2.44-1.78,1.85-1.46,2.13-2.55,1.21-4.66-1.38-3.17-2.84-6.36-4.33-9.49a3,3,0,0,0-3.86-1.83l-4,.92c-1.28.29-2.56.59-3.85.87a4.81,4.81,0,0,1-4.78-1.37c-1.43-1.45-2.94-2.86-4.4-4.24l-1.37-1.28a4.45,4.45,0,0,1-1.38-3.78c.08-1,.23-2,.38-2.93q.17-1,.36-2.07c.24-1.31.49-2.66.62-4a2.78,2.78,0,0,0-1.67-3c-3.17-1.22-6.56-2.44-11-4a2.57,2.57,0,0,0-3.1,1.09c-.7,1-1.37,2-2,3l-.41.62-1.12,1.74c-.54.85-1.09,1.7-1.65,2.53a3.53,3.53,0,0,1-2.8,1.67l-2.82.11c-1.69.06-3.44.13-5.15.25a5.35,5.35,0,0,1-5.19-2.6c-.94-1.38-2-2.75-2.95-4.07-.55-.74-1.11-1.48-1.65-2.23a2.5,2.5,0,0,0-2.9-1,43.22,43.22,0,0,0-11.88,5.42,2.23,2.23,0,0,0-.71,1.47,9.18,9.18,0,0,0,.26,2.73c.27,1.34.57,2.69.88,4,.24,1.08.48,2.16.71,3.24a3.9,3.9,0,0,1-.81,3.62c-1.93,2.06-4.24,4.48-6.7,6.83a4.09,4.09,0,0,1-2.57.86,13.55,13.55,0,0,1-2.55-.29l-.78-.14c-.68-.11-1.37-.23-2.05-.36-1.29-.23-2.62-.46-3.93-.61a3.15,3.15,0,0,0-3.42,2.11c-.5,1.19-1,2.47-1.48,3.78-.62,1.76-1.22,3.52-1.82,5.28l-.71,2.09v.74c.51,1.43,1.72,2.21,3,3s2.45,1.57,3.67,2.34l2.57,1.64a3.57,3.57,0,0,1,1.68,3c.05,1,.09,1.89.13,2.83.07,1.54.13,3.08.24,4.61a6.12,6.12,0,0,1-3,6c-1.73,1.12-3.54,2.4-5.68,4-1.54,1.17-1.8,2.06-1.1,3.78,1.57,3.88,2.84,6.8,4.1,9.48s1.92,2.89,4.82,2.36l2.34-.54c1.63-.37,3.26-.73,4.88-1.13A5.85,5.85,0,0,1,250.83,223.7Zm35.93-4.16h-.05a24.05,24.05,0,0,1-.25-48.09h.09a24,24,0,0,1,24.25,24.08A22.77,22.77,0,0,1,304.36,212,23.91,23.91,0,0,1,286.76,219.54Zm-.3-47.09a23.14,23.14,0,0,0-15.83,6.91,22.75,22.75,0,0,0-6.79,16.21,23,23,0,0,0,22.87,23h.05a23,23,0,0,0,16.87-7.2c4.2-4.46,6.5-10.35,6.17-15.76v0a23,23,0,0,0-23.25-23.1Z" fill="#231f20"></path><path d="M252.94,103.29c.42-1.24.83-2.48,1.27-3.72.23-.64.48-1.27.75-1.9a1.83,1.83,0,0,1,2-1.21c1,.11,2,.32,3,.49a9.86,9.86,0,0,0,1.61.21,1.85,1.85,0,0,0,1.12-.36c1.15-1.1,2.25-2.25,3.34-3.41a1.68,1.68,0,0,0,.34-1.59c-.25-1.21-.55-2.42-.79-3.63a5,5,0,0,1-.14-1.44,1.42,1.42,0,0,1,.47-.92,22.23,22.23,0,0,1,6-2.74,1.51,1.51,0,0,1,1.72.62c.76,1,1.57,2.08,2.3,3.15a2.44,2.44,0,0,0,2.37,1.2c1.33-.1,2.66-.12,4-.19a1.49,1.49,0,0,0,1.2-.72c.48-.7.92-1.42,1.39-2.13s.79-1.22,1.22-1.81a1.51,1.51,0,0,1,1.83-.63c1.84.63,3.68,1.29,5.5,2a1.62,1.62,0,0,1,1,1.78c-.1,1-.33,2-.5,3.05-.07.47-.15,1-.18,1.44a2,2,0,0,0,.61,1.69c1,.91,2,1.81,2.89,2.76a2.15,2.15,0,0,0,2.16.62c1.31-.29,2.62-.61,3.94-.89a1.74,1.74,0,0,1,2.2,1.05c.75,1.57,1.48,3.15,2.17,4.74a1.87,1.87,0,0,1-.68,2.63c-.67.54-1.4,1-2.1,1.52-.49.37-1,.75-1.45,1.16a1.65,1.65,0,0,0-.61,1.36c0,1.38.05,2.76.11,4.14a2.2,2.2,0,0,0,1.11,1.83c.75.45,1.51.88,2.26,1.34a14,14,0,0,1,1.36.91,1.63,1.63,0,0,1,.61,2q-.92,2.49-1.86,5a3.63,3.63,0,0,1-.41.71,1.46,1.46,0,0,1-1.54.73l-3.58-.6-.27,0a2.56,2.56,0,0,0-2.74,1c-.68.79-1.44,1.51-2.16,2.27a2.57,2.57,0,0,0-.67,2.59c.29,1.16.58,2.33.82,3.5a1.71,1.71,0,0,1-1.13,2.31q-2.43,1.17-4.92,2.22a1.64,1.64,0,0,1-2.18-.57c-.64-.81-1.23-1.66-1.82-2.49-1.29-1.81-1.61-2-3.82-1.86l-2.59.15a2.38,2.38,0,0,0-2,1.18c-.52.87-1,1.75-1.57,2.61a8.4,8.4,0,0,1-1,1.23,1.21,1.21,0,0,1-1.37.35l-5.22-2a3.72,3.72,0,0,1-.67-.38,1.48,1.48,0,0,1-.73-1.55c.19-1.18.39-2.36.57-3.54a9.88,9.88,0,0,0,.11-1.08,1.87,1.87,0,0,0-.6-1.6c-.95-.87-1.88-1.75-2.82-2.63a2.09,2.09,0,0,0-2.06-.51c-1.16.29-2.33.54-3.49.81l-.14,0c-1.52.28-2,.08-2.67-1.32-.74-1.56-1.41-3.15-2.06-4.75a1.58,1.58,0,0,1,.63-2.18c.93-.7,1.88-1.39,2.86-2a2.79,2.79,0,0,0,1.39-2.75c-.08-1.24-.11-2.48-.18-3.72a1.53,1.53,0,0,0-.72-1.3c-1-.66-2.08-1.31-3.1-2a3.41,3.41,0,0,1-1.63-1.7Zm39.47,6.93a11.76,11.76,0,0,0-11.87-11.79,12,12,0,0,0-11.6,11.8A11.79,11.79,0,0,0,280.62,122,11.64,11.64,0,0,0,292.41,110.22Z" fill="#68e1fd"></path><path d="M273.92,138.45a1.75,1.75,0,0,1-.62-.12l-1.37-.51-3.86-1.44a3.56,3.56,0,0,1-.67-.38l-.09-.06a2,2,0,0,1-1-2l.26-1.55c.11-.67.22-1.33.32-2,.05-.35.08-.69.1-1a1.37,1.37,0,0,0-.43-1.2l-2.53-2.35-.3-.29a1.6,1.6,0,0,0-1.6-.38c-.81.2-1.63.38-2.44.57l-1.21.27c-1.79.33-2.48,0-3.23-1.6s-1.53-3.45-2.06-4.77a2.06,2.06,0,0,1,.79-2.77c1.09-.82,2-1.47,2.89-2a2.3,2.3,0,0,0,1.17-2.3c-.06-.77-.09-1.54-.12-2.31,0-.47,0-1-.07-1.42a1.06,1.06,0,0,0-.49-.9l-1.29-.81-1.82-1.16a3.94,3.94,0,0,1-1.83-2,.47.47,0,0,1,0-.16v-.46a.44.44,0,0,1,0-.16l.37-1.08c.3-.88.6-1.77.91-2.65.23-.65.49-1.29.76-1.92A2.33,2.33,0,0,1,257,96c.68.08,1.36.2,2,.32l1,.17.4.07a6.59,6.59,0,0,0,1.12.14,1.32,1.32,0,0,0,.79-.23c1.21-1.16,2.36-2.36,3.32-3.38a1.22,1.22,0,0,0,.22-1.14l-.36-1.61c-.15-.68-.31-1.35-.44-2a5.13,5.13,0,0,1-.14-1.59,1.79,1.79,0,0,1,.7-1.29,22.33,22.33,0,0,1,6.14-2.8,2,2,0,0,1,2.25.81l.83,1.11c.5.68,1,1.35,1.49,2a1.93,1.93,0,0,0,1.91,1c.87-.06,1.74-.1,2.6-.13l1.41,0a1,1,0,0,0,.81-.51c.28-.41.55-.83.81-1.25l.57-.87.2-.31c.34-.51.67-1,1-1.52a2,2,0,0,1,2.4-.81c2.18.75,3.93,1.38,5.52,2a2.1,2.1,0,0,1,1.31,2.29c-.06.7-.19,1.39-.31,2-.07.34-.13.68-.18,1s-.15.93-.19,1.4a1.5,1.5,0,0,0,.46,1.28l.67.63c.76.71,1.51,1.42,2.23,2.15a1.69,1.69,0,0,0,1.7.48l1.93-.44c.67-.15,1.34-.31,2-.45A2.24,2.24,0,0,1,306,95.82c.76,1.57,1.49,3.18,2.18,4.76a2.35,2.35,0,0,1-.83,3.22c-.4.32-.82.62-1.25.92s-.58.4-.86.61c-.51.38-1,.76-1.42,1.14a1.19,1.19,0,0,0-.44,1l0,.86c0,1.09,0,2.18.09,3.26a1.69,1.69,0,0,0,.86,1.43l1,.56,1.31.78a14.91,14.91,0,0,1,1.4.94,2.13,2.13,0,0,1,.78,2.55q-.91,2.49-1.86,5a4.08,4.08,0,0,1-.42.75,2,2,0,0,1-2.08,1l-3.59-.6-.3,0a2.07,2.07,0,0,0-2.24.8c-.49.57-1,1.11-1.53,1.62-.22.23-.44.45-.65.68a2.07,2.07,0,0,0-.55,2.12c.29,1.12.58,2.31.83,3.52a2.2,2.2,0,0,1-1.4,2.87c-1.48.71-3.1,1.44-4.94,2.22a2.13,2.13,0,0,1-2.77-.72c-.53-.67-1-1.38-1.52-2.06l-.32-.45c-1.19-1.68-1.35-1.75-3.39-1.65l-1.44.08-1.14.07a1.9,1.9,0,0,0-1.63.94c-.18.29-.35.59-.52.88-.35.58-.7,1.17-1.06,1.74a9.23,9.23,0,0,1-1.06,1.31A1.78,1.78,0,0,1,273.92,138.45ZM262.68,124a2.5,2.5,0,0,1,1.77.72l.3.29c.84.78,1.67,1.57,2.52,2.34a2.38,2.38,0,0,1,.76,2,10.54,10.54,0,0,1-.11,1.13l-.33,2-.25,1.54a1,1,0,0,0,.52,1.05l.09.06a2.38,2.38,0,0,0,.48.27c1.28.49,2.56,1,3.85,1.44l1.37.51a.69.69,0,0,0,.83-.23,7.85,7.85,0,0,0,.94-1.16c.36-.55.7-1.13,1-1.7.17-.3.35-.59.53-.89a2.86,2.86,0,0,1,2.42-1.42l1.14-.06,1.45-.09c2.39-.12,2.86.11,4.25,2.07l.33.45c.47.67,1,1.37,1.48,2a1.14,1.14,0,0,0,1.59.42c1.84-.78,3.44-1.5,4.91-2.21.91-.44,1.05-.73.85-1.76-.24-1.19-.54-2.37-.82-3.47a3.12,3.12,0,0,1,.79-3.07l.67-.68c.5-.5,1-1,1.48-1.57a3.08,3.08,0,0,1,3.23-1.12l.12,0,3.7.61a1,1,0,0,0,1.05-.51,3.44,3.44,0,0,0,.35-.6q.94-2.47,1.86-5a1.14,1.14,0,0,0-.45-1.41c-.43-.33-.9-.62-1.31-.88l-1.29-.77c-.33-.18-.65-.37-1-.57a2.65,2.65,0,0,1-1.35-2.23c-.05-1.1-.07-2.19-.09-3.29l0-.86a2.16,2.16,0,0,1,.78-1.75c.46-.39,1-.79,1.49-1.19.29-.21.58-.42.88-.62s.81-.57,1.2-.88a1.4,1.4,0,0,0,.53-2c-.68-1.57-1.41-3.17-2.16-4.73a1.27,1.27,0,0,0-1.65-.77c-.67.14-1.33.29-2,.45l-1.94.44a2.69,2.69,0,0,1-2.62-.75c-.71-.73-1.46-1.43-2.2-2.13l-.67-.63a2.46,2.46,0,0,1-.77-2.09c0-.5.11-1,.19-1.48l.18-1.05c.12-.64.24-1.31.31-2a1.14,1.14,0,0,0-.68-1.26c-1.57-.6-3.32-1.23-5.48-2a1,1,0,0,0-1.27.45c-.35.49-.67,1-1,1.49l-.2.31c-.19.28-.38.57-.56.86l-.83,1.27a2,2,0,0,1-1.6.94c-.47,0-.94,0-1.41.06-.85,0-1.71.06-2.56.13a3,3,0,0,1-2.82-1.41c-.47-.69-1-1.36-1.47-2L273.2,84a1,1,0,0,0-1.18-.42,21.06,21.06,0,0,0-5.87,2.67.94.94,0,0,0-.24.55,4.29,4.29,0,0,0,.13,1.29c.13.67.28,1.34.44,2s.24,1.08.35,1.62a2.18,2.18,0,0,1-.46,2c-1,1-2.13,2.24-3.37,3.42a2.36,2.36,0,0,1-1.45.5,8.21,8.21,0,0,1-1.32-.15l-.38-.07-1-.18c-.63-.11-1.29-.23-1.94-.3a1.32,1.32,0,0,0-1.45.9c-.26.62-.51,1.24-.74,1.88-.31.87-.61,1.75-.9,2.63l-.34,1v.28a3,3,0,0,0,1.38,1.36l1.83,1.16,1.29.82a2.07,2.07,0,0,1,.95,1.69c0,.48.05,1,.07,1.42,0,.77.06,1.53.11,2.3a3.26,3.26,0,0,1-1.62,3.2c-.86.55-1.76,1.19-2.82,2-.69.52-.78.83-.47,1.6.53,1.3,1.23,3,2,4.72.54,1.16.8,1.28,2.13,1l.23.46-.12-.49,1.07-.24c.81-.18,1.62-.36,2.42-.56A2.87,2.87,0,0,1,262.68,124Zm18-1.58h0a12.27,12.27,0,1,1,12.29-12.25,11.63,11.63,0,0,1-3.28,8.42A12.21,12.21,0,0,1,280.65,122.46Zm-.15-23.53a11.31,11.31,0,0,0-7.74,3.38,11.13,11.13,0,0,0-3.32,7.92,11.28,11.28,0,0,0,19.46,7.71,10.58,10.58,0,0,0,3-7.69v0a11.24,11.24,0,0,0-11.37-11.29Z" fill="#231f20"></path><path d="M198.5,65.08a19.72,19.72,0,0,0-16.61.6c-8.72,4.45-6.56,14.15-9.88,16.08s-66.22,26.53-72.47,28.33-12.27,0-19.43-2.45-11.58.11-16.76,4.51-7.24,14-4.43,14.83,14.41-9.32,16.07-9.15c0,0,5.52,1.79,7.21,4.85s2.3,10.79,2.3,10.79-12.75,8.36-12.77,8.85,3.7,4.42,11.48,2.33,10.89-7,14.59-13.73,16.92-10.69,26.83-14.36,47.68-18.11,51.11-19.1,7.18.83,12.12,2.31a15.94,15.94,0,0,0,16.4-4.09c5.27-5.23,5.51-11.11,4.43-14.83,0,0-8.64,5.83-12.33,7s-5.68-.67-7.82-3.61-2.68-7.61-1.11-10,11.65-6.59,11.62-7.23A8.33,8.33,0,0,0,198.5,65.08Z" fill="#231f20"></path><path d="M78.87,145.76a10.4,10.4,0,0,1-6.58-2c-.41-.32-1.08-.94-1.06-1.42,0-.32,0-.74,12.75-9.09-.13-1.43-.78-7.69-2.22-10.29s-6.22-4.38-6.86-4.6c-.63.08-3.26,1.93-5.37,3.43-5.19,3.66-9,6.21-10.75,5.71a2.24,2.24,0,0,1-1.49-1.92c-.74-3.4,1.65-10.31,5.73-13.77,5.73-4.86,10.17-7,17.25-4.61,7.4,2.53,13.11,4.19,19.13,2.45s69-26.36,72.36-28.29c1.08-.62,1.52-2.34,2.07-4.52.94-3.67,2.22-8.7,7.83-11.57a20.1,20.1,0,0,1,17.06-.6.47.47,0,0,1,.24.26,8.09,8.09,0,0,1,.59,2.11c0,.53-.45.81-3.76,2.52-2.81,1.45-7.06,3.65-7.94,5-1.44,2.18-.91,6.67,1.1,9.43,2.19,3,4,4.46,7.26,3.42,3.58-1.13,12.12-6.88,12.2-6.94a.48.48,0,0,1,.45-.05.47.47,0,0,1,.31.33c.57,2,1.92,8.89-4.55,15.32a16.47,16.47,0,0,1-16.9,4.22c-1.07-.32-2.08-.66-3-1-3.5-1.15-6.26-2.07-8.8-1.33-2.24.64-19.65,7.23-33.65,12.53-7.53,2.85-14,5.31-17.42,6.56l-3.85,1.4c-9.17,3.29-19.56,7-22.72,12.73-3.9,7.08-7,11.87-14.9,14A17.29,17.29,0,0,1,78.87,145.76Zm-6.54-3.36c.7.86,4.12,3.54,10.75,1.77,7.47-2,10.5-6.64,14.29-13.49,3.33-6,13.92-9.84,23.25-13.2,1.32-.47,2.6-.93,3.84-1.39,3.38-1.25,9.89-3.71,17.42-6.56C156.62,104,173.33,97.63,175.6,97c2.84-.82,5.88.18,9.39,1.34,1,.32,2,.65,3,1a15.51,15.51,0,0,0,15.91-4c5.49-5.45,5-11.24,4.47-13.66-2,1.34-8.67,5.65-11.87,6.67-4.21,1.33-6.44-1.14-8.37-3.79-2.26-3.1-2.79-8-1.13-10.57,1-1.57,5.07-3.66,8.32-5.34,1.32-.68,2.79-1.44,3.21-1.76a8.73,8.73,0,0,0-.43-1.42,19.48,19.48,0,0,0-16,.67c-5.21,2.66-6.38,7.25-7.32,10.93-.59,2.31-1.1,4.3-2.53,5.14-3.34,1.93-66.43,26.61-72.6,28.39s-12.15.12-19.72-2.47c-6.63-2.27-10.84-.2-16.28,4.42-4,3.41-6,10-5.41,12.8.1.46.32,1,.79,1.17,1.43.41,6.53-3.19,9.9-5.57,3.71-2.62,5.29-3.68,6.09-3.6l.1,0c.24.08,5.73,1.89,7.49,5.09s2.35,10.67,2.37,11a.5.5,0,0,1-.22.46C80.46,136.72,73.6,141.31,72.33,142.4Z" fill="#231f20"></path><polygon points="150.76 215.03 141.54 225.66 147.66 232.08 157.24 222.21 150.76 215.03" fill="#fff"></polygon><path d="M147.67,232.58a.5.5,0,0,1-.37-.16L141.18,226a.49.49,0,0,1,0-.67l9.22-10.63a.55.55,0,0,1,.38-.18.5.5,0,0,1,.37.17l6.48,7.17a.51.51,0,0,1,0,.69L148,232.43A.51.51,0,0,1,147.67,232.58Zm-5.45-6.93,5.45,5.71,8.88-9.16-5.78-6.41Z" fill="#231f20"></path><path d="M138.52,165.68s36.56,19.59,39.94,32-23.39,28.89-23.39,28.89l-7.58-8.91s10-13.43,5.81-17.53-24-12.23-24-12.23S127.37,212,117.2,223c-10.92,11.8-35.89,12.43-35.89,12.43L79.44,222s16.89-4.39,24-12,.16-42.59.16-42.59Z" fill="#231f20"></path><path d="M81.31,236a.49.49,0,0,1-.49-.43L79,222.09a.49.49,0,0,1,.37-.55c.17,0,16.83-4.43,23.78-11.82s.1-41.8,0-42.15a.55.55,0,0,1,.1-.41.52.52,0,0,1,.37-.19l34.89-1.79a.49.49,0,0,1,.27.06c1.5.8,36.78,19.83,40.18,32.28,3.44,12.61-22.5,28.78-23.61,29.46a.5.5,0,0,1-.64-.1L147.11,218a.51.51,0,0,1,0-.63c2.71-3.63,9-13.76,5.86-16.87-3.67-3.58-19.83-10.44-23.22-11.87-.4,4.09-2.83,24.67-12.17,34.77-5.73,6.19-15.29,9.28-22.3,10.79A85,85,0,0,1,81.32,236ZM80,222.39l1.74,12.55c3.4-.16,25.23-1.6,35.09-12.25s11.94-34.61,12-34.85a.47.47,0,0,1,.24-.38.48.48,0,0,1,.45,0c.81.33,19.94,8.22,24.17,12.33s-4,15.72-5.53,17.87l7,8.28c3.17-2,25.84-17,22.81-28.11-3.19-11.69-37.25-30.35-39.57-31.6l-34.19,1.75c.9,4.72,6.39,35.24-.4,42.46C97.23,217.42,82.74,221.64,80,222.39Z" fill="#231f20"></path><path d="M156.76,111.43l2.31-3.74s-.19-5.71.8-6.48,1.29,3.38,1.5,3.33S164,99,165.12,99.82s1.55,3.86,1.24,5-5.76,11.27-5.76,11.27Z" fill="#fff"></path><path d="M160.6,116.59a.51.51,0,0,1-.39-.19l-3.84-4.65a.51.51,0,0,1,0-.58l2.23-3.62c0-1.55-.07-5.9,1-6.74a.84.84,0,0,1,.82-.15c.63.24.9,1.21,1.17,2.57,1.08-2,2.14-3.78,3.11-4a.87.87,0,0,1,.76.18c1.32,1,1.75,4.3,1.41,5.52s-5.24,10.33-5.8,11.37a.49.49,0,0,1-.4.26Zm-3.23-5.2,3.14,3.8c2.16-4,5.16-9.75,5.37-10.51.28-1-.2-3.78-1.07-4.47-.34.07-1.18,1.29-2.46,3.65-.53,1-.6,1.11-.87,1.17a.56.56,0,0,1-.4-.07c-.24-.16-.29-.4-.44-1.2a10,10,0,0,0-.54-2.05c-.39.62-.62,3.22-.53,6a.46.46,0,0,1-.08.28Z" fill="#231f20"></path><path d="M108,108.24a11.74,11.74,0,0,1-6.26,1,4.7,4.7,0,0,1-2.63-1.07,2.23,2.23,0,0,1-.56-2.62,3.34,3.34,0,0,1-2.85-1.07,5.94,5.94,0,0,1-1.38-2.82,4,4,0,0,1,.77-3.84c-1.07-.49-2.25-1.1-2.58-2.23a3.8,3.8,0,0,1,0-1.74,19,19,0,0,1,1-3.32c.23-.58.61-1.22,1.23-1.27A6,6,0,0,1,95.55,83a5,5,0,0,1,2.72-1.79,19.85,19.85,0,0,1,3.49,0,6,6,0,0,1,4.78-2.58,4.15,4.15,0,0,1,3.4,2.5,9.15,9.15,0,0,1,3.9.06,4.42,4.42,0,0,1,3,2.42,3,3,0,0,1-.91,3.52,3.18,3.18,0,0,1,2.82,3.07,3.85,3.85,0,0,1-2.51,3.5,1.35,1.35,0,0,0-.56.31,1.63,1.63,0,0,0-.25.74c-.18.83-.92,1.24-1.24,2a20.25,20.25,0,0,0-.85,3.28,30.55,30.55,0,0,1-1,3.11,17.37,17.37,0,0,1-1.28,3.47c-.59.91-1.32,1-2.26,1.35C108.49,108.05,108.26,108.15,108,108.24Z" fill="#fff"></path><path d="M103.11,109.85a10,10,0,0,1-1.42-.1,5.07,5.07,0,0,1-2.9-1.19,2.91,2.91,0,0,1-.91-2.46,4,4,0,0,1-2.52-1.26,6.36,6.36,0,0,1-1.51-3A4.84,4.84,0,0,1,94.31,98a3.93,3.93,0,0,1-2.26-2.26,4.14,4.14,0,0,1,0-2,19.41,19.41,0,0,1,1-3.41,2.72,2.72,0,0,1,1-1.37,6.52,6.52,0,0,1,1-6.31,5.53,5.53,0,0,1,3-2,20.27,20.27,0,0,1,3.38,0,6.43,6.43,0,0,1,5.07-2.54,4.66,4.66,0,0,1,3.64,2.44,9,9,0,0,1,3.75.13,4.91,4.91,0,0,1,3.27,2.71,3.6,3.6,0,0,1-.37,3.42,3.75,3.75,0,0,1,2.32,3.35,4.33,4.33,0,0,1-2.83,4,1.07,1.07,0,0,0-.36.17.76.76,0,0,0-.1.34l0,.18a3.07,3.07,0,0,1-.79,1.37,3.12,3.12,0,0,0-.49.69A10.19,10.19,0,0,0,114,99c-.08.38-.16.75-.25,1.1a31.52,31.52,0,0,1-1,3.15c-.14.38-.26.77-.37,1.17a8.74,8.74,0,0,1-1,2.4,3.09,3.09,0,0,1-1.86,1.3l-.62.24-.72.31h0A13.44,13.44,0,0,1,103.11,109.85Zm-4.54-4.78a.48.48,0,0,1,.41.22.51.51,0,0,1,0,.53,1.76,1.76,0,0,0,.46,2,4.19,4.19,0,0,0,2.36.93,11.33,11.33,0,0,0,6-1l.7-.29c.24-.11.47-.19.69-.27a2.16,2.16,0,0,0,1.35-.9,8.09,8.09,0,0,0,.84-2.14c.12-.42.24-.84.39-1.24a31.15,31.15,0,0,0,1-3c.08-.33.15-.69.23-1a10.71,10.71,0,0,1,.64-2.32,4,4,0,0,1,.64-.92,2.23,2.23,0,0,0,.58-.93l0-.15a1.71,1.71,0,0,1,.34-.83,1.68,1.68,0,0,1,.69-.41,3.4,3.4,0,0,0,2.25-3.06,2.65,2.65,0,0,0-2.35-2.57.51.51,0,0,1-.25-.92,2.49,2.49,0,0,0,.73-2.91,3.92,3.92,0,0,0-2.62-2.12,8.31,8.31,0,0,0-3.69-.06.49.49,0,0,1-.54-.3,3.64,3.64,0,0,0-3-2.19,5.55,5.55,0,0,0-4.32,2.35h0a.5.5,0,0,1-.63.18,25.66,25.66,0,0,0-3.17,0A4.38,4.38,0,0,0,96,83.3a5.53,5.53,0,0,0-.71,5.76.49.49,0,0,1,0,.47.48.48,0,0,1-.4.25c-.35,0-.62.53-.79,1a17.76,17.76,0,0,0-1,3.24,3.31,3.31,0,0,0,0,1.5c.27.92,1.33,1.47,2.31,1.91a.5.5,0,0,1,.13.83c-1,.94-.78,2.67-.62,3.36a5.34,5.34,0,0,0,1.25,2.58,2.81,2.81,0,0,0,2.41.93Zm9.45,3.17h0Z" fill="#231f20"></path><path d="M116.12,94.69s4.5,3,4.3,4.07-2.32,1.34-2.32,1.34" fill="#fff"></path><path d="M118.1,100.6a.5.5,0,0,1-.06-1c.71-.08,1.8-.43,1.89-.93s-1.93-2.14-4.09-3.56a.5.5,0,0,1,.55-.84c1.79,1.18,4.75,3.34,4.53,4.58-.26,1.43-2.51,1.72-2.76,1.75Z" fill="#231f20"></path><path d="M111.38,86a1.46,1.46,0,0,1,.85.41,9.44,9.44,0,0,1,2.07,2.74,54.61,54.61,0,0,1,2.85,6.16c1.15,2.76,2.24,5.55,3.26,8.35.66,1.79-3.84,3.75-4.86,3.57l3.65,6.59s-1.91,1.52-6.28,1.39-4.76-1-4.76-1l-3.1-8.08s3-1.25,3.24-5.56a12.36,12.36,0,0,1,0-2.27c.21-.79.88-1.22.9-2.14A2.76,2.76,0,0,0,108.06,94c-.15-.12-.33-.25-.31-.44a.52.52,0,0,1,.17-.27,2.33,2.33,0,0,0-.35-3.3c1.14-.49,1.41-2,1.52-3.19,0,.39,1.82-.68,1.85-.69A1.29,1.29,0,0,1,111.38,86Z" fill="#fff"></path><path d="M113.45,115.73h-.54c-4.22-.13-5-.93-5.2-1.27l-3.11-8.11a.49.49,0,0,1,.27-.64c.11,0,2.71-1.21,2.93-5.12a5.15,5.15,0,0,0,0-.84,4.18,4.18,0,0,1,0-1.54,3.51,3.51,0,0,1,.48-1,1.94,1.94,0,0,0,.4-1,2.22,2.22,0,0,0-.89-1.8.86.86,0,0,1-.23-1.43,1.82,1.82,0,0,0-.25-2.57.5.5,0,0,1-.21-.46.52.52,0,0,1,.3-.41c.9-.38,1.13-1.68,1.22-2.77a.51.51,0,0,1,.55-.46l.17,0a9,9,0,0,0,1.31-.63l.16-.08a2,2,0,0,1,.6-.11,1.91,1.91,0,0,1,1.16.52,9.71,9.71,0,0,1,2.19,2.88,48.23,48.23,0,0,1,2.62,5.61l.26.61c1.15,2.75,2.25,5.57,3.27,8.37a1.81,1.81,0,0,1-.47,1.88,8.56,8.56,0,0,1-4.06,2.28l3.28,5.92a.5.5,0,0,1-.12.64C119.43,114.29,117.56,115.73,113.45,115.73ZM108.59,114c.16.11,1,.64,4.35.74a10.88,10.88,0,0,0,5.59-1.07l-3.42-6.17a.51.51,0,0,1,0-.53.53.53,0,0,1,.5-.2,7.24,7.24,0,0,0,4-2,.93.93,0,0,0,.3-.89c-1-2.79-2.12-5.59-3.27-8.34l-.25-.6a47.34,47.34,0,0,0-2.57-5.5,8.76,8.76,0,0,0-1.94-2.6c-.29-.23-.42-.3-.55-.3h0a1.05,1.05,0,0,0-.26,0,8.94,8.94,0,0,1-1.56.75,4.26,4.26,0,0,1-1.17,2.75,2.86,2.86,0,0,1,.56,1.43,2.72,2.72,0,0,1-.6,2.07l0,0a3.25,3.25,0,0,1,1.29,2.61,2.76,2.76,0,0,1-.56,1.55,2.75,2.75,0,0,0-.36.73,3.77,3.77,0,0,0,0,1.16,5.71,5.71,0,0,1,.06,1,6.87,6.87,0,0,1-3.11,5.76Z" fill="#231f20"></path><path d="M119.47,101.66a3.52,3.52,0,0,1-4.55-.48" fill="#fff"></path><path d="M117.52,102.78a4.32,4.32,0,0,1-2.94-1.23.5.5,0,0,1,0-.71.5.5,0,0,1,.71,0,3,3,0,0,0,3.91.45.5.5,0,0,1,.61.8A3.85,3.85,0,0,1,117.52,102.78Z" fill="#231f20"></path><path d="M111.6,98.71A4.09,4.09,0,0,0,110,97.15a5.39,5.39,0,0,0-1.53-.82,2,2,0,0,0-1.67.18,1.85,1.85,0,0,0-.72,1.31,3.55,3.55,0,0,0,.24,1.51,6.43,6.43,0,0,0,5,4.07l-.22-.1" fill="#fff"></path><path d="M111.3,103.9h-.07a7,7,0,0,1-5.36-4.4,3.83,3.83,0,0,1-.26-1.73,2.27,2.27,0,0,1,.92-1.67,2.43,2.43,0,0,1,2.11-.25,6.39,6.39,0,0,1,1.66.88,4.6,4.6,0,0,1,1.76,1.77.5.5,0,0,1-.26.66.49.49,0,0,1-.66-.25,3.65,3.65,0,0,0-1.4-1.35,5.08,5.08,0,0,0-1.39-.75,1.47,1.47,0,0,0-1.25.11,1.33,1.33,0,0,0-.5,1,2.91,2.91,0,0,0,.21,1.29,5.94,5.94,0,0,0,4.13,3.66.5.5,0,0,1,.34,0l.22.1a.5.5,0,0,1-.2,1Z" fill="#231f20"></path><path d="M115.55,107.25a8,8,0,0,1-4.43-.86s1.95,4.12,6,3.8Z" fill="#231f20"></path><path d="M116.71,110.7c-4,0-6-3.93-6-4.1a.52.52,0,0,1,.12-.59.48.48,0,0,1,.6,0,7.5,7.5,0,0,0,4.11.78.54.54,0,0,1,.49.26l1.62,2.93a.51.51,0,0,1,0,.48.49.49,0,0,1-.4.26A4.26,4.26,0,0,1,116.71,110.7Zm-4.27-3.21a5.61,5.61,0,0,0,3.89,2.2l-1.06-1.92A9.44,9.44,0,0,1,112.44,107.49Z" fill="#231f20"></path><ellipse cx="113.14" cy="93.25" rx="0.42" ry="1.07" transform="translate(-25.9 46.72) rotate(-20.99)" fill="#231f20"></ellipse><path d="M122.66,111c-1.26-.79-15.3-3.44-18.74,2.84s-5.41,49.68-2.52,59.26l37.12-7.4S129.64,115.35,122.66,111Z" fill="#68e1fd"></path><path d="M123.68,129.36s9.67,8.16,18.65,5.49,20.29-18.66,20.29-18.66l-6-7.31S150.46,120,143,120.07,122.66,111,122.66,111Z" fill="#68e1fd"></path><path d="M138.74,135.87c-9.1,0-18.75-6.71-19.28-7.08A.5.5,0,0,1,120,128c.16.12,16.45,11.44,26.14,4.76,9.86-6.79,13.18-13,13.21-13.11a.49.49,0,0,1,.67-.22.51.51,0,0,1,.22.68c-.14.26-3.45,6.52-13.53,13.47A13.78,13.78,0,0,1,138.74,135.87Z" fill="#231f20"></path><path d="M139.18,120h-.11c-2-.43-12.68-5.11-15.6-7.54a7.07,7.07,0,0,0-4.9-1.91.5.5,0,0,1-.12-1,8,8,0,0,1,5.66,2.14c2.82,2.34,13.39,7,15.17,7.34a.49.49,0,0,1,.39.59A.5.5,0,0,1,139.18,120Z" fill="#231f20"></path><path d="M145.92,92.11a17,17,0,0,0-.33,2.24,2.29,2.29,0,0,0,0,.69A1.56,1.56,0,0,0,147,96a5,5,0,0,0,2.58-.53c2.17-.87,6.27-3.77,3.27-6.25C150.57,87.41,146.45,89.62,145.92,92.11Z" fill="#fff"></path><path d="M147.36,96.56l-.47,0a2,2,0,0,1-1.75-1.36,2.3,2.3,0,0,1,0-.86,17.69,17.69,0,0,1,.33-2.3h0a5.53,5.53,0,0,1,3.64-3.63,4.1,4.1,0,0,1,4.05.49,2.84,2.84,0,0,1,1.22,2.69c-.31,2-2.93,3.73-4.61,4.41A6.56,6.56,0,0,1,147.36,96.56Zm3.42-7.49a4.38,4.38,0,0,0-1.38.25,4.63,4.63,0,0,0-3,2.89h0a17.9,17.9,0,0,0-.32,2.18,1.76,1.76,0,0,0,0,.52,1.08,1.08,0,0,0,.92.63,4.73,4.73,0,0,0,2.33-.5c1.52-.61,3.76-2.14,4-3.63a1.88,1.88,0,0,0-.86-1.77A2.63,2.63,0,0,0,150.78,89.07Zm-4.86,3h0Z" fill="#231f20"></path><path d="M141.54,225.66s-5.35,4.86-5.07,5.49,11.05,14.15,12.39,12.74-1.19-11.81-1.19-11.81Z" fill="#231f20"></path><path d="M148.6,244.5l-.2,0c-2.58-.44-12.07-12.42-12.38-13.12-.15-.34-.43-1,5.19-6.07a.49.49,0,0,1,.69,0l6.13,6.41a.51.51,0,0,1,.12.23c.61,2.5,2.49,10.79,1.07,12.28A.84.84,0,0,1,148.6,244.5ZM137,231.06c1,1.63,9.83,12.27,11.54,12.44.63-.93-.18-6.43-1.33-11.17l-5.69-6A34.65,34.65,0,0,0,137,231.06Z" fill="#231f20"></path><path d="M72.49,225.83s-6.95.94-7.51,2.34,1.5,17.27,2.91,17,5.35-10.42,5.35-10.42Z" fill="#231f20"></path><path d="M67.85,245.67a.83.83,0,0,1-.64-.35c-1.45-1.73-3.33-15.73-2.69-17.33s6.2-2.43,7.9-2.66a.51.51,0,0,1,.57.46l.75,8.91a.91.91,0,0,1,0,.23c-1.22,3.12-4.21,10.42-5.72,10.72Zm.15-1h0Zm4-18.31c-3.08.46-6.34,1.32-6.6,2-.7,1.89,1.63,14.76,2.47,16.23.87-.73,3.12-5.56,4.82-9.92Z" fill="#231f20"></path></g></svg>