<svg width="285" height="460" viewBox="0 0 285 460" fill="none" xmlns="http://www.w3.org/2000/svg">
<g filter="url(#filter0_d)">
<rect x="4" width="277" height="452" rx="30" fill="white"/>
<rect x="4.5" y="0.5" width="276" height="451" rx="29.5" stroke="#4B7D74"/>
</g>
<path d="M81.0442 140.866C80.2282 141.766 79.1782 142.216 77.8942 142.216C76.6102 142.216 75.5722 141.766 74.7802 140.866C73.9762 139.99 73.5742 138.82 73.5742 137.356C73.5742 135.892 73.9762 134.716 74.7802 133.828C75.5722 132.94 76.6102 132.496 77.8942 132.496C79.1782 132.496 80.2282 132.94 81.0442 133.828C81.8362 134.728 82.2322 135.904 82.2322 137.356C82.2322 138.82 81.8362 139.99 81.0442 140.866ZM75.5182 140.218C76.1062 140.938 76.8982 141.298 77.8942 141.298C78.8902 141.298 79.6882 140.938 80.2882 140.218C80.8762 139.522 81.1702 138.568 81.1702 137.356C81.1702 136.144 80.8762 135.184 80.2882 134.476C79.6882 133.768 78.8902 133.414 77.8942 133.414C76.9102 133.414 76.1182 133.768 75.5182 134.476C74.9302 135.184 74.6362 136.144 74.6362 137.356C74.6362 138.568 74.9302 139.522 75.5182 140.218ZM88.3286 132.496C89.6006 132.496 90.6266 132.94 91.4066 133.828C92.1626 134.716 92.5406 135.892 92.5406 137.356C92.5406 138.82 92.1626 139.996 91.4066 140.884C90.6266 141.772 89.6006 142.216 88.3286 142.216C86.8166 142.216 85.7066 141.574 84.9986 140.29V145.528H83.9726V132.712H84.9446V134.53C85.6526 133.174 86.7806 132.496 88.3286 132.496ZM85.8266 140.236C86.4266 140.944 87.2186 141.298 88.2026 141.298C89.2106 141.298 90.0086 140.932 90.5966 140.2C91.1846 139.492 91.4786 138.526 91.4786 137.302C91.4786 136.102 91.1786 135.154 90.5786 134.458C89.9906 133.762 89.1986 133.414 88.2026 133.414C87.2186 133.414 86.4266 133.768 85.8266 134.476C85.2386 135.172 84.9446 136.132 84.9446 137.356C84.9446 138.58 85.2386 139.54 85.8266 140.236ZM102.211 137.338V137.698H94.9209C94.9689 138.85 95.2689 139.738 95.8209 140.362C96.3849 140.974 97.1529 141.28 98.1249 141.28C98.8689 141.28 99.4869 141.082 99.9789 140.686C100.471 140.278 100.795 139.726 100.951 139.03H102.013C101.797 140.014 101.347 140.794 100.663 141.37C99.9789 141.934 99.1209 142.216 98.0889 142.216C96.7929 142.216 95.7669 141.772 95.0109 140.884C94.2549 139.996 93.8769 138.82 93.8769 137.356C93.8769 135.904 94.2549 134.728 95.0109 133.828C95.7549 132.94 96.7689 132.496 98.0529 132.496C99.3609 132.496 100.381 132.952 101.113 133.864C101.845 134.776 102.211 135.934 102.211 137.338ZM98.0529 133.432C97.1649 133.432 96.4449 133.726 95.8929 134.314C95.3409 134.902 95.0229 135.724 94.9389 136.78H101.113C101.053 135.76 100.753 134.95 100.213 134.35C99.6849 133.738 98.9649 133.432 98.0529 133.432ZM108.009 132.496C109.053 132.496 109.863 132.79 110.439 133.378C111.015 133.966 111.303 134.8 111.303 135.88V142H110.277V135.97C110.277 134.266 109.455 133.414 107.811 133.414C107.055 133.414 106.395 133.702 105.831 134.278C105.279 134.854 104.991 135.694 104.967 136.798V142H103.941V132.712H104.913V134.44C105.213 133.828 105.633 133.354 106.173 133.018C106.713 132.67 107.325 132.496 108.009 132.496ZM116.727 142.216C115.539 142.216 114.615 141.952 113.955 141.424C113.295 140.896 112.935 140.128 112.875 139.12H113.919C114.039 140.596 114.975 141.334 116.727 141.334C118.455 141.334 119.319 140.746 119.319 139.57C119.319 139.09 119.145 138.718 118.797 138.454C118.449 138.19 117.861 137.98 117.033 137.824L116.079 137.662C115.083 137.482 114.345 137.182 113.865 136.762C113.397 136.33 113.163 135.754 113.163 135.034C113.163 134.242 113.457 133.624 114.045 133.18C114.633 132.724 115.449 132.496 116.493 132.496C118.857 132.496 120.081 133.456 120.165 135.376H119.121C119.073 134.692 118.839 134.188 118.419 133.864C117.999 133.54 117.357 133.378 116.493 133.378C115.761 133.378 115.191 133.522 114.783 133.81C114.387 134.098 114.189 134.5 114.189 135.016C114.189 135.496 114.357 135.868 114.693 136.132C115.041 136.396 115.605 136.6 116.385 136.744L117.321 136.906C118.389 137.098 119.157 137.404 119.625 137.824C120.105 138.232 120.345 138.796 120.345 139.516C120.345 140.392 120.021 141.064 119.373 141.532C118.737 141.988 117.855 142.216 116.727 142.216ZM128.927 140.866C128.111 141.766 127.061 142.216 125.777 142.216C124.493 142.216 123.455 141.766 122.663 140.866C121.859 139.99 121.457 138.82 121.457 137.356C121.457 135.892 121.859 134.716 122.663 133.828C123.455 132.94 124.493 132.496 125.777 132.496C127.061 132.496 128.111 132.94 128.927 133.828C129.719 134.728 130.115 135.904 130.115 137.356C130.115 138.82 129.719 139.99 128.927 140.866ZM123.401 140.218C123.989 140.938 124.781 141.298 125.777 141.298C126.773 141.298 127.571 140.938 128.171 140.218C128.759 139.522 129.053 138.568 129.053 137.356C129.053 136.144 128.759 135.184 128.171 134.476C127.571 133.768 126.773 133.414 125.777 133.414C124.793 133.414 124.001 133.768 123.401 134.476C122.813 135.184 122.519 136.144 122.519 137.356C122.519 138.568 122.813 139.522 123.401 140.218ZM137.963 137.914V132.712H138.989V142H138.017V140.272C137.717 140.884 137.297 141.364 136.757 141.712C136.217 142.048 135.605 142.216 134.921 142.216C133.877 142.216 133.067 141.922 132.491 141.334C131.915 140.746 131.627 139.912 131.627 138.832V132.712H132.653V138.742C132.653 140.446 133.475 141.298 135.119 141.298C135.935 141.298 136.607 141.004 137.135 140.416C137.675 139.828 137.951 138.994 137.963 137.914ZM145.33 132.586C145.594 132.586 145.768 132.592 145.852 132.604V133.576H145.42C144.4 133.576 143.602 133.864 143.026 134.44C142.462 135.016 142.18 135.802 142.18 136.798V142H141.154V132.712H142.126V134.656C142.75 133.276 143.818 132.586 145.33 132.586ZM150.366 142.216C149.094 142.216 148.08 141.778 147.324 140.902C146.556 140.026 146.172 138.844 146.172 137.356C146.172 135.868 146.556 134.686 147.324 133.81C148.08 132.934 149.094 132.496 150.366 132.496C151.41 132.496 152.28 132.796 152.976 133.396C153.672 133.996 154.092 134.788 154.236 135.772H153.192C153.048 135.04 152.718 134.464 152.202 134.044C151.698 133.624 151.086 133.414 150.366 133.414C149.418 133.414 148.656 133.762 148.08 134.458C147.516 135.154 147.234 136.12 147.234 137.356C147.234 138.592 147.516 139.558 148.08 140.254C148.656 140.95 149.418 141.298 150.366 141.298C151.098 141.298 151.722 141.076 152.238 140.632C152.766 140.176 153.09 139.57 153.21 138.814H154.254C154.134 139.798 153.714 140.614 152.994 141.262C152.262 141.898 151.386 142.216 150.366 142.216ZM163.734 137.338V137.698H156.444C156.492 138.85 156.792 139.738 157.344 140.362C157.908 140.974 158.676 141.28 159.648 141.28C160.392 141.28 161.01 141.082 161.502 140.686C161.994 140.278 162.318 139.726 162.474 139.03H163.536C163.32 140.014 162.87 140.794 162.186 141.37C161.502 141.934 160.644 142.216 159.612 142.216C158.316 142.216 157.29 141.772 156.534 140.884C155.778 139.996 155.4 138.82 155.4 137.356C155.4 135.904 155.778 134.728 156.534 133.828C157.278 132.94 158.292 132.496 159.576 132.496C160.884 132.496 161.904 132.952 162.636 133.864C163.368 134.776 163.734 135.934 163.734 137.338ZM159.576 133.432C158.688 133.432 157.968 133.726 157.416 134.314C156.864 134.902 156.546 135.724 156.462 136.78H162.636C162.576 135.76 162.276 134.95 161.736 134.35C161.208 133.738 160.488 133.432 159.576 133.432ZM176.84 141.172H177.326V142C177.122 142.036 176.9 142.054 176.66 142.054C176.156 142.054 175.79 141.934 175.562 141.694C175.334 141.442 175.22 141.058 175.22 140.542V140.416C174.596 141.616 173.474 142.216 171.854 142.216C170.858 142.216 170.084 141.982 169.532 141.514C168.992 141.034 168.722 140.38 168.722 139.552C168.722 137.944 169.826 137.008 172.034 136.744L173.474 136.582C174.11 136.498 174.554 136.342 174.806 136.114C175.058 135.886 175.184 135.538 175.184 135.07C175.184 133.942 174.386 133.378 172.79 133.378C171.866 133.378 171.194 133.54 170.774 133.864C170.366 134.188 170.144 134.734 170.108 135.502H169.118C169.178 133.498 170.402 132.496 172.79 132.496C173.918 132.496 174.764 132.724 175.328 133.18C175.892 133.624 176.174 134.254 176.174 135.07V140.506C176.174 140.95 176.396 141.172 176.84 141.172ZM171.908 141.352C172.832 141.352 173.612 141.088 174.248 140.56C174.872 140.044 175.184 139.27 175.184 138.238V136.834C174.884 137.134 174.368 137.326 173.636 137.41L172.196 137.59C171.344 137.698 170.726 137.908 170.342 138.22C169.97 138.52 169.784 138.958 169.784 139.534C169.784 140.098 169.964 140.542 170.324 140.866C170.684 141.19 171.212 141.352 171.908 141.352ZM185.53 134.422V129.184H186.556V142H185.584V140.182C184.876 141.538 183.748 142.216 182.2 142.216C180.916 142.216 179.896 141.772 179.14 140.884C178.372 140.008 177.988 138.832 177.988 137.356C177.988 135.88 178.372 134.704 179.14 133.828C179.896 132.94 180.916 132.496 182.2 132.496C183.712 132.496 184.822 133.138 185.53 134.422ZM179.05 137.41C179.05 138.61 179.344 139.558 179.932 140.254C180.52 140.95 181.312 141.298 182.308 141.298C183.292 141.298 184.084 140.944 184.684 140.236C185.272 139.54 185.566 138.58 185.566 137.356C185.566 136.132 185.272 135.172 184.684 134.476C184.084 133.768 183.292 133.414 182.308 133.414C181.312 133.414 180.52 133.774 179.932 134.494C179.344 135.226 179.05 136.198 179.05 137.41ZM196.334 141.172H196.82V142C196.616 142.036 196.394 142.054 196.154 142.054C195.65 142.054 195.284 141.934 195.056 141.694C194.828 141.442 194.714 141.058 194.714 140.542V140.416C194.09 141.616 192.968 142.216 191.348 142.216C190.352 142.216 189.578 141.982 189.026 141.514C188.486 141.034 188.216 140.38 188.216 139.552C188.216 137.944 189.32 137.008 191.528 136.744L192.968 136.582C193.604 136.498 194.048 136.342 194.3 136.114C194.552 135.886 194.678 135.538 194.678 135.07C194.678 133.942 193.88 133.378 192.284 133.378C191.36 133.378 190.688 133.54 190.268 133.864C189.86 134.188 189.638 134.734 189.602 135.502H188.612C188.672 133.498 189.896 132.496 192.284 132.496C193.412 132.496 194.258 132.724 194.822 133.18C195.386 133.624 195.668 134.254 195.668 135.07V140.506C195.668 140.95 195.89 141.172 196.334 141.172ZM191.402 141.352C192.326 141.352 193.106 141.088 193.742 140.56C194.366 140.044 194.678 139.27 194.678 138.238V136.834C194.378 137.134 193.862 137.326 193.13 137.41L191.69 137.59C190.838 137.698 190.22 137.908 189.836 138.22C189.464 138.52 189.278 138.958 189.278 139.534C189.278 140.098 189.458 140.542 189.818 140.866C190.178 141.19 190.706 141.352 191.402 141.352ZM207.847 132.496C208.867 132.496 209.647 132.796 210.187 133.396C210.739 133.984 211.015 134.806 211.015 135.862V142H210.007V135.97C210.007 134.266 209.245 133.414 207.721 133.414C206.941 133.414 206.299 133.72 205.795 134.332C205.303 134.932 205.051 135.79 205.039 136.906V142H204.013V135.97C204.013 134.266 203.251 133.414 201.727 133.414C200.959 133.414 200.323 133.72 199.819 134.332C199.327 134.932 199.075 135.79 199.063 136.906V142H198.037V132.712H199.009V134.422C199.585 133.138 200.545 132.496 201.889 132.496C203.401 132.496 204.385 133.174 204.841 134.53C205.477 133.174 206.479 132.496 207.847 132.496Z" fill="black"/>
<rect x="78" y="318" width="11" height="88" rx="2" fill="#4B7D74"/>
<rect x="98.7671" y="312" width="11" height="94" rx="2" fill="#4B7D74" fill-opacity="0.8"/>
<rect x="120" y="285" width="11" height="121" rx="3" fill="#4B7D74" fill-opacity="0.6"/>
<path d="M141 306C141 304.343 142.343 303 144 303H149C150.657 303 152 304.343 152 306V403C152 404.657 150.657 406 149 406H144C142.343 406 141 404.657 141 403V306Z" fill="#4B7D74"/>
<rect x="162" y="282" width="10" height="124" rx="3" fill="#4B7D74" fill-opacity="0.4"/>
<rect x="182" y="296" width="11" height="110" rx="3" fill="#4B7D74"/>
<path d="M203 325C203 323.343 204.343 322 206 322H210C211.657 322 213 323.343 213 325V403C213 404.657 211.657 406 210 406H206C204.343 406 203 404.657 203 403V325Z" fill="#4B7D74" fill-opacity="0.6"/>
<path d="M178.856 105.556C186.373 98.897 191.686 90.1081 194.09 80.3573C196.493 70.6065 195.873 60.3552 192.312 50.9652C188.751 41.5752 182.417 33.4908 174.152 27.7859C165.887 22.0811 156.082 19.0257 146.039 19.0257C135.997 19.0258 126.192 22.0811 117.927 27.786C109.662 33.4909 103.328 41.5753 99.7672 50.9653C96.206 60.3554 95.586 70.6067 97.9894 80.3575C100.393 90.1083 105.706 98.8971 113.223 105.557" stroke="url(#paint0_linear)" stroke-width="8"/>
<path d="M184.525 67.2787C184.525 88.6459 167.203 105.967 145.836 105.967C124.469 105.967 107.147 88.6459 107.147 67.2787C107.147 45.9116 124.469 28.5901 145.836 28.5901C167.203 28.5901 184.525 45.9116 184.525 67.2787Z" fill="#F2F2F2"/>
<path d="M184.525 67.2787C184.525 88.6459 167.203 105.967 145.836 105.967C124.469 105.967 107.147 88.6459 107.147 67.2787C107.147 45.9116 124.469 28.5901 145.836 28.5901C167.203 28.5901 184.525 45.9116 184.525 67.2787Z" stroke="#6CA9EA"/>
<path d="M137.448 51.912H140.016V69H136.776V57.48H132.84V55.2L133.224 55.176C134.472 55.096 135.424 54.816 136.08 54.336C136.752 53.84 137.208 53.032 137.448 51.912ZM152.675 59.88C153.571 60.264 154.275 60.824 154.786 61.56C155.315 62.28 155.579 63.128 155.579 64.104C155.579 65.688 155.003 66.96 153.851 67.92C152.683 68.896 151.123 69.384 149.171 69.384C146.995 69.384 145.331 68.856 144.179 67.8C143.043 66.728 142.475 65.24 142.475 63.336H145.619C145.667 65.544 146.819 66.648 149.075 66.648C150.051 66.648 150.819 66.408 151.379 65.928C151.939 65.448 152.219 64.8 152.219 63.984C152.219 63.104 151.931 62.424 151.355 61.944C150.779 61.464 149.979 61.224 148.955 61.224H147.683V58.848H148.931C150.931 58.848 151.931 58.056 151.931 56.472C151.931 55.752 151.675 55.192 151.163 54.792C150.651 54.376 149.947 54.168 149.051 54.168C147.115 54.168 146.099 55.072 146.003 56.88H142.883C142.915 55.168 143.459 53.848 144.515 52.92C145.587 51.992 147.107 51.528 149.075 51.528C150.915 51.528 152.371 51.952 153.443 52.8C154.531 53.632 155.075 54.768 155.075 56.208C155.075 57.84 154.275 59.064 152.675 59.88Z" fill="black"/>
<path d="M130.884 81.932H129.66V80.648H130.884V81.932ZM130.872 89H129.672V82.808H130.872V89ZM134.507 89.156C132.787 89.156 131.883 88.448 131.795 87.032H132.995C133.043 87.464 133.183 87.768 133.415 87.944C133.647 88.12 134.015 88.208 134.519 88.208C135.431 88.208 135.887 87.92 135.887 87.344C135.887 87.096 135.791 86.904 135.599 86.768C135.407 86.632 135.063 86.52 134.567 86.432L133.931 86.312C132.619 86.072 131.963 85.456 131.963 84.464C131.963 83.912 132.175 83.476 132.599 83.156C133.023 82.828 133.607 82.664 134.351 82.664C136.055 82.664 136.927 83.356 136.967 84.74H135.803C135.779 84.324 135.651 84.032 135.419 83.864C135.187 83.688 134.831 83.6 134.351 83.6C133.967 83.6 133.671 83.672 133.463 83.816C133.255 83.96 133.151 84.164 133.151 84.428C133.151 84.668 133.243 84.856 133.427 84.992C133.611 85.12 133.903 85.224 134.303 85.304L134.951 85.412C135.711 85.556 136.259 85.772 136.595 86.06C136.931 86.348 137.099 86.748 137.099 87.26C137.099 87.86 136.871 88.328 136.415 88.664C135.959 88.992 135.323 89.156 134.507 89.156ZM140.425 89.156C138.705 89.156 137.801 88.448 137.713 87.032H138.913C138.961 87.464 139.101 87.768 139.333 87.944C139.565 88.12 139.933 88.208 140.437 88.208C141.349 88.208 141.805 87.92 141.805 87.344C141.805 87.096 141.709 86.904 141.517 86.768C141.325 86.632 140.981 86.52 140.485 86.432L139.849 86.312C138.537 86.072 137.881 85.456 137.881 84.464C137.881 83.912 138.093 83.476 138.517 83.156C138.941 82.828 139.525 82.664 140.269 82.664C141.973 82.664 142.845 83.356 142.885 84.74H141.721C141.697 84.324 141.569 84.032 141.337 83.864C141.105 83.688 140.749 83.6 140.269 83.6C139.885 83.6 139.589 83.672 139.381 83.816C139.173 83.96 139.069 84.164 139.069 84.428C139.069 84.668 139.161 84.856 139.345 84.992C139.529 85.12 139.821 85.224 140.221 85.304L140.869 85.412C141.629 85.556 142.177 85.772 142.513 86.06C142.849 86.348 143.017 86.748 143.017 87.26C143.017 87.86 142.789 88.328 142.333 88.664C141.877 88.992 141.241 89.156 140.425 89.156ZM147.978 86.3V82.808H149.178V89H148.026V88.076C147.554 88.788 146.906 89.144 146.082 89.144C145.402 89.144 144.87 88.952 144.486 88.568C144.102 88.184 143.91 87.648 143.91 86.96V82.808H145.11V86.792C145.11 87.656 145.546 88.088 146.418 88.088C146.858 88.088 147.226 87.932 147.522 87.62C147.826 87.3 147.978 86.86 147.978 86.3ZM156.123 85.952V86.3H151.455C151.511 86.908 151.691 87.368 151.995 87.68C152.299 87.984 152.711 88.136 153.231 88.136C154.015 88.136 154.527 87.792 154.767 87.104H155.979C155.811 87.736 155.483 88.236 154.995 88.604C154.515 88.964 153.919 89.144 153.207 89.144C152.319 89.144 151.603 88.848 151.059 88.256C150.515 87.664 150.243 86.88 150.243 85.904C150.243 84.928 150.515 84.144 151.059 83.552C151.603 82.96 152.311 82.664 153.183 82.664C154.095 82.664 154.815 82.972 155.343 83.588C155.863 84.204 156.123 84.992 156.123 85.952ZM153.183 83.672C152.711 83.672 152.323 83.816 152.019 84.104C151.723 84.392 151.539 84.808 151.467 85.352H154.887C154.831 84.848 154.651 84.444 154.347 84.14C154.051 83.828 153.663 83.672 153.183 83.672ZM159.444 89.156C157.724 89.156 156.82 88.448 156.732 87.032H157.932C157.98 87.464 158.12 87.768 158.352 87.944C158.584 88.12 158.952 88.208 159.456 88.208C160.368 88.208 160.824 87.92 160.824 87.344C160.824 87.096 160.728 86.904 160.536 86.768C160.344 86.632 160 86.52 159.504 86.432L158.868 86.312C157.556 86.072 156.9 85.456 156.9 84.464C156.9 83.912 157.112 83.476 157.536 83.156C157.96 82.828 158.544 82.664 159.288 82.664C160.992 82.664 161.864 83.356 161.904 84.74H160.74C160.716 84.324 160.588 84.032 160.356 83.864C160.124 83.688 159.768 83.6 159.288 83.6C158.904 83.6 158.608 83.672 158.4 83.816C158.192 83.96 158.088 84.164 158.088 84.428C158.088 84.668 158.18 84.856 158.364 84.992C158.548 85.12 158.84 85.224 159.24 85.304L159.888 85.412C160.648 85.556 161.196 85.772 161.532 86.06C161.868 86.348 162.036 86.748 162.036 87.26C162.036 87.86 161.808 88.328 161.352 88.664C160.896 88.992 160.26 89.156 159.444 89.156Z" fill="black"/>
<g filter="url(#filter1_d)">
<rect x="4" width="277" height="452" rx="30" fill="white"/>
<rect x="4.5" y="0.5" width="276" height="451" rx="29.5" stroke="#4B7D74"/>
</g>
<path d="M87.8726 139.992C87.1473 140.792 86.214 141.192 85.0726 141.192C83.9313 141.192 83.0086 140.792 82.3046 139.992C81.59 139.213 81.2326 138.173 81.2326 136.872C81.2326 135.571 81.59 134.525 82.3046 133.736C83.0086 132.947 83.9313 132.552 85.0726 132.552C86.214 132.552 87.1473 132.947 87.8726 133.736C88.5766 134.536 88.9286 135.581 88.9286 136.872C88.9286 138.173 88.5766 139.213 87.8726 139.992ZM82.9606 139.416C83.4833 140.056 84.1873 140.376 85.0726 140.376C85.958 140.376 86.6673 140.056 87.2006 139.416C87.7233 138.797 87.9846 137.949 87.9846 136.872C87.9846 135.795 87.7233 134.941 87.2006 134.312C86.6673 133.683 85.958 133.368 85.0726 133.368C84.198 133.368 83.494 133.683 82.9606 134.312C82.438 134.941 82.1766 135.795 82.1766 136.872C82.1766 137.949 82.438 138.797 82.9606 139.416ZM94.3476 132.552C95.4783 132.552 96.3903 132.947 97.0836 133.736C97.7556 134.525 98.0916 135.571 98.0916 136.872C98.0916 138.173 97.7556 139.219 97.0836 140.008C96.3903 140.797 95.4783 141.192 94.3476 141.192C93.0036 141.192 92.017 140.621 91.3876 139.48V144.136H90.4756V132.744H91.3396V134.36C91.969 133.155 92.9716 132.552 94.3476 132.552ZM92.1236 139.432C92.657 140.061 93.361 140.376 94.2356 140.376C95.1316 140.376 95.841 140.051 96.3636 139.4C96.8863 138.771 97.1476 137.912 97.1476 136.824C97.1476 135.757 96.881 134.915 96.3476 134.296C95.825 133.677 95.121 133.368 94.2356 133.368C93.361 133.368 92.657 133.683 92.1236 134.312C91.601 134.931 91.3396 135.784 91.3396 136.872C91.3396 137.96 91.601 138.813 92.1236 139.432ZM106.688 136.856V137.176H100.208C100.25 138.2 100.517 138.989 101.008 139.544C101.509 140.088 102.192 140.36 103.056 140.36C103.717 140.36 104.266 140.184 104.704 139.832C105.141 139.469 105.429 138.979 105.568 138.36H106.512C106.32 139.235 105.92 139.928 105.312 140.44C104.704 140.941 103.941 141.192 103.024 141.192C101.872 141.192 100.96 140.797 100.288 140.008C99.6155 139.219 99.2795 138.173 99.2795 136.872C99.2795 135.581 99.6155 134.536 100.288 133.736C100.949 132.947 101.85 132.552 102.992 132.552C104.154 132.552 105.061 132.957 105.712 133.768C106.362 134.579 106.688 135.608 106.688 136.856ZM102.992 133.384C102.202 133.384 101.562 133.645 101.072 134.168C100.581 134.691 100.298 135.421 100.224 136.36H105.712C105.658 135.453 105.392 134.733 104.912 134.2C104.442 133.656 103.802 133.384 102.992 133.384ZM111.842 132.552C112.77 132.552 113.49 132.813 114.002 133.336C114.514 133.859 114.77 134.6 114.77 135.56V141H113.858V135.64C113.858 134.125 113.127 133.368 111.666 133.368C110.994 133.368 110.407 133.624 109.906 134.136C109.415 134.648 109.159 135.395 109.138 136.376V141H108.226V132.744H109.09V134.28C109.356 133.736 109.73 133.315 110.21 133.016C110.69 132.707 111.234 132.552 111.842 132.552ZM119.59 141.192C118.534 141.192 117.713 140.957 117.126 140.488C116.54 140.019 116.22 139.336 116.166 138.44H117.094C117.201 139.752 118.033 140.408 119.59 140.408C121.126 140.408 121.894 139.885 121.894 138.84C121.894 138.413 121.74 138.083 121.43 137.848C121.121 137.613 120.598 137.427 119.862 137.288L119.014 137.144C118.129 136.984 117.473 136.717 117.046 136.344C116.63 135.96 116.422 135.448 116.422 134.808C116.422 134.104 116.684 133.555 117.206 133.16C117.729 132.755 118.454 132.552 119.382 132.552C121.484 132.552 122.572 133.405 122.646 135.112H121.718C121.676 134.504 121.468 134.056 121.094 133.768C120.721 133.48 120.15 133.336 119.382 133.336C118.732 133.336 118.225 133.464 117.862 133.72C117.51 133.976 117.334 134.333 117.334 134.792C117.334 135.219 117.484 135.549 117.782 135.784C118.092 136.019 118.593 136.2 119.286 136.328L120.118 136.472C121.068 136.643 121.75 136.915 122.166 137.288C122.593 137.651 122.806 138.152 122.806 138.792C122.806 139.571 122.518 140.168 121.942 140.584C121.377 140.989 120.593 141.192 119.59 141.192ZM130.435 139.992C129.71 140.792 128.776 141.192 127.635 141.192C126.494 141.192 125.571 140.792 124.867 139.992C124.152 139.213 123.795 138.173 123.795 136.872C123.795 135.571 124.152 134.525 124.867 133.736C125.571 132.947 126.494 132.552 127.635 132.552C128.776 132.552 129.71 132.947 130.435 133.736C131.139 134.536 131.491 135.581 131.491 136.872C131.491 138.173 131.139 139.213 130.435 139.992ZM125.523 139.416C126.046 140.056 126.75 140.376 127.635 140.376C128.52 140.376 129.23 140.056 129.763 139.416C130.286 138.797 130.547 137.949 130.547 136.872C130.547 135.795 130.286 134.941 129.763 134.312C129.23 133.683 128.52 133.368 127.635 133.368C126.76 133.368 126.056 133.683 125.523 134.312C125 134.941 124.739 135.795 124.739 136.872C124.739 137.949 125 138.797 125.523 139.416ZM138.467 137.368V132.744H139.379V141H138.515V139.464C138.248 140.008 137.875 140.435 137.395 140.744C136.915 141.043 136.371 141.192 135.763 141.192C134.835 141.192 134.115 140.931 133.603 140.408C133.091 139.885 132.835 139.144 132.835 138.184V132.744H133.747V138.104C133.747 139.619 134.478 140.376 135.939 140.376C136.664 140.376 137.262 140.115 137.731 139.592C138.211 139.069 138.456 138.328 138.467 137.368ZM145.016 132.632C145.25 132.632 145.405 132.637 145.48 132.648V133.512H145.096C144.189 133.512 143.48 133.768 142.968 134.28C142.466 134.792 142.216 135.491 142.216 136.376V141H141.304V132.744H142.168V134.472C142.722 133.245 143.672 132.632 145.016 132.632ZM149.492 141.192C148.361 141.192 147.46 140.803 146.788 140.024C146.105 139.245 145.764 138.195 145.764 136.872C145.764 135.549 146.105 134.499 146.788 133.72C147.46 132.941 148.361 132.552 149.492 132.552C150.42 132.552 151.193 132.819 151.812 133.352C152.431 133.885 152.804 134.589 152.932 135.464H152.004C151.876 134.813 151.583 134.301 151.124 133.928C150.676 133.555 150.132 133.368 149.492 133.368C148.649 133.368 147.972 133.677 147.46 134.296C146.959 134.915 146.708 135.773 146.708 136.872C146.708 137.971 146.959 138.829 147.46 139.448C147.972 140.067 148.649 140.376 149.492 140.376C150.143 140.376 150.697 140.179 151.156 139.784C151.625 139.379 151.913 138.84 152.02 138.168H152.948C152.841 139.043 152.468 139.768 151.828 140.344C151.177 140.909 150.399 141.192 149.492 141.192ZM161.375 136.856V137.176H154.895C154.938 138.2 155.204 138.989 155.695 139.544C156.196 140.088 156.879 140.36 157.743 140.36C158.404 140.36 158.954 140.184 159.391 139.832C159.828 139.469 160.116 138.979 160.255 138.36H161.199C161.007 139.235 160.607 139.928 159.999 140.44C159.391 140.941 158.628 141.192 157.711 141.192C156.559 141.192 155.647 140.797 154.975 140.008C154.303 139.219 153.967 138.173 153.967 136.872C153.967 135.581 154.303 134.536 154.975 133.736C155.636 132.947 156.538 132.552 157.679 132.552C158.842 132.552 159.748 132.957 160.399 133.768C161.05 134.579 161.375 135.608 161.375 136.856ZM157.679 133.384C156.89 133.384 156.25 133.645 155.759 134.168C155.268 134.691 154.986 135.421 154.911 136.36H160.399C160.346 135.453 160.079 134.733 159.599 134.2C159.13 133.656 158.49 133.384 157.679 133.384ZM173.024 140.264H173.456V141C173.275 141.032 173.077 141.048 172.864 141.048C172.416 141.048 172.091 140.941 171.888 140.728C171.685 140.504 171.584 140.163 171.584 139.704V139.592C171.029 140.659 170.032 141.192 168.592 141.192C167.707 141.192 167.019 140.984 166.528 140.568C166.048 140.141 165.808 139.56 165.808 138.824C165.808 137.395 166.789 136.563 168.752 136.328L170.032 136.184C170.597 136.109 170.992 135.971 171.216 135.768C171.44 135.565 171.552 135.256 171.552 134.84C171.552 133.837 170.843 133.336 169.424 133.336C168.603 133.336 168.005 133.48 167.632 133.768C167.269 134.056 167.072 134.541 167.04 135.224H166.16C166.213 133.443 167.301 132.552 169.424 132.552C170.427 132.552 171.179 132.755 171.68 133.16C172.181 133.555 172.432 134.115 172.432 134.84V139.672C172.432 140.067 172.629 140.264 173.024 140.264ZM168.64 140.424C169.461 140.424 170.155 140.189 170.72 139.72C171.275 139.261 171.552 138.573 171.552 137.656V136.408C171.285 136.675 170.827 136.845 170.176 136.92L168.896 137.08C168.139 137.176 167.589 137.363 167.248 137.64C166.917 137.907 166.752 138.296 166.752 138.808C166.752 139.309 166.912 139.704 167.232 139.992C167.552 140.28 168.021 140.424 168.64 140.424ZM180.749 134.264V129.608H181.661V141H180.797V139.384C180.168 140.589 179.165 141.192 177.789 141.192C176.648 141.192 175.741 140.797 175.069 140.008C174.386 139.229 174.045 138.184 174.045 136.872C174.045 135.56 174.386 134.515 175.069 133.736C175.741 132.947 176.648 132.552 177.789 132.552C179.133 132.552 180.12 133.123 180.749 134.264ZM174.989 136.92C174.989 137.987 175.25 138.829 175.773 139.448C176.296 140.067 177 140.376 177.885 140.376C178.76 140.376 179.464 140.061 179.997 139.432C180.52 138.813 180.781 137.96 180.781 136.872C180.781 135.784 180.52 134.931 179.997 134.312C179.464 133.683 178.76 133.368 177.885 133.368C177 133.368 176.296 133.688 175.773 134.328C175.25 134.979 174.989 135.843 174.989 136.92ZM190.352 140.264H190.784V141C190.603 141.032 190.406 141.048 190.192 141.048C189.744 141.048 189.419 140.941 189.216 140.728C189.014 140.504 188.912 140.163 188.912 139.704V139.592C188.358 140.659 187.36 141.192 185.92 141.192C185.035 141.192 184.347 140.984 183.856 140.568C183.376 140.141 183.136 139.56 183.136 138.824C183.136 137.395 184.118 136.563 186.08 136.328L187.36 136.184C187.926 136.109 188.32 135.971 188.544 135.768C188.768 135.565 188.88 135.256 188.88 134.84C188.88 133.837 188.171 133.336 186.752 133.336C185.931 133.336 185.334 133.48 184.96 133.768C184.598 134.056 184.4 134.541 184.368 135.224H183.488C183.542 133.443 184.63 132.552 186.752 132.552C187.755 132.552 188.507 132.755 189.008 133.16C189.51 133.555 189.76 134.115 189.76 134.84V139.672C189.76 140.067 189.958 140.264 190.352 140.264ZM185.968 140.424C186.79 140.424 187.483 140.189 188.048 139.72C188.603 139.261 188.88 138.573 188.88 137.656V136.408C188.614 136.675 188.155 136.845 187.504 136.92L186.224 137.08C185.467 137.176 184.918 137.363 184.576 137.64C184.246 137.907 184.08 138.296 184.08 138.808C184.08 139.309 184.24 139.704 184.56 139.992C184.88 140.28 185.35 140.424 185.968 140.424ZM200.586 132.552C201.493 132.552 202.186 132.819 202.666 133.352C203.157 133.875 203.402 134.605 203.402 135.544V141H202.506V135.64C202.506 134.125 201.829 133.368 200.474 133.368C199.781 133.368 199.21 133.64 198.762 134.184C198.325 134.717 198.101 135.48 198.09 136.472V141H197.178V135.64C197.178 134.125 196.501 133.368 195.146 133.368C194.464 133.368 193.898 133.64 193.45 134.184C193.013 134.717 192.789 135.48 192.778 136.472V141H191.866V132.744H192.73V134.264C193.242 133.123 194.096 132.552 195.29 132.552C196.634 132.552 197.509 133.155 197.914 134.36C198.48 133.155 199.37 132.552 200.586 132.552Z" fill="black"/>
<rect x="78" y="334" width="11" height="88" rx="2" fill="#4B7D74"/>
<rect x="98.7671" y="328" width="11" height="94" rx="2" fill="#4B7D74" fill-opacity="0.8"/>
<rect x="120" y="301" width="11" height="121" rx="3" fill="#4B7D74" fill-opacity="0.6"/>
<path d="M141 322C141 320.343 142.343 319 144 319H149C150.657 319 152 320.343 152 322V419C152 420.657 150.657 422 149 422H144C142.343 422 141 420.657 141 419V322Z" fill="#4B7D74"/>
<rect x="162" y="298" width="10" height="124" rx="3" fill="#4B7D74" fill-opacity="0.4"/>
<rect x="182" y="312" width="11" height="110" rx="3" fill="#4B7D74"/>
<path d="M203 341C203 339.343 204.343 338 206 338H210C211.657 338 213 339.343 213 341V419C213 420.657 211.657 422 210 422H206C204.343 422 203 420.657 203 419V341Z" fill="#4B7D74" fill-opacity="0.6"/>
<path d="M178.856 105.556C186.373 98.897 191.686 90.1081 194.09 80.3573C196.493 70.6065 195.873 60.3552 192.312 50.9652C188.751 41.5752 182.417 33.4908 174.152 27.7859C165.887 22.0811 156.082 19.0257 146.039 19.0257C135.997 19.0258 126.192 22.0811 117.927 27.786C109.662 33.4909 103.328 41.5753 99.7672 50.9653C96.206 60.3554 95.586 70.6067 97.9894 80.3575C100.393 90.1083 105.706 98.8971 113.223 105.557" stroke="url(#paint1_linear)" stroke-width="8"/>
<path d="M184.525 67.2787C184.525 88.6459 167.203 105.967 145.836 105.967C124.469 105.967 107.147 88.6459 107.147 67.2787C107.147 45.9116 124.469 28.5901 145.836 28.5901C167.203 28.5901 184.525 45.9116 184.525 67.2787Z" fill="#F2F2F2"/>
<path d="M184.525 67.2787C184.525 88.6459 167.203 105.967 145.836 105.967C124.469 105.967 107.147 88.6459 107.147 67.2787C107.147 45.9116 124.469 28.5901 145.836 28.5901C167.203 28.5901 184.525 45.9116 184.525 67.2787Z" stroke="#6CA9EA"/>
<path d="M137.448 51.912H140.016V69H136.776V57.48H132.84V55.2L133.224 55.176C134.472 55.096 135.424 54.816 136.08 54.336C136.752 53.84 137.208 53.032 137.448 51.912ZM152.675 59.88C153.571 60.264 154.275 60.824 154.786 61.56C155.315 62.28 155.579 63.128 155.579 64.104C155.579 65.688 155.003 66.96 153.851 67.92C152.683 68.896 151.123 69.384 149.171 69.384C146.995 69.384 145.331 68.856 144.179 67.8C143.043 66.728 142.475 65.24 142.475 63.336H145.619C145.667 65.544 146.819 66.648 149.075 66.648C150.051 66.648 150.819 66.408 151.379 65.928C151.939 65.448 152.219 64.8 152.219 63.984C152.219 63.104 151.931 62.424 151.355 61.944C150.779 61.464 149.979 61.224 148.955 61.224H147.683V58.848H148.931C150.931 58.848 151.931 58.056 151.931 56.472C151.931 55.752 151.675 55.192 151.163 54.792C150.651 54.376 149.947 54.168 149.051 54.168C147.115 54.168 146.099 55.072 146.003 56.88H142.883C142.915 55.168 143.459 53.848 144.515 52.92C145.587 51.992 147.107 51.528 149.075 51.528C150.915 51.528 152.371 51.952 153.443 52.8C154.531 53.632 155.075 54.768 155.075 56.208C155.075 57.84 154.275 59.064 152.675 59.88Z" fill="black"/>
<path d="M130.884 81.932H129.66V80.648H130.884V81.932ZM130.872 89H129.672V82.808H130.872V89ZM134.507 89.156C132.787 89.156 131.883 88.448 131.795 87.032H132.995C133.043 87.464 133.183 87.768 133.415 87.944C133.647 88.12 134.015 88.208 134.519 88.208C135.431 88.208 135.887 87.92 135.887 87.344C135.887 87.096 135.791 86.904 135.599 86.768C135.407 86.632 135.063 86.52 134.567 86.432L133.931 86.312C132.619 86.072 131.963 85.456 131.963 84.464C131.963 83.912 132.175 83.476 132.599 83.156C133.023 82.828 133.607 82.664 134.351 82.664C136.055 82.664 136.927 83.356 136.967 84.74H135.803C135.779 84.324 135.651 84.032 135.419 83.864C135.187 83.688 134.831 83.6 134.351 83.6C133.967 83.6 133.671 83.672 133.463 83.816C133.255 83.96 133.151 84.164 133.151 84.428C133.151 84.668 133.243 84.856 133.427 84.992C133.611 85.12 133.903 85.224 134.303 85.304L134.951 85.412C135.711 85.556 136.259 85.772 136.595 86.06C136.931 86.348 137.099 86.748 137.099 87.26C137.099 87.86 136.871 88.328 136.415 88.664C135.959 88.992 135.323 89.156 134.507 89.156ZM140.425 89.156C138.705 89.156 137.801 88.448 137.713 87.032H138.913C138.961 87.464 139.101 87.768 139.333 87.944C139.565 88.12 139.933 88.208 140.437 88.208C141.349 88.208 141.805 87.92 141.805 87.344C141.805 87.096 141.709 86.904 141.517 86.768C141.325 86.632 140.981 86.52 140.485 86.432L139.849 86.312C138.537 86.072 137.881 85.456 137.881 84.464C137.881 83.912 138.093 83.476 138.517 83.156C138.941 82.828 139.525 82.664 140.269 82.664C141.973 82.664 142.845 83.356 142.885 84.74H141.721C141.697 84.324 141.569 84.032 141.337 83.864C141.105 83.688 140.749 83.6 140.269 83.6C139.885 83.6 139.589 83.672 139.381 83.816C139.173 83.96 139.069 84.164 139.069 84.428C139.069 84.668 139.161 84.856 139.345 84.992C139.529 85.12 139.821 85.224 140.221 85.304L140.869 85.412C141.629 85.556 142.177 85.772 142.513 86.06C142.849 86.348 143.017 86.748 143.017 87.26C143.017 87.86 142.789 88.328 142.333 88.664C141.877 88.992 141.241 89.156 140.425 89.156ZM147.978 86.3V82.808H149.178V89H148.026V88.076C147.554 88.788 146.906 89.144 146.082 89.144C145.402 89.144 144.87 88.952 144.486 88.568C144.102 88.184 143.91 87.648 143.91 86.96V82.808H145.11V86.792C145.11 87.656 145.546 88.088 146.418 88.088C146.858 88.088 147.226 87.932 147.522 87.62C147.826 87.3 147.978 86.86 147.978 86.3ZM156.123 85.952V86.3H151.455C151.511 86.908 151.691 87.368 151.995 87.68C152.299 87.984 152.711 88.136 153.231 88.136C154.015 88.136 154.527 87.792 154.767 87.104H155.979C155.811 87.736 155.483 88.236 154.995 88.604C154.515 88.964 153.919 89.144 153.207 89.144C152.319 89.144 151.603 88.848 151.059 88.256C150.515 87.664 150.243 86.88 150.243 85.904C150.243 84.928 150.515 84.144 151.059 83.552C151.603 82.96 152.311 82.664 153.183 82.664C154.095 82.664 154.815 82.972 155.343 83.588C155.863 84.204 156.123 84.992 156.123 85.952ZM153.183 83.672C152.711 83.672 152.323 83.816 152.019 84.104C151.723 84.392 151.539 84.808 151.467 85.352H154.887C154.831 84.848 154.651 84.444 154.347 84.14C154.051 83.828 153.663 83.672 153.183 83.672ZM159.444 89.156C157.724 89.156 156.82 88.448 156.732 87.032H157.932C157.98 87.464 158.12 87.768 158.352 87.944C158.584 88.12 158.952 88.208 159.456 88.208C160.368 88.208 160.824 87.92 160.824 87.344C160.824 87.096 160.728 86.904 160.536 86.768C160.344 86.632 160 86.52 159.504 86.432L158.868 86.312C157.556 86.072 156.9 85.456 156.9 84.464C156.9 83.912 157.112 83.476 157.536 83.156C157.96 82.828 158.544 82.664 159.288 82.664C160.992 82.664 161.864 83.356 161.904 84.74H160.74C160.716 84.324 160.588 84.032 160.356 83.864C160.124 83.688 159.768 83.6 159.288 83.6C158.904 83.6 158.608 83.672 158.4 83.816C158.192 83.96 158.088 84.164 158.088 84.428C158.088 84.668 158.18 84.856 158.364 84.992C158.548 85.12 158.84 85.224 159.24 85.304L159.888 85.412C160.648 85.556 161.196 85.772 161.532 86.06C161.868 86.348 162.036 86.748 162.036 87.26C162.036 87.86 161.808 88.328 161.352 88.664C160.896 88.992 160.26 89.156 159.444 89.156Z" fill="black"/>
<defs>
<filter id="filter0_d" x="0" y="0" width="285" height="460" filterUnits="userSpaceOnUse" color-interpolation-filters="sRGB">
<feFlood flood-opacity="0" result="BackgroundImageFix"/>
<feColorMatrix in="SourceAlpha" type="matrix" values="0 0 0 0 0 0 0 0 0 0 0 0 0 0 0 0 0 0 127 0"/>
<feOffset dy="4"/>
<feGaussianBlur stdDeviation="2"/>
<feColorMatrix type="matrix" values="0 0 0 0 0 0 0 0 0 0 0 0 0 0 0 0 0 0 0.25 0"/>
<feBlend mode="normal" in2="BackgroundImageFix" result="effect1_dropShadow"/>
<feBlend mode="normal" in="SourceGraphic" in2="effect1_dropShadow" result="shape"/>
</filter>
<filter id="filter1_d" x="2" y="0" width="281" height="456" filterUnits="userSpaceOnUse" color-interpolation-filters="sRGB">
<feFlood flood-opacity="0" result="BackgroundImageFix"/>
<feColorMatrix in="SourceAlpha" type="matrix" values="0 0 0 0 0 0 0 0 0 0 0 0 0 0 0 0 0 0 127 0"/>
<feOffset dy="2"/>
<feGaussianBlur stdDeviation="1"/>
<feColorMatrix type="matrix" values="0 0 0 0 0 0 0 0 0 0 0 0 0 0 0 0 0 0 0.25 0"/>
<feBlend mode="normal" in2="BackgroundImageFix" result="effect1_dropShadow"/>
<feBlend mode="normal" in="SourceGraphic" in2="effect1_dropShadow" result="shape"/>
</filter>
<linearGradient id="paint0_linear" x1="106.89" y1="59.541" x2="179.366" y2="101.583" gradientUnits="userSpaceOnUse">
<stop offset="0.685712" stop-color="#4B7D74"/>
<stop offset="0.685812" stop-color="#18CFAB"/>
</linearGradient>
<linearGradient id="paint1_linear" x1="106.89" y1="59.541" x2="179.366" y2="101.583" gradientUnits="userSpaceOnUse">
<stop offset="0.685712" stop-color="#4B7D74"/>
<stop offset="0.685812" stop-color="#18CFAB"/>
</linearGradient>
</defs>
</svg>
