<svg width="285" height="469" viewBox="0 0 285 469" fill="none" xmlns="http://www.w3.org/2000/svg">
<g filter="url(#filter0_d)">
<rect x="4" y="9" width="277" height="452" rx="30" fill="white"/>
<rect x="4.5" y="9.5" width="276" height="451" rx="29.5" stroke="#4B7D74"/>
</g>
<path d="M81.0442 149.866C80.2282 150.766 79.1782 151.216 77.8942 151.216C76.6102 151.216 75.5722 150.766 74.7802 149.866C73.9762 148.99 73.5742 147.82 73.5742 146.356C73.5742 144.892 73.9762 143.716 74.7802 142.828C75.5722 141.94 76.6102 141.496 77.8942 141.496C79.1782 141.496 80.2282 141.94 81.0442 142.828C81.8362 143.728 82.2322 144.904 82.2322 146.356C82.2322 147.82 81.8362 148.99 81.0442 149.866ZM75.5182 149.218C76.1062 149.938 76.8982 150.298 77.8942 150.298C78.8902 150.298 79.6882 149.938 80.2882 149.218C80.8762 148.522 81.1702 147.568 81.1702 146.356C81.1702 145.144 80.8762 144.184 80.2882 143.476C79.6882 142.768 78.8902 142.414 77.8942 142.414C76.9102 142.414 76.1182 142.768 75.5182 143.476C74.9302 144.184 74.6362 145.144 74.6362 146.356C74.6362 147.568 74.9302 148.522 75.5182 149.218ZM88.3286 141.496C89.6006 141.496 90.6266 141.94 91.4066 142.828C92.1626 143.716 92.5406 144.892 92.5406 146.356C92.5406 147.82 92.1626 148.996 91.4066 149.884C90.6266 150.772 89.6006 151.216 88.3286 151.216C86.8166 151.216 85.7066 150.574 84.9986 149.29V154.528H83.9726V141.712H84.9446V143.53C85.6526 142.174 86.7806 141.496 88.3286 141.496ZM85.8266 149.236C86.4266 149.944 87.2186 150.298 88.2026 150.298C89.2106 150.298 90.0086 149.932 90.5966 149.2C91.1846 148.492 91.4786 147.526 91.4786 146.302C91.4786 145.102 91.1786 144.154 90.5786 143.458C89.9906 142.762 89.1986 142.414 88.2026 142.414C87.2186 142.414 86.4266 142.768 85.8266 143.476C85.2386 144.172 84.9446 145.132 84.9446 146.356C84.9446 147.58 85.2386 148.54 85.8266 149.236ZM102.211 146.338V146.698H94.9209C94.9689 147.85 95.2689 148.738 95.8209 149.362C96.3849 149.974 97.1529 150.28 98.1249 150.28C98.8689 150.28 99.4869 150.082 99.9789 149.686C100.471 149.278 100.795 148.726 100.951 148.03H102.013C101.797 149.014 101.347 149.794 100.663 150.37C99.9789 150.934 99.1209 151.216 98.0889 151.216C96.7929 151.216 95.7669 150.772 95.0109 149.884C94.2549 148.996 93.8769 147.82 93.8769 146.356C93.8769 144.904 94.2549 143.728 95.0109 142.828C95.7549 141.94 96.7689 141.496 98.0529 141.496C99.3609 141.496 100.381 141.952 101.113 142.864C101.845 143.776 102.211 144.934 102.211 146.338ZM98.0529 142.432C97.1649 142.432 96.4449 142.726 95.8929 143.314C95.3409 143.902 95.0229 144.724 94.9389 145.78H101.113C101.053 144.76 100.753 143.95 100.213 143.35C99.6849 142.738 98.9649 142.432 98.0529 142.432ZM108.009 141.496C109.053 141.496 109.863 141.79 110.439 142.378C111.015 142.966 111.303 143.8 111.303 144.88V151H110.277V144.97C110.277 143.266 109.455 142.414 107.811 142.414C107.055 142.414 106.395 142.702 105.831 143.278C105.279 143.854 104.991 144.694 104.967 145.798V151H103.941V141.712H104.913V143.44C105.213 142.828 105.633 142.354 106.173 142.018C106.713 141.67 107.325 141.496 108.009 141.496ZM116.727 151.216C115.539 151.216 114.615 150.952 113.955 150.424C113.295 149.896 112.935 149.128 112.875 148.12H113.919C114.039 149.596 114.975 150.334 116.727 150.334C118.455 150.334 119.319 149.746 119.319 148.57C119.319 148.09 119.145 147.718 118.797 147.454C118.449 147.19 117.861 146.98 117.033 146.824L116.079 146.662C115.083 146.482 114.345 146.182 113.865 145.762C113.397 145.33 113.163 144.754 113.163 144.034C113.163 143.242 113.457 142.624 114.045 142.18C114.633 141.724 115.449 141.496 116.493 141.496C118.857 141.496 120.081 142.456 120.165 144.376H119.121C119.073 143.692 118.839 143.188 118.419 142.864C117.999 142.54 117.357 142.378 116.493 142.378C115.761 142.378 115.191 142.522 114.783 142.81C114.387 143.098 114.189 143.5 114.189 144.016C114.189 144.496 114.357 144.868 114.693 145.132C115.041 145.396 115.605 145.6 116.385 145.744L117.321 145.906C118.389 146.098 119.157 146.404 119.625 146.824C120.105 147.232 120.345 147.796 120.345 148.516C120.345 149.392 120.021 150.064 119.373 150.532C118.737 150.988 117.855 151.216 116.727 151.216ZM128.927 149.866C128.111 150.766 127.061 151.216 125.777 151.216C124.493 151.216 123.455 150.766 122.663 149.866C121.859 148.99 121.457 147.82 121.457 146.356C121.457 144.892 121.859 143.716 122.663 142.828C123.455 141.94 124.493 141.496 125.777 141.496C127.061 141.496 128.111 141.94 128.927 142.828C129.719 143.728 130.115 144.904 130.115 146.356C130.115 147.82 129.719 148.99 128.927 149.866ZM123.401 149.218C123.989 149.938 124.781 150.298 125.777 150.298C126.773 150.298 127.571 149.938 128.171 149.218C128.759 148.522 129.053 147.568 129.053 146.356C129.053 145.144 128.759 144.184 128.171 143.476C127.571 142.768 126.773 142.414 125.777 142.414C124.793 142.414 124.001 142.768 123.401 143.476C122.813 144.184 122.519 145.144 122.519 146.356C122.519 147.568 122.813 148.522 123.401 149.218ZM137.963 146.914V141.712H138.989V151H138.017V149.272C137.717 149.884 137.297 150.364 136.757 150.712C136.217 151.048 135.605 151.216 134.921 151.216C133.877 151.216 133.067 150.922 132.491 150.334C131.915 149.746 131.627 148.912 131.627 147.832V141.712H132.653V147.742C132.653 149.446 133.475 150.298 135.119 150.298C135.935 150.298 136.607 150.004 137.135 149.416C137.675 148.828 137.951 147.994 137.963 146.914ZM145.33 141.586C145.594 141.586 145.768 141.592 145.852 141.604V142.576H145.42C144.4 142.576 143.602 142.864 143.026 143.44C142.462 144.016 142.18 144.802 142.18 145.798V151H141.154V141.712H142.126V143.656C142.75 142.276 143.818 141.586 145.33 141.586ZM150.366 151.216C149.094 151.216 148.08 150.778 147.324 149.902C146.556 149.026 146.172 147.844 146.172 146.356C146.172 144.868 146.556 143.686 147.324 142.81C148.08 141.934 149.094 141.496 150.366 141.496C151.41 141.496 152.28 141.796 152.976 142.396C153.672 142.996 154.092 143.788 154.236 144.772H153.192C153.048 144.04 152.718 143.464 152.202 143.044C151.698 142.624 151.086 142.414 150.366 142.414C149.418 142.414 148.656 142.762 148.08 143.458C147.516 144.154 147.234 145.12 147.234 146.356C147.234 147.592 147.516 148.558 148.08 149.254C148.656 149.95 149.418 150.298 150.366 150.298C151.098 150.298 151.722 150.076 152.238 149.632C152.766 149.176 153.09 148.57 153.21 147.814H154.254C154.134 148.798 153.714 149.614 152.994 150.262C152.262 150.898 151.386 151.216 150.366 151.216ZM163.734 146.338V146.698H156.444C156.492 147.85 156.792 148.738 157.344 149.362C157.908 149.974 158.676 150.28 159.648 150.28C160.392 150.28 161.01 150.082 161.502 149.686C161.994 149.278 162.318 148.726 162.474 148.03H163.536C163.32 149.014 162.87 149.794 162.186 150.37C161.502 150.934 160.644 151.216 159.612 151.216C158.316 151.216 157.29 150.772 156.534 149.884C155.778 148.996 155.4 147.82 155.4 146.356C155.4 144.904 155.778 143.728 156.534 142.828C157.278 141.94 158.292 141.496 159.576 141.496C160.884 141.496 161.904 141.952 162.636 142.864C163.368 143.776 163.734 144.934 163.734 146.338ZM159.576 142.432C158.688 142.432 157.968 142.726 157.416 143.314C156.864 143.902 156.546 144.724 156.462 145.78H162.636C162.576 144.76 162.276 143.95 161.736 143.35C161.208 142.738 160.488 142.432 159.576 142.432ZM176.84 150.172H177.326V151C177.122 151.036 176.9 151.054 176.66 151.054C176.156 151.054 175.79 150.934 175.562 150.694C175.334 150.442 175.22 150.058 175.22 149.542V149.416C174.596 150.616 173.474 151.216 171.854 151.216C170.858 151.216 170.084 150.982 169.532 150.514C168.992 150.034 168.722 149.38 168.722 148.552C168.722 146.944 169.826 146.008 172.034 145.744L173.474 145.582C174.11 145.498 174.554 145.342 174.806 145.114C175.058 144.886 175.184 144.538 175.184 144.07C175.184 142.942 174.386 142.378 172.79 142.378C171.866 142.378 171.194 142.54 170.774 142.864C170.366 143.188 170.144 143.734 170.108 144.502H169.118C169.178 142.498 170.402 141.496 172.79 141.496C173.918 141.496 174.764 141.724 175.328 142.18C175.892 142.624 176.174 143.254 176.174 144.07V149.506C176.174 149.95 176.396 150.172 176.84 150.172ZM171.908 150.352C172.832 150.352 173.612 150.088 174.248 149.56C174.872 149.044 175.184 148.27 175.184 147.238V145.834C174.884 146.134 174.368 146.326 173.636 146.41L172.196 146.59C171.344 146.698 170.726 146.908 170.342 147.22C169.97 147.52 169.784 147.958 169.784 148.534C169.784 149.098 169.964 149.542 170.324 149.866C170.684 150.19 171.212 150.352 171.908 150.352ZM185.53 143.422V138.184H186.556V151H185.584V149.182C184.876 150.538 183.748 151.216 182.2 151.216C180.916 151.216 179.896 150.772 179.14 149.884C178.372 149.008 177.988 147.832 177.988 146.356C177.988 144.88 178.372 143.704 179.14 142.828C179.896 141.94 180.916 141.496 182.2 141.496C183.712 141.496 184.822 142.138 185.53 143.422ZM179.05 146.41C179.05 147.61 179.344 148.558 179.932 149.254C180.52 149.95 181.312 150.298 182.308 150.298C183.292 150.298 184.084 149.944 184.684 149.236C185.272 148.54 185.566 147.58 185.566 146.356C185.566 145.132 185.272 144.172 184.684 143.476C184.084 142.768 183.292 142.414 182.308 142.414C181.312 142.414 180.52 142.774 179.932 143.494C179.344 144.226 179.05 145.198 179.05 146.41ZM196.334 150.172H196.82V151C196.616 151.036 196.394 151.054 196.154 151.054C195.65 151.054 195.284 150.934 195.056 150.694C194.828 150.442 194.714 150.058 194.714 149.542V149.416C194.09 150.616 192.968 151.216 191.348 151.216C190.352 151.216 189.578 150.982 189.026 150.514C188.486 150.034 188.216 149.38 188.216 148.552C188.216 146.944 189.32 146.008 191.528 145.744L192.968 145.582C193.604 145.498 194.048 145.342 194.3 145.114C194.552 144.886 194.678 144.538 194.678 144.07C194.678 142.942 193.88 142.378 192.284 142.378C191.36 142.378 190.688 142.54 190.268 142.864C189.86 143.188 189.638 143.734 189.602 144.502H188.612C188.672 142.498 189.896 141.496 192.284 141.496C193.412 141.496 194.258 141.724 194.822 142.18C195.386 142.624 195.668 143.254 195.668 144.07V149.506C195.668 149.95 195.89 150.172 196.334 150.172ZM191.402 150.352C192.326 150.352 193.106 150.088 193.742 149.56C194.366 149.044 194.678 148.27 194.678 147.238V145.834C194.378 146.134 193.862 146.326 193.13 146.41L191.69 146.59C190.838 146.698 190.22 146.908 189.836 147.22C189.464 147.52 189.278 147.958 189.278 148.534C189.278 149.098 189.458 149.542 189.818 149.866C190.178 150.19 190.706 150.352 191.402 150.352ZM207.847 141.496C208.867 141.496 209.647 141.796 210.187 142.396C210.739 142.984 211.015 143.806 211.015 144.862V151H210.007V144.97C210.007 143.266 209.245 142.414 207.721 142.414C206.941 142.414 206.299 142.72 205.795 143.332C205.303 143.932 205.051 144.79 205.039 145.906V151H204.013V144.97C204.013 143.266 203.251 142.414 201.727 142.414C200.959 142.414 200.323 142.72 199.819 143.332C199.327 143.932 199.075 144.79 199.063 145.906V151H198.037V141.712H199.009V143.422C199.585 142.138 200.545 141.496 201.889 141.496C203.401 141.496 204.385 142.174 204.841 143.53C205.477 142.174 206.479 141.496 207.847 141.496Z" fill="black"/>
<rect x="78" y="327" width="11" height="88" rx="2" fill="#4B7D74"/>
<rect x="98.7676" y="321" width="11" height="94" rx="2" fill="#4B7D74" fill-opacity="0.8"/>
<rect x="120" y="294" width="11" height="121" rx="3" fill="#4B7D74" fill-opacity="0.6"/>
<path d="M141 315C141 313.343 142.343 312 144 312H149C150.657 312 152 313.343 152 315V412C152 413.657 150.657 415 149 415H144C142.343 415 141 413.657 141 412V315Z" fill="#4B7D74"/>
<rect x="162" y="291" width="10" height="124" rx="3" fill="#4B7D74" fill-opacity="0.4"/>
<rect x="182" y="305" width="11" height="110" rx="3" fill="#4B7D74"/>
<path d="M203 334C203 332.343 204.343 331 206 331H210C211.657 331 213 332.343 213 334V412C213 413.657 211.657 415 210 415H206C204.343 415 203 413.657 203 412V334Z" fill="#4B7D74" fill-opacity="0.6"/>
<path d="M178.856 114.556C186.373 107.897 191.686 99.1081 194.09 89.3573C196.493 79.6065 195.873 69.3552 192.312 59.9652C188.751 50.5752 182.417 42.4908 174.152 36.7859C165.887 31.0811 156.082 28.0257 146.039 28.0257C135.997 28.0258 126.192 31.0811 117.927 36.786C109.662 42.4909 103.328 50.5753 99.7672 59.9653C96.2061 69.3554 95.5861 79.6067 97.9895 89.3575C100.393 99.1083 105.706 107.897 113.223 114.557" stroke="url(#paint0_linear)" stroke-width="8"/>
<path d="M184.525 76.2787C184.525 97.6459 167.203 114.967 145.836 114.967C124.469 114.967 107.148 97.6459 107.148 76.2787C107.148 54.9116 124.469 37.5901 145.836 37.5901C167.203 37.5901 184.525 54.9116 184.525 76.2787Z" fill="#F2F2F2"/>
<path d="M184.525 76.2787C184.525 97.6459 167.203 114.967 145.836 114.967C124.469 114.967 107.148 97.6459 107.148 76.2787C107.148 54.9116 124.469 37.5901 145.836 37.5901C167.203 37.5901 184.525 54.9116 184.525 76.2787Z" stroke="#6CA9EA"/>
<path d="M137.448 60.912H140.016V78H136.776V66.48H132.84V64.2L133.224 64.176C134.472 64.096 135.424 63.816 136.08 63.336C136.752 62.84 137.208 62.032 137.448 60.912ZM152.675 68.88C153.571 69.264 154.275 69.824 154.786 70.56C155.315 71.28 155.579 72.128 155.579 73.104C155.579 74.688 155.003 75.96 153.851 76.92C152.683 77.896 151.123 78.384 149.171 78.384C146.995 78.384 145.331 77.856 144.179 76.8C143.043 75.728 142.475 74.24 142.475 72.336H145.619C145.667 74.544 146.819 75.648 149.075 75.648C150.051 75.648 150.819 75.408 151.379 74.928C151.939 74.448 152.219 73.8 152.219 72.984C152.219 72.104 151.931 71.424 151.355 70.944C150.779 70.464 149.979 70.224 148.955 70.224H147.683V67.848H148.931C150.931 67.848 151.931 67.056 151.931 65.472C151.931 64.752 151.675 64.192 151.163 63.792C150.651 63.376 149.947 63.168 149.051 63.168C147.115 63.168 146.099 64.072 146.003 65.88H142.883C142.915 64.168 143.459 62.848 144.515 61.92C145.587 60.992 147.107 60.528 149.075 60.528C150.915 60.528 152.371 60.952 153.443 61.8C154.531 62.632 155.075 63.768 155.075 65.208C155.075 66.84 154.275 68.064 152.675 68.88Z" fill="black"/>
<path d="M130.884 90.932H129.66V89.648H130.884V90.932ZM130.872 98H129.672V91.808H130.872V98ZM134.507 98.156C132.787 98.156 131.883 97.448 131.795 96.032H132.995C133.043 96.464 133.183 96.768 133.415 96.944C133.647 97.12 134.015 97.208 134.519 97.208C135.431 97.208 135.887 96.92 135.887 96.344C135.887 96.096 135.791 95.904 135.599 95.768C135.407 95.632 135.063 95.52 134.567 95.432L133.931 95.312C132.619 95.072 131.963 94.456 131.963 93.464C131.963 92.912 132.175 92.476 132.599 92.156C133.023 91.828 133.607 91.664 134.351 91.664C136.055 91.664 136.927 92.356 136.967 93.74H135.803C135.779 93.324 135.651 93.032 135.419 92.864C135.187 92.688 134.831 92.6 134.351 92.6C133.967 92.6 133.671 92.672 133.463 92.816C133.255 92.96 133.151 93.164 133.151 93.428C133.151 93.668 133.243 93.856 133.427 93.992C133.611 94.12 133.903 94.224 134.303 94.304L134.951 94.412C135.711 94.556 136.259 94.772 136.595 95.06C136.931 95.348 137.099 95.748 137.099 96.26C137.099 96.86 136.871 97.328 136.415 97.664C135.959 97.992 135.323 98.156 134.507 98.156ZM140.425 98.156C138.705 98.156 137.801 97.448 137.713 96.032H138.913C138.961 96.464 139.101 96.768 139.333 96.944C139.565 97.12 139.933 97.208 140.437 97.208C141.349 97.208 141.805 96.92 141.805 96.344C141.805 96.096 141.709 95.904 141.517 95.768C141.325 95.632 140.981 95.52 140.485 95.432L139.849 95.312C138.537 95.072 137.881 94.456 137.881 93.464C137.881 92.912 138.093 92.476 138.517 92.156C138.941 91.828 139.525 91.664 140.269 91.664C141.973 91.664 142.845 92.356 142.885 93.74H141.721C141.697 93.324 141.569 93.032 141.337 92.864C141.105 92.688 140.749 92.6 140.269 92.6C139.885 92.6 139.589 92.672 139.381 92.816C139.173 92.96 139.069 93.164 139.069 93.428C139.069 93.668 139.161 93.856 139.345 93.992C139.529 94.12 139.821 94.224 140.221 94.304L140.869 94.412C141.629 94.556 142.177 94.772 142.513 95.06C142.849 95.348 143.017 95.748 143.017 96.26C143.017 96.86 142.789 97.328 142.333 97.664C141.877 97.992 141.241 98.156 140.425 98.156ZM147.978 95.3V91.808H149.178V98H148.026V97.076C147.554 97.788 146.906 98.144 146.082 98.144C145.402 98.144 144.87 97.952 144.486 97.568C144.102 97.184 143.91 96.648 143.91 95.96V91.808H145.11V95.792C145.11 96.656 145.546 97.088 146.418 97.088C146.858 97.088 147.226 96.932 147.522 96.62C147.826 96.3 147.978 95.86 147.978 95.3ZM156.123 94.952V95.3H151.455C151.511 95.908 151.691 96.368 151.995 96.68C152.299 96.984 152.711 97.136 153.231 97.136C154.015 97.136 154.527 96.792 154.767 96.104H155.979C155.811 96.736 155.483 97.236 154.995 97.604C154.515 97.964 153.919 98.144 153.207 98.144C152.319 98.144 151.603 97.848 151.059 97.256C150.515 96.664 150.243 95.88 150.243 94.904C150.243 93.928 150.515 93.144 151.059 92.552C151.603 91.96 152.311 91.664 153.183 91.664C154.095 91.664 154.815 91.972 155.343 92.588C155.863 93.204 156.123 93.992 156.123 94.952ZM153.183 92.672C152.711 92.672 152.323 92.816 152.019 93.104C151.723 93.392 151.539 93.808 151.467 94.352H154.887C154.831 93.848 154.651 93.444 154.347 93.14C154.051 92.828 153.663 92.672 153.183 92.672ZM159.444 98.156C157.724 98.156 156.82 97.448 156.732 96.032H157.932C157.98 96.464 158.12 96.768 158.352 96.944C158.584 97.12 158.952 97.208 159.456 97.208C160.368 97.208 160.824 96.92 160.824 96.344C160.824 96.096 160.728 95.904 160.536 95.768C160.344 95.632 160 95.52 159.504 95.432L158.868 95.312C157.556 95.072 156.9 94.456 156.9 93.464C156.9 92.912 157.112 92.476 157.536 92.156C157.96 91.828 158.544 91.664 159.288 91.664C160.992 91.664 161.864 92.356 161.904 93.74H160.74C160.716 93.324 160.588 93.032 160.356 92.864C160.124 92.688 159.768 92.6 159.288 92.6C158.904 92.6 158.608 92.672 158.4 92.816C158.192 92.96 158.088 93.164 158.088 93.428C158.088 93.668 158.18 93.856 158.364 93.992C158.548 94.12 158.84 94.224 159.24 94.304L159.888 94.412C160.648 94.556 161.196 94.772 161.532 95.06C161.868 95.348 162.036 95.748 162.036 96.26C162.036 96.86 161.808 97.328 161.352 97.664C160.896 97.992 160.26 98.156 159.444 98.156Z" fill="black"/>
<g filter="url(#filter1_d)">
<rect x="4" y="9" width="277" height="452" rx="30" fill="white"/>
<rect x="4.5" y="9.5" width="276" height="451" rx="29.5" stroke="#4B7D74"/>
</g>
<path d="M85.9268 141.768C86.5188 141.768 87.0521 141.867 87.5268 142.064C88.0015 142.261 88.4068 142.541 88.7428 142.904C89.0788 143.267 89.3348 143.707 89.5108 144.224C89.6921 144.736 89.7828 145.309 89.7828 145.944C89.7828 146.584 89.6921 147.16 89.5108 147.672C89.3348 148.184 89.0788 148.621 88.7428 148.984C88.4068 149.347 88.0015 149.627 87.5268 149.824C87.0521 150.016 86.5188 150.112 85.9268 150.112C85.3295 150.112 84.7908 150.016 84.3108 149.824C83.8361 149.627 83.4308 149.347 83.0948 148.984C82.7588 148.621 82.5001 148.184 82.3188 147.672C82.1428 147.16 82.0548 146.584 82.0548 145.944C82.0548 145.309 82.1428 144.736 82.3188 144.224C82.5001 143.707 82.7588 143.267 83.0948 142.904C83.4308 142.541 83.8361 142.261 84.3108 142.064C84.7908 141.867 85.3295 141.768 85.9268 141.768ZM85.9268 149C86.7268 149 87.3241 148.733 87.7188 148.2C88.1135 147.661 88.3108 146.912 88.3108 145.952C88.3108 144.987 88.1135 144.235 87.7188 143.696C87.3241 143.157 86.7268 142.888 85.9268 142.888C85.5215 142.888 85.1668 142.957 84.8628 143.096C84.5641 143.235 84.3135 143.435 84.1108 143.696C83.9135 143.957 83.7641 144.28 83.6628 144.664C83.5668 145.043 83.5188 145.472 83.5188 145.952C83.5188 146.912 83.7161 147.661 84.1108 148.2C84.5108 148.733 85.1161 149 85.9268 149ZM93.0209 148.048C93.2823 148.4 93.5676 148.648 93.8769 148.792C94.1863 148.936 94.5329 149.008 94.9169 149.008C95.6743 149.008 96.2556 148.739 96.6609 148.2C97.0663 147.661 97.2689 146.893 97.2689 145.896C97.2689 145.368 97.2209 144.915 97.1249 144.536C97.0343 144.157 96.9009 143.848 96.7249 143.608C96.5489 143.363 96.3329 143.184 96.0769 143.072C95.8209 142.96 95.5303 142.904 95.2049 142.904C94.7409 142.904 94.3329 143.011 93.9809 143.224C93.6343 143.437 93.3143 143.739 93.0209 144.128V148.048ZM92.9489 143.152C93.2903 142.731 93.6849 142.392 94.1329 142.136C94.5809 141.88 95.0929 141.752 95.6689 141.752C96.1383 141.752 96.5623 141.843 96.9409 142.024C97.3196 142.2 97.6423 142.464 97.9089 142.816C98.1756 143.163 98.3809 143.595 98.5249 144.112C98.6689 144.629 98.7409 145.224 98.7409 145.896C98.7409 146.493 98.6609 147.051 98.5009 147.568C98.3409 148.08 98.1089 148.525 97.8049 148.904C97.5063 149.277 97.1383 149.573 96.7009 149.792C96.2689 150.005 95.7809 150.112 95.2369 150.112C94.7409 150.112 94.3143 150.029 93.9569 149.864C93.6049 149.693 93.2929 149.459 93.0209 149.16V152.744H91.5889V141.896H92.4449C92.6476 141.896 92.7729 141.995 92.8209 142.192L92.9489 143.152ZM105.982 145.064C105.982 144.733 105.934 144.432 105.838 144.16C105.747 143.883 105.611 143.645 105.43 143.448C105.254 143.245 105.038 143.091 104.782 142.984C104.526 142.872 104.235 142.816 103.91 142.816C103.227 142.816 102.686 143.016 102.286 143.416C101.891 143.811 101.646 144.36 101.55 145.064H105.982ZM107.134 148.864C106.958 149.077 106.747 149.264 106.502 149.424C106.256 149.579 105.992 149.707 105.71 149.808C105.432 149.909 105.144 149.984 104.846 150.032C104.547 150.085 104.251 150.112 103.958 150.112C103.398 150.112 102.88 150.019 102.406 149.832C101.936 149.64 101.528 149.363 101.182 149C100.84 148.632 100.574 148.179 100.382 147.64C100.19 147.101 100.094 146.483 100.094 145.784C100.094 145.219 100.179 144.691 100.35 144.2C100.526 143.709 100.776 143.285 101.102 142.928C101.427 142.565 101.824 142.283 102.294 142.08C102.763 141.872 103.291 141.768 103.878 141.768C104.363 141.768 104.811 141.851 105.222 142.016C105.638 142.176 105.995 142.411 106.294 142.72C106.598 143.024 106.835 143.403 107.006 143.856C107.176 144.304 107.262 144.816 107.262 145.392C107.262 145.616 107.238 145.765 107.19 145.84C107.142 145.915 107.051 145.952 106.918 145.952H101.502C101.518 146.464 101.587 146.909 101.71 147.288C101.838 147.667 102.014 147.984 102.238 148.24C102.462 148.491 102.728 148.68 103.038 148.808C103.347 148.931 103.694 148.992 104.078 148.992C104.435 148.992 104.742 148.952 104.998 148.872C105.259 148.787 105.483 148.696 105.67 148.6C105.856 148.504 106.011 148.416 106.134 148.336C106.262 148.251 106.371 148.208 106.462 148.208C106.579 148.208 106.67 148.253 106.734 148.344L107.134 148.864ZM110.355 143.072C110.531 142.875 110.717 142.696 110.915 142.536C111.112 142.376 111.32 142.24 111.539 142.128C111.763 142.011 111.997 141.923 112.243 141.864C112.493 141.8 112.763 141.768 113.051 141.768C113.493 141.768 113.883 141.843 114.219 141.992C114.56 142.136 114.843 142.344 115.067 142.616C115.296 142.883 115.469 143.205 115.587 143.584C115.704 143.963 115.763 144.381 115.763 144.84V150H114.331V144.84C114.331 144.227 114.189 143.752 113.907 143.416C113.629 143.075 113.205 142.904 112.635 142.904C112.213 142.904 111.819 143.005 111.451 143.208C111.088 143.411 110.752 143.685 110.443 144.032V150H109.011V141.896H109.867C110.069 141.896 110.195 141.995 110.243 142.192L110.355 143.072ZM122.653 143.232C122.589 143.349 122.49 143.408 122.357 143.408C122.277 143.408 122.186 143.379 122.085 143.32C121.983 143.261 121.858 143.197 121.709 143.128C121.565 143.053 121.391 142.987 121.189 142.928C120.986 142.864 120.746 142.832 120.469 142.832C120.229 142.832 120.013 142.864 119.821 142.928C119.629 142.987 119.463 143.069 119.325 143.176C119.191 143.283 119.087 143.408 119.013 143.552C118.943 143.691 118.909 143.843 118.909 144.008C118.909 144.216 118.967 144.389 119.085 144.528C119.207 144.667 119.367 144.787 119.565 144.888C119.762 144.989 119.986 145.08 120.237 145.16C120.487 145.235 120.743 145.317 121.005 145.408C121.271 145.493 121.53 145.589 121.781 145.696C122.031 145.803 122.255 145.936 122.453 146.096C122.65 146.256 122.807 146.453 122.925 146.688C123.047 146.917 123.109 147.195 123.109 147.52C123.109 147.893 123.042 148.24 122.909 148.56C122.775 148.875 122.578 149.149 122.317 149.384C122.055 149.613 121.735 149.795 121.357 149.928C120.978 150.061 120.541 150.128 120.045 150.128C119.479 150.128 118.967 150.037 118.509 149.856C118.05 149.669 117.661 149.432 117.341 149.144L117.677 148.6C117.719 148.531 117.77 148.477 117.829 148.44C117.887 148.403 117.962 148.384 118.053 148.384C118.149 148.384 118.25 148.421 118.357 148.496C118.463 148.571 118.591 148.653 118.741 148.744C118.895 148.835 119.082 148.917 119.301 148.992C119.519 149.067 119.791 149.104 120.117 149.104C120.394 149.104 120.637 149.069 120.845 149C121.053 148.925 121.226 148.827 121.365 148.704C121.503 148.581 121.605 148.44 121.669 148.28C121.738 148.12 121.773 147.949 121.773 147.768C121.773 147.544 121.711 147.36 121.589 147.216C121.471 147.067 121.314 146.941 121.117 146.84C120.919 146.733 120.693 146.643 120.437 146.568C120.186 146.488 119.927 146.405 119.661 146.32C119.399 146.235 119.141 146.139 118.885 146.032C118.634 145.92 118.41 145.781 118.213 145.616C118.015 145.451 117.855 145.248 117.733 145.008C117.615 144.763 117.557 144.467 117.557 144.12C117.557 143.811 117.621 143.515 117.749 143.232C117.877 142.944 118.063 142.693 118.309 142.48C118.554 142.261 118.855 142.088 119.213 141.96C119.57 141.832 119.978 141.768 120.437 141.768C120.97 141.768 121.447 141.853 121.869 142.024C122.295 142.189 122.663 142.419 122.973 142.712L122.653 143.232ZM128.271 141.768C128.863 141.768 129.396 141.867 129.871 142.064C130.345 142.261 130.751 142.541 131.087 142.904C131.423 143.267 131.679 143.707 131.855 144.224C132.036 144.736 132.127 145.309 132.127 145.944C132.127 146.584 132.036 147.16 131.855 147.672C131.679 148.184 131.423 148.621 131.087 148.984C130.751 149.347 130.345 149.627 129.871 149.824C129.396 150.016 128.863 150.112 128.271 150.112C127.673 150.112 127.135 150.016 126.655 149.824C126.18 149.627 125.775 149.347 125.439 148.984C125.103 148.621 124.844 148.184 124.663 147.672C124.487 147.16 124.399 146.584 124.399 145.944C124.399 145.309 124.487 144.736 124.663 144.224C124.844 143.707 125.103 143.267 125.439 142.904C125.775 142.541 126.18 142.261 126.655 142.064C127.135 141.867 127.673 141.768 128.271 141.768ZM128.271 149C129.071 149 129.668 148.733 130.063 148.2C130.457 147.661 130.655 146.912 130.655 145.952C130.655 144.987 130.457 144.235 130.063 143.696C129.668 143.157 129.071 142.888 128.271 142.888C127.865 142.888 127.511 142.957 127.207 143.096C126.908 143.235 126.657 143.435 126.455 143.696C126.257 143.957 126.108 144.28 126.007 144.664C125.911 145.043 125.863 145.472 125.863 145.952C125.863 146.912 126.06 147.661 126.455 148.2C126.855 148.733 127.46 149 128.271 149ZM140.597 141.896V150H139.749C139.546 150 139.418 149.901 139.365 149.704L139.253 148.832C138.901 149.221 138.506 149.536 138.069 149.776C137.631 150.011 137.13 150.128 136.565 150.128C136.122 150.128 135.73 150.056 135.389 149.912C135.053 149.763 134.77 149.555 134.541 149.288C134.311 149.021 134.138 148.699 134.021 148.32C133.909 147.941 133.853 147.523 133.853 147.064V141.896H135.277V147.064C135.277 147.677 135.415 148.152 135.693 148.488C135.975 148.824 136.405 148.992 136.981 148.992C137.402 148.992 137.794 148.893 138.157 148.696C138.525 148.493 138.863 148.216 139.173 147.864V141.896H140.597ZM144.207 143.52C144.463 142.965 144.777 142.533 145.151 142.224C145.524 141.909 145.98 141.752 146.519 141.752C146.689 141.752 146.852 141.771 147.007 141.808C147.167 141.845 147.308 141.904 147.431 141.984L147.327 143.048C147.295 143.181 147.215 143.248 147.087 143.248C147.012 143.248 146.903 143.232 146.759 143.2C146.615 143.168 146.452 143.152 146.271 143.152C146.015 143.152 145.785 143.189 145.583 143.264C145.385 143.339 145.207 143.451 145.047 143.6C144.892 143.744 144.751 143.925 144.623 144.144C144.5 144.357 144.388 144.603 144.287 144.88V150H142.855V141.896H143.671C143.825 141.896 143.932 141.925 143.991 141.984C144.049 142.043 144.089 142.144 144.111 142.288L144.207 143.52ZM153.995 143.336C153.952 143.395 153.909 143.44 153.867 143.472C153.824 143.504 153.765 143.52 153.691 143.52C153.611 143.52 153.523 143.488 153.427 143.424C153.331 143.355 153.211 143.28 153.067 143.2C152.928 143.12 152.755 143.048 152.547 142.984C152.344 142.915 152.093 142.88 151.795 142.88C151.395 142.88 151.043 142.952 150.739 143.096C150.435 143.235 150.179 143.437 149.971 143.704C149.768 143.971 149.613 144.293 149.507 144.672C149.405 145.051 149.355 145.475 149.355 145.944C149.355 146.435 149.411 146.872 149.523 147.256C149.635 147.635 149.792 147.955 149.995 148.216C150.203 148.472 150.451 148.669 150.739 148.808C151.032 148.941 151.36 149.008 151.723 149.008C152.069 149.008 152.355 148.968 152.579 148.888C152.803 148.803 152.987 148.709 153.131 148.608C153.28 148.507 153.403 148.416 153.499 148.336C153.6 148.251 153.699 148.208 153.795 148.208C153.912 148.208 154.003 148.253 154.067 148.344L154.467 148.864C154.291 149.083 154.091 149.269 153.867 149.424C153.643 149.579 153.4 149.709 153.139 149.816C152.883 149.917 152.613 149.992 152.331 150.04C152.048 150.088 151.76 150.112 151.467 150.112C150.96 150.112 150.488 150.019 150.051 149.832C149.619 149.645 149.243 149.376 148.923 149.024C148.603 148.667 148.352 148.229 148.171 147.712C147.989 147.195 147.899 146.605 147.899 145.944C147.899 145.341 147.981 144.784 148.147 144.272C148.317 143.76 148.563 143.32 148.883 142.952C149.208 142.579 149.605 142.288 150.075 142.08C150.549 141.872 151.093 141.768 151.707 141.768C152.277 141.768 152.779 141.861 153.211 142.048C153.648 142.229 154.035 142.488 154.371 142.824L153.995 143.336ZM161.279 145.064C161.279 144.733 161.231 144.432 161.135 144.16C161.044 143.883 160.908 143.645 160.727 143.448C160.551 143.245 160.335 143.091 160.079 142.984C159.823 142.872 159.532 142.816 159.207 142.816C158.524 142.816 157.983 143.016 157.583 143.416C157.188 143.811 156.943 144.36 156.847 145.064H161.279ZM162.431 148.864C162.255 149.077 162.044 149.264 161.799 149.424C161.553 149.579 161.289 149.707 161.007 149.808C160.729 149.909 160.441 149.984 160.143 150.032C159.844 150.085 159.548 150.112 159.255 150.112C158.695 150.112 158.177 150.019 157.703 149.832C157.233 149.64 156.825 149.363 156.479 149C156.137 148.632 155.871 148.179 155.679 147.64C155.487 147.101 155.391 146.483 155.391 145.784C155.391 145.219 155.476 144.691 155.647 144.2C155.823 143.709 156.073 143.285 156.399 142.928C156.724 142.565 157.121 142.283 157.591 142.08C158.06 141.872 158.588 141.768 159.175 141.768C159.66 141.768 160.108 141.851 160.519 142.016C160.935 142.176 161.292 142.411 161.591 142.72C161.895 143.024 162.132 143.403 162.303 143.856C162.473 144.304 162.559 144.816 162.559 145.392C162.559 145.616 162.535 145.765 162.487 145.84C162.439 145.915 162.348 145.952 162.215 145.952H156.799C156.815 146.464 156.884 146.909 157.007 147.288C157.135 147.667 157.311 147.984 157.535 148.24C157.759 148.491 158.025 148.68 158.335 148.808C158.644 148.931 158.991 148.992 159.375 148.992C159.732 148.992 160.039 148.952 160.295 148.872C160.556 148.787 160.78 148.696 160.967 148.6C161.153 148.504 161.308 148.416 161.431 148.336C161.559 148.251 161.668 148.208 161.759 148.208C161.876 148.208 161.967 148.253 162.031 148.344L162.431 148.864ZM164.068 149.12C164.068 148.981 164.092 148.851 164.14 148.728C164.193 148.605 164.262 148.499 164.348 148.408C164.438 148.317 164.545 148.245 164.668 148.192C164.79 148.139 164.921 148.112 165.06 148.112C165.198 148.112 165.329 148.139 165.452 148.192C165.574 148.245 165.681 148.317 165.772 148.408C165.862 148.499 165.934 148.605 165.988 148.728C166.041 148.851 166.068 148.981 166.068 149.12C166.068 149.264 166.041 149.397 165.988 149.52C165.934 149.637 165.862 149.741 165.772 149.832C165.681 149.923 165.574 149.992 165.452 150.04C165.329 150.093 165.198 150.12 165.06 150.12C164.921 150.12 164.79 150.093 164.668 150.04C164.545 149.992 164.438 149.923 164.348 149.832C164.262 149.741 164.193 149.637 164.14 149.52C164.092 149.397 164.068 149.264 164.068 149.12ZM169.521 148.048C169.782 148.4 170.068 148.648 170.377 148.792C170.686 148.936 171.033 149.008 171.417 149.008C172.174 149.008 172.756 148.739 173.161 148.2C173.566 147.661 173.769 146.893 173.769 145.896C173.769 145.368 173.721 144.915 173.625 144.536C173.534 144.157 173.401 143.848 173.225 143.608C173.049 143.363 172.833 143.184 172.577 143.072C172.321 142.96 172.03 142.904 171.705 142.904C171.241 142.904 170.833 143.011 170.481 143.224C170.134 143.437 169.814 143.739 169.521 144.128V148.048ZM169.449 143.152C169.79 142.731 170.185 142.392 170.633 142.136C171.081 141.88 171.593 141.752 172.169 141.752C172.638 141.752 173.062 141.843 173.441 142.024C173.82 142.2 174.142 142.464 174.409 142.816C174.676 143.163 174.881 143.595 175.025 144.112C175.169 144.629 175.241 145.224 175.241 145.896C175.241 146.493 175.161 147.051 175.001 147.568C174.841 148.08 174.609 148.525 174.305 148.904C174.006 149.277 173.638 149.573 173.201 149.792C172.769 150.005 172.281 150.112 171.737 150.112C171.241 150.112 170.814 150.029 170.457 149.864C170.105 149.693 169.793 149.459 169.521 149.16V152.744H168.089V141.896H168.945C169.148 141.896 169.273 141.995 169.321 142.192L169.449 143.152ZM178.53 138.216V150H177.106V138.216H178.53ZM185.231 146.352C184.575 146.373 184.015 146.427 183.551 146.512C183.092 146.592 182.716 146.699 182.423 146.832C182.135 146.965 181.924 147.123 181.791 147.304C181.663 147.485 181.599 147.688 181.599 147.912C181.599 148.125 181.634 148.309 181.703 148.464C181.772 148.619 181.866 148.747 181.983 148.848C182.106 148.944 182.247 149.016 182.407 149.064C182.572 149.107 182.748 149.128 182.935 149.128C183.186 149.128 183.415 149.104 183.623 149.056C183.831 149.003 184.026 148.928 184.207 148.832C184.394 148.736 184.57 148.621 184.735 148.488C184.906 148.355 185.071 148.203 185.231 148.032V146.352ZM180.631 143.04C181.079 142.608 181.562 142.285 182.079 142.072C182.596 141.859 183.17 141.752 183.799 141.752C184.252 141.752 184.655 141.827 185.007 141.976C185.359 142.125 185.655 142.333 185.895 142.6C186.135 142.867 186.316 143.189 186.439 143.568C186.562 143.947 186.623 144.363 186.623 144.816V150H185.991C185.852 150 185.746 149.979 185.671 149.936C185.596 149.888 185.538 149.797 185.495 149.664L185.335 148.896C185.122 149.093 184.914 149.269 184.711 149.424C184.508 149.573 184.295 149.701 184.071 149.808C183.847 149.909 183.607 149.987 183.351 150.04C183.1 150.099 182.82 150.128 182.511 150.128C182.196 150.128 181.9 150.085 181.623 150C181.346 149.909 181.103 149.776 180.895 149.6C180.692 149.424 180.53 149.203 180.407 148.936C180.29 148.664 180.231 148.344 180.231 147.976C180.231 147.656 180.319 147.349 180.495 147.056C180.671 146.757 180.956 146.493 181.351 146.264C181.746 146.035 182.26 145.848 182.895 145.704C183.53 145.555 184.308 145.469 185.231 145.448V144.816C185.231 144.187 185.095 143.712 184.823 143.392C184.551 143.067 184.154 142.904 183.631 142.904C183.279 142.904 182.983 142.949 182.743 143.04C182.508 143.125 182.303 143.224 182.127 143.336C181.956 143.443 181.807 143.541 181.679 143.632C181.556 143.717 181.434 143.76 181.311 143.76C181.215 143.76 181.132 143.736 181.063 143.688C180.994 143.635 180.935 143.571 180.887 143.496L180.631 143.04ZM194.432 143.336C194.389 143.395 194.347 143.44 194.304 143.472C194.261 143.504 194.203 143.52 194.128 143.52C194.048 143.52 193.96 143.488 193.864 143.424C193.768 143.355 193.648 143.28 193.504 143.2C193.365 143.12 193.192 143.048 192.984 142.984C192.781 142.915 192.531 142.88 192.232 142.88C191.832 142.88 191.48 142.952 191.176 143.096C190.872 143.235 190.616 143.437 190.408 143.704C190.205 143.971 190.051 144.293 189.944 144.672C189.843 145.051 189.792 145.475 189.792 145.944C189.792 146.435 189.848 146.872 189.96 147.256C190.072 147.635 190.229 147.955 190.432 148.216C190.64 148.472 190.888 148.669 191.176 148.808C191.469 148.941 191.797 149.008 192.16 149.008C192.507 149.008 192.792 148.968 193.016 148.888C193.24 148.803 193.424 148.709 193.568 148.608C193.717 148.507 193.84 148.416 193.936 148.336C194.037 148.251 194.136 148.208 194.232 148.208C194.349 148.208 194.44 148.253 194.504 148.344L194.904 148.864C194.728 149.083 194.528 149.269 194.304 149.424C194.08 149.579 193.837 149.709 193.576 149.816C193.32 149.917 193.051 149.992 192.768 150.04C192.485 150.088 192.197 150.112 191.904 150.112C191.397 150.112 190.925 150.019 190.488 149.832C190.056 149.645 189.68 149.376 189.36 149.024C189.04 148.667 188.789 148.229 188.608 147.712C188.427 147.195 188.336 146.605 188.336 145.944C188.336 145.341 188.419 144.784 188.584 144.272C188.755 143.76 189 143.32 189.32 142.952C189.645 142.579 190.043 142.288 190.512 142.08C190.987 141.872 191.531 141.768 192.144 141.768C192.715 141.768 193.216 141.861 193.648 142.048C194.085 142.229 194.472 142.488 194.808 142.824L194.432 143.336ZM201.716 145.064C201.716 144.733 201.668 144.432 201.572 144.16C201.481 143.883 201.345 143.645 201.164 143.448C200.988 143.245 200.772 143.091 200.516 142.984C200.26 142.872 199.969 142.816 199.644 142.816C198.961 142.816 198.42 143.016 198.02 143.416C197.625 143.811 197.38 144.36 197.284 145.064H201.716ZM202.868 148.864C202.692 149.077 202.481 149.264 202.236 149.424C201.991 149.579 201.727 149.707 201.444 149.808C201.167 149.909 200.879 149.984 200.58 150.032C200.281 150.085 199.985 150.112 199.692 150.112C199.132 150.112 198.615 150.019 198.14 149.832C197.671 149.64 197.263 149.363 196.916 149C196.575 148.632 196.308 148.179 196.116 147.64C195.924 147.101 195.828 146.483 195.828 145.784C195.828 145.219 195.913 144.691 196.084 144.2C196.26 143.709 196.511 143.285 196.836 142.928C197.161 142.565 197.559 142.283 198.028 142.08C198.497 141.872 199.025 141.768 199.612 141.768C200.097 141.768 200.545 141.851 200.956 142.016C201.372 142.176 201.729 142.411 202.028 142.72C202.332 143.024 202.569 143.403 202.74 143.856C202.911 144.304 202.996 144.816 202.996 145.392C202.996 145.616 202.972 145.765 202.924 145.84C202.876 145.915 202.785 145.952 202.652 145.952H197.236C197.252 146.464 197.321 146.909 197.444 147.288C197.572 147.667 197.748 147.984 197.972 148.24C198.196 148.491 198.463 148.68 198.772 148.808C199.081 148.931 199.428 148.992 199.812 148.992C200.169 148.992 200.476 148.952 200.732 148.872C200.993 148.787 201.217 148.696 201.404 148.6C201.591 148.504 201.745 148.416 201.868 148.336C201.996 148.251 202.105 148.208 202.196 148.208C202.313 148.208 202.404 148.253 202.468 148.344L202.868 148.864Z" fill="black"/>
<rect x="73" y="252" width="14" height="112" rx="2" fill="#8DD3C7"/>
<rect x="99" y="244" width="14" height="120" rx="2" fill="#FCF2B3"/>
<rect x="127" y="210" width="14" height="154" rx="3" fill="#BEBADA"/>
<path d="M153 236C153 234.343 154.343 233 156 233H164C165.657 233 167 234.343 167 236V361C167 362.657 165.657 364 164 364H156C154.343 364 153 362.657 153 361V236Z" fill="#F17E71"/>
<rect x="180" y="206" width="13" height="158" rx="3" fill="#8DD3C7"/>
<rect x="206" y="224" width="14" height="140" rx="3" fill="#80B1D3"/>
<path d="M156.471 125.89C162.824 124.52 168.845 121.913 174.19 118.216C179.535 114.519 184.099 109.806 187.623 104.345C191.146 98.8843 193.56 92.783 194.725 86.3895C195.891 79.996 195.786 73.4355 194.416 67.0826C193.046 60.7297 190.438 54.7089 186.742 49.3638C183.045 44.0188 178.332 39.4542 172.871 35.9306C167.41 32.4071 161.309 29.9937 154.915 28.8281C148.522 27.6626 141.961 27.7678 135.608 29.1376C129.255 30.5075 123.235 33.1152 117.889 36.812C112.544 40.5087 107.98 45.222 104.456 50.6828C100.933 56.1436 98.5193 62.2449 97.3538 68.6385C96.1882 75.032 96.2934 81.5925 97.6633 87.9453C99.0331 94.2982 101.641 100.319 105.338 105.664C109.034 111.009 113.748 115.574 119.208 119.097C124.669 122.621 130.771 125.034 137.164 126.2C143.558 127.365 150.118 127.26 156.471 125.89L156.471 125.89Z" stroke="url(#paint1_linear)" stroke-width="8"/>
<path d="M166.588 48.9242C182.739 60.7855 186.216 83.4941 174.355 99.6452C162.494 115.796 139.785 119.274 123.634 107.413C107.483 95.5512 104.005 72.8426 115.867 56.6915C127.728 40.5404 150.437 37.0629 166.588 48.9242Z" fill="#F2F2F2"/>
<path d="M133.296 65.484C133.416 64.652 133.648 63.924 133.992 63.3C134.336 62.668 134.764 62.144 135.276 61.728C135.796 61.304 136.388 60.988 137.052 60.78C137.724 60.564 138.444 60.456 139.212 60.456C140.012 60.456 140.732 60.572 141.372 60.804C142.02 61.028 142.572 61.344 143.028 61.752C143.484 62.152 143.832 62.624 144.072 63.168C144.32 63.712 144.444 64.3 144.444 64.932C144.444 65.484 144.38 65.972 144.252 66.396C144.132 66.812 143.956 67.176 143.724 67.488C143.492 67.8 143.204 68.064 142.86 68.28C142.516 68.496 142.128 68.676 141.696 68.82C142.736 69.148 143.512 69.648 144.024 70.32C144.536 70.992 144.792 71.836 144.792 72.852C144.792 73.716 144.632 74.48 144.312 75.144C143.992 75.808 143.56 76.368 143.016 76.824C142.472 77.272 141.84 77.612 141.12 77.844C140.408 78.076 139.652 78.192 138.852 78.192C137.98 78.192 137.22 78.092 136.572 77.892C135.924 77.692 135.36 77.396 134.88 77.004C134.4 76.612 133.992 76.132 133.656 75.564C133.32 74.996 133.032 74.34 132.792 73.596L134.1 73.056C134.444 72.912 134.764 72.876 135.06 72.948C135.364 73.012 135.584 73.172 135.72 73.428C135.864 73.708 136.02 73.984 136.188 74.256C136.364 74.528 136.572 74.772 136.812 74.988C137.052 75.196 137.332 75.368 137.652 75.504C137.98 75.632 138.368 75.696 138.816 75.696C139.32 75.696 139.76 75.616 140.136 75.456C140.512 75.288 140.824 75.072 141.072 74.808C141.328 74.544 141.516 74.252 141.636 73.932C141.764 73.604 141.828 73.276 141.828 72.948C141.828 72.532 141.784 72.156 141.696 71.82C141.608 71.476 141.424 71.184 141.144 70.944C140.864 70.704 140.46 70.516 139.932 70.38C139.412 70.244 138.712 70.176 137.832 70.176V68.064C138.56 68.056 139.164 67.988 139.644 67.86C140.124 67.732 140.504 67.556 140.784 67.332C141.072 67.1 141.272 66.824 141.384 66.504C141.496 66.184 141.552 65.832 141.552 65.448C141.552 64.632 141.324 64.012 140.868 63.588C140.412 63.164 139.804 62.952 139.044 62.952C138.692 62.952 138.368 63.004 138.072 63.108C137.776 63.204 137.508 63.344 137.268 63.528C137.036 63.704 136.84 63.912 136.68 64.152C136.52 64.392 136.4 64.656 136.32 64.944C136.184 65.312 136.004 65.556 135.78 65.676C135.564 65.796 135.256 65.824 134.856 65.76L133.296 65.484ZM154.466 71.46V65.784C154.466 65.248 154.502 64.656 154.574 64.008L149.186 71.46H154.466ZM159.23 71.46V73.176C159.23 73.336 159.178 73.476 159.074 73.596C158.97 73.708 158.822 73.764 158.63 73.764H157.046V78H154.466V73.764H147.146C146.946 73.764 146.77 73.704 146.618 73.584C146.466 73.456 146.37 73.3 146.33 73.116L146.018 71.616L154.238 60.636H157.046V71.46H159.23Z" fill="black"/>
<path d="M130.974 91.922V98H129.906V91.922H130.974ZM131.202 90.014C131.202 90.118 131.18 90.216 131.136 90.308C131.096 90.396 131.04 90.476 130.968 90.548C130.9 90.616 130.818 90.67 130.722 90.71C130.63 90.75 130.532 90.77 130.428 90.77C130.324 90.77 130.226 90.75 130.134 90.71C130.046 90.67 129.968 90.616 129.9 90.548C129.832 90.476 129.778 90.396 129.738 90.308C129.698 90.216 129.678 90.118 129.678 90.014C129.678 89.91 129.698 89.812 129.738 89.72C129.778 89.624 129.832 89.542 129.9 89.474C129.968 89.402 130.046 89.346 130.134 89.306C130.226 89.266 130.324 89.246 130.428 89.246C130.532 89.246 130.63 89.266 130.722 89.306C130.818 89.346 130.9 89.402 130.968 89.474C131.04 89.542 131.096 89.624 131.136 89.72C131.18 89.812 131.202 89.91 131.202 90.014ZM136.269 92.924C136.221 93.012 136.147 93.056 136.047 93.056C135.987 93.056 135.919 93.034 135.843 92.99C135.767 92.946 135.673 92.898 135.561 92.846C135.453 92.79 135.323 92.74 135.171 92.696C135.019 92.648 134.839 92.624 134.631 92.624C134.451 92.624 134.289 92.648 134.145 92.696C134.001 92.74 133.877 92.802 133.773 92.882C133.673 92.962 133.595 93.056 133.539 93.164C133.487 93.268 133.461 93.382 133.461 93.506C133.461 93.662 133.505 93.792 133.593 93.896C133.685 94 133.805 94.09 133.953 94.166C134.101 94.242 134.269 94.31 134.457 94.37C134.645 94.426 134.837 94.488 135.033 94.556C135.233 94.62 135.427 94.692 135.615 94.772C135.803 94.852 135.971 94.952 136.119 95.072C136.267 95.192 136.385 95.34 136.473 95.516C136.565 95.688 136.611 95.896 136.611 96.14C136.611 96.42 136.561 96.68 136.461 96.92C136.361 97.156 136.213 97.362 136.017 97.538C135.821 97.71 135.581 97.846 135.297 97.946C135.013 98.046 134.685 98.096 134.313 98.096C133.889 98.096 133.505 98.028 133.161 97.892C132.817 97.752 132.525 97.574 132.285 97.358L132.537 96.95C132.569 96.898 132.607 96.858 132.651 96.83C132.695 96.802 132.751 96.788 132.819 96.788C132.891 96.788 132.967 96.816 133.047 96.872C133.127 96.928 133.223 96.99 133.335 97.058C133.451 97.126 133.591 97.188 133.755 97.244C133.919 97.3 134.123 97.328 134.367 97.328C134.575 97.328 134.757 97.302 134.913 97.25C135.069 97.194 135.199 97.12 135.303 97.028C135.407 96.936 135.483 96.83 135.531 96.71C135.583 96.59 135.609 96.462 135.609 96.326C135.609 96.158 135.563 96.02 135.471 95.912C135.383 95.8 135.265 95.706 135.117 95.63C134.969 95.55 134.799 95.482 134.607 95.426C134.419 95.366 134.225 95.304 134.025 95.24C133.829 95.176 133.635 95.104 133.443 95.024C133.255 94.94 133.087 94.836 132.939 94.712C132.791 94.588 132.671 94.436 132.579 94.256C132.491 94.072 132.447 93.85 132.447 93.59C132.447 93.358 132.495 93.136 132.591 92.924C132.687 92.708 132.827 92.52 133.011 92.36C133.195 92.196 133.421 92.066 133.689 91.97C133.957 91.874 134.263 91.826 134.607 91.826C135.007 91.826 135.365 91.89 135.681 92.018C136.001 92.142 136.277 92.314 136.509 92.534L136.269 92.924ZM141.46 92.924C141.412 93.012 141.338 93.056 141.238 93.056C141.178 93.056 141.11 93.034 141.034 92.99C140.958 92.946 140.864 92.898 140.752 92.846C140.644 92.79 140.514 92.74 140.362 92.696C140.21 92.648 140.03 92.624 139.822 92.624C139.642 92.624 139.48 92.648 139.336 92.696C139.192 92.74 139.068 92.802 138.964 92.882C138.864 92.962 138.786 93.056 138.73 93.164C138.678 93.268 138.652 93.382 138.652 93.506C138.652 93.662 138.696 93.792 138.784 93.896C138.876 94 138.996 94.09 139.144 94.166C139.292 94.242 139.46 94.31 139.648 94.37C139.836 94.426 140.028 94.488 140.224 94.556C140.424 94.62 140.618 94.692 140.806 94.772C140.994 94.852 141.162 94.952 141.31 95.072C141.458 95.192 141.576 95.34 141.664 95.516C141.756 95.688 141.802 95.896 141.802 96.14C141.802 96.42 141.752 96.68 141.652 96.92C141.552 97.156 141.404 97.362 141.208 97.538C141.012 97.71 140.772 97.846 140.488 97.946C140.204 98.046 139.876 98.096 139.504 98.096C139.08 98.096 138.696 98.028 138.352 97.892C138.008 97.752 137.716 97.574 137.476 97.358L137.728 96.95C137.76 96.898 137.798 96.858 137.842 96.83C137.886 96.802 137.942 96.788 138.01 96.788C138.082 96.788 138.158 96.816 138.238 96.872C138.318 96.928 138.414 96.99 138.526 97.058C138.642 97.126 138.782 97.188 138.946 97.244C139.11 97.3 139.314 97.328 139.558 97.328C139.766 97.328 139.948 97.302 140.104 97.25C140.26 97.194 140.39 97.12 140.494 97.028C140.598 96.936 140.674 96.83 140.722 96.71C140.774 96.59 140.8 96.462 140.8 96.326C140.8 96.158 140.754 96.02 140.662 95.912C140.574 95.8 140.456 95.706 140.308 95.63C140.16 95.55 139.99 95.482 139.798 95.426C139.61 95.366 139.416 95.304 139.216 95.24C139.02 95.176 138.826 95.104 138.634 95.024C138.446 94.94 138.278 94.836 138.13 94.712C137.982 94.588 137.862 94.436 137.77 94.256C137.682 94.072 137.638 93.85 137.638 93.59C137.638 93.358 137.686 93.136 137.782 92.924C137.878 92.708 138.018 92.52 138.202 92.36C138.386 92.196 138.612 92.066 138.88 91.97C139.148 91.874 139.454 91.826 139.798 91.826C140.198 91.826 140.556 91.89 140.872 92.018C141.192 92.142 141.468 92.314 141.7 92.534L141.46 92.924ZM148.11 91.922V98H147.474C147.322 98 147.226 97.926 147.186 97.778L147.102 97.124C146.838 97.416 146.542 97.652 146.214 97.832C145.886 98.008 145.51 98.096 145.086 98.096C144.754 98.096 144.46 98.042 144.204 97.934C143.952 97.822 143.74 97.666 143.568 97.466C143.396 97.266 143.266 97.024 143.178 96.74C143.094 96.456 143.052 96.142 143.052 95.798V91.922H144.12V95.798C144.12 96.258 144.224 96.614 144.432 96.866C144.644 97.118 144.966 97.244 145.398 97.244C145.714 97.244 146.008 97.17 146.28 97.022C146.556 96.87 146.81 96.662 147.042 96.398V91.922H148.11ZM153.871 94.298C153.871 94.05 153.835 93.824 153.763 93.62C153.695 93.412 153.593 93.234 153.457 93.086C153.325 92.934 153.163 92.818 152.971 92.738C152.779 92.654 152.561 92.612 152.317 92.612C151.805 92.612 151.399 92.762 151.099 93.062C150.803 93.358 150.619 93.77 150.547 94.298H153.871ZM154.735 97.148C154.603 97.308 154.445 97.448 154.261 97.568C154.077 97.684 153.879 97.78 153.667 97.856C153.459 97.932 153.243 97.988 153.019 98.024C152.795 98.064 152.573 98.084 152.353 98.084C151.933 98.084 151.545 98.014 151.189 97.874C150.837 97.73 150.531 97.522 150.271 97.25C150.015 96.974 149.815 96.634 149.671 96.23C149.527 95.826 149.455 95.362 149.455 94.838C149.455 94.414 149.519 94.018 149.647 93.65C149.779 93.282 149.967 92.964 150.211 92.696C150.455 92.424 150.753 92.212 151.105 92.06C151.457 91.904 151.853 91.826 152.293 91.826C152.657 91.826 152.993 91.888 153.301 92.012C153.613 92.132 153.881 92.308 154.105 92.54C154.333 92.768 154.511 93.052 154.639 93.392C154.767 93.728 154.831 94.112 154.831 94.544C154.831 94.712 154.813 94.824 154.777 94.88C154.741 94.936 154.673 94.964 154.573 94.964H150.511C150.523 95.348 150.575 95.682 150.667 95.966C150.763 96.25 150.895 96.488 151.063 96.68C151.231 96.868 151.431 97.01 151.663 97.106C151.895 97.198 152.155 97.244 152.443 97.244C152.711 97.244 152.941 97.214 153.133 97.154C153.329 97.09 153.497 97.022 153.637 96.95C153.777 96.878 153.893 96.812 153.985 96.752C154.081 96.688 154.163 96.656 154.231 96.656C154.319 96.656 154.387 96.69 154.435 96.758L154.735 97.148ZM159.683 92.924C159.635 93.012 159.561 93.056 159.461 93.056C159.401 93.056 159.333 93.034 159.257 92.99C159.181 92.946 159.087 92.898 158.975 92.846C158.867 92.79 158.737 92.74 158.585 92.696C158.433 92.648 158.253 92.624 158.045 92.624C157.865 92.624 157.703 92.648 157.559 92.696C157.415 92.74 157.291 92.802 157.187 92.882C157.087 92.962 157.009 93.056 156.953 93.164C156.901 93.268 156.875 93.382 156.875 93.506C156.875 93.662 156.919 93.792 157.007 93.896C157.099 94 157.219 94.09 157.367 94.166C157.515 94.242 157.683 94.31 157.871 94.37C158.059 94.426 158.251 94.488 158.447 94.556C158.647 94.62 158.841 94.692 159.029 94.772C159.217 94.852 159.385 94.952 159.533 95.072C159.681 95.192 159.799 95.34 159.887 95.516C159.979 95.688 160.025 95.896 160.025 96.14C160.025 96.42 159.975 96.68 159.875 96.92C159.775 97.156 159.627 97.362 159.431 97.538C159.235 97.71 158.995 97.846 158.711 97.946C158.427 98.046 158.099 98.096 157.727 98.096C157.303 98.096 156.919 98.028 156.575 97.892C156.231 97.752 155.939 97.574 155.699 97.358L155.951 96.95C155.983 96.898 156.021 96.858 156.065 96.83C156.109 96.802 156.165 96.788 156.233 96.788C156.305 96.788 156.381 96.816 156.461 96.872C156.541 96.928 156.637 96.99 156.749 97.058C156.865 97.126 157.005 97.188 157.169 97.244C157.333 97.3 157.537 97.328 157.781 97.328C157.989 97.328 158.171 97.302 158.327 97.25C158.483 97.194 158.613 97.12 158.717 97.028C158.821 96.936 158.897 96.83 158.945 96.71C158.997 96.59 159.023 96.462 159.023 96.326C159.023 96.158 158.977 96.02 158.885 95.912C158.797 95.8 158.679 95.706 158.531 95.63C158.383 95.55 158.213 95.482 158.021 95.426C157.833 95.366 157.639 95.304 157.439 95.24C157.243 95.176 157.049 95.104 156.857 95.024C156.669 94.94 156.501 94.836 156.353 94.712C156.205 94.588 156.085 94.436 155.993 94.256C155.905 94.072 155.861 93.85 155.861 93.59C155.861 93.358 155.909 93.136 156.005 92.924C156.101 92.708 156.241 92.52 156.425 92.36C156.609 92.196 156.835 92.066 157.103 91.97C157.371 91.874 157.677 91.826 158.021 91.826C158.421 91.826 158.779 91.89 159.095 92.018C159.415 92.142 159.691 92.314 159.923 92.534L159.683 92.924Z" fill="black"/>
<rect x="66" y="397" width="160" height="36" rx="8" fill="#3E8974"/>
<path d="M135.556 415.272C135.556 416.131 135.42 416.912 135.148 417.616C134.876 418.32 134.492 418.923 133.996 419.424C133.5 419.925 132.903 420.315 132.204 420.592C131.511 420.864 130.743 421 129.9 421H125.62V409.536H129.9C130.743 409.536 131.511 409.675 132.204 409.952C132.903 410.224 133.5 410.613 133.996 411.12C134.492 411.621 134.876 412.224 135.148 412.928C135.42 413.632 135.556 414.413 135.556 415.272ZM133.964 415.272C133.964 414.568 133.868 413.939 133.676 413.384C133.484 412.829 133.212 412.36 132.86 411.976C132.508 411.592 132.082 411.299 131.58 411.096C131.079 410.893 130.519 410.792 129.9 410.792H127.172V419.744H129.9C130.519 419.744 131.079 419.643 131.58 419.44C132.082 419.237 132.508 418.947 132.86 418.568C133.212 418.184 133.484 417.715 133.676 417.16C133.868 416.605 133.964 415.976 133.964 415.272ZM142.771 416.064C142.771 415.733 142.723 415.432 142.627 415.16C142.536 414.883 142.4 414.645 142.219 414.448C142.043 414.245 141.827 414.091 141.571 413.984C141.315 413.872 141.024 413.816 140.699 413.816C140.016 413.816 139.475 414.016 139.075 414.416C138.68 414.811 138.435 415.36 138.339 416.064H142.771ZM143.923 419.864C143.747 420.077 143.536 420.264 143.291 420.424C143.045 420.579 142.781 420.707 142.499 420.808C142.221 420.909 141.933 420.984 141.635 421.032C141.336 421.085 141.04 421.112 140.747 421.112C140.187 421.112 139.669 421.019 139.195 420.832C138.725 420.64 138.317 420.363 137.971 420C137.629 419.632 137.363 419.179 137.171 418.64C136.979 418.101 136.883 417.483 136.883 416.784C136.883 416.219 136.968 415.691 137.139 415.2C137.315 414.709 137.565 414.285 137.891 413.928C138.216 413.565 138.613 413.283 139.083 413.08C139.552 412.872 140.08 412.768 140.667 412.768C141.152 412.768 141.6 412.851 142.011 413.016C142.427 413.176 142.784 413.411 143.083 413.72C143.387 414.024 143.624 414.403 143.795 414.856C143.965 415.304 144.051 415.816 144.051 416.392C144.051 416.616 144.027 416.765 143.979 416.84C143.931 416.915 143.84 416.952 143.707 416.952H138.291C138.307 417.464 138.376 417.909 138.499 418.288C138.627 418.667 138.803 418.984 139.027 419.24C139.251 419.491 139.517 419.68 139.827 419.808C140.136 419.931 140.483 419.992 140.867 419.992C141.224 419.992 141.531 419.952 141.787 419.872C142.048 419.787 142.272 419.696 142.459 419.6C142.645 419.504 142.8 419.416 142.923 419.336C143.051 419.251 143.16 419.208 143.251 419.208C143.368 419.208 143.459 419.253 143.523 419.344L143.923 419.864ZM148.225 421.128C147.585 421.128 147.092 420.949 146.745 420.592C146.404 420.235 146.233 419.72 146.233 419.048V414.088H145.257C145.172 414.088 145.1 414.064 145.041 414.016C144.983 413.963 144.953 413.883 144.953 413.776V413.208L146.281 413.04L146.609 410.536C146.625 410.456 146.66 410.392 146.713 410.344C146.772 410.291 146.847 410.264 146.937 410.264H147.657V413.056H150.001V414.088H147.657V418.952C147.657 419.293 147.74 419.547 147.905 419.712C148.071 419.877 148.284 419.96 148.545 419.96C148.695 419.96 148.823 419.941 148.929 419.904C149.041 419.861 149.137 419.816 149.217 419.768C149.297 419.72 149.364 419.677 149.417 419.64C149.476 419.597 149.527 419.576 149.569 419.576C149.644 419.576 149.711 419.621 149.769 419.712L150.185 420.392C149.94 420.621 149.644 420.803 149.297 420.936C148.951 421.064 148.593 421.128 148.225 421.128ZM155.864 417.352C155.208 417.373 154.648 417.427 154.184 417.512C153.725 417.592 153.349 417.699 153.056 417.832C152.768 417.965 152.557 418.123 152.424 418.304C152.296 418.485 152.232 418.688 152.232 418.912C152.232 419.125 152.266 419.309 152.336 419.464C152.405 419.619 152.498 419.747 152.616 419.848C152.738 419.944 152.88 420.016 153.04 420.064C153.205 420.107 153.381 420.128 153.568 420.128C153.818 420.128 154.048 420.104 154.256 420.056C154.464 420.003 154.658 419.928 154.84 419.832C155.026 419.736 155.202 419.621 155.368 419.488C155.538 419.355 155.704 419.203 155.864 419.032V417.352ZM151.264 414.04C151.712 413.608 152.194 413.285 152.712 413.072C153.229 412.859 153.802 412.752 154.432 412.752C154.885 412.752 155.288 412.827 155.64 412.976C155.992 413.125 156.288 413.333 156.528 413.6C156.768 413.867 156.949 414.189 157.072 414.568C157.194 414.947 157.256 415.363 157.256 415.816V421H156.624C156.485 421 156.378 420.979 156.304 420.936C156.229 420.888 156.17 420.797 156.128 420.664L155.968 419.896C155.754 420.093 155.546 420.269 155.344 420.424C155.141 420.573 154.928 420.701 154.704 420.808C154.48 420.909 154.24 420.987 153.984 421.04C153.733 421.099 153.453 421.128 153.144 421.128C152.829 421.128 152.533 421.085 152.256 421C151.978 420.909 151.736 420.776 151.528 420.6C151.325 420.424 151.162 420.203 151.04 419.936C150.922 419.664 150.864 419.344 150.864 418.976C150.864 418.656 150.952 418.349 151.128 418.056C151.304 417.757 151.589 417.493 151.984 417.264C152.378 417.035 152.893 416.848 153.528 416.704C154.162 416.555 154.941 416.469 155.864 416.448V415.816C155.864 415.187 155.728 414.712 155.456 414.392C155.184 414.067 154.786 413.904 154.264 413.904C153.912 413.904 153.616 413.949 153.376 414.04C153.141 414.125 152.936 414.224 152.76 414.336C152.589 414.443 152.44 414.541 152.312 414.632C152.189 414.717 152.066 414.76 151.944 414.76C151.848 414.76 151.765 414.736 151.696 414.688C151.626 414.635 151.568 414.571 151.52 414.496L151.264 414.04ZM160.929 412.896V421H159.505V412.896H160.929ZM161.233 410.352C161.233 410.491 161.204 410.621 161.145 410.744C161.092 410.861 161.017 410.968 160.921 411.064C160.83 411.155 160.721 411.227 160.593 411.28C160.47 411.333 160.34 411.36 160.201 411.36C160.062 411.36 159.932 411.333 159.809 411.28C159.692 411.227 159.588 411.155 159.497 411.064C159.406 410.968 159.334 410.861 159.281 410.744C159.228 410.621 159.201 410.491 159.201 410.352C159.201 410.213 159.228 410.083 159.281 409.96C159.334 409.832 159.406 409.723 159.497 409.632C159.588 409.536 159.692 409.461 159.809 409.408C159.932 409.355 160.062 409.328 160.201 409.328C160.34 409.328 160.47 409.355 160.593 409.408C160.721 409.461 160.83 409.536 160.921 409.632C161.017 409.723 161.092 409.832 161.145 409.96C161.204 410.083 161.233 410.213 161.233 410.352ZM164.741 409.216V421H163.317V409.216H164.741ZM171.77 414.232C171.706 414.349 171.607 414.408 171.474 414.408C171.394 414.408 171.303 414.379 171.202 414.32C171.101 414.261 170.975 414.197 170.826 414.128C170.682 414.053 170.509 413.987 170.306 413.928C170.103 413.864 169.863 413.832 169.586 413.832C169.346 413.832 169.13 413.864 168.938 413.928C168.746 413.987 168.581 414.069 168.442 414.176C168.309 414.283 168.205 414.408 168.13 414.552C168.061 414.691 168.026 414.843 168.026 415.008C168.026 415.216 168.085 415.389 168.202 415.528C168.325 415.667 168.485 415.787 168.682 415.888C168.879 415.989 169.103 416.08 169.354 416.16C169.605 416.235 169.861 416.317 170.122 416.408C170.389 416.493 170.647 416.589 170.898 416.696C171.149 416.803 171.373 416.936 171.57 417.096C171.767 417.256 171.925 417.453 172.042 417.688C172.165 417.917 172.226 418.195 172.226 418.52C172.226 418.893 172.159 419.24 172.026 419.56C171.893 419.875 171.695 420.149 171.434 420.384C171.173 420.613 170.853 420.795 170.474 420.928C170.095 421.061 169.658 421.128 169.162 421.128C168.597 421.128 168.085 421.037 167.626 420.856C167.167 420.669 166.778 420.432 166.458 420.144L166.794 419.6C166.837 419.531 166.887 419.477 166.946 419.44C167.005 419.403 167.079 419.384 167.17 419.384C167.266 419.384 167.367 419.421 167.474 419.496C167.581 419.571 167.709 419.653 167.858 419.744C168.013 419.835 168.199 419.917 168.418 419.992C168.637 420.067 168.909 420.104 169.234 420.104C169.511 420.104 169.754 420.069 169.962 420C170.17 419.925 170.343 419.827 170.482 419.704C170.621 419.581 170.722 419.44 170.786 419.28C170.855 419.12 170.89 418.949 170.89 418.768C170.89 418.544 170.829 418.36 170.706 418.216C170.589 418.067 170.431 417.941 170.234 417.84C170.037 417.733 169.81 417.643 169.554 417.568C169.303 417.488 169.045 417.405 168.778 417.32C168.517 417.235 168.258 417.139 168.002 417.032C167.751 416.92 167.527 416.781 167.33 416.616C167.133 416.451 166.973 416.248 166.85 416.008C166.733 415.763 166.674 415.467 166.674 415.12C166.674 414.811 166.738 414.515 166.866 414.232C166.994 413.944 167.181 413.693 167.426 413.48C167.671 413.261 167.973 413.088 168.33 412.96C168.687 412.832 169.095 412.768 169.554 412.768C170.087 412.768 170.565 412.853 170.986 413.024C171.413 413.189 171.781 413.419 172.09 413.712L171.77 414.232Z" fill="white"/>
<defs>
<filter id="filter0_d" x="0" y="9" width="285" height="460" filterUnits="userSpaceOnUse" color-interpolation-filters="sRGB">
<feFlood flood-opacity="0" result="BackgroundImageFix"/>
<feColorMatrix in="SourceAlpha" type="matrix" values="0 0 0 0 0 0 0 0 0 0 0 0 0 0 0 0 0 0 127 0"/>
<feOffset dy="4"/>
<feGaussianBlur stdDeviation="2"/>
<feColorMatrix type="matrix" values="0 0 0 0 0 0 0 0 0 0 0 0 0 0 0 0 0 0 0.25 0"/>
<feBlend mode="normal" in2="BackgroundImageFix" result="effect1_dropShadow"/>
<feBlend mode="normal" in="SourceGraphic" in2="effect1_dropShadow" result="shape"/>
</filter>
<filter id="filter1_d" x="2" y="9" width="281" height="456" filterUnits="userSpaceOnUse" color-interpolation-filters="sRGB">
<feFlood flood-opacity="0" result="BackgroundImageFix"/>
<feColorMatrix in="SourceAlpha" type="matrix" values="0 0 0 0 0 0 0 0 0 0 0 0 0 0 0 0 0 0 127 0"/>
<feOffset dy="2"/>
<feGaussianBlur stdDeviation="1"/>
<feColorMatrix type="matrix" values="0 0 0 0 0 0 0 0 0 0 0 0 0 0 0 0 0 0 0.25 0"/>
<feBlend mode="normal" in2="BackgroundImageFix" result="effect1_dropShadow"/>
<feBlend mode="normal" in="SourceGraphic" in2="effect1_dropShadow" result="shape"/>
</filter>
<linearGradient id="paint0_linear" x1="106.89" y1="68.541" x2="179.366" y2="110.583" gradientUnits="userSpaceOnUse">
<stop offset="0.685712" stop-color="#4B7D74"/>
<stop offset="0.685812" stop-color="#18CFAB"/>
</linearGradient>
<linearGradient id="paint1_linear" x1="115.634" y1="103.757" x2="192.42" y2="70.2268" gradientUnits="userSpaceOnUse">
<stop offset="0.685712" stop-color="#4B7D74"/>
<stop offset="0.685812" stop-color="#18CFAB"/>
</linearGradient>
</defs>
</svg>
