<svg width="556" height="136" viewBox="0 0 556 136" fill="none" xmlns="http://www.w3.org/2000/svg">
<g filter="url(#filter0_d)">
<rect opacity="0.75" x="8.6" y="6.6" width="538.8" height="118.8" rx="29.4" fill="white" stroke="#3CB09B" stroke-width="1.2"/>
<path d="M110.826 54.402L108.144 63H107.1L104.922 56.442C104.902 56.378 104.882 56.31 104.862 56.238C104.846 56.166 104.828 56.09 104.808 56.01C104.788 56.09 104.768 56.166 104.748 56.238C104.728 56.31 104.708 56.378 104.688 56.442L102.498 63H101.454L98.7719 54.402H99.7379C99.8419 54.402 99.9279 54.428 99.9959 54.48C100.068 54.532 100.114 54.598 100.134 54.678L101.91 60.654C101.938 60.762 101.964 60.878 101.988 61.002C102.016 61.126 102.042 61.258 102.066 61.398C102.094 61.258 102.122 61.126 102.15 61.002C102.182 60.874 102.216 60.758 102.252 60.654L104.274 54.678C104.298 54.61 104.344 54.548 104.412 54.492C104.484 54.432 104.57 54.402 104.67 54.402H105.006C105.11 54.402 105.194 54.428 105.258 54.48C105.322 54.532 105.37 54.598 105.402 54.678L107.418 60.654C107.454 60.758 107.486 60.87 107.514 60.99C107.546 61.11 107.576 61.236 107.604 61.368C107.624 61.236 107.646 61.11 107.67 60.99C107.694 60.87 107.72 60.758 107.748 60.654L109.53 54.678C109.55 54.606 109.594 54.542 109.662 54.486C109.734 54.43 109.82 54.402 109.92 54.402H110.826ZM115.242 59.298C115.242 59.05 115.206 58.824 115.134 58.62C115.066 58.412 114.964 58.234 114.828 58.086C114.696 57.934 114.534 57.818 114.342 57.738C114.15 57.654 113.932 57.612 113.688 57.612C113.176 57.612 112.77 57.762 112.47 58.062C112.174 58.358 111.99 58.77 111.918 59.298H115.242ZM116.106 62.148C115.974 62.308 115.816 62.448 115.632 62.568C115.448 62.684 115.25 62.78 115.038 62.856C114.83 62.932 114.614 62.988 114.39 63.024C114.166 63.064 113.944 63.084 113.724 63.084C113.304 63.084 112.916 63.014 112.56 62.874C112.208 62.73 111.902 62.522 111.642 62.25C111.386 61.974 111.186 61.634 111.042 61.23C110.898 60.826 110.826 60.362 110.826 59.838C110.826 59.414 110.89 59.018 111.018 58.65C111.15 58.282 111.338 57.964 111.582 57.696C111.826 57.424 112.124 57.212 112.476 57.06C112.828 56.904 113.224 56.826 113.664 56.826C114.028 56.826 114.364 56.888 114.672 57.012C114.984 57.132 115.252 57.308 115.476 57.54C115.704 57.768 115.882 58.052 116.01 58.392C116.138 58.728 116.202 59.112 116.202 59.544C116.202 59.712 116.184 59.824 116.148 59.88C116.112 59.936 116.044 59.964 115.944 59.964H111.882C111.894 60.348 111.946 60.682 112.038 60.966C112.134 61.25 112.266 61.488 112.434 61.68C112.602 61.868 112.802 62.01 113.034 62.106C113.266 62.198 113.526 62.244 113.814 62.244C114.082 62.244 114.312 62.214 114.504 62.154C114.7 62.09 114.868 62.022 115.008 61.95C115.148 61.878 115.264 61.812 115.356 61.752C115.452 61.688 115.534 61.656 115.602 61.656C115.69 61.656 115.758 61.69 115.806 61.758L116.106 62.148ZM121.592 57.804C121.724 57.656 121.864 57.522 122.012 57.402C122.16 57.282 122.316 57.18 122.48 57.096C122.648 57.008 122.824 56.942 123.008 56.898C123.196 56.85 123.398 56.826 123.614 56.826C123.946 56.826 124.238 56.882 124.49 56.994C124.746 57.102 124.958 57.258 125.126 57.462C125.298 57.662 125.428 57.904 125.516 58.188C125.604 58.472 125.648 58.786 125.648 59.13V63H124.574V59.13C124.574 58.67 124.468 58.314 124.256 58.062C124.048 57.806 123.73 57.678 123.302 57.678C122.986 57.678 122.69 57.754 122.414 57.906C122.142 58.058 121.89 58.264 121.658 58.524V63H120.584V56.922H121.226C121.378 56.922 121.472 56.996 121.508 57.144L121.592 57.804ZM131.344 59.298C131.344 59.05 131.308 58.824 131.236 58.62C131.168 58.412 131.066 58.234 130.93 58.086C130.798 57.934 130.636 57.818 130.444 57.738C130.252 57.654 130.034 57.612 129.79 57.612C129.278 57.612 128.872 57.762 128.572 58.062C128.276 58.358 128.092 58.77 128.02 59.298H131.344ZM132.208 62.148C132.076 62.308 131.918 62.448 131.734 62.568C131.55 62.684 131.352 62.78 131.14 62.856C130.932 62.932 130.716 62.988 130.492 63.024C130.268 63.064 130.046 63.084 129.826 63.084C129.406 63.084 129.018 63.014 128.662 62.874C128.31 62.73 128.004 62.522 127.744 62.25C127.488 61.974 127.288 61.634 127.144 61.23C127 60.826 126.928 60.362 126.928 59.838C126.928 59.414 126.992 59.018 127.12 58.65C127.252 58.282 127.44 57.964 127.684 57.696C127.928 57.424 128.226 57.212 128.578 57.06C128.93 56.904 129.326 56.826 129.766 56.826C130.13 56.826 130.466 56.888 130.774 57.012C131.086 57.132 131.354 57.308 131.578 57.54C131.806 57.768 131.984 58.052 132.112 58.392C132.24 58.728 132.304 59.112 132.304 59.544C132.304 59.712 132.286 59.824 132.25 59.88C132.214 59.936 132.146 59.964 132.046 59.964H127.984C127.996 60.348 128.048 60.682 128.14 60.966C128.236 61.25 128.368 61.488 128.536 61.68C128.704 61.868 128.904 62.01 129.136 62.106C129.368 62.198 129.628 62.244 129.916 62.244C130.184 62.244 130.414 62.214 130.606 62.154C130.802 62.09 130.97 62.022 131.11 61.95C131.25 61.878 131.366 61.812 131.458 61.752C131.554 61.688 131.636 61.656 131.704 61.656C131.792 61.656 131.86 61.69 131.908 61.758L132.208 62.148ZM137.684 59.298C137.684 59.05 137.648 58.824 137.576 58.62C137.508 58.412 137.406 58.234 137.27 58.086C137.138 57.934 136.976 57.818 136.784 57.738C136.592 57.654 136.374 57.612 136.13 57.612C135.618 57.612 135.212 57.762 134.912 58.062C134.616 58.358 134.432 58.77 134.36 59.298H137.684ZM138.548 62.148C138.416 62.308 138.258 62.448 138.074 62.568C137.89 62.684 137.692 62.78 137.48 62.856C137.272 62.932 137.056 62.988 136.832 63.024C136.608 63.064 136.386 63.084 136.166 63.084C135.746 63.084 135.358 63.014 135.002 62.874C134.65 62.73 134.344 62.522 134.084 62.25C133.828 61.974 133.628 61.634 133.484 61.23C133.34 60.826 133.268 60.362 133.268 59.838C133.268 59.414 133.332 59.018 133.46 58.65C133.592 58.282 133.78 57.964 134.024 57.696C134.268 57.424 134.566 57.212 134.918 57.06C135.27 56.904 135.666 56.826 136.106 56.826C136.47 56.826 136.806 56.888 137.114 57.012C137.426 57.132 137.694 57.308 137.918 57.54C138.146 57.768 138.324 58.052 138.452 58.392C138.58 58.728 138.644 59.112 138.644 59.544C138.644 59.712 138.626 59.824 138.59 59.88C138.554 59.936 138.486 59.964 138.386 59.964H134.324C134.336 60.348 134.388 60.682 134.48 60.966C134.576 61.25 134.708 61.488 134.876 61.68C135.044 61.868 135.244 62.01 135.476 62.106C135.708 62.198 135.968 62.244 136.256 62.244C136.524 62.244 136.754 62.214 136.946 62.154C137.142 62.09 137.31 62.022 137.45 61.95C137.59 61.878 137.706 61.812 137.798 61.752C137.894 61.688 137.976 61.656 138.044 61.656C138.132 61.656 138.2 61.69 138.248 61.758L138.548 62.148ZM143.915 58.368C143.715 58.1 143.499 57.914 143.267 57.81C143.035 57.702 142.775 57.648 142.487 57.648C141.923 57.648 141.489 57.85 141.185 58.254C140.881 58.658 140.729 59.234 140.729 59.982C140.729 60.378 140.763 60.718 140.831 61.002C140.899 61.282 140.999 61.514 141.131 61.698C141.263 61.878 141.425 62.01 141.617 62.094C141.809 62.178 142.027 62.22 142.271 62.22C142.623 62.22 142.929 62.14 143.189 61.98C143.453 61.82 143.695 61.594 143.915 61.302V58.368ZM144.983 54.162V63H144.347C144.195 63 144.099 62.926 144.059 62.778L143.963 62.04C143.703 62.352 143.407 62.604 143.075 62.796C142.743 62.988 142.359 63.084 141.923 63.084C141.575 63.084 141.259 63.018 140.975 62.886C140.691 62.75 140.449 62.552 140.249 62.292C140.049 62.032 139.895 61.708 139.787 61.32C139.679 60.932 139.625 60.486 139.625 59.982C139.625 59.534 139.685 59.118 139.805 58.734C139.925 58.346 140.097 58.01 140.321 57.726C140.545 57.442 140.819 57.22 141.143 57.06C141.471 56.896 141.839 56.814 142.247 56.814C142.619 56.814 142.937 56.878 143.201 57.006C143.469 57.13 143.707 57.304 143.915 57.528V54.162H144.983ZM151.607 63.096C151.127 63.096 150.757 62.962 150.497 62.694C150.241 62.426 150.113 62.04 150.113 61.536V57.816H149.381C149.317 57.816 149.263 57.798 149.219 57.762C149.175 57.722 149.153 57.662 149.153 57.582V57.156L150.149 57.03L150.395 55.152C150.407 55.092 150.433 55.044 150.473 55.008C150.517 54.968 150.573 54.948 150.641 54.948H151.181V57.042H152.939V57.816H151.181V61.464C151.181 61.72 151.243 61.91 151.367 62.034C151.491 62.158 151.651 62.22 151.847 62.22C151.959 62.22 152.055 62.206 152.135 62.178C152.219 62.146 152.291 62.112 152.351 62.076C152.411 62.04 152.461 62.008 152.501 61.98C152.545 61.948 152.583 61.932 152.615 61.932C152.671 61.932 152.721 61.966 152.765 62.034L153.077 62.544C152.893 62.716 152.671 62.852 152.411 62.952C152.151 63.048 151.883 63.096 151.607 63.096ZM156.568 56.826C157.012 56.826 157.412 56.9 157.768 57.048C158.124 57.196 158.428 57.406 158.68 57.678C158.932 57.95 159.124 58.28 159.256 58.668C159.392 59.052 159.46 59.482 159.46 59.958C159.46 60.438 159.392 60.87 159.256 61.254C159.124 61.638 158.932 61.966 158.68 62.238C158.428 62.51 158.124 62.72 157.768 62.868C157.412 63.012 157.012 63.084 156.568 63.084C156.12 63.084 155.716 63.012 155.356 62.868C155 62.72 154.696 62.51 154.444 62.238C154.192 61.966 153.998 61.638 153.862 61.254C153.73 60.87 153.664 60.438 153.664 59.958C153.664 59.482 153.73 59.052 153.862 58.668C153.998 58.28 154.192 57.95 154.444 57.678C154.696 57.406 155 57.196 155.356 57.048C155.716 56.9 156.12 56.826 156.568 56.826ZM156.568 62.25C157.168 62.25 157.616 62.05 157.912 61.65C158.208 61.246 158.356 60.684 158.356 59.964C158.356 59.24 158.208 58.676 157.912 58.272C157.616 57.868 157.168 57.666 156.568 57.666C156.264 57.666 155.998 57.718 155.77 57.822C155.546 57.926 155.358 58.076 155.206 58.272C155.058 58.468 154.946 58.71 154.87 58.998C154.798 59.282 154.762 59.604 154.762 59.964C154.762 60.684 154.91 61.246 155.206 61.65C155.506 62.05 155.96 62.25 156.568 62.25ZM168.115 58.002C168.083 58.046 168.051 58.08 168.019 58.104C167.987 58.128 167.943 58.14 167.887 58.14C167.827 58.14 167.761 58.116 167.689 58.068C167.617 58.016 167.527 57.96 167.419 57.9C167.315 57.84 167.185 57.786 167.029 57.738C166.877 57.686 166.689 57.66 166.465 57.66C166.165 57.66 165.901 57.714 165.673 57.822C165.445 57.926 165.253 58.078 165.097 58.278C164.945 58.478 164.829 58.72 164.749 59.004C164.673 59.288 164.635 59.606 164.635 59.958C164.635 60.326 164.677 60.654 164.761 60.942C164.845 61.226 164.963 61.466 165.115 61.662C165.271 61.854 165.457 62.002 165.673 62.106C165.893 62.206 166.139 62.256 166.411 62.256C166.671 62.256 166.885 62.226 167.053 62.166C167.221 62.102 167.359 62.032 167.467 61.956C167.579 61.88 167.671 61.812 167.743 61.752C167.819 61.688 167.893 61.656 167.965 61.656C168.053 61.656 168.121 61.69 168.169 61.758L168.469 62.148C168.337 62.312 168.187 62.452 168.019 62.568C167.851 62.684 167.669 62.782 167.473 62.862C167.281 62.938 167.079 62.994 166.867 63.03C166.655 63.066 166.439 63.084 166.219 63.084C165.839 63.084 165.485 63.014 165.157 62.874C164.833 62.734 164.551 62.532 164.311 62.268C164.071 62 163.883 61.672 163.747 61.284C163.611 60.896 163.543 60.454 163.543 59.958C163.543 59.506 163.605 59.088 163.729 58.704C163.857 58.32 164.041 57.99 164.281 57.714C164.525 57.434 164.823 57.216 165.175 57.06C165.531 56.904 165.939 56.826 166.399 56.826C166.827 56.826 167.203 56.896 167.527 57.036C167.855 57.172 168.145 57.366 168.397 57.618L168.115 58.002ZM170.69 57.732C170.95 57.456 171.238 57.236 171.554 57.072C171.87 56.908 172.234 56.826 172.646 56.826C172.978 56.826 173.27 56.882 173.522 56.994C173.778 57.102 173.99 57.258 174.158 57.462C174.33 57.662 174.46 57.904 174.548 58.188C174.636 58.472 174.68 58.786 174.68 59.13V63H173.606V59.13C173.606 58.67 173.5 58.314 173.288 58.062C173.08 57.806 172.762 57.678 172.334 57.678C172.018 57.678 171.722 57.754 171.446 57.906C171.174 58.058 170.922 58.264 170.69 58.524V63H169.616V54.162H170.69V57.732ZM179.601 60.264C179.109 60.28 178.689 60.32 178.341 60.384C177.997 60.444 177.715 60.524 177.495 60.624C177.279 60.724 177.121 60.842 177.021 60.978C176.925 61.114 176.877 61.266 176.877 61.434C176.877 61.594 176.903 61.732 176.955 61.848C177.007 61.964 177.077 62.06 177.165 62.136C177.257 62.208 177.363 62.262 177.483 62.298C177.607 62.33 177.739 62.346 177.879 62.346C178.067 62.346 178.239 62.328 178.395 62.292C178.551 62.252 178.697 62.196 178.833 62.124C178.973 62.052 179.105 61.966 179.229 61.866C179.357 61.766 179.481 61.652 179.601 61.524V60.264ZM176.151 57.78C176.487 57.456 176.849 57.214 177.237 57.054C177.625 56.894 178.055 56.814 178.527 56.814C178.867 56.814 179.169 56.87 179.433 56.982C179.697 57.094 179.919 57.25 180.099 57.45C180.279 57.65 180.415 57.892 180.507 58.176C180.599 58.46 180.645 58.772 180.645 59.112V63H180.171C180.067 63 179.987 62.984 179.931 62.952C179.875 62.916 179.831 62.848 179.799 62.748L179.679 62.172C179.519 62.32 179.363 62.452 179.211 62.568C179.059 62.68 178.899 62.776 178.731 62.856C178.563 62.932 178.383 62.99 178.191 63.03C178.003 63.074 177.793 63.096 177.561 63.096C177.325 63.096 177.103 63.064 176.895 63C176.687 62.932 176.505 62.832 176.349 62.7C176.197 62.568 176.075 62.402 175.983 62.202C175.895 61.998 175.851 61.758 175.851 61.482C175.851 61.242 175.917 61.012 176.049 60.792C176.181 60.568 176.395 60.37 176.691 60.198C176.987 60.026 177.373 59.886 177.849 59.778C178.325 59.666 178.909 59.602 179.601 59.586V59.112C179.601 58.64 179.499 58.284 179.295 58.044C179.091 57.8 178.793 57.678 178.401 57.678C178.137 57.678 177.915 57.712 177.735 57.78C177.559 57.844 177.405 57.918 177.273 58.002C177.145 58.082 177.033 58.156 176.937 58.224C176.845 58.288 176.753 58.32 176.661 58.32C176.589 58.32 176.527 58.302 176.475 58.266C176.423 58.226 176.379 58.178 176.343 58.122L176.151 57.78ZM183.28 57.804C183.412 57.656 183.552 57.522 183.7 57.402C183.848 57.282 184.004 57.18 184.168 57.096C184.336 57.008 184.512 56.942 184.696 56.898C184.884 56.85 185.086 56.826 185.302 56.826C185.634 56.826 185.926 56.882 186.178 56.994C186.434 57.102 186.646 57.258 186.814 57.462C186.986 57.662 187.116 57.904 187.204 58.188C187.292 58.472 187.336 58.786 187.336 59.13V63H186.262V59.13C186.262 58.67 186.156 58.314 185.944 58.062C185.736 57.806 185.418 57.678 184.99 57.678C184.674 57.678 184.378 57.754 184.102 57.906C183.83 58.058 183.578 58.264 183.346 58.524V63H182.272V56.922H182.914C183.066 56.922 183.16 56.996 183.196 57.144L183.28 57.804ZM191.081 60.03C191.297 60.03 191.487 60 191.651 59.94C191.815 59.88 191.953 59.796 192.065 59.688C192.177 59.58 192.261 59.452 192.317 59.304C192.373 59.152 192.401 58.986 192.401 58.806C192.401 58.434 192.287 58.138 192.059 57.918C191.835 57.698 191.509 57.588 191.081 57.588C190.649 57.588 190.319 57.698 190.091 57.918C189.867 58.138 189.755 58.434 189.755 58.806C189.755 58.986 189.783 59.152 189.839 59.304C189.899 59.452 189.985 59.58 190.097 59.688C190.209 59.796 190.347 59.88 190.511 59.94C190.675 60 190.865 60.03 191.081 60.03ZM193.007 63.33C193.007 63.182 192.965 63.062 192.881 62.97C192.797 62.878 192.683 62.806 192.539 62.754C192.399 62.702 192.235 62.666 192.047 62.646C191.859 62.622 191.659 62.604 191.447 62.592C191.239 62.58 191.027 62.568 190.811 62.556C190.595 62.544 190.387 62.524 190.187 62.496C189.963 62.6 189.779 62.732 189.635 62.892C189.495 63.048 189.425 63.232 189.425 63.444C189.425 63.58 189.459 63.706 189.527 63.822C189.599 63.942 189.707 64.044 189.851 64.128C189.995 64.216 190.175 64.284 190.391 64.332C190.611 64.384 190.869 64.41 191.165 64.41C191.453 64.41 191.711 64.384 191.939 64.332C192.167 64.28 192.359 64.206 192.515 64.11C192.675 64.014 192.797 63.9 192.881 63.768C192.965 63.636 193.007 63.49 193.007 63.33ZM194.093 57.162V57.558C194.093 57.69 194.009 57.774 193.841 57.81L193.151 57.9C193.287 58.164 193.355 58.456 193.355 58.776C193.355 59.072 193.297 59.342 193.181 59.586C193.069 59.826 192.913 60.032 192.713 60.204C192.513 60.376 192.273 60.508 191.993 60.6C191.713 60.692 191.409 60.738 191.081 60.738C190.797 60.738 190.529 60.704 190.277 60.636C190.149 60.716 190.051 60.802 189.983 60.894C189.915 60.982 189.881 61.072 189.881 61.164C189.881 61.308 189.939 61.418 190.055 61.494C190.175 61.566 190.331 61.618 190.523 61.65C190.715 61.682 190.933 61.702 191.177 61.71C191.425 61.718 191.677 61.732 191.933 61.752C192.193 61.768 192.445 61.798 192.689 61.842C192.937 61.886 193.157 61.958 193.349 62.058C193.541 62.158 193.695 62.296 193.811 62.472C193.931 62.648 193.991 62.876 193.991 63.156C193.991 63.416 193.925 63.668 193.793 63.912C193.665 64.156 193.479 64.372 193.235 64.56C192.991 64.752 192.691 64.904 192.335 65.016C191.983 65.132 191.585 65.19 191.141 65.19C190.697 65.19 190.309 65.146 189.977 65.058C189.645 64.97 189.369 64.852 189.149 64.704C188.929 64.556 188.763 64.384 188.651 64.188C188.543 63.996 188.489 63.794 188.489 63.582C188.489 63.282 188.583 63.028 188.771 62.82C188.959 62.612 189.217 62.446 189.545 62.322C189.365 62.242 189.221 62.136 189.113 62.004C189.009 61.868 188.957 61.686 188.957 61.458C188.957 61.37 188.973 61.28 189.005 61.188C189.037 61.092 189.085 60.998 189.149 60.906C189.217 60.81 189.299 60.72 189.395 60.636C189.491 60.552 189.603 60.478 189.731 60.414C189.431 60.246 189.197 60.024 189.029 59.748C188.861 59.468 188.777 59.144 188.777 58.776C188.777 58.48 188.833 58.212 188.945 57.972C189.061 57.728 189.221 57.522 189.425 57.354C189.629 57.182 189.871 57.05 190.151 56.958C190.435 56.866 190.745 56.82 191.081 56.82C191.345 56.82 191.591 56.85 191.819 56.91C192.047 56.966 192.255 57.05 192.443 57.162H194.093ZM199.172 59.298C199.172 59.05 199.136 58.824 199.064 58.62C198.996 58.412 198.894 58.234 198.758 58.086C198.626 57.934 198.464 57.818 198.272 57.738C198.08 57.654 197.862 57.612 197.618 57.612C197.106 57.612 196.7 57.762 196.4 58.062C196.104 58.358 195.92 58.77 195.848 59.298H199.172ZM200.036 62.148C199.904 62.308 199.746 62.448 199.562 62.568C199.378 62.684 199.18 62.78 198.968 62.856C198.76 62.932 198.544 62.988 198.32 63.024C198.096 63.064 197.874 63.084 197.654 63.084C197.234 63.084 196.846 63.014 196.49 62.874C196.138 62.73 195.832 62.522 195.572 62.25C195.316 61.974 195.116 61.634 194.972 61.23C194.828 60.826 194.756 60.362 194.756 59.838C194.756 59.414 194.82 59.018 194.948 58.65C195.08 58.282 195.268 57.964 195.512 57.696C195.756 57.424 196.054 57.212 196.406 57.06C196.758 56.904 197.154 56.826 197.594 56.826C197.958 56.826 198.294 56.888 198.602 57.012C198.914 57.132 199.182 57.308 199.406 57.54C199.634 57.768 199.812 58.052 199.94 58.392C200.068 58.728 200.132 59.112 200.132 59.544C200.132 59.712 200.114 59.824 200.078 59.88C200.042 59.936 199.974 59.964 199.874 59.964H195.812C195.824 60.348 195.876 60.682 195.968 60.966C196.064 61.25 196.196 61.488 196.364 61.68C196.532 61.868 196.732 62.01 196.964 62.106C197.196 62.198 197.456 62.244 197.744 62.244C198.012 62.244 198.242 62.214 198.434 62.154C198.63 62.09 198.798 62.022 198.938 61.95C199.078 61.878 199.194 61.812 199.286 61.752C199.382 61.688 199.464 61.656 199.532 61.656C199.62 61.656 199.688 61.69 199.736 61.758L200.036 62.148ZM207.076 56.826C207.52 56.826 207.92 56.9 208.276 57.048C208.632 57.196 208.936 57.406 209.188 57.678C209.44 57.95 209.632 58.28 209.764 58.668C209.9 59.052 209.968 59.482 209.968 59.958C209.968 60.438 209.9 60.87 209.764 61.254C209.632 61.638 209.44 61.966 209.188 62.238C208.936 62.51 208.632 62.72 208.276 62.868C207.92 63.012 207.52 63.084 207.076 63.084C206.628 63.084 206.224 63.012 205.864 62.868C205.508 62.72 205.204 62.51 204.952 62.238C204.7 61.966 204.506 61.638 204.37 61.254C204.238 60.87 204.172 60.438 204.172 59.958C204.172 59.482 204.238 59.052 204.37 58.668C204.506 58.28 204.7 57.95 204.952 57.678C205.204 57.406 205.508 57.196 205.864 57.048C206.224 56.9 206.628 56.826 207.076 56.826ZM207.076 62.25C207.676 62.25 208.124 62.05 208.42 61.65C208.716 61.246 208.864 60.684 208.864 59.964C208.864 59.24 208.716 58.676 208.42 58.272C208.124 57.868 207.676 57.666 207.076 57.666C206.772 57.666 206.506 57.718 206.278 57.822C206.054 57.926 205.866 58.076 205.714 58.272C205.566 58.468 205.454 58.71 205.378 58.998C205.306 59.282 205.27 59.604 205.27 59.964C205.27 60.684 205.418 61.246 205.714 61.65C206.014 62.05 206.468 62.25 207.076 62.25ZM216.321 56.922V63H215.685C215.533 63 215.437 62.926 215.397 62.778L215.313 62.124C215.049 62.416 214.753 62.652 214.425 62.832C214.097 63.008 213.721 63.096 213.297 63.096C212.965 63.096 212.671 63.042 212.415 62.934C212.163 62.822 211.951 62.666 211.779 62.466C211.607 62.266 211.477 62.024 211.389 61.74C211.305 61.456 211.263 61.142 211.263 60.798V56.922H212.331V60.798C212.331 61.258 212.435 61.614 212.643 61.866C212.855 62.118 213.177 62.244 213.609 62.244C213.925 62.244 214.219 62.17 214.491 62.022C214.767 61.87 215.021 61.662 215.253 61.398V56.922H216.321ZM219.028 58.14C219.22 57.724 219.456 57.4 219.736 57.168C220.016 56.932 220.358 56.814 220.762 56.814C220.89 56.814 221.012 56.828 221.128 56.856C221.248 56.884 221.354 56.928 221.446 56.988L221.368 57.786C221.344 57.886 221.284 57.936 221.188 57.936C221.132 57.936 221.05 57.924 220.942 57.9C220.834 57.876 220.712 57.864 220.576 57.864C220.384 57.864 220.212 57.892 220.06 57.948C219.912 58.004 219.778 58.088 219.658 58.2C219.542 58.308 219.436 58.444 219.34 58.608C219.248 58.768 219.164 58.952 219.088 59.16V63H218.014V56.922H218.626C218.742 56.922 218.822 56.944 218.866 56.988C218.91 57.032 218.94 57.108 218.956 57.216L219.028 58.14ZM229.428 58.002C229.396 58.046 229.364 58.08 229.332 58.104C229.3 58.128 229.256 58.14 229.2 58.14C229.14 58.14 229.074 58.116 229.002 58.068C228.93 58.016 228.84 57.96 228.732 57.9C228.628 57.84 228.498 57.786 228.342 57.738C228.19 57.686 228.002 57.66 227.778 57.66C227.478 57.66 227.214 57.714 226.986 57.822C226.758 57.926 226.566 58.078 226.41 58.278C226.258 58.478 226.142 58.72 226.062 59.004C225.986 59.288 225.948 59.606 225.948 59.958C225.948 60.326 225.99 60.654 226.074 60.942C226.158 61.226 226.276 61.466 226.428 61.662C226.584 61.854 226.77 62.002 226.986 62.106C227.206 62.206 227.452 62.256 227.724 62.256C227.984 62.256 228.198 62.226 228.366 62.166C228.534 62.102 228.672 62.032 228.78 61.956C228.892 61.88 228.984 61.812 229.056 61.752C229.132 61.688 229.206 61.656 229.278 61.656C229.366 61.656 229.434 61.69 229.482 61.758L229.782 62.148C229.65 62.312 229.5 62.452 229.332 62.568C229.164 62.684 228.982 62.782 228.786 62.862C228.594 62.938 228.392 62.994 228.18 63.03C227.968 63.066 227.752 63.084 227.532 63.084C227.152 63.084 226.798 63.014 226.47 62.874C226.146 62.734 225.864 62.532 225.624 62.268C225.384 62 225.196 61.672 225.06 61.284C224.924 60.896 224.856 60.454 224.856 59.958C224.856 59.506 224.918 59.088 225.042 58.704C225.17 58.32 225.354 57.99 225.594 57.714C225.838 57.434 226.136 57.216 226.488 57.06C226.844 56.904 227.252 56.826 227.712 56.826C228.14 56.826 228.516 56.896 228.84 57.036C229.168 57.172 229.458 57.366 229.71 57.618L229.428 58.002ZM234.468 57.924C234.42 58.012 234.346 58.056 234.246 58.056C234.186 58.056 234.118 58.034 234.042 57.99C233.966 57.946 233.872 57.898 233.76 57.846C233.652 57.79 233.522 57.74 233.37 57.696C233.218 57.648 233.038 57.624 232.83 57.624C232.65 57.624 232.488 57.648 232.344 57.696C232.2 57.74 232.076 57.802 231.972 57.882C231.872 57.962 231.794 58.056 231.738 58.164C231.686 58.268 231.66 58.382 231.66 58.506C231.66 58.662 231.704 58.792 231.792 58.896C231.884 59 232.004 59.09 232.152 59.166C232.3 59.242 232.468 59.31 232.656 59.37C232.844 59.426 233.036 59.488 233.232 59.556C233.432 59.62 233.626 59.692 233.814 59.772C234.002 59.852 234.17 59.952 234.318 60.072C234.466 60.192 234.584 60.34 234.672 60.516C234.764 60.688 234.81 60.896 234.81 61.14C234.81 61.42 234.76 61.68 234.66 61.92C234.56 62.156 234.412 62.362 234.216 62.538C234.02 62.71 233.78 62.846 233.496 62.946C233.212 63.046 232.884 63.096 232.512 63.096C232.088 63.096 231.704 63.028 231.36 62.892C231.016 62.752 230.724 62.574 230.484 62.358L230.736 61.95C230.768 61.898 230.806 61.858 230.85 61.83C230.894 61.802 230.95 61.788 231.018 61.788C231.09 61.788 231.166 61.816 231.246 61.872C231.326 61.928 231.422 61.99 231.534 62.058C231.65 62.126 231.79 62.188 231.954 62.244C232.118 62.3 232.322 62.328 232.566 62.328C232.774 62.328 232.956 62.302 233.112 62.25C233.268 62.194 233.398 62.12 233.502 62.028C233.606 61.936 233.682 61.83 233.73 61.71C233.782 61.59 233.808 61.462 233.808 61.326C233.808 61.158 233.762 61.02 233.67 60.912C233.582 60.8 233.464 60.706 233.316 60.63C233.168 60.55 232.998 60.482 232.806 60.426C232.618 60.366 232.424 60.304 232.224 60.24C232.028 60.176 231.834 60.104 231.642 60.024C231.454 59.94 231.286 59.836 231.138 59.712C230.99 59.588 230.87 59.436 230.778 59.256C230.69 59.072 230.646 58.85 230.646 58.59C230.646 58.358 230.694 58.136 230.79 57.924C230.886 57.708 231.026 57.52 231.21 57.36C231.394 57.196 231.62 57.066 231.888 56.97C232.156 56.874 232.462 56.826 232.806 56.826C233.206 56.826 233.564 56.89 233.88 57.018C234.2 57.142 234.476 57.314 234.708 57.534L234.468 57.924ZM239.659 57.924C239.611 58.012 239.537 58.056 239.437 58.056C239.377 58.056 239.309 58.034 239.233 57.99C239.157 57.946 239.063 57.898 238.951 57.846C238.843 57.79 238.713 57.74 238.561 57.696C238.409 57.648 238.229 57.624 238.021 57.624C237.841 57.624 237.679 57.648 237.535 57.696C237.391 57.74 237.267 57.802 237.163 57.882C237.063 57.962 236.985 58.056 236.929 58.164C236.877 58.268 236.851 58.382 236.851 58.506C236.851 58.662 236.895 58.792 236.983 58.896C237.075 59 237.195 59.09 237.343 59.166C237.491 59.242 237.659 59.31 237.847 59.37C238.035 59.426 238.227 59.488 238.423 59.556C238.623 59.62 238.817 59.692 239.005 59.772C239.193 59.852 239.361 59.952 239.509 60.072C239.657 60.192 239.775 60.34 239.863 60.516C239.955 60.688 240.001 60.896 240.001 61.14C240.001 61.42 239.951 61.68 239.851 61.92C239.751 62.156 239.603 62.362 239.407 62.538C239.211 62.71 238.971 62.846 238.687 62.946C238.403 63.046 238.075 63.096 237.703 63.096C237.279 63.096 236.895 63.028 236.551 62.892C236.207 62.752 235.915 62.574 235.675 62.358L235.927 61.95C235.959 61.898 235.997 61.858 236.041 61.83C236.085 61.802 236.141 61.788 236.209 61.788C236.281 61.788 236.357 61.816 236.437 61.872C236.517 61.928 236.613 61.99 236.725 62.058C236.841 62.126 236.981 62.188 237.145 62.244C237.309 62.3 237.513 62.328 237.757 62.328C237.965 62.328 238.147 62.302 238.303 62.25C238.459 62.194 238.589 62.12 238.693 62.028C238.797 61.936 238.873 61.83 238.921 61.71C238.973 61.59 238.999 61.462 238.999 61.326C238.999 61.158 238.953 61.02 238.861 60.912C238.773 60.8 238.655 60.706 238.507 60.63C238.359 60.55 238.189 60.482 237.997 60.426C237.809 60.366 237.615 60.304 237.415 60.24C237.219 60.176 237.025 60.104 236.833 60.024C236.645 59.94 236.477 59.836 236.329 59.712C236.181 59.588 236.061 59.436 235.969 59.256C235.881 59.072 235.837 58.85 235.837 58.59C235.837 58.358 235.885 58.136 235.981 57.924C236.077 57.708 236.217 57.52 236.401 57.36C236.585 57.196 236.811 57.066 237.079 56.97C237.347 56.874 237.653 56.826 237.997 56.826C238.397 56.826 238.755 56.89 239.071 57.018C239.391 57.142 239.667 57.314 239.899 57.534L239.659 57.924ZM245.455 61.536C245.651 61.8 245.865 61.986 246.097 62.094C246.333 62.202 246.591 62.256 246.871 62.256C247.443 62.256 247.881 62.054 248.185 61.65C248.489 61.246 248.641 60.644 248.641 59.844C248.641 59.1 248.505 58.554 248.233 58.206C247.965 57.854 247.581 57.678 247.081 57.678C246.733 57.678 246.429 57.758 246.169 57.918C245.913 58.078 245.675 58.304 245.455 58.596V61.536ZM245.455 57.798C245.711 57.502 245.999 57.266 246.319 57.09C246.643 56.914 247.015 56.826 247.435 56.826C247.791 56.826 248.111 56.894 248.395 57.03C248.683 57.166 248.927 57.364 249.127 57.624C249.327 57.88 249.479 58.192 249.583 58.56C249.691 58.928 249.745 59.342 249.745 59.802C249.745 60.294 249.685 60.742 249.565 61.146C249.445 61.55 249.271 61.896 249.043 62.184C248.819 62.468 248.545 62.69 248.221 62.85C247.897 63.006 247.533 63.084 247.129 63.084C246.729 63.084 246.391 63.01 246.115 62.862C245.843 62.71 245.605 62.496 245.401 62.22L245.347 62.772C245.315 62.924 245.223 63 245.071 63H244.381V54.162H245.455V57.798ZM254.39 60.264C253.898 60.28 253.478 60.32 253.13 60.384C252.786 60.444 252.504 60.524 252.284 60.624C252.068 60.724 251.91 60.842 251.81 60.978C251.714 61.114 251.666 61.266 251.666 61.434C251.666 61.594 251.692 61.732 251.744 61.848C251.796 61.964 251.866 62.06 251.954 62.136C252.046 62.208 252.152 62.262 252.272 62.298C252.396 62.33 252.528 62.346 252.668 62.346C252.856 62.346 253.028 62.328 253.184 62.292C253.34 62.252 253.486 62.196 253.622 62.124C253.762 62.052 253.894 61.966 254.018 61.866C254.146 61.766 254.27 61.652 254.39 61.524V60.264ZM250.94 57.78C251.276 57.456 251.638 57.214 252.026 57.054C252.414 56.894 252.844 56.814 253.316 56.814C253.656 56.814 253.958 56.87 254.222 56.982C254.486 57.094 254.708 57.25 254.888 57.45C255.068 57.65 255.204 57.892 255.296 58.176C255.388 58.46 255.434 58.772 255.434 59.112V63H254.96C254.856 63 254.776 62.984 254.72 62.952C254.664 62.916 254.62 62.848 254.588 62.748L254.468 62.172C254.308 62.32 254.152 62.452 254 62.568C253.848 62.68 253.688 62.776 253.52 62.856C253.352 62.932 253.172 62.99 252.98 63.03C252.792 63.074 252.582 63.096 252.35 63.096C252.114 63.096 251.892 63.064 251.684 63C251.476 62.932 251.294 62.832 251.138 62.7C250.986 62.568 250.864 62.402 250.772 62.202C250.684 61.998 250.64 61.758 250.64 61.482C250.64 61.242 250.706 61.012 250.838 60.792C250.97 60.568 251.184 60.37 251.48 60.198C251.776 60.026 252.162 59.886 252.638 59.778C253.114 59.666 253.698 59.602 254.39 59.586V59.112C254.39 58.64 254.288 58.284 254.084 58.044C253.88 57.8 253.582 57.678 253.19 57.678C252.926 57.678 252.704 57.712 252.524 57.78C252.348 57.844 252.194 57.918 252.062 58.002C251.934 58.082 251.822 58.156 251.726 58.224C251.634 58.288 251.542 58.32 251.45 58.32C251.378 58.32 251.316 58.302 251.264 58.266C251.212 58.226 251.168 58.178 251.132 58.122L250.94 57.78ZM260.601 57.924C260.553 58.012 260.479 58.056 260.379 58.056C260.319 58.056 260.251 58.034 260.175 57.99C260.099 57.946 260.005 57.898 259.893 57.846C259.785 57.79 259.655 57.74 259.503 57.696C259.351 57.648 259.171 57.624 258.963 57.624C258.783 57.624 258.621 57.648 258.477 57.696C258.333 57.74 258.209 57.802 258.105 57.882C258.005 57.962 257.927 58.056 257.871 58.164C257.819 58.268 257.793 58.382 257.793 58.506C257.793 58.662 257.837 58.792 257.925 58.896C258.017 59 258.137 59.09 258.285 59.166C258.433 59.242 258.601 59.31 258.789 59.37C258.977 59.426 259.169 59.488 259.365 59.556C259.565 59.62 259.759 59.692 259.947 59.772C260.135 59.852 260.303 59.952 260.451 60.072C260.599 60.192 260.717 60.34 260.805 60.516C260.897 60.688 260.943 60.896 260.943 61.14C260.943 61.42 260.893 61.68 260.793 61.92C260.693 62.156 260.545 62.362 260.349 62.538C260.153 62.71 259.913 62.846 259.629 62.946C259.345 63.046 259.017 63.096 258.645 63.096C258.221 63.096 257.837 63.028 257.493 62.892C257.149 62.752 256.857 62.574 256.617 62.358L256.869 61.95C256.901 61.898 256.939 61.858 256.983 61.83C257.027 61.802 257.083 61.788 257.151 61.788C257.223 61.788 257.299 61.816 257.379 61.872C257.459 61.928 257.555 61.99 257.667 62.058C257.783 62.126 257.923 62.188 258.087 62.244C258.251 62.3 258.455 62.328 258.699 62.328C258.907 62.328 259.089 62.302 259.245 62.25C259.401 62.194 259.531 62.12 259.635 62.028C259.739 61.936 259.815 61.83 259.863 61.71C259.915 61.59 259.941 61.462 259.941 61.326C259.941 61.158 259.895 61.02 259.803 60.912C259.715 60.8 259.597 60.706 259.449 60.63C259.301 60.55 259.131 60.482 258.939 60.426C258.751 60.366 258.557 60.304 258.357 60.24C258.161 60.176 257.967 60.104 257.775 60.024C257.587 59.94 257.419 59.836 257.271 59.712C257.123 59.588 257.003 59.436 256.911 59.256C256.823 59.072 256.779 58.85 256.779 58.59C256.779 58.358 256.827 58.136 256.923 57.924C257.019 57.708 257.159 57.52 257.343 57.36C257.527 57.196 257.753 57.066 258.021 56.97C258.289 56.874 258.595 56.826 258.939 56.826C259.339 56.826 259.697 56.89 260.013 57.018C260.333 57.142 260.609 57.314 260.841 57.534L260.601 57.924ZM266.32 59.298C266.32 59.05 266.284 58.824 266.212 58.62C266.144 58.412 266.042 58.234 265.906 58.086C265.774 57.934 265.612 57.818 265.42 57.738C265.228 57.654 265.01 57.612 264.766 57.612C264.254 57.612 263.848 57.762 263.548 58.062C263.252 58.358 263.068 58.77 262.996 59.298H266.32ZM267.184 62.148C267.052 62.308 266.894 62.448 266.71 62.568C266.526 62.684 266.328 62.78 266.116 62.856C265.908 62.932 265.692 62.988 265.468 63.024C265.244 63.064 265.022 63.084 264.802 63.084C264.382 63.084 263.994 63.014 263.638 62.874C263.286 62.73 262.98 62.522 262.72 62.25C262.464 61.974 262.264 61.634 262.12 61.23C261.976 60.826 261.904 60.362 261.904 59.838C261.904 59.414 261.968 59.018 262.096 58.65C262.228 58.282 262.416 57.964 262.66 57.696C262.904 57.424 263.202 57.212 263.554 57.06C263.906 56.904 264.302 56.826 264.742 56.826C265.106 56.826 265.442 56.888 265.75 57.012C266.062 57.132 266.33 57.308 266.554 57.54C266.782 57.768 266.96 58.052 267.088 58.392C267.216 58.728 267.28 59.112 267.28 59.544C267.28 59.712 267.262 59.824 267.226 59.88C267.19 59.936 267.122 59.964 267.022 59.964H262.96C262.972 60.348 263.024 60.682 263.116 60.966C263.212 61.25 263.344 61.488 263.512 61.68C263.68 61.868 263.88 62.01 264.112 62.106C264.344 62.198 264.604 62.244 264.892 62.244C265.16 62.244 265.39 62.214 265.582 62.154C265.778 62.09 265.946 62.022 266.086 61.95C266.226 61.878 266.342 61.812 266.434 61.752C266.53 61.688 266.612 61.656 266.68 61.656C266.768 61.656 266.836 61.69 266.884 61.758L267.184 62.148ZM272.058 63V57.834L271.386 57.756C271.302 57.736 271.232 57.706 271.176 57.666C271.124 57.622 271.098 57.56 271.098 57.48V57.042H272.058V56.454C272.058 56.106 272.106 55.798 272.202 55.53C272.302 55.258 272.442 55.03 272.622 54.846C272.806 54.658 273.026 54.516 273.282 54.42C273.538 54.324 273.826 54.276 274.146 54.276C274.418 54.276 274.668 54.316 274.896 54.396L274.872 54.93C274.864 55.026 274.81 55.078 274.71 55.086C274.614 55.094 274.484 55.098 274.32 55.098C274.136 55.098 273.968 55.122 273.816 55.17C273.668 55.218 273.54 55.296 273.432 55.404C273.324 55.512 273.24 55.654 273.18 55.83C273.124 56.006 273.096 56.224 273.096 56.484V57.042H274.848V57.816H273.132V63H272.058ZM276.883 58.14C277.075 57.724 277.311 57.4 277.591 57.168C277.871 56.932 278.213 56.814 278.617 56.814C278.745 56.814 278.867 56.828 278.983 56.856C279.103 56.884 279.209 56.928 279.301 56.988L279.223 57.786C279.199 57.886 279.139 57.936 279.043 57.936C278.987 57.936 278.905 57.924 278.797 57.9C278.689 57.876 278.567 57.864 278.431 57.864C278.239 57.864 278.067 57.892 277.915 57.948C277.767 58.004 277.633 58.088 277.513 58.2C277.397 58.308 277.291 58.444 277.195 58.608C277.103 58.768 277.019 58.952 276.943 59.16V63H275.869V56.922H276.481C276.597 56.922 276.677 56.944 276.721 56.988C276.765 57.032 276.795 57.108 276.811 57.216L276.883 58.14ZM282.556 56.826C283 56.826 283.4 56.9 283.756 57.048C284.112 57.196 284.416 57.406 284.668 57.678C284.92 57.95 285.112 58.28 285.244 58.668C285.38 59.052 285.448 59.482 285.448 59.958C285.448 60.438 285.38 60.87 285.244 61.254C285.112 61.638 284.92 61.966 284.668 62.238C284.416 62.51 284.112 62.72 283.756 62.868C283.4 63.012 283 63.084 282.556 63.084C282.108 63.084 281.704 63.012 281.344 62.868C280.988 62.72 280.684 62.51 280.432 62.238C280.18 61.966 279.986 61.638 279.85 61.254C279.718 60.87 279.652 60.438 279.652 59.958C279.652 59.482 279.718 59.052 279.85 58.668C279.986 58.28 280.18 57.95 280.432 57.678C280.684 57.406 280.988 57.196 281.344 57.048C281.704 56.9 282.108 56.826 282.556 56.826ZM282.556 62.25C283.156 62.25 283.604 62.05 283.9 61.65C284.196 61.246 284.344 60.684 284.344 59.964C284.344 59.24 284.196 58.676 283.9 58.272C283.604 57.868 283.156 57.666 282.556 57.666C282.252 57.666 281.986 57.718 281.758 57.822C281.534 57.926 281.346 58.076 281.194 58.272C281.046 58.468 280.934 58.71 280.858 58.998C280.786 59.282 280.75 59.604 280.75 59.964C280.75 60.684 280.898 61.246 281.194 61.65C281.494 62.05 281.948 62.25 282.556 62.25ZM286.803 63V56.922H287.445C287.597 56.922 287.691 56.996 287.727 57.144L287.805 57.768C288.029 57.492 288.281 57.266 288.561 57.09C288.841 56.914 289.165 56.826 289.533 56.826C289.941 56.826 290.271 56.94 290.523 57.168C290.779 57.396 290.963 57.704 291.075 58.092C291.163 57.872 291.275 57.682 291.411 57.522C291.551 57.362 291.707 57.23 291.879 57.126C292.051 57.022 292.233 56.946 292.425 56.898C292.621 56.85 292.819 56.826 293.019 56.826C293.339 56.826 293.623 56.878 293.871 56.982C294.123 57.082 294.335 57.23 294.507 57.426C294.683 57.622 294.817 57.864 294.909 58.152C295.001 58.436 295.047 58.762 295.047 59.13V63H293.973V59.13C293.973 58.654 293.869 58.294 293.661 58.05C293.453 57.802 293.153 57.678 292.761 57.678C292.585 57.678 292.417 57.71 292.257 57.774C292.101 57.834 291.963 57.924 291.843 58.044C291.723 58.164 291.627 58.316 291.555 58.5C291.487 58.68 291.453 58.89 291.453 59.13V63H290.379V59.13C290.379 58.642 290.281 58.278 290.085 58.038C289.889 57.798 289.603 57.678 289.227 57.678C288.963 57.678 288.719 57.75 288.495 57.894C288.271 58.034 288.065 58.226 287.877 58.47V63H286.803ZM301.607 63.096C301.127 63.096 300.757 62.962 300.497 62.694C300.241 62.426 300.113 62.04 300.113 61.536V57.816H299.381C299.317 57.816 299.263 57.798 299.219 57.762C299.175 57.722 299.153 57.662 299.153 57.582V57.156L300.149 57.03L300.395 55.152C300.407 55.092 300.433 55.044 300.473 55.008C300.517 54.968 300.573 54.948 300.641 54.948H301.181V57.042H302.939V57.816H301.181V61.464C301.181 61.72 301.243 61.91 301.367 62.034C301.491 62.158 301.651 62.22 301.847 62.22C301.959 62.22 302.055 62.206 302.135 62.178C302.219 62.146 302.291 62.112 302.351 62.076C302.411 62.04 302.461 62.008 302.501 61.98C302.545 61.948 302.583 61.932 302.615 61.932C302.671 61.932 302.721 61.966 302.765 62.034L303.077 62.544C302.893 62.716 302.671 62.852 302.411 62.952C302.151 63.048 301.883 63.096 301.607 63.096ZM307.335 60.264C306.843 60.28 306.423 60.32 306.075 60.384C305.731 60.444 305.449 60.524 305.229 60.624C305.013 60.724 304.855 60.842 304.755 60.978C304.659 61.114 304.611 61.266 304.611 61.434C304.611 61.594 304.637 61.732 304.689 61.848C304.741 61.964 304.811 62.06 304.899 62.136C304.991 62.208 305.097 62.262 305.217 62.298C305.341 62.33 305.473 62.346 305.613 62.346C305.801 62.346 305.973 62.328 306.129 62.292C306.285 62.252 306.431 62.196 306.567 62.124C306.707 62.052 306.839 61.966 306.963 61.866C307.091 61.766 307.215 61.652 307.335 61.524V60.264ZM303.885 57.78C304.221 57.456 304.583 57.214 304.971 57.054C305.359 56.894 305.789 56.814 306.261 56.814C306.601 56.814 306.903 56.87 307.167 56.982C307.431 57.094 307.653 57.25 307.833 57.45C308.013 57.65 308.149 57.892 308.241 58.176C308.333 58.46 308.379 58.772 308.379 59.112V63H307.905C307.801 63 307.721 62.984 307.665 62.952C307.609 62.916 307.565 62.848 307.533 62.748L307.413 62.172C307.253 62.32 307.097 62.452 306.945 62.568C306.793 62.68 306.633 62.776 306.465 62.856C306.297 62.932 306.117 62.99 305.925 63.03C305.737 63.074 305.527 63.096 305.295 63.096C305.059 63.096 304.837 63.064 304.629 63C304.421 62.932 304.239 62.832 304.083 62.7C303.931 62.568 303.809 62.402 303.717 62.202C303.629 61.998 303.585 61.758 303.585 61.482C303.585 61.242 303.651 61.012 303.783 60.792C303.915 60.568 304.129 60.37 304.425 60.198C304.721 60.026 305.107 59.886 305.583 59.778C306.059 59.666 306.643 59.602 307.335 59.586V59.112C307.335 58.64 307.233 58.284 307.029 58.044C306.825 57.8 306.527 57.678 306.135 57.678C305.871 57.678 305.649 57.712 305.469 57.78C305.293 57.844 305.139 57.918 305.007 58.002C304.879 58.082 304.767 58.156 304.671 58.224C304.579 58.288 304.487 58.32 304.395 58.32C304.323 58.32 304.261 58.302 304.209 58.266C304.157 58.226 304.113 58.178 304.077 58.122L303.885 57.78ZM311.134 56.922V63H310.066V56.922H311.134ZM311.362 55.014C311.362 55.118 311.34 55.216 311.296 55.308C311.256 55.396 311.2 55.476 311.128 55.548C311.06 55.616 310.978 55.67 310.882 55.71C310.79 55.75 310.692 55.77 310.588 55.77C310.484 55.77 310.386 55.75 310.294 55.71C310.206 55.67 310.128 55.616 310.06 55.548C309.992 55.476 309.938 55.396 309.898 55.308C309.858 55.216 309.838 55.118 309.838 55.014C309.838 54.91 309.858 54.812 309.898 54.72C309.938 54.624 309.992 54.542 310.06 54.474C310.128 54.402 310.206 54.346 310.294 54.306C310.386 54.266 310.484 54.246 310.588 54.246C310.692 54.246 310.79 54.266 310.882 54.306C310.978 54.346 311.06 54.402 311.128 54.474C311.2 54.542 311.256 54.624 311.296 54.72C311.34 54.812 311.362 54.91 311.362 55.014ZM313.993 54.162V63H312.925V54.162H313.993ZM324.107 56.922L322.139 63H321.293C321.189 63 321.117 62.932 321.077 62.796L319.733 58.674C319.701 58.582 319.675 58.49 319.655 58.398C319.635 58.302 319.615 58.208 319.595 58.116C319.575 58.208 319.555 58.302 319.535 58.398C319.515 58.49 319.489 58.584 319.457 58.68L318.089 62.796C318.053 62.932 317.973 63 317.849 63H317.045L315.077 56.922H315.917C316.001 56.922 316.071 56.944 316.127 56.988C316.187 57.032 316.227 57.084 316.247 57.144L317.411 61.056C317.479 61.344 317.533 61.616 317.573 61.872C317.609 61.74 317.645 61.606 317.681 61.47C317.721 61.334 317.763 61.196 317.807 61.056L319.091 57.12C319.111 57.06 319.145 57.01 319.193 56.97C319.245 56.93 319.307 56.91 319.379 56.91H319.847C319.927 56.91 319.993 56.93 320.045 56.97C320.097 57.01 320.133 57.06 320.153 57.12L321.407 61.056C321.451 61.196 321.491 61.334 321.527 61.47C321.563 61.606 321.597 61.74 321.629 61.872C321.649 61.74 321.673 61.608 321.701 61.476C321.733 61.34 321.767 61.2 321.803 61.056L322.991 57.144C323.011 57.08 323.049 57.028 323.105 56.988C323.161 56.944 323.227 56.922 323.303 56.922H324.107ZM326.275 56.922V63H325.207V56.922H326.275ZM326.503 55.014C326.503 55.118 326.481 55.216 326.437 55.308C326.397 55.396 326.341 55.476 326.269 55.548C326.201 55.616 326.119 55.67 326.023 55.71C325.931 55.75 325.833 55.77 325.729 55.77C325.625 55.77 325.527 55.75 325.435 55.71C325.347 55.67 325.269 55.616 325.201 55.548C325.133 55.476 325.079 55.396 325.039 55.308C324.999 55.216 324.979 55.118 324.979 55.014C324.979 54.91 324.999 54.812 325.039 54.72C325.079 54.624 325.133 54.542 325.201 54.474C325.269 54.402 325.347 54.346 325.435 54.306C325.527 54.266 325.625 54.246 325.729 54.246C325.833 54.246 325.931 54.266 326.023 54.306C326.119 54.346 326.201 54.402 326.269 54.474C326.341 54.542 326.397 54.624 326.437 54.72C326.481 54.812 326.503 54.91 326.503 55.014ZM329.038 57.804C329.17 57.656 329.31 57.522 329.458 57.402C329.606 57.282 329.762 57.18 329.926 57.096C330.094 57.008 330.27 56.942 330.454 56.898C330.642 56.85 330.844 56.826 331.06 56.826C331.392 56.826 331.684 56.882 331.936 56.994C332.192 57.102 332.404 57.258 332.572 57.462C332.744 57.662 332.874 57.904 332.962 58.188C333.05 58.472 333.094 58.786 333.094 59.13V63H332.02V59.13C332.02 58.67 331.914 58.314 331.702 58.062C331.494 57.806 331.176 57.678 330.748 57.678C330.432 57.678 330.136 57.754 329.86 57.906C329.588 58.058 329.336 58.264 329.104 58.524V63H328.03V56.922H328.672C328.824 56.922 328.918 56.996 328.954 57.144L329.038 57.804ZM338.681 58.368C338.481 58.1 338.265 57.914 338.033 57.81C337.801 57.702 337.541 57.648 337.253 57.648C336.689 57.648 336.255 57.85 335.951 58.254C335.647 58.658 335.495 59.234 335.495 59.982C335.495 60.378 335.529 60.718 335.597 61.002C335.665 61.282 335.765 61.514 335.897 61.698C336.029 61.878 336.191 62.01 336.383 62.094C336.575 62.178 336.793 62.22 337.037 62.22C337.389 62.22 337.695 62.14 337.955 61.98C338.219 61.82 338.461 61.594 338.681 61.302V58.368ZM339.749 54.162V63H339.113C338.961 63 338.865 62.926 338.825 62.778L338.729 62.04C338.469 62.352 338.173 62.604 337.841 62.796C337.509 62.988 337.125 63.084 336.689 63.084C336.341 63.084 336.025 63.018 335.741 62.886C335.457 62.75 335.215 62.552 335.015 62.292C334.815 62.032 334.661 61.708 334.553 61.32C334.445 60.932 334.391 60.486 334.391 59.982C334.391 59.534 334.451 59.118 334.571 58.734C334.691 58.346 334.863 58.01 335.087 57.726C335.311 57.442 335.585 57.22 335.909 57.06C336.237 56.896 336.605 56.814 337.013 56.814C337.385 56.814 337.703 56.878 337.967 57.006C338.235 57.13 338.473 57.304 338.681 57.528V54.162H339.749ZM346.372 63.096C345.892 63.096 345.522 62.962 345.262 62.694C345.006 62.426 344.878 62.04 344.878 61.536V57.816H344.146C344.082 57.816 344.028 57.798 343.984 57.762C343.94 57.722 343.918 57.662 343.918 57.582V57.156L344.914 57.03L345.16 55.152C345.172 55.092 345.198 55.044 345.238 55.008C345.282 54.968 345.338 54.948 345.406 54.948H345.946V57.042H347.704V57.816H345.946V61.464C345.946 61.72 346.008 61.91 346.132 62.034C346.256 62.158 346.416 62.22 346.612 62.22C346.724 62.22 346.82 62.206 346.9 62.178C346.984 62.146 347.056 62.112 347.116 62.076C347.176 62.04 347.226 62.008 347.266 61.98C347.31 61.948 347.348 61.932 347.38 61.932C347.436 61.932 347.486 61.966 347.53 62.034L347.842 62.544C347.658 62.716 347.436 62.852 347.176 62.952C346.916 63.048 346.648 63.096 346.372 63.096ZM351.334 56.826C351.778 56.826 352.178 56.9 352.534 57.048C352.89 57.196 353.194 57.406 353.446 57.678C353.698 57.95 353.89 58.28 354.022 58.668C354.158 59.052 354.226 59.482 354.226 59.958C354.226 60.438 354.158 60.87 354.022 61.254C353.89 61.638 353.698 61.966 353.446 62.238C353.194 62.51 352.89 62.72 352.534 62.868C352.178 63.012 351.778 63.084 351.334 63.084C350.886 63.084 350.482 63.012 350.122 62.868C349.766 62.72 349.462 62.51 349.21 62.238C348.958 61.966 348.764 61.638 348.628 61.254C348.496 60.87 348.43 60.438 348.43 59.958C348.43 59.482 348.496 59.052 348.628 58.668C348.764 58.28 348.958 57.95 349.21 57.678C349.462 57.406 349.766 57.196 350.122 57.048C350.482 56.9 350.886 56.826 351.334 56.826ZM351.334 62.25C351.934 62.25 352.382 62.05 352.678 61.65C352.974 61.246 353.122 60.684 353.122 59.964C353.122 59.24 352.974 58.676 352.678 58.272C352.382 57.868 351.934 57.666 351.334 57.666C351.03 57.666 350.764 57.718 350.536 57.822C350.312 57.926 350.124 58.076 349.972 58.272C349.824 58.468 349.712 58.71 349.636 58.998C349.564 59.282 349.528 59.604 349.528 59.964C349.528 60.684 349.676 61.246 349.972 61.65C350.272 62.05 350.726 62.25 351.334 62.25ZM362.191 57.924C362.143 58.012 362.069 58.056 361.969 58.056C361.909 58.056 361.841 58.034 361.765 57.99C361.689 57.946 361.595 57.898 361.483 57.846C361.375 57.79 361.245 57.74 361.093 57.696C360.941 57.648 360.761 57.624 360.553 57.624C360.373 57.624 360.211 57.648 360.067 57.696C359.923 57.74 359.799 57.802 359.695 57.882C359.595 57.962 359.517 58.056 359.461 58.164C359.409 58.268 359.383 58.382 359.383 58.506C359.383 58.662 359.427 58.792 359.515 58.896C359.607 59 359.727 59.09 359.875 59.166C360.023 59.242 360.191 59.31 360.379 59.37C360.567 59.426 360.759 59.488 360.955 59.556C361.155 59.62 361.349 59.692 361.537 59.772C361.725 59.852 361.893 59.952 362.041 60.072C362.189 60.192 362.307 60.34 362.395 60.516C362.487 60.688 362.533 60.896 362.533 61.14C362.533 61.42 362.483 61.68 362.383 61.92C362.283 62.156 362.135 62.362 361.939 62.538C361.743 62.71 361.503 62.846 361.219 62.946C360.935 63.046 360.607 63.096 360.235 63.096C359.811 63.096 359.427 63.028 359.083 62.892C358.739 62.752 358.447 62.574 358.207 62.358L358.459 61.95C358.491 61.898 358.529 61.858 358.573 61.83C358.617 61.802 358.673 61.788 358.741 61.788C358.813 61.788 358.889 61.816 358.969 61.872C359.049 61.928 359.145 61.99 359.257 62.058C359.373 62.126 359.513 62.188 359.677 62.244C359.841 62.3 360.045 62.328 360.289 62.328C360.497 62.328 360.679 62.302 360.835 62.25C360.991 62.194 361.121 62.12 361.225 62.028C361.329 61.936 361.405 61.83 361.453 61.71C361.505 61.59 361.531 61.462 361.531 61.326C361.531 61.158 361.485 61.02 361.393 60.912C361.305 60.8 361.187 60.706 361.039 60.63C360.891 60.55 360.721 60.482 360.529 60.426C360.341 60.366 360.147 60.304 359.947 60.24C359.751 60.176 359.557 60.104 359.365 60.024C359.177 59.94 359.009 59.836 358.861 59.712C358.713 59.588 358.593 59.436 358.501 59.256C358.413 59.072 358.369 58.85 358.369 58.59C358.369 58.358 358.417 58.136 358.513 57.924C358.609 57.708 358.749 57.52 358.933 57.36C359.117 57.196 359.343 57.066 359.611 56.97C359.879 56.874 360.185 56.826 360.529 56.826C360.929 56.826 361.287 56.89 361.603 57.018C361.923 57.142 362.199 57.314 362.431 57.534L362.191 57.924ZM365.708 63.096C365.228 63.096 364.858 62.962 364.598 62.694C364.342 62.426 364.214 62.04 364.214 61.536V57.816H363.482C363.418 57.816 363.364 57.798 363.32 57.762C363.276 57.722 363.254 57.662 363.254 57.582V57.156L364.25 57.03L364.496 55.152C364.508 55.092 364.534 55.044 364.574 55.008C364.618 54.968 364.674 54.948 364.742 54.948H365.282V57.042H367.04V57.816H365.282V61.464C365.282 61.72 365.344 61.91 365.468 62.034C365.592 62.158 365.752 62.22 365.948 62.22C366.06 62.22 366.156 62.206 366.236 62.178C366.32 62.146 366.392 62.112 366.452 62.076C366.512 62.04 366.562 62.008 366.602 61.98C366.646 61.948 366.684 61.932 366.716 61.932C366.772 61.932 366.822 61.966 366.866 62.034L367.178 62.544C366.994 62.716 366.772 62.852 366.512 62.952C366.252 63.048 365.984 63.096 365.708 63.096ZM373.387 56.922L369.997 64.794C369.961 64.874 369.915 64.938 369.859 64.986C369.807 65.034 369.725 65.058 369.613 65.058H368.821L369.931 62.646L367.423 56.922H368.347C368.439 56.922 368.511 56.946 368.563 56.994C368.619 57.038 368.657 57.088 368.677 57.144L370.303 60.972C370.367 61.14 370.421 61.316 370.465 61.5C370.521 61.312 370.581 61.134 370.645 60.966L372.223 57.144C372.247 57.08 372.287 57.028 372.343 56.988C372.403 56.944 372.469 56.922 372.541 56.922H373.387ZM375.434 54.162V63H374.366V54.162H375.434ZM381.234 59.298C381.234 59.05 381.198 58.824 381.126 58.62C381.058 58.412 380.956 58.234 380.82 58.086C380.688 57.934 380.526 57.818 380.334 57.738C380.142 57.654 379.924 57.612 379.68 57.612C379.168 57.612 378.762 57.762 378.462 58.062C378.166 58.358 377.982 58.77 377.91 59.298H381.234ZM382.098 62.148C381.966 62.308 381.808 62.448 381.624 62.568C381.44 62.684 381.242 62.78 381.03 62.856C380.822 62.932 380.606 62.988 380.382 63.024C380.158 63.064 379.936 63.084 379.716 63.084C379.296 63.084 378.908 63.014 378.552 62.874C378.2 62.73 377.894 62.522 377.634 62.25C377.378 61.974 377.178 61.634 377.034 61.23C376.89 60.826 376.818 60.362 376.818 59.838C376.818 59.414 376.882 59.018 377.01 58.65C377.142 58.282 377.33 57.964 377.574 57.696C377.818 57.424 378.116 57.212 378.468 57.06C378.82 56.904 379.216 56.826 379.656 56.826C380.02 56.826 380.356 56.888 380.664 57.012C380.976 57.132 381.244 57.308 381.468 57.54C381.696 57.768 381.874 58.052 382.002 58.392C382.13 58.728 382.194 59.112 382.194 59.544C382.194 59.712 382.176 59.824 382.14 59.88C382.104 59.936 382.036 59.964 381.936 59.964H377.874C377.886 60.348 377.938 60.682 378.03 60.966C378.126 61.25 378.258 61.488 378.426 61.68C378.594 61.868 378.794 62.01 379.026 62.106C379.258 62.198 379.518 62.244 379.806 62.244C380.074 62.244 380.304 62.214 380.496 62.154C380.692 62.09 380.86 62.022 381 61.95C381.14 61.878 381.256 61.812 381.348 61.752C381.444 61.688 381.526 61.656 381.594 61.656C381.682 61.656 381.75 61.69 381.798 61.758L382.098 62.148ZM387.466 58.368C387.266 58.1 387.05 57.914 386.818 57.81C386.586 57.702 386.326 57.648 386.038 57.648C385.474 57.648 385.04 57.85 384.736 58.254C384.432 58.658 384.28 59.234 384.28 59.982C384.28 60.378 384.314 60.718 384.382 61.002C384.45 61.282 384.55 61.514 384.682 61.698C384.814 61.878 384.976 62.01 385.168 62.094C385.36 62.178 385.578 62.22 385.822 62.22C386.174 62.22 386.48 62.14 386.74 61.98C387.004 61.82 387.246 61.594 387.466 61.302V58.368ZM388.534 54.162V63H387.898C387.746 63 387.65 62.926 387.61 62.778L387.514 62.04C387.254 62.352 386.958 62.604 386.626 62.796C386.294 62.988 385.91 63.084 385.474 63.084C385.126 63.084 384.81 63.018 384.526 62.886C384.242 62.75 384 62.552 383.8 62.292C383.6 62.032 383.446 61.708 383.338 61.32C383.23 60.932 383.176 60.486 383.176 59.982C383.176 59.534 383.236 59.118 383.356 58.734C383.476 58.346 383.648 58.01 383.872 57.726C384.096 57.442 384.37 57.22 384.694 57.06C385.022 56.896 385.39 56.814 385.798 56.814C386.17 56.814 386.488 56.878 386.752 57.006C387.02 57.13 387.258 57.304 387.466 57.528V54.162H388.534ZM397.521 58.002C397.489 58.046 397.457 58.08 397.425 58.104C397.393 58.128 397.349 58.14 397.293 58.14C397.233 58.14 397.167 58.116 397.095 58.068C397.023 58.016 396.933 57.96 396.825 57.9C396.721 57.84 396.591 57.786 396.435 57.738C396.283 57.686 396.095 57.66 395.871 57.66C395.571 57.66 395.307 57.714 395.079 57.822C394.851 57.926 394.659 58.078 394.503 58.278C394.351 58.478 394.235 58.72 394.155 59.004C394.079 59.288 394.041 59.606 394.041 59.958C394.041 60.326 394.083 60.654 394.167 60.942C394.251 61.226 394.369 61.466 394.521 61.662C394.677 61.854 394.863 62.002 395.079 62.106C395.299 62.206 395.545 62.256 395.817 62.256C396.077 62.256 396.291 62.226 396.459 62.166C396.627 62.102 396.765 62.032 396.873 61.956C396.985 61.88 397.077 61.812 397.149 61.752C397.225 61.688 397.299 61.656 397.371 61.656C397.459 61.656 397.527 61.69 397.575 61.758L397.875 62.148C397.743 62.312 397.593 62.452 397.425 62.568C397.257 62.684 397.075 62.782 396.879 62.862C396.687 62.938 396.485 62.994 396.273 63.03C396.061 63.066 395.845 63.084 395.625 63.084C395.245 63.084 394.891 63.014 394.563 62.874C394.239 62.734 393.957 62.532 393.717 62.268C393.477 62 393.289 61.672 393.153 61.284C393.017 60.896 392.949 60.454 392.949 59.958C392.949 59.506 393.011 59.088 393.135 58.704C393.263 58.32 393.447 57.99 393.687 57.714C393.931 57.434 394.229 57.216 394.581 57.06C394.937 56.904 395.345 56.826 395.805 56.826C396.233 56.826 396.609 56.896 396.933 57.036C397.261 57.172 397.551 57.366 397.803 57.618L397.521 58.002ZM401.478 56.826C401.922 56.826 402.322 56.9 402.678 57.048C403.034 57.196 403.338 57.406 403.59 57.678C403.842 57.95 404.034 58.28 404.166 58.668C404.302 59.052 404.37 59.482 404.37 59.958C404.37 60.438 404.302 60.87 404.166 61.254C404.034 61.638 403.842 61.966 403.59 62.238C403.338 62.51 403.034 62.72 402.678 62.868C402.322 63.012 401.922 63.084 401.478 63.084C401.03 63.084 400.626 63.012 400.266 62.868C399.91 62.72 399.606 62.51 399.354 62.238C399.102 61.966 398.908 61.638 398.772 61.254C398.64 60.87 398.574 60.438 398.574 59.958C398.574 59.482 398.64 59.052 398.772 58.668C398.908 58.28 399.102 57.95 399.354 57.678C399.606 57.406 399.91 57.196 400.266 57.048C400.626 56.9 401.03 56.826 401.478 56.826ZM401.478 62.25C402.078 62.25 402.526 62.05 402.822 61.65C403.118 61.246 403.266 60.684 403.266 59.964C403.266 59.24 403.118 58.676 402.822 58.272C402.526 57.868 402.078 57.666 401.478 57.666C401.174 57.666 400.908 57.718 400.68 57.822C400.456 57.926 400.268 58.076 400.116 58.272C399.968 58.468 399.856 58.71 399.78 58.998C399.708 59.282 399.672 59.604 399.672 59.964C399.672 60.684 399.82 61.246 400.116 61.65C400.416 62.05 400.87 62.25 401.478 62.25ZM405.725 63V56.922H406.367C406.519 56.922 406.613 56.996 406.649 57.144L406.727 57.768C406.951 57.492 407.203 57.266 407.483 57.09C407.763 56.914 408.087 56.826 408.455 56.826C408.863 56.826 409.193 56.94 409.445 57.168C409.701 57.396 409.885 57.704 409.997 58.092C410.085 57.872 410.197 57.682 410.333 57.522C410.473 57.362 410.629 57.23 410.801 57.126C410.973 57.022 411.155 56.946 411.347 56.898C411.543 56.85 411.741 56.826 411.941 56.826C412.261 56.826 412.545 56.878 412.793 56.982C413.045 57.082 413.257 57.23 413.429 57.426C413.605 57.622 413.739 57.864 413.831 58.152C413.923 58.436 413.969 58.762 413.969 59.13V63H412.895V59.13C412.895 58.654 412.791 58.294 412.583 58.05C412.375 57.802 412.075 57.678 411.683 57.678C411.507 57.678 411.339 57.71 411.179 57.774C411.023 57.834 410.885 57.924 410.765 58.044C410.645 58.164 410.549 58.316 410.477 58.5C410.409 58.68 410.375 58.89 410.375 59.13V63H409.301V59.13C409.301 58.642 409.203 58.278 409.007 58.038C408.811 57.798 408.525 57.678 408.149 57.678C407.885 57.678 407.641 57.75 407.417 57.894C407.193 58.034 406.987 58.226 406.799 58.47V63H405.725ZM416.666 61.536C416.862 61.8 417.076 61.986 417.308 62.094C417.54 62.202 417.8 62.256 418.088 62.256C418.656 62.256 419.092 62.054 419.396 61.65C419.7 61.246 419.852 60.67 419.852 59.922C419.852 59.526 419.816 59.186 419.744 58.902C419.676 58.618 419.576 58.386 419.444 58.206C419.312 58.022 419.15 57.888 418.958 57.804C418.766 57.72 418.548 57.678 418.304 57.678C417.956 57.678 417.65 57.758 417.386 57.918C417.126 58.078 416.886 58.304 416.666 58.596V61.536ZM416.612 57.864C416.868 57.548 417.164 57.294 417.5 57.102C417.836 56.91 418.22 56.814 418.652 56.814C419.004 56.814 419.322 56.882 419.606 57.018C419.89 57.15 420.132 57.348 420.332 57.612C420.532 57.872 420.686 58.196 420.794 58.584C420.902 58.972 420.956 59.418 420.956 59.922C420.956 60.37 420.896 60.788 420.776 61.176C420.656 61.56 420.482 61.894 420.254 62.178C420.03 62.458 419.754 62.68 419.426 62.844C419.102 63.004 418.736 63.084 418.328 63.084C417.956 63.084 417.636 63.022 417.368 62.898C417.104 62.77 416.87 62.594 416.666 62.37V65.058H415.592V56.922H416.234C416.386 56.922 416.48 56.996 416.516 57.144L416.612 57.864ZM424.881 56.826C425.325 56.826 425.725 56.9 426.081 57.048C426.437 57.196 426.741 57.406 426.993 57.678C427.245 57.95 427.437 58.28 427.569 58.668C427.705 59.052 427.773 59.482 427.773 59.958C427.773 60.438 427.705 60.87 427.569 61.254C427.437 61.638 427.245 61.966 426.993 62.238C426.741 62.51 426.437 62.72 426.081 62.868C425.725 63.012 425.325 63.084 424.881 63.084C424.433 63.084 424.029 63.012 423.669 62.868C423.313 62.72 423.009 62.51 422.757 62.238C422.505 61.966 422.311 61.638 422.175 61.254C422.043 60.87 421.977 60.438 421.977 59.958C421.977 59.482 422.043 59.052 422.175 58.668C422.311 58.28 422.505 57.95 422.757 57.678C423.009 57.406 423.313 57.196 423.669 57.048C424.029 56.9 424.433 56.826 424.881 56.826ZM424.881 62.25C425.481 62.25 425.929 62.05 426.225 61.65C426.521 61.246 426.669 60.684 426.669 59.964C426.669 59.24 426.521 58.676 426.225 58.272C425.929 57.868 425.481 57.666 424.881 57.666C424.577 57.666 424.311 57.718 424.083 57.822C423.859 57.926 423.671 58.076 423.519 58.272C423.371 58.468 423.259 58.71 423.183 58.998C423.111 59.282 423.075 59.604 423.075 59.964C423.075 60.684 423.223 61.246 423.519 61.65C423.819 62.05 424.273 62.25 424.881 62.25ZM430.135 57.804C430.267 57.656 430.407 57.522 430.555 57.402C430.703 57.282 430.859 57.18 431.023 57.096C431.191 57.008 431.367 56.942 431.551 56.898C431.739 56.85 431.941 56.826 432.157 56.826C432.489 56.826 432.781 56.882 433.033 56.994C433.289 57.102 433.501 57.258 433.669 57.462C433.841 57.662 433.971 57.904 434.059 58.188C434.147 58.472 434.191 58.786 434.191 59.13V63H433.117V59.13C433.117 58.67 433.011 58.314 432.799 58.062C432.591 57.806 432.273 57.678 431.845 57.678C431.529 57.678 431.233 57.754 430.957 57.906C430.685 58.058 430.433 58.264 430.201 58.524V63H429.127V56.922H429.769C429.921 56.922 430.015 56.996 430.051 57.144L430.135 57.804ZM439.887 59.298C439.887 59.05 439.851 58.824 439.779 58.62C439.711 58.412 439.609 58.234 439.473 58.086C439.341 57.934 439.179 57.818 438.987 57.738C438.795 57.654 438.577 57.612 438.333 57.612C437.821 57.612 437.415 57.762 437.115 58.062C436.819 58.358 436.635 58.77 436.563 59.298H439.887ZM440.751 62.148C440.619 62.308 440.461 62.448 440.277 62.568C440.093 62.684 439.895 62.78 439.683 62.856C439.475 62.932 439.259 62.988 439.035 63.024C438.811 63.064 438.589 63.084 438.369 63.084C437.949 63.084 437.561 63.014 437.205 62.874C436.853 62.73 436.547 62.522 436.287 62.25C436.031 61.974 435.831 61.634 435.687 61.23C435.543 60.826 435.471 60.362 435.471 59.838C435.471 59.414 435.535 59.018 435.663 58.65C435.795 58.282 435.983 57.964 436.227 57.696C436.471 57.424 436.769 57.212 437.121 57.06C437.473 56.904 437.869 56.826 438.309 56.826C438.673 56.826 439.009 56.888 439.317 57.012C439.629 57.132 439.897 57.308 440.121 57.54C440.349 57.768 440.527 58.052 440.655 58.392C440.783 58.728 440.847 59.112 440.847 59.544C440.847 59.712 440.829 59.824 440.793 59.88C440.757 59.936 440.689 59.964 440.589 59.964H436.527C436.539 60.348 436.591 60.682 436.683 60.966C436.779 61.25 436.911 61.488 437.079 61.68C437.247 61.868 437.447 62.01 437.679 62.106C437.911 62.198 438.171 62.244 438.459 62.244C438.727 62.244 438.957 62.214 439.149 62.154C439.345 62.09 439.513 62.022 439.653 61.95C439.793 61.878 439.909 61.812 440.001 61.752C440.097 61.688 440.179 61.656 440.247 61.656C440.335 61.656 440.403 61.69 440.451 61.758L440.751 62.148ZM443.167 57.804C443.299 57.656 443.439 57.522 443.587 57.402C443.735 57.282 443.891 57.18 444.055 57.096C444.223 57.008 444.399 56.942 444.583 56.898C444.771 56.85 444.973 56.826 445.189 56.826C445.521 56.826 445.813 56.882 446.065 56.994C446.321 57.102 446.533 57.258 446.701 57.462C446.873 57.662 447.003 57.904 447.091 58.188C447.179 58.472 447.223 58.786 447.223 59.13V63H446.149V59.13C446.149 58.67 446.043 58.314 445.831 58.062C445.623 57.806 445.305 57.678 444.877 57.678C444.561 57.678 444.265 57.754 443.989 57.906C443.717 58.058 443.465 58.264 443.233 58.524V63H442.159V56.922H442.801C442.953 56.922 443.047 56.996 443.083 57.144L443.167 57.804ZM450.634 63.096C450.154 63.096 449.784 62.962 449.524 62.694C449.268 62.426 449.14 62.04 449.14 61.536V57.816H448.408C448.344 57.816 448.29 57.798 448.246 57.762C448.202 57.722 448.18 57.662 448.18 57.582V57.156L449.176 57.03L449.422 55.152C449.434 55.092 449.46 55.044 449.5 55.008C449.544 54.968 449.6 54.948 449.668 54.948H450.208V57.042H451.966V57.816H450.208V61.464C450.208 61.72 450.27 61.91 450.394 62.034C450.518 62.158 450.678 62.22 450.874 62.22C450.986 62.22 451.082 62.206 451.162 62.178C451.246 62.146 451.318 62.112 451.378 62.076C451.438 62.04 451.488 62.008 451.528 61.98C451.572 61.948 451.61 61.932 451.642 61.932C451.698 61.932 451.748 61.966 451.792 62.034L452.104 62.544C451.92 62.716 451.698 62.852 451.438 62.952C451.178 63.048 450.91 63.096 450.634 63.096ZM456.609 57.924C456.561 58.012 456.487 58.056 456.387 58.056C456.327 58.056 456.259 58.034 456.183 57.99C456.107 57.946 456.013 57.898 455.901 57.846C455.793 57.79 455.663 57.74 455.511 57.696C455.359 57.648 455.179 57.624 454.971 57.624C454.791 57.624 454.629 57.648 454.485 57.696C454.341 57.74 454.217 57.802 454.113 57.882C454.013 57.962 453.935 58.056 453.879 58.164C453.827 58.268 453.801 58.382 453.801 58.506C453.801 58.662 453.845 58.792 453.933 58.896C454.025 59 454.145 59.09 454.293 59.166C454.441 59.242 454.609 59.31 454.797 59.37C454.985 59.426 455.177 59.488 455.373 59.556C455.573 59.62 455.767 59.692 455.955 59.772C456.143 59.852 456.311 59.952 456.459 60.072C456.607 60.192 456.725 60.34 456.813 60.516C456.905 60.688 456.951 60.896 456.951 61.14C456.951 61.42 456.901 61.68 456.801 61.92C456.701 62.156 456.553 62.362 456.357 62.538C456.161 62.71 455.921 62.846 455.637 62.946C455.353 63.046 455.025 63.096 454.653 63.096C454.229 63.096 453.845 63.028 453.501 62.892C453.157 62.752 452.865 62.574 452.625 62.358L452.877 61.95C452.909 61.898 452.947 61.858 452.991 61.83C453.035 61.802 453.091 61.788 453.159 61.788C453.231 61.788 453.307 61.816 453.387 61.872C453.467 61.928 453.563 61.99 453.675 62.058C453.791 62.126 453.931 62.188 454.095 62.244C454.259 62.3 454.463 62.328 454.707 62.328C454.915 62.328 455.097 62.302 455.253 62.25C455.409 62.194 455.539 62.12 455.643 62.028C455.747 61.936 455.823 61.83 455.871 61.71C455.923 61.59 455.949 61.462 455.949 61.326C455.949 61.158 455.903 61.02 455.811 60.912C455.723 60.8 455.605 60.706 455.457 60.63C455.309 60.55 455.139 60.482 454.947 60.426C454.759 60.366 454.565 60.304 454.365 60.24C454.169 60.176 453.975 60.104 453.783 60.024C453.595 59.94 453.427 59.836 453.279 59.712C453.131 59.588 453.011 59.436 452.919 59.256C452.831 59.072 452.787 58.85 452.787 58.59C452.787 58.358 452.835 58.136 452.931 57.924C453.027 57.708 453.167 57.52 453.351 57.36C453.535 57.196 453.761 57.066 454.029 56.97C454.297 56.874 454.603 56.826 454.947 56.826C455.347 56.826 455.705 56.89 456.021 57.018C456.341 57.142 456.617 57.314 456.849 57.534L456.609 57.924Z" fill="black"/>
<path d="M198.244 74.264L198.16 74.684H196.744L196.324 76.772H197.74L197.656 77.192H196.24L195.664 80H195.172L195.748 77.192H193.684L193.108 80H192.616L193.192 77.192H191.764L191.848 76.772H193.276L193.696 74.684H192.268L192.352 74.264H193.78L194.356 71.456H194.848L194.272 74.264H196.336L196.912 71.456H197.404L196.828 74.264H198.244ZM193.768 76.772H195.832L196.252 74.684H194.188L193.768 76.772ZM202.284 74.54C203.108 74.54 203.78 74.804 204.3 75.332C204.812 75.868 205.068 76.548 205.068 77.372C205.068 78.196 204.812 78.868 204.3 79.388C203.788 79.924 203.112 80.192 202.272 80.192C201.568 80.192 200.968 79.988 200.472 79.58C199.648 78.9 199.236 77.64 199.236 75.8C199.236 74.4 199.492 73.296 200.004 72.488C200.524 71.672 201.304 71.264 202.344 71.264C203.032 71.264 203.608 71.46 204.072 71.852C204.536 72.244 204.828 72.772 204.948 73.436H204.444C204.332 72.908 204.088 72.492 203.712 72.188C203.344 71.884 202.888 71.732 202.344 71.732C200.616 71.732 199.752 73.084 199.752 75.788C199.752 76.036 199.764 76.276 199.788 76.508C199.916 75.94 200.216 75.468 200.688 75.092C201.136 74.724 201.668 74.54 202.284 74.54ZM202.272 79.724C202.936 79.724 203.476 79.504 203.892 79.064C204.316 78.616 204.528 78.052 204.528 77.372C204.528 76.684 204.316 76.116 203.892 75.668C203.476 75.228 202.936 75.008 202.272 75.008C201.6 75.008 201.056 75.228 200.64 75.668C200.216 76.116 200.004 76.684 200.004 77.372C200.004 78.052 200.216 78.616 200.64 79.064C201.056 79.504 201.6 79.724 202.272 79.724ZM209.268 74.54C210.092 74.54 210.764 74.804 211.284 75.332C211.796 75.868 212.052 76.548 212.052 77.372C212.052 78.196 211.796 78.868 211.284 79.388C210.772 79.924 210.096 80.192 209.256 80.192C208.552 80.192 207.952 79.988 207.456 79.58C206.632 78.9 206.22 77.64 206.22 75.8C206.22 74.4 206.476 73.296 206.988 72.488C207.508 71.672 208.288 71.264 209.328 71.264C210.016 71.264 210.592 71.46 211.056 71.852C211.52 72.244 211.812 72.772 211.932 73.436H211.428C211.316 72.908 211.072 72.492 210.696 72.188C210.328 71.884 209.872 71.732 209.328 71.732C207.6 71.732 206.736 73.084 206.736 75.788C206.736 76.036 206.748 76.276 206.772 76.508C206.9 75.94 207.2 75.468 207.672 75.092C208.12 74.724 208.652 74.54 209.268 74.54ZM209.256 79.724C209.92 79.724 210.46 79.504 210.876 79.064C211.3 78.616 211.512 78.052 211.512 77.372C211.512 76.684 211.3 76.116 210.876 75.668C210.46 75.228 209.92 75.008 209.256 75.008C208.584 75.008 208.04 75.228 207.624 75.668C207.2 76.116 206.988 76.684 206.988 77.372C206.988 78.052 207.2 78.616 207.624 79.064C208.04 79.504 208.584 79.724 209.256 79.724ZM215.875 80V79.244H216.643V80.324C216.643 81.004 216.407 81.424 215.935 81.584L215.839 81.62V81.248L215.899 81.224C216.155 81.112 216.283 80.824 216.283 80.36V80H215.875ZM223.673 77.096L224.885 73.808H225.425L222.785 80.828C222.585 81.364 222.345 81.756 222.065 82.004C221.785 82.252 221.433 82.376 221.009 82.376C220.769 82.376 220.609 82.372 220.529 82.364V81.944H220.997C221.573 81.944 222.013 81.536 222.317 80.72C222.381 80.56 222.453 80.372 222.533 80.156L220.037 73.808H220.577L221.849 77.084C222.009 77.492 222.321 78.324 222.785 79.58C222.849 79.396 223.145 78.568 223.673 77.096ZM231.129 76.88V77.06H226.173C226.197 77.884 226.409 78.528 226.809 78.992C227.209 79.456 227.757 79.688 228.453 79.688C228.997 79.688 229.449 79.536 229.809 79.232C230.169 78.92 230.401 78.496 230.505 77.96H231.009C230.889 78.624 230.601 79.156 230.145 79.556C229.689 79.948 229.121 80.144 228.441 80.144C227.585 80.144 226.909 79.848 226.413 79.256C225.917 78.664 225.669 77.88 225.669 76.904C225.669 75.92 225.913 75.136 226.401 74.552C226.881 73.96 227.549 73.664 228.405 73.664C229.269 73.664 229.941 73.964 230.421 74.564C230.893 75.18 231.129 75.952 231.129 76.88ZM228.405 74.12C227.741 74.12 227.213 74.34 226.821 74.78C226.437 75.22 226.225 75.828 226.185 76.604H230.613C230.573 75.844 230.357 75.24 229.965 74.792C229.581 74.344 229.061 74.12 228.405 74.12ZM234.444 80.144C233.66 80.144 233.052 79.964 232.62 79.604C232.196 79.244 231.964 78.744 231.924 78.104H232.428C232.516 79.176 233.188 79.712 234.444 79.712C235.7 79.712 236.328 79.276 236.328 78.404C236.328 78.052 236.208 77.78 235.968 77.588C235.728 77.388 235.32 77.236 234.744 77.132L234.06 77.024C233.388 76.912 232.896 76.72 232.584 76.448C232.272 76.168 232.116 75.788 232.116 75.308C232.116 74.796 232.308 74.396 232.692 74.108C233.084 73.812 233.624 73.664 234.312 73.664C235.824 73.664 236.62 74.276 236.7 75.5H236.196C236.156 75.028 235.984 74.676 235.68 74.444C235.384 74.212 234.928 74.096 234.312 74.096C233.776 74.096 233.356 74.2 233.052 74.408C232.756 74.616 232.608 74.912 232.608 75.296C232.608 75.664 232.732 75.944 232.98 76.136C233.236 76.328 233.652 76.476 234.228 76.58L234.9 76.688C235.572 76.808 236.06 77.004 236.364 77.276C236.676 77.54 236.832 77.908 236.832 78.38C236.832 78.948 236.616 79.384 236.184 79.688C235.76 79.992 235.18 80.144 234.444 80.144ZM240.242 73.808V74.24H238.694V78.728C238.694 79.024 238.77 79.244 238.922 79.388C239.082 79.524 239.334 79.592 239.678 79.592C239.982 79.592 240.17 79.588 240.242 79.58V80C239.874 80.016 239.666 80.024 239.618 80.024C238.674 80.024 238.202 79.604 238.202 78.764V74.24H237.134V73.808H238.202V72.056H238.694V73.808H240.242ZM246.234 76.88V77.06H241.278C241.302 77.884 241.514 78.528 241.914 78.992C242.314 79.456 242.862 79.688 243.558 79.688C244.102 79.688 244.554 79.536 244.914 79.232C245.274 78.92 245.506 78.496 245.61 77.96H246.114C245.994 78.624 245.706 79.156 245.25 79.556C244.794 79.948 244.226 80.144 243.546 80.144C242.69 80.144 242.014 79.848 241.518 79.256C241.022 78.664 240.774 77.88 240.774 76.904C240.774 75.92 241.018 75.136 241.506 74.552C241.986 73.96 242.654 73.664 243.51 73.664C244.374 73.664 245.046 73.964 245.526 74.564C245.998 75.18 246.234 75.952 246.234 76.88ZM243.51 74.12C242.846 74.12 242.318 74.34 241.926 74.78C241.542 75.22 241.33 75.828 241.29 76.604H245.718C245.678 75.844 245.462 75.24 245.07 74.792C244.686 74.344 244.166 74.12 243.51 74.12ZM250.113 73.736C250.297 73.736 250.421 73.74 250.485 73.748V74.216C250.429 74.208 250.317 74.204 250.149 74.204C249.437 74.204 248.885 74.416 248.493 74.84C248.101 75.264 247.905 75.84 247.905 76.568V80H247.413V73.808H247.881V75.26C248.049 74.796 248.325 74.428 248.709 74.156C249.093 73.876 249.561 73.736 250.113 73.736ZM255.741 75.164V71.456H256.233V80H255.765V78.584C255.325 79.624 254.545 80.144 253.425 80.144C252.585 80.144 251.917 79.844 251.421 79.244C250.917 78.66 250.665 77.88 250.665 76.904C250.665 75.936 250.917 75.152 251.421 74.552C251.917 73.96 252.585 73.664 253.425 73.664C253.953 73.664 254.417 73.796 254.817 74.06C255.217 74.316 255.525 74.684 255.741 75.164ZM251.805 78.944C252.213 79.448 252.769 79.7 253.473 79.7C254.177 79.7 254.737 79.444 255.153 78.932C255.561 78.412 255.765 77.736 255.765 76.904C255.765 76.072 255.561 75.396 255.153 74.876C254.737 74.364 254.177 74.108 253.473 74.108C252.769 74.108 252.213 74.364 251.805 74.876C251.389 75.388 251.181 76.072 251.181 76.928C251.181 77.776 251.389 78.448 251.805 78.944ZM262.754 79.604C262.778 79.604 262.826 79.604 262.898 79.604C262.978 79.596 263.026 79.592 263.042 79.592V80C262.866 80.016 262.742 80.024 262.67 80.024C262.358 80.024 262.13 79.948 261.986 79.796C261.842 79.644 261.77 79.404 261.77 79.076V78.776C261.346 79.688 260.546 80.144 259.37 80.144C258.73 80.144 258.23 79.988 257.87 79.676C257.518 79.356 257.342 78.928 257.342 78.392C257.342 77.352 258.062 76.74 259.502 76.556L260.498 76.436C260.978 76.372 261.306 76.26 261.482 76.1C261.666 75.932 261.758 75.676 261.758 75.332C261.758 74.508 261.182 74.096 260.03 74.096C259.358 74.096 258.87 74.216 258.566 74.456C258.27 74.696 258.11 75.088 258.086 75.632H257.606C257.622 74.976 257.826 74.484 258.218 74.156C258.61 73.828 259.214 73.664 260.03 73.664C260.758 73.664 261.306 73.812 261.674 74.108C262.05 74.404 262.238 74.812 262.238 75.332V79.052C262.238 79.42 262.41 79.604 262.754 79.604ZM259.394 79.724C260.106 79.724 260.678 79.528 261.11 79.136C261.542 78.744 261.758 78.18 261.758 77.444V76.364C261.55 76.596 261.154 76.752 260.57 76.832L259.574 76.964C258.974 77.044 258.534 77.196 258.254 77.42C257.982 77.644 257.846 77.964 257.846 78.38C257.846 78.796 257.978 79.124 258.242 79.364C258.514 79.604 258.898 79.724 259.394 79.724ZM266.529 77.096L267.741 73.808H268.281L265.641 80.828C265.441 81.364 265.201 81.756 264.921 82.004C264.641 82.252 264.289 82.376 263.865 82.376C263.625 82.376 263.465 82.372 263.385 82.364V81.944H263.853C264.429 81.944 264.869 81.536 265.173 80.72C265.237 80.56 265.309 80.372 265.389 80.156L262.893 73.808H263.433L264.705 77.084C264.865 77.492 265.177 78.324 265.641 79.58C265.705 79.396 266.001 78.568 266.529 77.096ZM268.058 80V79.244H268.826V80.324C268.826 81.004 268.59 81.424 268.118 81.584L268.022 81.62V81.248L268.082 81.224C268.338 81.112 268.466 80.824 268.466 80.36V80H268.058ZM275.593 73.664C276.433 73.664 277.101 73.96 277.597 74.552C278.093 75.16 278.341 75.944 278.341 76.904C278.341 77.872 278.093 78.652 277.597 79.244C277.101 79.844 276.433 80.144 275.593 80.144C274.465 80.144 273.681 79.624 273.241 78.584V80H272.773V71.456H273.265V75.164C273.713 74.164 274.489 73.664 275.593 73.664ZM273.865 78.932C274.273 79.444 274.829 79.7 275.533 79.7C276.229 79.7 276.789 79.44 277.213 78.92C277.629 78.408 277.837 77.728 277.837 76.88C277.837 76.04 277.629 75.368 277.213 74.864C276.797 74.36 276.237 74.108 275.533 74.108C274.829 74.108 274.273 74.364 273.865 74.876C273.449 75.388 273.241 76.064 273.241 76.904C273.241 77.744 273.449 78.42 273.865 78.932ZM282.232 77.096L283.444 73.808H283.984L281.344 80.828C281.144 81.364 280.904 81.756 280.624 82.004C280.344 82.252 279.992 82.376 279.568 82.376C279.328 82.376 279.168 82.372 279.088 82.364V81.944H279.556C280.132 81.944 280.572 81.536 280.876 80.72C280.94 80.56 281.012 80.372 281.092 80.156L278.596 73.808H279.136L280.408 77.084C280.568 77.492 280.88 78.324 281.344 79.58C281.408 79.396 281.704 78.568 282.232 77.096ZM292.974 71.456V71.924H288.114V75.296H292.422V75.764H288.114V80H287.598V71.456H292.974ZM298.058 77.252V73.808H298.55V80H298.07V78.692C297.878 79.148 297.598 79.504 297.23 79.76C296.862 80.016 296.43 80.144 295.934 80.144C295.23 80.144 294.686 79.944 294.302 79.544C293.918 79.144 293.726 78.572 293.726 77.828V73.808H294.218V77.78C294.218 78.404 294.374 78.88 294.686 79.208C294.998 79.536 295.442 79.7 296.018 79.7C296.586 79.7 297.066 79.496 297.458 79.088C297.842 78.688 298.042 78.076 298.058 77.252ZM302.695 73.736C302.879 73.736 303.003 73.74 303.067 73.748V74.216C303.011 74.208 302.899 74.204 302.731 74.204C302.019 74.204 301.467 74.416 301.075 74.84C300.683 75.264 300.487 75.84 300.487 76.568V80H299.995V73.808H300.463V75.26C300.631 74.796 300.907 74.428 301.291 74.156C301.675 73.876 302.143 73.736 302.695 73.736ZM308.948 80H308.384L305.888 76.424L304.472 77.696V80H303.98V71.456H304.472V77.12L308.108 73.808H308.768L306.248 76.1L308.948 80ZM314.551 79.604C314.575 79.604 314.623 79.604 314.695 79.604C314.775 79.596 314.823 79.592 314.839 79.592V80C314.663 80.016 314.539 80.024 314.467 80.024C314.155 80.024 313.927 79.948 313.783 79.796C313.639 79.644 313.567 79.404 313.567 79.076V78.776C313.143 79.688 312.343 80.144 311.167 80.144C310.527 80.144 310.027 79.988 309.667 79.676C309.315 79.356 309.139 78.928 309.139 78.392C309.139 77.352 309.859 76.74 311.299 76.556L312.295 76.436C312.775 76.372 313.103 76.26 313.279 76.1C313.463 75.932 313.555 75.676 313.555 75.332C313.555 74.508 312.979 74.096 311.827 74.096C311.155 74.096 310.667 74.216 310.363 74.456C310.067 74.696 309.907 75.088 309.883 75.632H309.403C309.419 74.976 309.623 74.484 310.015 74.156C310.407 73.828 311.011 73.664 311.827 73.664C312.555 73.664 313.103 73.812 313.471 74.108C313.847 74.404 314.035 74.812 314.035 75.332V79.052C314.035 79.42 314.207 79.604 314.551 79.604ZM311.191 79.724C311.903 79.724 312.475 79.528 312.907 79.136C313.339 78.744 313.555 78.18 313.555 77.444V76.364C313.347 76.596 312.951 76.752 312.367 76.832L311.371 76.964C310.771 77.044 310.331 77.196 310.051 77.42C309.779 77.644 309.643 77.964 309.643 78.38C309.643 78.796 309.775 79.124 310.039 79.364C310.311 79.604 310.695 79.724 311.191 79.724ZM318.268 73.664C318.972 73.664 319.516 73.864 319.9 74.264C320.284 74.664 320.476 75.236 320.476 75.98V80H319.984V76.028C319.984 75.404 319.828 74.928 319.516 74.6C319.204 74.272 318.76 74.108 318.184 74.108C317.632 74.108 317.156 74.312 316.756 74.72C316.356 75.128 316.152 75.74 316.144 76.556V80H315.652V73.808H316.12V75.152C316.296 74.688 316.572 74.324 316.948 74.06C317.324 73.796 317.764 73.664 318.268 73.664ZM321.923 71.456H325.343C326.175 71.456 326.827 71.68 327.299 72.128C327.771 72.568 328.007 73.176 328.007 73.952C328.007 74.72 327.771 75.328 327.299 75.776C326.835 76.216 326.183 76.436 325.343 76.436H322.439V80H321.923V71.456ZM322.439 75.968H325.343C326.023 75.968 326.547 75.792 326.915 75.44C327.291 75.088 327.479 74.592 327.479 73.952C327.479 73.312 327.291 72.816 326.915 72.464C326.547 72.104 326.023 71.924 325.343 71.924H322.439V75.968ZM333.255 79.244C332.743 79.844 332.063 80.144 331.215 80.144C330.383 80.144 329.707 79.844 329.187 79.244C328.667 78.636 328.407 77.856 328.407 76.904C328.407 75.952 328.667 75.172 329.187 74.564C329.707 73.964 330.383 73.664 331.215 73.664C332.063 73.664 332.743 73.964 333.255 74.564C333.775 75.172 334.035 75.952 334.035 76.904C334.035 77.856 333.775 78.636 333.255 79.244ZM331.215 79.7C331.919 79.7 332.479 79.444 332.895 78.932C333.311 78.42 333.519 77.744 333.519 76.904C333.519 76.064 333.311 75.388 332.895 74.876C332.479 74.364 331.919 74.108 331.215 74.108C330.519 74.108 329.963 74.364 329.547 74.876C329.131 75.388 328.923 76.064 328.923 76.904C328.923 77.744 329.131 78.42 329.547 78.932C329.963 79.444 330.519 79.7 331.215 79.7ZM337.91 73.736C338.094 73.736 338.218 73.74 338.282 73.748V74.216C338.226 74.208 338.114 74.204 337.946 74.204C337.234 74.204 336.682 74.416 336.29 74.84C335.898 75.264 335.702 75.84 335.702 76.568V80H335.21V73.808H335.678V75.26C335.846 74.796 336.122 74.428 336.506 74.156C336.89 73.876 337.358 73.736 337.91 73.736ZM341.82 73.808V74.24H340.272V78.728C340.272 79.024 340.348 79.244 340.5 79.388C340.66 79.524 340.912 79.592 341.256 79.592C341.56 79.592 341.748 79.588 341.82 79.58V80C341.452 80.016 341.244 80.024 341.196 80.024C340.252 80.024 339.78 79.604 339.78 78.764V74.24H338.712V73.808H339.78V72.056H340.272V73.808H341.82ZM347.727 79.604C347.751 79.604 347.799 79.604 347.871 79.604C347.951 79.596 347.999 79.592 348.015 79.592V80C347.839 80.016 347.715 80.024 347.643 80.024C347.331 80.024 347.103 79.948 346.959 79.796C346.815 79.644 346.743 79.404 346.743 79.076V78.776C346.319 79.688 345.519 80.144 344.343 80.144C343.703 80.144 343.203 79.988 342.843 79.676C342.491 79.356 342.315 78.928 342.315 78.392C342.315 77.352 343.035 76.74 344.475 76.556L345.471 76.436C345.951 76.372 346.279 76.26 346.455 76.1C346.639 75.932 346.731 75.676 346.731 75.332C346.731 74.508 346.155 74.096 345.003 74.096C344.331 74.096 343.843 74.216 343.539 74.456C343.243 74.696 343.083 75.088 343.059 75.632H342.579C342.595 74.976 342.799 74.484 343.191 74.156C343.583 73.828 344.187 73.664 345.003 73.664C345.731 73.664 346.279 73.812 346.647 74.108C347.023 74.404 347.211 74.812 347.211 75.332V79.052C347.211 79.42 347.383 79.604 347.727 79.604ZM344.367 79.724C345.079 79.724 345.651 79.528 346.083 79.136C346.515 78.744 346.731 78.18 346.731 77.444V76.364C346.523 76.596 346.127 76.752 345.543 76.832L344.547 76.964C343.947 77.044 343.507 77.196 343.227 77.42C342.955 77.644 342.819 77.964 342.819 78.38C342.819 78.796 342.951 79.124 343.215 79.364C343.487 79.604 343.871 79.724 344.367 79.724ZM353.737 80H353.173L350.677 76.424L349.261 77.696V80H348.769V71.456H349.261V77.12L352.897 73.808H353.557L351.037 76.1L353.737 80ZM359.34 79.604C359.364 79.604 359.412 79.604 359.484 79.604C359.564 79.596 359.612 79.592 359.628 79.592V80C359.452 80.016 359.328 80.024 359.256 80.024C358.944 80.024 358.716 79.948 358.572 79.796C358.428 79.644 358.356 79.404 358.356 79.076V78.776C357.932 79.688 357.132 80.144 355.956 80.144C355.316 80.144 354.816 79.988 354.456 79.676C354.104 79.356 353.928 78.928 353.928 78.392C353.928 77.352 354.648 76.74 356.088 76.556L357.084 76.436C357.564 76.372 357.892 76.26 358.068 76.1C358.252 75.932 358.344 75.676 358.344 75.332C358.344 74.508 357.768 74.096 356.616 74.096C355.944 74.096 355.456 74.216 355.152 74.456C354.856 74.696 354.696 75.088 354.672 75.632H354.192C354.208 74.976 354.412 74.484 354.804 74.156C355.196 73.828 355.8 73.664 356.616 73.664C357.344 73.664 357.892 73.812 358.26 74.108C358.636 74.404 358.824 74.812 358.824 75.332V79.052C358.824 79.42 358.996 79.604 359.34 79.604ZM355.98 79.724C356.692 79.724 357.264 79.528 357.696 79.136C358.128 78.744 358.344 78.18 358.344 77.444V76.364C358.136 76.596 357.74 76.752 357.156 76.832L356.16 76.964C355.56 77.044 355.12 77.196 354.84 77.42C354.568 77.644 354.432 77.964 354.432 78.38C354.432 78.796 354.564 79.124 354.828 79.364C355.1 79.604 355.484 79.724 355.98 79.724ZM360.874 80H360.382V71.456H360.874V80Z" fill="black"/>
<rect x="233" y="22" width="108" height="24" rx="12" fill="#16B83F"/>
<path d="M252.514 33.684V32.808H253.666V38.772C253.666 39.62 253.41 40.284 252.898 40.764C252.386 41.252 251.658 41.496 250.714 41.496C249.906 41.496 249.262 41.312 248.782 40.944C248.31 40.576 248.042 40.072 247.978 39.432H249.178C249.274 40.16 249.79 40.524 250.726 40.524C251.886 40.524 252.466 39.948 252.466 38.796V38.112C251.994 38.752 251.33 39.072 250.474 39.072C249.61 39.072 248.922 38.78 248.41 38.196C247.89 37.604 247.63 36.828 247.63 35.868C247.63 34.908 247.89 34.132 248.41 33.54C248.922 32.956 249.606 32.664 250.462 32.664C251.366 32.664 252.05 33.004 252.514 33.684ZM250.69 38.04C251.25 38.04 251.69 37.848 252.01 37.464C252.338 37.072 252.502 36.54 252.502 35.868C252.502 35.196 252.338 34.668 252.01 34.284C251.69 33.892 251.25 33.696 250.69 33.696C250.138 33.696 249.698 33.892 249.37 34.284C249.042 34.676 248.878 35.204 248.878 35.868C248.878 36.54 249.042 37.072 249.37 37.464C249.698 37.848 250.138 38.04 250.69 38.04ZM260.024 38.256C259.456 38.848 258.716 39.144 257.804 39.144C256.892 39.144 256.152 38.848 255.584 38.256C255.016 37.664 254.732 36.88 254.732 35.904C254.732 34.92 255.016 34.132 255.584 33.54C256.144 32.956 256.884 32.664 257.804 32.664C258.724 32.664 259.464 32.956 260.024 33.54C260.584 34.124 260.864 34.912 260.864 35.904C260.864 36.888 260.584 37.672 260.024 38.256ZM256.472 37.524C256.8 37.916 257.244 38.112 257.804 38.112C258.364 38.112 258.804 37.916 259.124 37.524C259.452 37.132 259.616 36.592 259.616 35.904C259.616 35.216 259.452 34.676 259.124 34.284C258.804 33.892 258.364 33.696 257.804 33.696C257.244 33.696 256.8 33.892 256.472 34.284C256.144 34.676 255.98 35.216 255.98 35.904C255.98 36.592 256.144 37.132 256.472 37.524ZM266.926 38.256C266.358 38.848 265.618 39.144 264.706 39.144C263.794 39.144 263.054 38.848 262.486 38.256C261.918 37.664 261.634 36.88 261.634 35.904C261.634 34.92 261.918 34.132 262.486 33.54C263.046 32.956 263.786 32.664 264.706 32.664C265.626 32.664 266.366 32.956 266.926 33.54C267.486 34.124 267.766 34.912 267.766 35.904C267.766 36.888 267.486 37.672 266.926 38.256ZM263.374 37.524C263.702 37.916 264.146 38.112 264.706 38.112C265.266 38.112 265.706 37.916 266.026 37.524C266.354 37.132 266.518 36.592 266.518 35.904C266.518 35.216 266.354 34.676 266.026 34.284C265.706 33.892 265.266 33.696 264.706 33.696C264.146 33.696 263.702 33.892 263.374 34.284C263.046 34.676 262.882 35.216 262.882 35.904C262.882 36.592 263.046 37.132 263.374 37.524ZM273.372 33.648V30.456H274.572V39H273.42V38.088C272.956 38.792 272.272 39.144 271.368 39.144C270.504 39.144 269.816 38.852 269.304 38.268C268.792 37.684 268.536 36.896 268.536 35.904C268.536 34.912 268.792 34.124 269.304 33.54C269.816 32.956 270.504 32.664 271.368 32.664C272.24 32.664 272.908 32.992 273.372 33.648ZM269.784 35.952C269.784 36.64 269.948 37.172 270.276 37.548C270.604 37.924 271.044 38.112 271.596 38.112C272.164 38.112 272.608 37.916 272.928 37.524C273.248 37.148 273.408 36.608 273.408 35.904C273.408 35.208 273.248 34.664 272.928 34.272C272.608 33.888 272.164 33.696 271.596 33.696C271.044 33.696 270.604 33.896 270.276 34.296C269.948 34.696 269.784 35.248 269.784 35.952ZM278.844 32.808V32.244C278.844 31.028 279.464 30.42 280.704 30.42C280.824 30.42 281.052 30.432 281.388 30.456V31.428H280.848C280.312 31.428 280.044 31.7 280.044 32.244V32.808H281.34V33.792H280.044V39H278.844V33.792H277.848V32.808H278.844ZM282.24 31.932V30.648H283.464V31.932H282.24ZM283.452 39H282.252V32.808H283.452V39ZM287.893 32.712C288.069 32.712 288.185 32.716 288.241 32.724V33.864H287.941C287.325 33.864 286.849 34.016 286.513 34.32C286.177 34.624 286.009 35.064 286.009 35.64V39H284.809V32.808H285.961V33.912C286.353 33.112 286.997 32.712 287.893 32.712ZM291.202 39.156C289.482 39.156 288.578 38.448 288.49 37.032H289.69C289.738 37.464 289.878 37.768 290.11 37.944C290.342 38.12 290.71 38.208 291.214 38.208C292.126 38.208 292.582 37.92 292.582 37.344C292.582 37.096 292.486 36.904 292.294 36.768C292.102 36.632 291.758 36.52 291.262 36.432L290.626 36.312C289.314 36.072 288.658 35.456 288.658 34.464C288.658 33.912 288.87 33.476 289.294 33.156C289.718 32.828 290.302 32.664 291.046 32.664C292.75 32.664 293.622 33.356 293.662 34.74H292.498C292.474 34.324 292.346 34.032 292.114 33.864C291.882 33.688 291.526 33.6 291.046 33.6C290.662 33.6 290.366 33.672 290.158 33.816C289.95 33.96 289.846 34.164 289.846 34.428C289.846 34.668 289.938 34.856 290.122 34.992C290.306 35.12 290.598 35.224 290.998 35.304L291.646 35.412C292.406 35.556 292.954 35.772 293.29 36.06C293.626 36.348 293.794 36.748 293.794 37.26C293.794 37.86 293.566 38.328 293.11 38.664C292.654 38.992 292.018 39.156 291.202 39.156ZM297.522 32.808V33.792H296.274V37.512C296.274 37.696 296.326 37.832 296.43 37.92C296.542 38 296.726 38.04 296.982 38.04H297.522V39C297.258 39.024 297.014 39.036 296.79 39.036C296.206 39.036 295.774 38.924 295.494 38.7C295.214 38.476 295.074 38.116 295.074 37.62V33.792H294.078V32.808H295.074V31.032H296.274V32.808H297.522ZM302.122 31.932H300.898V30.648H302.122V31.932ZM302.11 39H300.91V32.808H302.11V39ZM305.745 39.156C304.025 39.156 303.121 38.448 303.033 37.032H304.233C304.281 37.464 304.421 37.768 304.653 37.944C304.885 38.12 305.253 38.208 305.757 38.208C306.669 38.208 307.125 37.92 307.125 37.344C307.125 37.096 307.029 36.904 306.837 36.768C306.645 36.632 306.301 36.52 305.805 36.432L305.169 36.312C303.857 36.072 303.201 35.456 303.201 34.464C303.201 33.912 303.413 33.476 303.837 33.156C304.261 32.828 304.845 32.664 305.589 32.664C307.293 32.664 308.165 33.356 308.205 34.74H307.041C307.017 34.324 306.889 34.032 306.657 33.864C306.425 33.688 306.069 33.6 305.589 33.6C305.205 33.6 304.909 33.672 304.701 33.816C304.493 33.96 304.389 34.164 304.389 34.428C304.389 34.668 304.481 34.856 304.665 34.992C304.849 35.12 305.141 35.224 305.541 35.304L306.189 35.412C306.949 35.556 307.497 35.772 307.833 36.06C308.169 36.348 308.337 36.748 308.337 37.26C308.337 37.86 308.109 38.328 307.653 38.664C307.197 38.992 306.561 39.156 305.745 39.156ZM311.663 39.156C309.943 39.156 309.039 38.448 308.951 37.032H310.151C310.199 37.464 310.339 37.768 310.571 37.944C310.803 38.12 311.171 38.208 311.675 38.208C312.587 38.208 313.043 37.92 313.043 37.344C313.043 37.096 312.947 36.904 312.755 36.768C312.563 36.632 312.219 36.52 311.723 36.432L311.087 36.312C309.775 36.072 309.119 35.456 309.119 34.464C309.119 33.912 309.331 33.476 309.755 33.156C310.179 32.828 310.763 32.664 311.507 32.664C313.211 32.664 314.083 33.356 314.123 34.74H312.959C312.935 34.324 312.807 34.032 312.575 33.864C312.343 33.688 311.987 33.6 311.507 33.6C311.123 33.6 310.827 33.672 310.619 33.816C310.411 33.96 310.307 34.164 310.307 34.428C310.307 34.668 310.399 34.856 310.583 34.992C310.767 35.12 311.059 35.224 311.459 35.304L312.107 35.412C312.867 35.556 313.415 35.772 313.751 36.06C314.087 36.348 314.255 36.748 314.255 37.26C314.255 37.86 314.027 38.328 313.571 38.664C313.115 38.992 312.479 39.156 311.663 39.156ZM319.217 36.3V32.808H320.417V39H319.265V38.076C318.793 38.788 318.145 39.144 317.321 39.144C316.641 39.144 316.109 38.952 315.725 38.568C315.341 38.184 315.149 37.648 315.149 36.96V32.808H316.349V36.792C316.349 37.656 316.785 38.088 317.657 38.088C318.097 38.088 318.465 37.932 318.761 37.62C319.065 37.3 319.217 36.86 319.217 36.3ZM327.362 35.952V36.3H322.694C322.75 36.908 322.93 37.368 323.234 37.68C323.538 37.984 323.95 38.136 324.47 38.136C325.254 38.136 325.766 37.792 326.006 37.104H327.218C327.05 37.736 326.722 38.236 326.234 38.604C325.754 38.964 325.158 39.144 324.446 39.144C323.558 39.144 322.842 38.848 322.298 38.256C321.754 37.664 321.482 36.88 321.482 35.904C321.482 34.928 321.754 34.144 322.298 33.552C322.842 32.96 323.55 32.664 324.422 32.664C325.334 32.664 326.054 32.972 326.582 33.588C327.102 34.204 327.362 34.992 327.362 35.952ZM324.422 33.672C323.95 33.672 323.562 33.816 323.258 34.104C322.962 34.392 322.778 34.808 322.706 35.352H326.126C326.07 34.848 325.89 34.444 325.586 34.14C325.29 33.828 324.902 33.672 324.422 33.672Z" fill="white"/>
<rect x="130" y="22" width="100" height="24" rx="12" fill="#FFC107"/>
<path d="M161.222 33.648V30.456H162.422V39H161.27V38.088C160.806 38.792 160.122 39.144 159.218 39.144C158.354 39.144 157.666 38.852 157.154 38.268C156.642 37.684 156.386 36.896 156.386 35.904C156.386 34.912 156.642 34.124 157.154 33.54C157.666 32.956 158.354 32.664 159.218 32.664C160.09 32.664 160.758 32.992 161.222 33.648ZM157.634 35.952C157.634 36.64 157.798 37.172 158.126 37.548C158.454 37.924 158.894 38.112 159.446 38.112C160.014 38.112 160.458 37.916 160.778 37.524C161.098 37.148 161.258 36.608 161.258 35.904C161.258 35.208 161.098 34.664 160.778 34.272C160.458 33.888 160.014 33.696 159.446 33.696C158.894 33.696 158.454 33.896 158.126 34.296C157.798 34.696 157.634 35.248 157.634 35.952ZM167.844 36.3V32.808H169.044V39H167.892V38.076C167.42 38.788 166.772 39.144 165.948 39.144C165.268 39.144 164.736 38.952 164.352 38.568C163.968 38.184 163.776 37.648 163.776 36.96V32.808H164.976V36.792C164.976 37.656 165.412 38.088 166.284 38.088C166.724 38.088 167.092 37.932 167.388 37.62C167.692 37.3 167.844 36.86 167.844 36.3ZM173.613 32.664C174.477 32.664 175.165 32.956 175.677 33.54C176.189 34.124 176.445 34.912 176.445 35.904C176.445 36.888 176.189 37.672 175.677 38.256C175.157 38.848 174.469 39.144 173.613 39.144C172.701 39.144 172.013 38.784 171.549 38.064V39H170.397V30.456H171.597V33.672C172.061 33 172.733 32.664 173.613 32.664ZM172.065 37.524C172.385 37.916 172.825 38.112 173.385 38.112C173.945 38.112 174.389 37.912 174.717 37.512C175.037 37.12 175.197 36.568 175.197 35.856C175.197 35.168 175.037 34.636 174.717 34.26C174.397 33.884 173.953 33.696 173.385 33.696C172.833 33.696 172.393 33.888 172.065 34.272C171.737 34.672 171.573 35.216 171.573 35.904C171.573 36.592 171.737 37.132 172.065 37.524ZM178.698 39H177.498V30.456H178.698V39ZM181.253 31.932H180.029V30.648H181.253V31.932ZM181.241 39H180.041V32.808H181.241V39ZM185.248 39.144C184.368 39.144 183.656 38.848 183.112 38.256C182.568 37.664 182.296 36.88 182.296 35.904C182.296 34.92 182.568 34.132 183.112 33.54C183.648 32.956 184.36 32.664 185.248 32.664C186.008 32.664 186.632 32.872 187.12 33.288C187.616 33.704 187.912 34.264 188.008 34.968H186.784C186.704 34.56 186.524 34.248 186.244 34.032C185.972 33.816 185.64 33.708 185.248 33.708C184.728 33.708 184.312 33.9 184 34.284C183.696 34.66 183.544 35.2 183.544 35.904C183.544 36.608 183.696 37.152 184 37.536C184.312 37.912 184.728 38.1 185.248 38.1C185.648 38.1 185.988 37.988 186.268 37.764C186.548 37.54 186.724 37.216 186.796 36.792H188.02C187.924 37.512 187.624 38.084 187.12 38.508C186.616 38.932 185.992 39.144 185.248 39.144ZM194.311 38.076H194.647V39C194.471 39.024 194.275 39.036 194.059 39.036C193.675 39.036 193.387 38.968 193.195 38.832C193.011 38.688 192.899 38.464 192.859 38.16C192.443 38.816 191.771 39.144 190.843 39.144C190.163 39.144 189.623 38.984 189.223 38.664C188.831 38.336 188.635 37.884 188.635 37.308C188.635 36.188 189.411 35.548 190.963 35.388L191.875 35.292C192.195 35.252 192.427 35.172 192.571 35.052C192.723 34.924 192.799 34.744 192.799 34.512C192.799 34.2 192.699 33.976 192.499 33.84C192.307 33.696 191.983 33.624 191.527 33.624C191.031 33.624 190.675 33.708 190.459 33.876C190.243 34.036 190.119 34.324 190.087 34.74H188.899C188.987 33.356 189.863 32.664 191.527 32.664C193.159 32.664 193.975 33.272 193.975 34.488V37.764C193.975 37.972 194.087 38.076 194.311 38.076ZM191.023 38.208C191.535 38.208 191.959 38.064 192.295 37.776C192.631 37.488 192.799 37.08 192.799 36.552V35.904C192.647 36.032 192.391 36.116 192.031 36.156L191.167 36.252C190.703 36.308 190.371 36.42 190.171 36.588C189.971 36.748 189.871 36.976 189.871 37.272C189.871 37.568 189.967 37.8 190.159 37.968C190.359 38.128 190.647 38.208 191.023 38.208ZM198.169 32.808V33.792H196.921V37.512C196.921 37.696 196.973 37.832 197.077 37.92C197.189 38 197.373 38.04 197.629 38.04H198.169V39C197.905 39.024 197.661 39.036 197.437 39.036C196.853 39.036 196.421 38.924 196.141 38.7C195.861 38.476 195.721 38.116 195.721 37.62V33.792H194.725V32.808H195.721V31.032H196.921V32.808H198.169ZM204.606 35.952V36.3H199.938C199.994 36.908 200.174 37.368 200.478 37.68C200.782 37.984 201.194 38.136 201.714 38.136C202.498 38.136 203.01 37.792 203.25 37.104H204.462C204.294 37.736 203.966 38.236 203.478 38.604C202.998 38.964 202.402 39.144 201.69 39.144C200.802 39.144 200.086 38.848 199.542 38.256C198.998 37.664 198.726 36.88 198.726 35.904C198.726 34.928 198.998 34.144 199.542 33.552C200.086 32.96 200.794 32.664 201.666 32.664C202.578 32.664 203.298 32.972 203.826 33.588C204.346 34.204 204.606 34.992 204.606 35.952ZM201.666 33.672C201.194 33.672 200.806 33.816 200.502 34.104C200.206 34.392 200.022 34.808 199.95 35.352H203.37C203.314 34.848 203.134 34.444 202.83 34.14C202.534 33.828 202.146 33.672 201.666 33.672Z" fill="white"/>
<rect x="351" y="22" width="72" height="24" rx="12" fill="#B83239"/>
<path d="M278 91C273.582 91 270 94.582 270 99C270 103.419 273.582 107 278 107C282.419 107 286 103.419 286 99C286 94.582 282.418 91 278 91ZM278 105.5C274.41 105.5 271.5 102.59 271.5 99C271.5 95.41 274.41 92.5 278 92.5C281.59 92.5 284.5 95.41 284.5 99C284.5 102.59 281.59 105.5 278 105.5ZM278.001 94.5085C277.428 94.5085 276.994 94.8075 276.994 95.2905V99.7205C276.994 100.204 277.427 100.502 278.001 100.502C278.56 100.502 279.007 100.191 279.007 99.7205V95.2905C279.007 94.819 278.56 94.5085 278.001 94.5085ZM278.001 101.5C277.45 101.5 277.002 101.948 277.002 102.499C277.002 103.049 277.45 103.497 278.001 103.497C278.551 103.497 278.999 103.049 278.999 102.499C278.998 101.948 278.551 101.5 278.001 101.5Z" fill="#1FB79B"/>
<path d="M381.058 32.664C381.922 32.664 382.61 32.956 383.122 33.54C383.634 34.124 383.89 34.912 383.89 35.904C383.89 36.888 383.634 37.672 383.122 38.256C382.602 38.848 381.914 39.144 381.058 39.144C380.146 39.144 379.458 38.784 378.994 38.064V39H377.842V30.456H379.042V33.672C379.506 33 380.178 32.664 381.058 32.664ZM379.51 37.524C379.83 37.916 380.27 38.112 380.83 38.112C381.39 38.112 381.834 37.912 382.162 37.512C382.482 37.12 382.642 36.568 382.642 35.856C382.642 35.168 382.482 34.636 382.162 34.26C381.842 33.884 381.398 33.696 380.83 33.696C380.278 33.696 379.838 33.888 379.51 34.272C379.182 34.672 379.018 35.216 379.018 35.904C379.018 36.592 379.182 37.132 379.51 37.524ZM388.847 36.3V32.808H390.047V39H388.895V38.076C388.423 38.788 387.775 39.144 386.951 39.144C386.271 39.144 385.739 38.952 385.355 38.568C384.971 38.184 384.779 37.648 384.779 36.96V32.808H385.979V36.792C385.979 37.656 386.415 38.088 387.287 38.088C387.727 38.088 388.095 37.932 388.391 37.62C388.695 37.3 388.847 36.86 388.847 36.3ZM395.997 33.684V32.808H397.149V38.772C397.149 39.62 396.893 40.284 396.381 40.764C395.869 41.252 395.141 41.496 394.197 41.496C393.389 41.496 392.745 41.312 392.265 40.944C391.793 40.576 391.525 40.072 391.461 39.432H392.661C392.757 40.16 393.273 40.524 394.209 40.524C395.369 40.524 395.949 39.948 395.949 38.796V38.112C395.477 38.752 394.813 39.072 393.957 39.072C393.093 39.072 392.405 38.78 391.893 38.196C391.373 37.604 391.113 36.828 391.113 35.868C391.113 34.908 391.373 34.132 391.893 33.54C392.405 32.956 393.089 32.664 393.945 32.664C394.849 32.664 395.533 33.004 395.997 33.684ZM394.173 38.04C394.733 38.04 395.173 37.848 395.493 37.464C395.821 37.072 395.985 36.54 395.985 35.868C395.985 35.196 395.821 34.668 395.493 34.284C395.173 33.892 394.733 33.696 394.173 33.696C393.621 33.696 393.181 33.892 392.853 34.284C392.525 34.676 392.361 35.204 392.361 35.868C392.361 36.54 392.525 37.072 392.853 37.464C393.181 37.848 393.621 38.04 394.173 38.04Z" fill="white"/>
</g>
<defs>
<filter id="filter0_d" x="0" y="0" width="556" height="136" filterUnits="userSpaceOnUse" color-interpolation-filters="sRGB">
<feFlood flood-opacity="0" result="BackgroundImageFix"/>
<feColorMatrix in="SourceAlpha" type="matrix" values="0 0 0 0 0 0 0 0 0 0 0 0 0 0 0 0 0 0 127 0"/>
<feOffset dy="2"/>
<feGaussianBlur stdDeviation="4"/>
<feColorMatrix type="matrix" values="0 0 0 0 0 0 0 0 0 0 0 0 0 0 0 0 0 0 0.15 0"/>
<feBlend mode="normal" in2="BackgroundImageFix" result="effect1_dropShadow"/>
<feBlend mode="normal" in="SourceGraphic" in2="effect1_dropShadow" result="shape"/>
</filter>
</defs>
</svg>
