<svg width="540" height="120" viewBox="0 0 540 120" fill="none" xmlns="http://www.w3.org/2000/svg">
<path d="M97.6758 61.332L98.7198 57.456H100.052L97.6518 66H96.2118L95.1318 62.004C94.9238 61.228 94.6758 60.24 94.3878 59.04C94.0998 60.24 93.8518 61.228 93.6438 62.004L92.5638 66H91.1238L88.7238 57.456H90.0558L91.0998 61.332C91.4598 62.732 91.7238 63.784 91.8918 64.488C92.3558 62.584 92.6158 61.524 92.6718 61.308L93.7038 57.456H95.0718L96.1038 61.308C96.1598 61.524 96.4198 62.584 96.8838 64.488C97.0518 63.784 97.3158 62.732 97.6758 61.332ZM105.684 62.952V63.3H101.016C101.072 63.908 101.252 64.368 101.556 64.68C101.86 64.984 102.272 65.136 102.792 65.136C103.576 65.136 104.088 64.792 104.328 64.104H105.54C105.372 64.736 105.044 65.236 104.556 65.604C104.076 65.964 103.48 66.144 102.768 66.144C101.88 66.144 101.164 65.848 100.62 65.256C100.076 64.664 99.8039 63.88 99.8039 62.904C99.8039 61.928 100.076 61.144 100.62 60.552C101.164 59.96 101.872 59.664 102.744 59.664C103.656 59.664 104.376 59.972 104.904 60.588C105.424 61.204 105.684 61.992 105.684 62.952ZM102.744 60.672C102.272 60.672 101.884 60.816 101.58 61.104C101.284 61.392 101.1 61.808 101.028 62.352H104.448C104.392 61.848 104.212 61.444 103.908 61.14C103.612 60.828 103.224 60.672 102.744 60.672ZM112.27 59.664C112.95 59.664 113.482 59.856 113.866 60.24C114.25 60.616 114.442 61.152 114.442 61.848V66H113.242V62.016C113.242 61.152 112.806 60.72 111.934 60.72C111.534 60.72 111.174 60.872 110.854 61.176C110.534 61.488 110.374 61.932 110.374 62.508V66H109.174V59.808H110.326V60.732C110.798 60.02 111.446 59.664 112.27 59.664ZM121.387 62.952V63.3H116.719C116.775 63.908 116.955 64.368 117.259 64.68C117.563 64.984 117.975 65.136 118.495 65.136C119.279 65.136 119.791 64.792 120.031 64.104H121.243C121.075 64.736 120.747 65.236 120.259 65.604C119.779 65.964 119.183 66.144 118.471 66.144C117.583 66.144 116.867 65.848 116.323 65.256C115.779 64.664 115.507 63.88 115.507 62.904C115.507 61.928 115.779 61.144 116.323 60.552C116.867 59.96 117.575 59.664 118.447 59.664C119.359 59.664 120.079 59.972 120.607 60.588C121.127 61.204 121.387 61.992 121.387 62.952ZM118.447 60.672C117.975 60.672 117.587 60.816 117.283 61.104C116.987 61.392 116.803 61.808 116.731 62.352H120.151C120.095 61.848 119.915 61.444 119.611 61.14C119.315 60.828 118.927 60.672 118.447 60.672ZM128.043 62.952V63.3H123.375C123.431 63.908 123.611 64.368 123.915 64.68C124.219 64.984 124.631 65.136 125.151 65.136C125.935 65.136 126.447 64.792 126.687 64.104H127.899C127.731 64.736 127.403 65.236 126.915 65.604C126.435 65.964 125.839 66.144 125.127 66.144C124.239 66.144 123.523 65.848 122.979 65.256C122.435 64.664 122.163 63.88 122.163 62.904C122.163 61.928 122.435 61.144 122.979 60.552C123.523 59.96 124.231 59.664 125.103 59.664C126.015 59.664 126.735 59.972 127.263 60.588C127.783 61.204 128.043 61.992 128.043 62.952ZM125.103 60.672C124.631 60.672 124.243 60.816 123.939 61.104C123.643 61.392 123.459 61.808 123.387 62.352H126.807C126.751 61.848 126.571 61.444 126.267 61.14C125.971 60.828 125.583 60.672 125.103 60.672ZM133.656 60.648V57.456H134.856V66H133.704V65.088C133.24 65.792 132.556 66.144 131.652 66.144C130.788 66.144 130.1 65.852 129.588 65.268C129.076 64.684 128.82 63.896 128.82 62.904C128.82 61.912 129.076 61.124 129.588 60.54C130.1 59.956 130.788 59.664 131.652 59.664C132.524 59.664 133.192 59.992 133.656 60.648ZM130.068 62.952C130.068 63.64 130.232 64.172 130.56 64.548C130.888 64.924 131.328 65.112 131.88 65.112C132.448 65.112 132.892 64.916 133.212 64.524C133.532 64.148 133.692 63.608 133.692 62.904C133.692 62.208 133.532 61.664 133.212 61.272C132.892 60.888 132.448 60.696 131.88 60.696C131.328 60.696 130.888 60.896 130.56 61.296C130.232 61.696 130.068 62.248 130.068 62.952ZM141.575 59.808V60.792H140.327V64.512C140.327 64.696 140.379 64.832 140.483 64.92C140.595 65 140.779 65.04 141.035 65.04H141.575V66C141.311 66.024 141.067 66.036 140.843 66.036C140.259 66.036 139.827 65.924 139.547 65.7C139.267 65.476 139.127 65.116 139.127 64.62V60.792H138.131V59.808H139.127V58.032H140.327V59.808H141.575ZM147.424 65.256C146.856 65.848 146.116 66.144 145.204 66.144C144.292 66.144 143.552 65.848 142.984 65.256C142.416 64.664 142.132 63.88 142.132 62.904C142.132 61.92 142.416 61.132 142.984 60.54C143.544 59.956 144.284 59.664 145.204 59.664C146.124 59.664 146.864 59.956 147.424 60.54C147.984 61.124 148.264 61.912 148.264 62.904C148.264 63.888 147.984 64.672 147.424 65.256ZM143.872 64.524C144.2 64.916 144.644 65.112 145.204 65.112C145.764 65.112 146.204 64.916 146.524 64.524C146.852 64.132 147.016 63.592 147.016 62.904C147.016 62.216 146.852 61.676 146.524 61.284C146.204 60.892 145.764 60.696 145.204 60.696C144.644 60.696 144.2 60.892 143.872 61.284C143.544 61.676 143.38 62.216 143.38 62.904C143.38 63.592 143.544 64.132 143.872 64.524ZM154.412 66.144C153.532 66.144 152.82 65.848 152.276 65.256C151.732 64.664 151.46 63.88 151.46 62.904C151.46 61.92 151.732 61.132 152.276 60.54C152.812 59.956 153.524 59.664 154.412 59.664C155.172 59.664 155.796 59.872 156.284 60.288C156.78 60.704 157.076 61.264 157.172 61.968H155.948C155.868 61.56 155.688 61.248 155.408 61.032C155.136 60.816 154.804 60.708 154.412 60.708C153.892 60.708 153.476 60.9 153.164 61.284C152.86 61.66 152.708 62.2 152.708 62.904C152.708 63.608 152.86 64.152 153.164 64.536C153.476 64.912 153.892 65.1 154.412 65.1C154.812 65.1 155.152 64.988 155.432 64.764C155.712 64.54 155.888 64.216 155.96 63.792H157.184C157.088 64.512 156.788 65.084 156.284 65.508C155.78 65.932 155.156 66.144 154.412 66.144ZM161.219 59.664C161.899 59.664 162.431 59.856 162.815 60.24C163.199 60.616 163.391 61.152 163.391 61.848V66H162.191V62.016C162.191 61.152 161.755 60.72 160.883 60.72C160.483 60.72 160.123 60.872 159.803 61.176C159.483 61.488 159.323 61.932 159.323 62.508V66H158.123V57.456H159.323V60.66C159.795 59.996 160.427 59.664 161.219 59.664ZM170.072 65.076H170.408V66C170.232 66.024 170.036 66.036 169.82 66.036C169.436 66.036 169.148 65.968 168.956 65.832C168.772 65.688 168.66 65.464 168.62 65.16C168.204 65.816 167.532 66.144 166.604 66.144C165.924 66.144 165.384 65.984 164.984 65.664C164.592 65.336 164.396 64.884 164.396 64.308C164.396 63.188 165.172 62.548 166.724 62.388L167.636 62.292C167.956 62.252 168.188 62.172 168.332 62.052C168.484 61.924 168.56 61.744 168.56 61.512C168.56 61.2 168.46 60.976 168.26 60.84C168.068 60.696 167.744 60.624 167.288 60.624C166.792 60.624 166.436 60.708 166.22 60.876C166.004 61.036 165.88 61.324 165.848 61.74H164.66C164.748 60.356 165.624 59.664 167.288 59.664C168.92 59.664 169.736 60.272 169.736 61.488V64.764C169.736 64.972 169.848 65.076 170.072 65.076ZM166.784 65.208C167.296 65.208 167.72 65.064 168.056 64.776C168.392 64.488 168.56 64.08 168.56 63.552V62.904C168.408 63.032 168.152 63.116 167.792 63.156L166.928 63.252C166.464 63.308 166.132 63.42 165.932 63.588C165.732 63.748 165.632 63.976 165.632 64.272C165.632 64.568 165.728 64.8 165.92 64.968C166.12 65.128 166.408 65.208 166.784 65.208ZM174.297 59.664C174.977 59.664 175.509 59.856 175.893 60.24C176.277 60.616 176.469 61.152 176.469 61.848V66H175.269V62.016C175.269 61.152 174.833 60.72 173.961 60.72C173.561 60.72 173.201 60.872 172.881 61.176C172.561 61.488 172.401 61.932 172.401 62.508V66H171.201V59.808H172.353V60.732C172.825 60.02 173.473 59.664 174.297 59.664ZM182.418 60.684V59.808H183.57V65.772C183.57 66.62 183.314 67.284 182.802 67.764C182.29 68.252 181.562 68.496 180.618 68.496C179.81 68.496 179.166 68.312 178.686 67.944C178.214 67.576 177.946 67.072 177.882 66.432H179.082C179.178 67.16 179.694 67.524 180.63 67.524C181.79 67.524 182.37 66.948 182.37 65.796V65.112C181.898 65.752 181.234 66.072 180.378 66.072C179.514 66.072 178.826 65.78 178.314 65.196C177.794 64.604 177.534 63.828 177.534 62.868C177.534 61.908 177.794 61.132 178.314 60.54C178.826 59.956 179.51 59.664 180.366 59.664C181.27 59.664 181.954 60.004 182.418 60.684ZM180.594 65.04C181.154 65.04 181.594 64.848 181.914 64.464C182.242 64.072 182.406 63.54 182.406 62.868C182.406 62.196 182.242 61.668 181.914 61.284C181.594 60.892 181.154 60.696 180.594 60.696C180.042 60.696 179.602 60.892 179.274 61.284C178.946 61.676 178.782 62.204 178.782 62.868C178.782 63.54 178.946 64.072 179.274 64.464C179.602 64.848 180.042 65.04 180.594 65.04ZM190.516 62.952V63.3H185.848C185.904 63.908 186.084 64.368 186.388 64.68C186.692 64.984 187.104 65.136 187.624 65.136C188.408 65.136 188.92 64.792 189.16 64.104H190.372C190.204 64.736 189.876 65.236 189.388 65.604C188.908 65.964 188.312 66.144 187.6 66.144C186.712 66.144 185.996 65.848 185.452 65.256C184.908 64.664 184.636 63.88 184.636 62.904C184.636 61.928 184.908 61.144 185.452 60.552C185.996 59.96 186.704 59.664 187.576 59.664C188.488 59.664 189.208 59.972 189.736 60.588C190.256 61.204 190.516 61.992 190.516 62.952ZM187.576 60.672C187.104 60.672 186.716 60.816 186.412 61.104C186.116 61.392 185.932 61.808 185.86 62.352H189.28C189.224 61.848 189.044 61.444 188.74 61.14C188.444 60.828 188.056 60.672 187.576 60.672ZM199.01 65.256C198.442 65.848 197.702 66.144 196.79 66.144C195.878 66.144 195.138 65.848 194.57 65.256C194.002 64.664 193.718 63.88 193.718 62.904C193.718 61.92 194.002 61.132 194.57 60.54C195.13 59.956 195.87 59.664 196.79 59.664C197.71 59.664 198.45 59.956 199.01 60.54C199.57 61.124 199.85 61.912 199.85 62.904C199.85 63.888 199.57 64.672 199.01 65.256ZM195.458 64.524C195.786 64.916 196.23 65.112 196.79 65.112C197.35 65.112 197.79 64.916 198.11 64.524C198.438 64.132 198.602 63.592 198.602 62.904C198.602 62.216 198.438 61.676 198.11 61.284C197.79 60.892 197.35 60.696 196.79 60.696C196.23 60.696 195.786 60.892 195.458 61.284C195.13 61.676 194.966 62.216 194.966 62.904C194.966 63.592 195.13 64.132 195.458 64.524ZM204.812 63.3V59.808H206.012V66H204.86V65.076C204.388 65.788 203.74 66.144 202.916 66.144C202.236 66.144 201.704 65.952 201.32 65.568C200.936 65.184 200.744 64.648 200.744 63.96V59.808H201.944V63.792C201.944 64.656 202.38 65.088 203.252 65.088C203.692 65.088 204.06 64.932 204.356 64.62C204.66 64.3 204.812 63.86 204.812 63.3ZM210.449 59.712C210.625 59.712 210.741 59.716 210.797 59.724V60.864H210.497C209.881 60.864 209.405 61.016 209.069 61.32C208.733 61.624 208.565 62.064 208.565 62.64V66H207.365V59.808H208.517V60.912C208.909 60.112 209.553 59.712 210.449 59.712ZM216.85 66.144C215.97 66.144 215.258 65.848 214.714 65.256C214.17 64.664 213.898 63.88 213.898 62.904C213.898 61.92 214.17 61.132 214.714 60.54C215.25 59.956 215.962 59.664 216.85 59.664C217.61 59.664 218.234 59.872 218.722 60.288C219.218 60.704 219.514 61.264 219.61 61.968H218.386C218.306 61.56 218.126 61.248 217.846 61.032C217.574 60.816 217.242 60.708 216.85 60.708C216.33 60.708 215.914 60.9 215.602 61.284C215.298 61.66 215.146 62.2 215.146 62.904C215.146 63.608 215.298 64.152 215.602 64.536C215.914 64.912 216.33 65.1 216.85 65.1C217.25 65.1 217.59 64.988 217.87 64.764C218.15 64.54 218.326 64.216 218.398 63.792H219.622C219.526 64.512 219.226 65.084 218.722 65.508C218.218 65.932 217.594 66.144 216.85 66.144ZM222.853 66.156C221.133 66.156 220.229 65.448 220.141 64.032H221.341C221.389 64.464 221.529 64.768 221.761 64.944C221.993 65.12 222.361 65.208 222.865 65.208C223.777 65.208 224.233 64.92 224.233 64.344C224.233 64.096 224.137 63.904 223.945 63.768C223.753 63.632 223.409 63.52 222.913 63.432L222.277 63.312C220.965 63.072 220.309 62.456 220.309 61.464C220.309 60.912 220.521 60.476 220.945 60.156C221.369 59.828 221.953 59.664 222.697 59.664C224.401 59.664 225.273 60.356 225.313 61.74H224.149C224.125 61.324 223.997 61.032 223.765 60.864C223.533 60.688 223.177 60.6 222.697 60.6C222.313 60.6 222.017 60.672 221.809 60.816C221.601 60.96 221.497 61.164 221.497 61.428C221.497 61.668 221.589 61.856 221.773 61.992C221.957 62.12 222.249 62.224 222.649 62.304L223.297 62.412C224.057 62.556 224.605 62.772 224.941 63.06C225.277 63.348 225.445 63.748 225.445 64.26C225.445 64.86 225.217 65.328 224.761 65.664C224.305 65.992 223.669 66.156 222.853 66.156ZM228.771 66.156C227.051 66.156 226.147 65.448 226.059 64.032H227.259C227.307 64.464 227.447 64.768 227.679 64.944C227.911 65.12 228.279 65.208 228.783 65.208C229.695 65.208 230.151 64.92 230.151 64.344C230.151 64.096 230.055 63.904 229.863 63.768C229.671 63.632 229.327 63.52 228.831 63.432L228.195 63.312C226.883 63.072 226.227 62.456 226.227 61.464C226.227 60.912 226.439 60.476 226.863 60.156C227.287 59.828 227.871 59.664 228.615 59.664C230.319 59.664 231.191 60.356 231.231 61.74H230.067C230.043 61.324 229.915 61.032 229.683 60.864C229.451 60.688 229.095 60.6 228.615 60.6C228.231 60.6 227.935 60.672 227.727 60.816C227.519 60.96 227.415 61.164 227.415 61.428C227.415 61.668 227.507 61.856 227.691 61.992C227.875 62.12 228.167 62.224 228.567 62.304L229.215 62.412C229.975 62.556 230.523 62.772 230.859 63.06C231.195 63.348 231.363 63.748 231.363 64.26C231.363 64.86 231.135 65.328 230.679 65.664C230.223 65.992 229.587 66.156 228.771 66.156ZM237.898 59.664C238.762 59.664 239.45 59.956 239.962 60.54C240.474 61.124 240.73 61.912 240.73 62.904C240.73 63.888 240.474 64.672 239.962 65.256C239.442 65.848 238.754 66.144 237.898 66.144C236.986 66.144 236.298 65.784 235.834 65.064V66H234.682V57.456H235.882V60.672C236.346 60 237.018 59.664 237.898 59.664ZM236.35 64.524C236.67 64.916 237.11 65.112 237.67 65.112C238.23 65.112 238.674 64.912 239.002 64.512C239.322 64.12 239.482 63.568 239.482 62.856C239.482 62.168 239.322 61.636 239.002 61.26C238.682 60.884 238.238 60.696 237.67 60.696C237.118 60.696 236.678 60.888 236.35 61.272C236.022 61.672 235.858 62.216 235.858 62.904C235.858 63.592 236.022 64.132 236.35 64.524ZM247.018 65.076H247.354V66C247.178 66.024 246.982 66.036 246.766 66.036C246.382 66.036 246.094 65.968 245.902 65.832C245.718 65.688 245.606 65.464 245.566 65.16C245.15 65.816 244.478 66.144 243.55 66.144C242.87 66.144 242.33 65.984 241.93 65.664C241.538 65.336 241.342 64.884 241.342 64.308C241.342 63.188 242.118 62.548 243.67 62.388L244.582 62.292C244.902 62.252 245.134 62.172 245.278 62.052C245.43 61.924 245.506 61.744 245.506 61.512C245.506 61.2 245.406 60.976 245.206 60.84C245.014 60.696 244.69 60.624 244.234 60.624C243.738 60.624 243.382 60.708 243.166 60.876C242.95 61.036 242.826 61.324 242.794 61.74H241.606C241.694 60.356 242.57 59.664 244.234 59.664C245.866 59.664 246.682 60.272 246.682 61.488V64.764C246.682 64.972 246.794 65.076 247.018 65.076ZM243.73 65.208C244.242 65.208 244.666 65.064 245.002 64.776C245.338 64.488 245.506 64.08 245.506 63.552V62.904C245.354 63.032 245.098 63.116 244.738 63.156L243.874 63.252C243.41 63.308 243.078 63.42 242.878 63.588C242.678 63.748 242.578 63.976 242.578 64.272C242.578 64.568 242.674 64.8 242.866 64.968C243.066 65.128 243.354 65.208 243.73 65.208ZM250.462 66.156C248.742 66.156 247.838 65.448 247.75 64.032H248.95C248.998 64.464 249.138 64.768 249.37 64.944C249.602 65.12 249.97 65.208 250.474 65.208C251.386 65.208 251.842 64.92 251.842 64.344C251.842 64.096 251.746 63.904 251.554 63.768C251.362 63.632 251.018 63.52 250.522 63.432L249.886 63.312C248.574 63.072 247.918 62.456 247.918 61.464C247.918 60.912 248.13 60.476 248.554 60.156C248.978 59.828 249.562 59.664 250.306 59.664C252.01 59.664 252.882 60.356 252.922 61.74H251.758C251.734 61.324 251.606 61.032 251.374 60.864C251.142 60.688 250.786 60.6 250.306 60.6C249.922 60.6 249.626 60.672 249.418 60.816C249.21 60.96 249.106 61.164 249.106 61.428C249.106 61.668 249.198 61.856 249.382 61.992C249.566 62.12 249.858 62.224 250.258 62.304L250.906 62.412C251.666 62.556 252.214 62.772 252.55 63.06C252.886 63.348 253.054 63.748 253.054 64.26C253.054 64.86 252.826 65.328 252.37 65.664C251.914 65.992 251.278 66.156 250.462 66.156ZM259.539 62.952V63.3H254.871C254.927 63.908 255.107 64.368 255.411 64.68C255.715 64.984 256.127 65.136 256.647 65.136C257.431 65.136 257.943 64.792 258.183 64.104H259.395C259.227 64.736 258.899 65.236 258.411 65.604C257.931 65.964 257.335 66.144 256.623 66.144C255.735 66.144 255.019 65.848 254.475 65.256C253.931 64.664 253.659 63.88 253.659 62.904C253.659 61.928 253.931 61.144 254.475 60.552C255.019 59.96 255.727 59.664 256.599 59.664C257.511 59.664 258.231 59.972 258.759 60.588C259.279 61.204 259.539 61.992 259.539 62.952ZM256.599 60.672C256.127 60.672 255.739 60.816 255.435 61.104C255.139 61.392 254.955 61.808 254.883 62.352H258.303C258.247 61.848 258.067 61.444 257.763 61.14C257.467 60.828 257.079 60.672 256.599 60.672ZM266.065 58.428H265.525C264.989 58.428 264.721 58.7 264.721 59.244V59.808H266.017V60.792H264.721V66H263.521V60.792H262.525V59.808H263.521V59.244C263.521 58.028 264.141 57.42 265.381 57.42C265.501 57.42 265.729 57.432 266.065 57.456V58.428ZM270.016 59.712C270.192 59.712 270.308 59.716 270.364 59.724V60.864H270.064C269.448 60.864 268.972 61.016 268.636 61.32C268.3 61.624 268.132 62.064 268.132 62.64V66H266.932V59.808H268.084V60.912C268.476 60.112 269.12 59.712 270.016 59.712ZM275.908 65.256C275.34 65.848 274.6 66.144 273.688 66.144C272.776 66.144 272.036 65.848 271.468 65.256C270.9 64.664 270.616 63.88 270.616 62.904C270.616 61.92 270.9 61.132 271.468 60.54C272.028 59.956 272.768 59.664 273.688 59.664C274.608 59.664 275.348 59.956 275.908 60.54C276.468 61.124 276.748 61.912 276.748 62.904C276.748 63.888 276.468 64.672 275.908 65.256ZM272.356 64.524C272.684 64.916 273.128 65.112 273.688 65.112C274.248 65.112 274.688 64.916 275.008 64.524C275.336 64.132 275.5 63.592 275.5 62.904C275.5 62.216 275.336 61.676 275.008 61.284C274.688 60.892 274.248 60.696 273.688 60.696C273.128 60.696 272.684 60.892 272.356 61.284C272.028 61.676 271.864 62.216 271.864 62.904C271.864 63.592 272.028 64.132 272.356 64.524ZM284.575 59.664C285.247 59.664 285.771 59.864 286.147 60.264C286.523 60.656 286.711 61.184 286.711 61.848V66H285.499V62.004C285.499 61.148 285.103 60.72 284.311 60.72C283.887 60.72 283.539 60.884 283.267 61.212C282.995 61.532 282.859 61.996 282.859 62.604V66H281.659V62.004C281.659 61.148 281.259 60.72 280.459 60.72C280.035 60.72 279.687 60.884 279.415 61.212C279.143 61.54 279.007 62.004 279.007 62.604V66H277.807V59.808H278.959V60.732C279.383 60.02 279.979 59.664 280.747 59.664C281.683 59.664 282.319 60.052 282.655 60.828C283.095 60.052 283.735 59.664 284.575 59.664ZM293.415 59.808V60.792H292.167V64.512C292.167 64.696 292.219 64.832 292.323 64.92C292.435 65 292.619 65.04 292.875 65.04H293.415V66C293.151 66.024 292.907 66.036 292.683 66.036C292.099 66.036 291.667 65.924 291.387 65.7C291.107 65.476 290.967 65.116 290.967 64.62V60.792H289.971V59.808H290.967V58.032H292.167V59.808H293.415ZM299.658 65.076H299.994V66C299.818 66.024 299.622 66.036 299.406 66.036C299.022 66.036 298.734 65.968 298.542 65.832C298.358 65.688 298.246 65.464 298.206 65.16C297.79 65.816 297.118 66.144 296.19 66.144C295.51 66.144 294.97 65.984 294.57 65.664C294.178 65.336 293.982 64.884 293.982 64.308C293.982 63.188 294.758 62.548 296.31 62.388L297.222 62.292C297.542 62.252 297.774 62.172 297.918 62.052C298.07 61.924 298.146 61.744 298.146 61.512C298.146 61.2 298.046 60.976 297.846 60.84C297.654 60.696 297.33 60.624 296.874 60.624C296.378 60.624 296.022 60.708 295.806 60.876C295.59 61.036 295.466 61.324 295.434 61.74H294.246C294.334 60.356 295.21 59.664 296.874 59.664C298.506 59.664 299.322 60.272 299.322 61.488V64.764C299.322 64.972 299.434 65.076 299.658 65.076ZM296.37 65.208C296.882 65.208 297.306 65.064 297.642 64.776C297.978 64.488 298.146 64.08 298.146 63.552V62.904C297.994 63.032 297.738 63.116 297.378 63.156L296.514 63.252C296.05 63.308 295.718 63.42 295.518 63.588C295.318 63.748 295.218 63.976 295.218 64.272C295.218 64.568 295.314 64.8 295.506 64.968C295.706 65.128 295.994 65.208 296.37 65.208ZM301.952 58.932H300.728V57.648H301.952V58.932ZM301.94 66H300.74V59.808H301.94V66ZM304.483 66H303.283V57.456H304.483V66ZM312.501 62.388L313.305 59.808H314.589L312.537 66H311.277L310.425 63.276C310.209 62.588 310.013 61.924 309.837 61.284C309.573 62.22 309.381 62.884 309.261 63.276L308.421 66H307.149L305.097 59.808H306.393L307.185 62.388C307.401 63.084 307.617 63.82 307.833 64.596C307.977 64.02 308.185 63.284 308.457 62.388L309.249 59.808H310.449L311.229 62.388C311.557 63.5 311.769 64.232 311.865 64.584C311.961 64.232 312.173 63.5 312.501 62.388ZM316.46 58.932H315.236V57.648H316.46V58.932ZM316.448 66H315.248V59.808H316.448V66ZM320.887 59.664C321.567 59.664 322.099 59.856 322.483 60.24C322.867 60.616 323.059 61.152 323.059 61.848V66H321.859V62.016C321.859 61.152 321.423 60.72 320.551 60.72C320.151 60.72 319.791 60.872 319.471 61.176C319.151 61.488 318.991 61.932 318.991 62.508V66H317.791V59.808H318.943V60.732C319.415 60.02 320.063 59.664 320.887 59.664ZM328.96 60.648V57.456H330.16V66H329.008V65.088C328.544 65.792 327.86 66.144 326.956 66.144C326.092 66.144 325.404 65.852 324.892 65.268C324.38 64.684 324.124 63.896 324.124 62.904C324.124 61.912 324.38 61.124 324.892 60.54C325.404 59.956 326.092 59.664 326.956 59.664C327.828 59.664 328.496 59.992 328.96 60.648ZM325.372 62.952C325.372 63.64 325.536 64.172 325.864 64.548C326.192 64.924 326.632 65.112 327.184 65.112C327.752 65.112 328.196 64.916 328.516 64.524C328.836 64.148 328.996 63.608 328.996 62.904C328.996 62.208 328.836 61.664 328.516 61.272C328.196 60.888 327.752 60.696 327.184 60.696C326.632 60.696 326.192 60.896 325.864 61.296C325.536 61.696 325.372 62.248 325.372 62.952ZM336.88 59.808V60.792H335.632V64.512C335.632 64.696 335.684 64.832 335.788 64.92C335.9 65 336.084 65.04 336.34 65.04H336.88V66C336.616 66.024 336.372 66.036 336.148 66.036C335.564 66.036 335.132 65.924 334.852 65.7C334.572 65.476 334.432 65.116 334.432 64.62V60.792H333.436V59.808H334.432V58.032H335.632V59.808H336.88ZM342.729 65.256C342.161 65.848 341.421 66.144 340.509 66.144C339.597 66.144 338.857 65.848 338.289 65.256C337.721 64.664 337.437 63.88 337.437 62.904C337.437 61.92 337.721 61.132 338.289 60.54C338.849 59.956 339.589 59.664 340.509 59.664C341.429 59.664 342.169 59.956 342.729 60.54C343.289 61.124 343.569 61.912 343.569 62.904C343.569 63.888 343.289 64.672 342.729 65.256ZM339.177 64.524C339.505 64.916 339.949 65.112 340.509 65.112C341.069 65.112 341.509 64.916 341.829 64.524C342.157 64.132 342.321 63.592 342.321 62.904C342.321 62.216 342.157 61.676 341.829 61.284C341.509 60.892 341.069 60.696 340.509 60.696C339.949 60.696 339.505 60.892 339.177 61.284C338.849 61.676 338.685 62.216 338.685 62.904C338.685 63.592 338.849 64.132 339.177 64.524ZM349.345 66.156C347.625 66.156 346.721 65.448 346.633 64.032H347.833C347.881 64.464 348.021 64.768 348.253 64.944C348.485 65.12 348.853 65.208 349.357 65.208C350.269 65.208 350.725 64.92 350.725 64.344C350.725 64.096 350.629 63.904 350.437 63.768C350.245 63.632 349.901 63.52 349.405 63.432L348.769 63.312C347.457 63.072 346.801 62.456 346.801 61.464C346.801 60.912 347.013 60.476 347.437 60.156C347.861 59.828 348.445 59.664 349.189 59.664C350.893 59.664 351.765 60.356 351.805 61.74H350.641C350.617 61.324 350.489 61.032 350.257 60.864C350.025 60.688 349.669 60.6 349.189 60.6C348.805 60.6 348.509 60.672 348.301 60.816C348.093 60.96 347.989 61.164 347.989 61.428C347.989 61.668 348.081 61.856 348.265 61.992C348.449 62.12 348.741 62.224 349.141 62.304L349.789 62.412C350.549 62.556 351.097 62.772 351.433 63.06C351.769 63.348 351.937 63.748 351.937 64.26C351.937 64.86 351.709 65.328 351.253 65.664C350.797 65.992 350.161 66.156 349.345 66.156ZM355.665 59.808V60.792H354.417V64.512C354.417 64.696 354.469 64.832 354.573 64.92C354.685 65 354.869 65.04 355.125 65.04H355.665V66C355.401 66.024 355.157 66.036 354.933 66.036C354.349 66.036 353.917 65.924 353.637 65.7C353.357 65.476 353.217 65.116 353.217 64.62V60.792H352.221V59.808H353.217V58.032H354.417V59.808H355.665ZM359.891 61.932L360.611 59.808H361.883L359.363 66.78C359.155 67.372 358.879 67.788 358.535 68.028C358.191 68.268 357.703 68.388 357.071 68.388C356.855 68.388 356.647 68.376 356.447 68.352V67.38H357.047C357.583 67.38 357.943 67.132 358.127 66.636C358.143 66.588 358.167 66.512 358.199 66.408C358.239 66.304 358.271 66.224 358.295 66.168L356.003 59.808H357.311L358.031 61.932C358.415 63.116 358.723 64.104 358.955 64.896C359.267 63.88 359.579 62.892 359.891 61.932ZM363.698 66H362.498V57.456H363.698V66ZM370.633 62.952V63.3H365.965C366.021 63.908 366.201 64.368 366.505 64.68C366.809 64.984 367.221 65.136 367.741 65.136C368.525 65.136 369.037 64.792 369.277 64.104H370.489C370.321 64.736 369.993 65.236 369.505 65.604C369.025 65.964 368.429 66.144 367.717 66.144C366.829 66.144 366.113 65.848 365.569 65.256C365.025 64.664 364.753 63.88 364.753 62.904C364.753 61.928 365.025 61.144 365.569 60.552C366.113 59.96 366.821 59.664 367.693 59.664C368.605 59.664 369.325 59.972 369.853 60.588C370.373 61.204 370.633 61.992 370.633 62.952ZM367.693 60.672C367.221 60.672 366.833 60.816 366.529 61.104C366.233 61.392 366.049 61.808 365.977 62.352H369.397C369.341 61.848 369.161 61.444 368.857 61.14C368.561 60.828 368.173 60.672 367.693 60.672ZM376.245 60.648V57.456H377.445V66H376.293V65.088C375.829 65.792 375.145 66.144 374.241 66.144C373.377 66.144 372.689 65.852 372.177 65.268C371.665 64.684 371.409 63.896 371.409 62.904C371.409 61.912 371.665 61.124 372.177 60.54C372.689 59.956 373.377 59.664 374.241 59.664C375.113 59.664 375.781 59.992 376.245 60.648ZM372.657 62.952C372.657 63.64 372.821 64.172 373.149 64.548C373.477 64.924 373.917 65.112 374.469 65.112C375.037 65.112 375.481 64.916 375.801 64.524C376.121 64.148 376.281 63.608 376.281 62.904C376.281 62.208 376.121 61.664 375.801 61.272C375.481 60.888 375.037 60.696 374.469 60.696C373.917 60.696 373.477 60.896 373.149 61.296C372.821 61.696 372.657 62.248 372.657 62.952ZM383.889 66.144C383.009 66.144 382.297 65.848 381.753 65.256C381.209 64.664 380.937 63.88 380.937 62.904C380.937 61.92 381.209 61.132 381.753 60.54C382.289 59.956 383.001 59.664 383.889 59.664C384.649 59.664 385.273 59.872 385.761 60.288C386.257 60.704 386.553 61.264 386.649 61.968H385.425C385.345 61.56 385.165 61.248 384.885 61.032C384.613 60.816 384.281 60.708 383.889 60.708C383.369 60.708 382.953 60.9 382.641 61.284C382.337 61.66 382.185 62.2 382.185 62.904C382.185 63.608 382.337 64.152 382.641 64.536C382.953 64.912 383.369 65.1 383.889 65.1C384.289 65.1 384.629 64.988 384.909 64.764C385.189 64.54 385.365 64.216 385.437 63.792H386.661C386.565 64.512 386.265 65.084 385.761 65.508C385.257 65.932 384.633 66.144 383.889 66.144ZM392.615 65.256C392.047 65.848 391.307 66.144 390.395 66.144C389.483 66.144 388.743 65.848 388.175 65.256C387.607 64.664 387.323 63.88 387.323 62.904C387.323 61.92 387.607 61.132 388.175 60.54C388.735 59.956 389.475 59.664 390.395 59.664C391.315 59.664 392.055 59.956 392.615 60.54C393.175 61.124 393.455 61.912 393.455 62.904C393.455 63.888 393.175 64.672 392.615 65.256ZM389.063 64.524C389.391 64.916 389.835 65.112 390.395 65.112C390.955 65.112 391.395 64.916 391.715 64.524C392.043 64.132 392.207 63.592 392.207 62.904C392.207 62.216 392.043 61.676 391.715 61.284C391.395 60.892 390.955 60.696 390.395 60.696C389.835 60.696 389.391 60.892 389.063 61.284C388.735 61.676 388.571 62.216 388.571 62.904C388.571 63.592 388.735 64.132 389.063 64.524ZM401.282 59.664C401.954 59.664 402.478 59.864 402.854 60.264C403.23 60.656 403.418 61.184 403.418 61.848V66H402.206V62.004C402.206 61.148 401.81 60.72 401.018 60.72C400.594 60.72 400.246 60.884 399.974 61.212C399.702 61.532 399.566 61.996 399.566 62.604V66H398.366V62.004C398.366 61.148 397.966 60.72 397.166 60.72C396.742 60.72 396.394 60.884 396.122 61.212C395.85 61.54 395.714 62.004 395.714 62.604V66H394.514V59.808H395.666V60.732C396.09 60.02 396.686 59.664 397.454 59.664C398.39 59.664 399.026 60.052 399.362 60.828C399.802 60.052 400.442 59.664 401.282 59.664ZM407.972 59.664C408.836 59.664 409.524 59.956 410.036 60.54C410.548 61.124 410.804 61.912 410.804 62.904C410.804 63.888 410.548 64.672 410.036 65.256C409.516 65.848 408.828 66.144 407.972 66.144C407.092 66.144 406.42 65.808 405.956 65.136V68.352H404.756V59.808H405.908V60.744C406.372 60.024 407.06 59.664 407.972 59.664ZM406.424 64.524C406.744 64.916 407.184 65.112 407.744 65.112C408.304 65.112 408.748 64.912 409.076 64.512C409.396 64.12 409.556 63.568 409.556 62.856C409.556 62.168 409.396 61.636 409.076 61.26C408.756 60.884 408.312 60.696 407.744 60.696C407.192 60.696 406.752 60.888 406.424 61.272C406.096 61.672 405.932 62.216 405.932 62.904C405.932 63.592 406.096 64.132 406.424 64.524ZM416.862 65.256C416.294 65.848 415.554 66.144 414.642 66.144C413.73 66.144 412.99 65.848 412.422 65.256C411.854 64.664 411.57 63.88 411.57 62.904C411.57 61.92 411.854 61.132 412.422 60.54C412.982 59.956 413.722 59.664 414.642 59.664C415.562 59.664 416.302 59.956 416.862 60.54C417.422 61.124 417.702 61.912 417.702 62.904C417.702 63.888 417.422 64.672 416.862 65.256ZM413.31 64.524C413.638 64.916 414.082 65.112 414.642 65.112C415.202 65.112 415.642 64.916 415.962 64.524C416.29 64.132 416.454 63.592 416.454 62.904C416.454 62.216 416.29 61.676 415.962 61.284C415.642 60.892 415.202 60.696 414.642 60.696C414.082 60.696 413.638 60.892 413.31 61.284C412.982 61.676 412.818 62.216 412.818 62.904C412.818 63.592 412.982 64.132 413.31 64.524ZM421.856 59.664C422.536 59.664 423.068 59.856 423.452 60.24C423.836 60.616 424.028 61.152 424.028 61.848V66H422.828V62.016C422.828 61.152 422.392 60.72 421.52 60.72C421.12 60.72 420.76 60.872 420.44 61.176C420.12 61.488 419.96 61.932 419.96 62.508V66H418.76V59.808H419.912V60.732C420.384 60.02 421.032 59.664 421.856 59.664ZM430.973 62.952V63.3H426.305C426.361 63.908 426.541 64.368 426.845 64.68C427.149 64.984 427.561 65.136 428.081 65.136C428.865 65.136 429.377 64.792 429.617 64.104H430.829C430.661 64.736 430.333 65.236 429.845 65.604C429.365 65.964 428.769 66.144 428.057 66.144C427.169 66.144 426.453 65.848 425.909 65.256C425.365 64.664 425.093 63.88 425.093 62.904C425.093 61.928 425.365 61.144 425.909 60.552C426.453 59.96 427.161 59.664 428.033 59.664C428.945 59.664 429.665 59.972 430.193 60.588C430.713 61.204 430.973 61.992 430.973 62.952ZM428.033 60.672C427.561 60.672 427.173 60.816 426.869 61.104C426.573 61.392 426.389 61.808 426.317 62.352H429.737C429.681 61.848 429.501 61.444 429.197 61.14C428.901 60.828 428.513 60.672 428.033 60.672ZM435.133 59.664C435.813 59.664 436.345 59.856 436.729 60.24C437.113 60.616 437.305 61.152 437.305 61.848V66H436.105V62.016C436.105 61.152 435.669 60.72 434.797 60.72C434.397 60.72 434.037 60.872 433.717 61.176C433.397 61.488 433.237 61.932 433.237 62.508V66H432.037V59.808H433.189V60.732C433.661 60.02 434.309 59.664 435.133 59.664ZM441.376 59.808V60.792H440.128V64.512C440.128 64.696 440.18 64.832 440.284 64.92C440.396 65 440.58 65.04 440.836 65.04H441.376V66C441.112 66.024 440.868 66.036 440.644 66.036C440.06 66.036 439.628 65.924 439.348 65.7C439.068 65.476 438.928 65.116 438.928 64.62V60.792H437.932V59.808H438.928V58.032H440.128V59.808H441.376ZM444.595 66.156C442.875 66.156 441.971 65.448 441.883 64.032H443.083C443.131 64.464 443.271 64.768 443.503 64.944C443.735 65.12 444.103 65.208 444.607 65.208C445.519 65.208 445.975 64.92 445.975 64.344C445.975 64.096 445.879 63.904 445.687 63.768C445.495 63.632 445.151 63.52 444.655 63.432L444.019 63.312C442.707 63.072 442.051 62.456 442.051 61.464C442.051 60.912 442.263 60.476 442.687 60.156C443.111 59.828 443.695 59.664 444.439 59.664C446.143 59.664 447.015 60.356 447.055 61.74H445.891C445.867 61.324 445.739 61.032 445.507 60.864C445.275 60.688 444.919 60.6 444.439 60.6C444.055 60.6 443.759 60.672 443.551 60.816C443.343 60.96 443.239 61.164 443.239 61.428C443.239 61.668 443.331 61.856 443.515 61.992C443.699 62.12 443.991 62.224 444.391 62.304L445.039 62.412C445.799 62.556 446.347 62.772 446.683 63.06C447.019 63.348 447.187 63.748 447.187 64.26C447.187 64.86 446.959 65.328 446.503 65.664C446.047 65.992 445.411 66.156 444.595 66.156Z" fill="black"/>
<path d="M268 94C263.582 94 260 97.582 260 102C260 106.419 263.582 110 268 110C272.419 110 276 106.419 276 102C276 97.582 272.418 94 268 94ZM268 108.5C264.41 108.5 261.5 105.59 261.5 102C261.5 98.41 264.41 95.5 268 95.5C271.59 95.5 274.5 98.41 274.5 102C274.5 105.59 271.59 108.5 268 108.5ZM268.001 97.5085C267.428 97.5085 266.994 97.8075 266.994 98.2905V102.72C266.994 103.204 267.427 103.502 268.001 103.502C268.56 103.502 269.007 103.191 269.007 102.72V98.2905C269.007 97.819 268.56 97.5085 268.001 97.5085ZM268.001 104.5C267.45 104.5 267.002 104.948 267.002 105.499C267.002 106.049 267.45 106.497 268.001 106.497C268.551 106.497 268.999 106.049 268.999 105.499C268.998 104.948 268.551 104.5 268.001 104.5Z" fill="#1FB79B"/>
<path d="M188.244 77.264L188.16 77.684H186.744L186.324 79.772H187.74L187.656 80.192H186.24L185.664 83H185.172L185.748 80.192H183.684L183.108 83H182.616L183.192 80.192H181.764L181.848 79.772H183.276L183.696 77.684H182.268L182.352 77.264H183.78L184.356 74.456H184.848L184.272 77.264H186.336L186.912 74.456H187.404L186.828 77.264H188.244ZM183.768 79.772H185.832L186.252 77.684H184.188L183.768 79.772ZM192.284 77.54C193.108 77.54 193.78 77.804 194.3 78.332C194.812 78.868 195.068 79.548 195.068 80.372C195.068 81.196 194.812 81.868 194.3 82.388C193.788 82.924 193.112 83.192 192.272 83.192C191.568 83.192 190.968 82.988 190.472 82.58C189.648 81.9 189.236 80.64 189.236 78.8C189.236 77.4 189.492 76.296 190.004 75.488C190.524 74.672 191.304 74.264 192.344 74.264C193.032 74.264 193.608 74.46 194.072 74.852C194.536 75.244 194.828 75.772 194.948 76.436H194.444C194.332 75.908 194.088 75.492 193.712 75.188C193.344 74.884 192.888 74.732 192.344 74.732C190.616 74.732 189.752 76.084 189.752 78.788C189.752 79.036 189.764 79.276 189.788 79.508C189.916 78.94 190.216 78.468 190.688 78.092C191.136 77.724 191.668 77.54 192.284 77.54ZM192.272 82.724C192.936 82.724 193.476 82.504 193.892 82.064C194.316 81.616 194.528 81.052 194.528 80.372C194.528 79.684 194.316 79.116 193.892 78.668C193.476 78.228 192.936 78.008 192.272 78.008C191.6 78.008 191.056 78.228 190.64 78.668C190.216 79.116 190.004 79.684 190.004 80.372C190.004 81.052 190.216 81.616 190.64 82.064C191.056 82.504 191.6 82.724 192.272 82.724ZM199.268 77.54C200.092 77.54 200.764 77.804 201.284 78.332C201.796 78.868 202.052 79.548 202.052 80.372C202.052 81.196 201.796 81.868 201.284 82.388C200.772 82.924 200.096 83.192 199.256 83.192C198.552 83.192 197.952 82.988 197.456 82.58C196.632 81.9 196.22 80.64 196.22 78.8C196.22 77.4 196.476 76.296 196.988 75.488C197.508 74.672 198.288 74.264 199.328 74.264C200.016 74.264 200.592 74.46 201.056 74.852C201.52 75.244 201.812 75.772 201.932 76.436H201.428C201.316 75.908 201.072 75.492 200.696 75.188C200.328 74.884 199.872 74.732 199.328 74.732C197.6 74.732 196.736 76.084 196.736 78.788C196.736 79.036 196.748 79.276 196.772 79.508C196.9 78.94 197.2 78.468 197.672 78.092C198.12 77.724 198.652 77.54 199.268 77.54ZM199.256 82.724C199.92 82.724 200.46 82.504 200.876 82.064C201.3 81.616 201.512 81.052 201.512 80.372C201.512 79.684 201.3 79.116 200.876 78.668C200.46 78.228 199.92 78.008 199.256 78.008C198.584 78.008 198.04 78.228 197.624 78.668C197.2 79.116 196.988 79.684 196.988 80.372C196.988 81.052 197.2 81.616 197.624 82.064C198.04 82.504 198.584 82.724 199.256 82.724ZM205.875 83V82.244H206.643V83.324C206.643 84.004 206.407 84.424 205.935 84.584L205.839 84.62V84.248L205.899 84.224C206.155 84.112 206.283 83.824 206.283 83.36V83H205.875ZM213.673 80.096L214.885 76.808H215.425L212.785 83.828C212.585 84.364 212.345 84.756 212.065 85.004C211.785 85.252 211.433 85.376 211.009 85.376C210.769 85.376 210.609 85.372 210.529 85.364V84.944H210.997C211.573 84.944 212.013 84.536 212.317 83.72C212.381 83.56 212.453 83.372 212.533 83.156L210.037 76.808H210.577L211.849 80.084C212.009 80.492 212.321 81.324 212.785 82.58C212.849 82.396 213.145 81.568 213.673 80.096ZM221.129 79.88V80.06H216.173C216.197 80.884 216.409 81.528 216.809 81.992C217.209 82.456 217.757 82.688 218.453 82.688C218.997 82.688 219.449 82.536 219.809 82.232C220.169 81.92 220.401 81.496 220.505 80.96H221.009C220.889 81.624 220.601 82.156 220.145 82.556C219.689 82.948 219.121 83.144 218.441 83.144C217.585 83.144 216.909 82.848 216.413 82.256C215.917 81.664 215.669 80.88 215.669 79.904C215.669 78.92 215.913 78.136 216.401 77.552C216.881 76.96 217.549 76.664 218.405 76.664C219.269 76.664 219.941 76.964 220.421 77.564C220.893 78.18 221.129 78.952 221.129 79.88ZM218.405 77.12C217.741 77.12 217.213 77.34 216.821 77.78C216.437 78.22 216.225 78.828 216.185 79.604H220.613C220.573 78.844 220.357 78.24 219.965 77.792C219.581 77.344 219.061 77.12 218.405 77.12ZM224.444 83.144C223.66 83.144 223.052 82.964 222.62 82.604C222.196 82.244 221.964 81.744 221.924 81.104H222.428C222.516 82.176 223.188 82.712 224.444 82.712C225.7 82.712 226.328 82.276 226.328 81.404C226.328 81.052 226.208 80.78 225.968 80.588C225.728 80.388 225.32 80.236 224.744 80.132L224.06 80.024C223.388 79.912 222.896 79.72 222.584 79.448C222.272 79.168 222.116 78.788 222.116 78.308C222.116 77.796 222.308 77.396 222.692 77.108C223.084 76.812 223.624 76.664 224.312 76.664C225.824 76.664 226.62 77.276 226.7 78.5H226.196C226.156 78.028 225.984 77.676 225.68 77.444C225.384 77.212 224.928 77.096 224.312 77.096C223.776 77.096 223.356 77.2 223.052 77.408C222.756 77.616 222.608 77.912 222.608 78.296C222.608 78.664 222.732 78.944 222.98 79.136C223.236 79.328 223.652 79.476 224.228 79.58L224.9 79.688C225.572 79.808 226.06 80.004 226.364 80.276C226.676 80.54 226.832 80.908 226.832 81.38C226.832 81.948 226.616 82.384 226.184 82.688C225.76 82.992 225.18 83.144 224.444 83.144ZM230.242 76.808V77.24H228.694V81.728C228.694 82.024 228.77 82.244 228.922 82.388C229.082 82.524 229.334 82.592 229.678 82.592C229.982 82.592 230.17 82.588 230.242 82.58V83C229.874 83.016 229.666 83.024 229.618 83.024C228.674 83.024 228.202 82.604 228.202 81.764V77.24H227.134V76.808H228.202V75.056H228.694V76.808H230.242ZM236.234 79.88V80.06H231.278C231.302 80.884 231.514 81.528 231.914 81.992C232.314 82.456 232.862 82.688 233.558 82.688C234.102 82.688 234.554 82.536 234.914 82.232C235.274 81.92 235.506 81.496 235.61 80.96H236.114C235.994 81.624 235.706 82.156 235.25 82.556C234.794 82.948 234.226 83.144 233.546 83.144C232.69 83.144 232.014 82.848 231.518 82.256C231.022 81.664 230.774 80.88 230.774 79.904C230.774 78.92 231.018 78.136 231.506 77.552C231.986 76.96 232.654 76.664 233.51 76.664C234.374 76.664 235.046 76.964 235.526 77.564C235.998 78.18 236.234 78.952 236.234 79.88ZM233.51 77.12C232.846 77.12 232.318 77.34 231.926 77.78C231.542 78.22 231.33 78.828 231.29 79.604H235.718C235.678 78.844 235.462 78.24 235.07 77.792C234.686 77.344 234.166 77.12 233.51 77.12ZM240.113 76.736C240.297 76.736 240.421 76.74 240.485 76.748V77.216C240.429 77.208 240.317 77.204 240.149 77.204C239.437 77.204 238.885 77.416 238.493 77.84C238.101 78.264 237.905 78.84 237.905 79.568V83H237.413V76.808H237.881V78.26C238.049 77.796 238.325 77.428 238.709 77.156C239.093 76.876 239.561 76.736 240.113 76.736ZM245.741 78.164V74.456H246.233V83H245.765V81.584C245.325 82.624 244.545 83.144 243.425 83.144C242.585 83.144 241.917 82.844 241.421 82.244C240.917 81.66 240.665 80.88 240.665 79.904C240.665 78.936 240.917 78.152 241.421 77.552C241.917 76.96 242.585 76.664 243.425 76.664C243.953 76.664 244.417 76.796 244.817 77.06C245.217 77.316 245.525 77.684 245.741 78.164ZM241.805 81.944C242.213 82.448 242.769 82.7 243.473 82.7C244.177 82.7 244.737 82.444 245.153 81.932C245.561 81.412 245.765 80.736 245.765 79.904C245.765 79.072 245.561 78.396 245.153 77.876C244.737 77.364 244.177 77.108 243.473 77.108C242.769 77.108 242.213 77.364 241.805 77.876C241.389 78.388 241.181 79.072 241.181 79.928C241.181 80.776 241.389 81.448 241.805 81.944ZM252.754 82.604C252.778 82.604 252.826 82.604 252.898 82.604C252.978 82.596 253.026 82.592 253.042 82.592V83C252.866 83.016 252.742 83.024 252.67 83.024C252.358 83.024 252.13 82.948 251.986 82.796C251.842 82.644 251.77 82.404 251.77 82.076V81.776C251.346 82.688 250.546 83.144 249.37 83.144C248.73 83.144 248.23 82.988 247.87 82.676C247.518 82.356 247.342 81.928 247.342 81.392C247.342 80.352 248.062 79.74 249.502 79.556L250.498 79.436C250.978 79.372 251.306 79.26 251.482 79.1C251.666 78.932 251.758 78.676 251.758 78.332C251.758 77.508 251.182 77.096 250.03 77.096C249.358 77.096 248.87 77.216 248.566 77.456C248.27 77.696 248.11 78.088 248.086 78.632H247.606C247.622 77.976 247.826 77.484 248.218 77.156C248.61 76.828 249.214 76.664 250.03 76.664C250.758 76.664 251.306 76.812 251.674 77.108C252.05 77.404 252.238 77.812 252.238 78.332V82.052C252.238 82.42 252.41 82.604 252.754 82.604ZM249.394 82.724C250.106 82.724 250.678 82.528 251.11 82.136C251.542 81.744 251.758 81.18 251.758 80.444V79.364C251.55 79.596 251.154 79.752 250.57 79.832L249.574 79.964C248.974 80.044 248.534 80.196 248.254 80.42C247.982 80.644 247.846 80.964 247.846 81.38C247.846 81.796 247.978 82.124 248.242 82.364C248.514 82.604 248.898 82.724 249.394 82.724ZM256.529 80.096L257.741 76.808H258.281L255.641 83.828C255.441 84.364 255.201 84.756 254.921 85.004C254.641 85.252 254.289 85.376 253.865 85.376C253.625 85.376 253.465 85.372 253.385 85.364V84.944H253.853C254.429 84.944 254.869 84.536 255.173 83.72C255.237 83.56 255.309 83.372 255.389 83.156L252.893 76.808H253.433L254.705 80.084C254.865 80.492 255.177 81.324 255.641 82.58C255.705 82.396 256.001 81.568 256.529 80.096ZM258.058 83V82.244H258.826V83.324C258.826 84.004 258.59 84.424 258.118 84.584L258.022 84.62V84.248L258.082 84.224C258.338 84.112 258.466 83.824 258.466 83.36V83H258.058ZM265.593 76.664C266.433 76.664 267.101 76.96 267.597 77.552C268.093 78.16 268.341 78.944 268.341 79.904C268.341 80.872 268.093 81.652 267.597 82.244C267.101 82.844 266.433 83.144 265.593 83.144C264.465 83.144 263.681 82.624 263.241 81.584V83H262.773V74.456H263.265V78.164C263.713 77.164 264.489 76.664 265.593 76.664ZM263.865 81.932C264.273 82.444 264.829 82.7 265.533 82.7C266.229 82.7 266.789 82.44 267.213 81.92C267.629 81.408 267.837 80.728 267.837 79.88C267.837 79.04 267.629 78.368 267.213 77.864C266.797 77.36 266.237 77.108 265.533 77.108C264.829 77.108 264.273 77.364 263.865 77.876C263.449 78.388 263.241 79.064 263.241 79.904C263.241 80.744 263.449 81.42 263.865 81.932ZM272.232 80.096L273.444 76.808H273.984L271.344 83.828C271.144 84.364 270.904 84.756 270.624 85.004C270.344 85.252 269.992 85.376 269.568 85.376C269.328 85.376 269.168 85.372 269.088 85.364V84.944H269.556C270.132 84.944 270.572 84.536 270.876 83.72C270.94 83.56 271.012 83.372 271.092 83.156L268.596 76.808H269.136L270.408 80.084C270.568 80.492 270.88 81.324 271.344 82.58C271.408 82.396 271.704 81.568 272.232 80.096ZM282.974 74.456V74.924H278.114V78.296H282.422V78.764H278.114V83H277.598V74.456H282.974ZM288.058 80.252V76.808H288.55V83H288.07V81.692C287.878 82.148 287.598 82.504 287.23 82.76C286.862 83.016 286.43 83.144 285.934 83.144C285.23 83.144 284.686 82.944 284.302 82.544C283.918 82.144 283.726 81.572 283.726 80.828V76.808H284.218V80.78C284.218 81.404 284.374 81.88 284.686 82.208C284.998 82.536 285.442 82.7 286.018 82.7C286.586 82.7 287.066 82.496 287.458 82.088C287.842 81.688 288.042 81.076 288.058 80.252ZM292.695 76.736C292.879 76.736 293.003 76.74 293.067 76.748V77.216C293.011 77.208 292.899 77.204 292.731 77.204C292.019 77.204 291.467 77.416 291.075 77.84C290.683 78.264 290.487 78.84 290.487 79.568V83H289.995V76.808H290.463V78.26C290.631 77.796 290.907 77.428 291.291 77.156C291.675 76.876 292.143 76.736 292.695 76.736ZM298.948 83H298.384L295.888 79.424L294.472 80.696V83H293.98V74.456H294.472V80.12L298.108 76.808H298.768L296.248 79.1L298.948 83ZM304.551 82.604C304.575 82.604 304.623 82.604 304.695 82.604C304.775 82.596 304.823 82.592 304.839 82.592V83C304.663 83.016 304.539 83.024 304.467 83.024C304.155 83.024 303.927 82.948 303.783 82.796C303.639 82.644 303.567 82.404 303.567 82.076V81.776C303.143 82.688 302.343 83.144 301.167 83.144C300.527 83.144 300.027 82.988 299.667 82.676C299.315 82.356 299.139 81.928 299.139 81.392C299.139 80.352 299.859 79.74 301.299 79.556L302.295 79.436C302.775 79.372 303.103 79.26 303.279 79.1C303.463 78.932 303.555 78.676 303.555 78.332C303.555 77.508 302.979 77.096 301.827 77.096C301.155 77.096 300.667 77.216 300.363 77.456C300.067 77.696 299.907 78.088 299.883 78.632H299.403C299.419 77.976 299.623 77.484 300.015 77.156C300.407 76.828 301.011 76.664 301.827 76.664C302.555 76.664 303.103 76.812 303.471 77.108C303.847 77.404 304.035 77.812 304.035 78.332V82.052C304.035 82.42 304.207 82.604 304.551 82.604ZM301.191 82.724C301.903 82.724 302.475 82.528 302.907 82.136C303.339 81.744 303.555 81.18 303.555 80.444V79.364C303.347 79.596 302.951 79.752 302.367 79.832L301.371 79.964C300.771 80.044 300.331 80.196 300.051 80.42C299.779 80.644 299.643 80.964 299.643 81.38C299.643 81.796 299.775 82.124 300.039 82.364C300.311 82.604 300.695 82.724 301.191 82.724ZM308.268 76.664C308.972 76.664 309.516 76.864 309.9 77.264C310.284 77.664 310.476 78.236 310.476 78.98V83H309.984V79.028C309.984 78.404 309.828 77.928 309.516 77.6C309.204 77.272 308.76 77.108 308.184 77.108C307.632 77.108 307.156 77.312 306.756 77.72C306.356 78.128 306.152 78.74 306.144 79.556V83H305.652V76.808H306.12V78.152C306.296 77.688 306.572 77.324 306.948 77.06C307.324 76.796 307.764 76.664 308.268 76.664ZM311.923 74.456H315.343C316.175 74.456 316.827 74.68 317.299 75.128C317.771 75.568 318.007 76.176 318.007 76.952C318.007 77.72 317.771 78.328 317.299 78.776C316.835 79.216 316.183 79.436 315.343 79.436H312.439V83H311.923V74.456ZM312.439 78.968H315.343C316.023 78.968 316.547 78.792 316.915 78.44C317.291 78.088 317.479 77.592 317.479 76.952C317.479 76.312 317.291 75.816 316.915 75.464C316.547 75.104 316.023 74.924 315.343 74.924H312.439V78.968ZM323.255 82.244C322.743 82.844 322.063 83.144 321.215 83.144C320.383 83.144 319.707 82.844 319.187 82.244C318.667 81.636 318.407 80.856 318.407 79.904C318.407 78.952 318.667 78.172 319.187 77.564C319.707 76.964 320.383 76.664 321.215 76.664C322.063 76.664 322.743 76.964 323.255 77.564C323.775 78.172 324.035 78.952 324.035 79.904C324.035 80.856 323.775 81.636 323.255 82.244ZM321.215 82.7C321.919 82.7 322.479 82.444 322.895 81.932C323.311 81.42 323.519 80.744 323.519 79.904C323.519 79.064 323.311 78.388 322.895 77.876C322.479 77.364 321.919 77.108 321.215 77.108C320.519 77.108 319.963 77.364 319.547 77.876C319.131 78.388 318.923 79.064 318.923 79.904C318.923 80.744 319.131 81.42 319.547 81.932C319.963 82.444 320.519 82.7 321.215 82.7ZM327.91 76.736C328.094 76.736 328.218 76.74 328.282 76.748V77.216C328.226 77.208 328.114 77.204 327.946 77.204C327.234 77.204 326.682 77.416 326.29 77.84C325.898 78.264 325.702 78.84 325.702 79.568V83H325.21V76.808H325.678V78.26C325.846 77.796 326.122 77.428 326.506 77.156C326.89 76.876 327.358 76.736 327.91 76.736ZM331.82 76.808V77.24H330.272V81.728C330.272 82.024 330.348 82.244 330.5 82.388C330.66 82.524 330.912 82.592 331.256 82.592C331.56 82.592 331.748 82.588 331.82 82.58V83C331.452 83.016 331.244 83.024 331.196 83.024C330.252 83.024 329.78 82.604 329.78 81.764V77.24H328.712V76.808H329.78V75.056H330.272V76.808H331.82ZM337.727 82.604C337.751 82.604 337.799 82.604 337.871 82.604C337.951 82.596 337.999 82.592 338.015 82.592V83C337.839 83.016 337.715 83.024 337.643 83.024C337.331 83.024 337.103 82.948 336.959 82.796C336.815 82.644 336.743 82.404 336.743 82.076V81.776C336.319 82.688 335.519 83.144 334.343 83.144C333.703 83.144 333.203 82.988 332.843 82.676C332.491 82.356 332.315 81.928 332.315 81.392C332.315 80.352 333.035 79.74 334.475 79.556L335.471 79.436C335.951 79.372 336.279 79.26 336.455 79.1C336.639 78.932 336.731 78.676 336.731 78.332C336.731 77.508 336.155 77.096 335.003 77.096C334.331 77.096 333.843 77.216 333.539 77.456C333.243 77.696 333.083 78.088 333.059 78.632H332.579C332.595 77.976 332.799 77.484 333.191 77.156C333.583 76.828 334.187 76.664 335.003 76.664C335.731 76.664 336.279 76.812 336.647 77.108C337.023 77.404 337.211 77.812 337.211 78.332V82.052C337.211 82.42 337.383 82.604 337.727 82.604ZM334.367 82.724C335.079 82.724 335.651 82.528 336.083 82.136C336.515 81.744 336.731 81.18 336.731 80.444V79.364C336.523 79.596 336.127 79.752 335.543 79.832L334.547 79.964C333.947 80.044 333.507 80.196 333.227 80.42C332.955 80.644 332.819 80.964 332.819 81.38C332.819 81.796 332.951 82.124 333.215 82.364C333.487 82.604 333.871 82.724 334.367 82.724ZM343.737 83H343.173L340.677 79.424L339.261 80.696V83H338.769V74.456H339.261V80.12L342.897 76.808H343.557L341.037 79.1L343.737 83ZM349.34 82.604C349.364 82.604 349.412 82.604 349.484 82.604C349.564 82.596 349.612 82.592 349.628 82.592V83C349.452 83.016 349.328 83.024 349.256 83.024C348.944 83.024 348.716 82.948 348.572 82.796C348.428 82.644 348.356 82.404 348.356 82.076V81.776C347.932 82.688 347.132 83.144 345.956 83.144C345.316 83.144 344.816 82.988 344.456 82.676C344.104 82.356 343.928 81.928 343.928 81.392C343.928 80.352 344.648 79.74 346.088 79.556L347.084 79.436C347.564 79.372 347.892 79.26 348.068 79.1C348.252 78.932 348.344 78.676 348.344 78.332C348.344 77.508 347.768 77.096 346.616 77.096C345.944 77.096 345.456 77.216 345.152 77.456C344.856 77.696 344.696 78.088 344.672 78.632H344.192C344.208 77.976 344.412 77.484 344.804 77.156C345.196 76.828 345.8 76.664 346.616 76.664C347.344 76.664 347.892 76.812 348.26 77.108C348.636 77.404 348.824 77.812 348.824 78.332V82.052C348.824 82.42 348.996 82.604 349.34 82.604ZM345.98 82.724C346.692 82.724 347.264 82.528 347.696 82.136C348.128 81.744 348.344 81.18 348.344 80.444V79.364C348.136 79.596 347.74 79.752 347.156 79.832L346.16 79.964C345.56 80.044 345.12 80.196 344.84 80.42C344.568 80.644 344.432 80.964 344.432 81.38C344.432 81.796 344.564 82.124 344.828 82.364C345.1 82.604 345.484 82.724 345.98 82.724ZM350.874 83H350.382V74.456H350.874V83Z" fill="black"/>
<rect x="1" y="1" width="538" height="118" rx="29" stroke="#3CB09B" stroke-opacity="0.1" stroke-width="2"/>
<rect x="267" y="25" width="108" height="24" rx="12" fill="#16B83F"/>
<path d="M286.514 36.684V35.808H287.666V41.772C287.666 42.62 287.41 43.284 286.898 43.764C286.386 44.252 285.658 44.496 284.714 44.496C283.906 44.496 283.262 44.312 282.782 43.944C282.31 43.576 282.042 43.072 281.978 42.432H283.178C283.274 43.16 283.79 43.524 284.726 43.524C285.886 43.524 286.466 42.948 286.466 41.796V41.112C285.994 41.752 285.33 42.072 284.474 42.072C283.61 42.072 282.922 41.78 282.41 41.196C281.89 40.604 281.63 39.828 281.63 38.868C281.63 37.908 281.89 37.132 282.41 36.54C282.922 35.956 283.606 35.664 284.462 35.664C285.366 35.664 286.05 36.004 286.514 36.684ZM284.69 41.04C285.25 41.04 285.69 40.848 286.01 40.464C286.338 40.072 286.502 39.54 286.502 38.868C286.502 38.196 286.338 37.668 286.01 37.284C285.69 36.892 285.25 36.696 284.69 36.696C284.138 36.696 283.698 36.892 283.37 37.284C283.042 37.676 282.878 38.204 282.878 38.868C282.878 39.54 283.042 40.072 283.37 40.464C283.698 40.848 284.138 41.04 284.69 41.04ZM294.024 41.256C293.456 41.848 292.716 42.144 291.804 42.144C290.892 42.144 290.152 41.848 289.584 41.256C289.016 40.664 288.732 39.88 288.732 38.904C288.732 37.92 289.016 37.132 289.584 36.54C290.144 35.956 290.884 35.664 291.804 35.664C292.724 35.664 293.464 35.956 294.024 36.54C294.584 37.124 294.864 37.912 294.864 38.904C294.864 39.888 294.584 40.672 294.024 41.256ZM290.472 40.524C290.8 40.916 291.244 41.112 291.804 41.112C292.364 41.112 292.804 40.916 293.124 40.524C293.452 40.132 293.616 39.592 293.616 38.904C293.616 38.216 293.452 37.676 293.124 37.284C292.804 36.892 292.364 36.696 291.804 36.696C291.244 36.696 290.8 36.892 290.472 37.284C290.144 37.676 289.98 38.216 289.98 38.904C289.98 39.592 290.144 40.132 290.472 40.524ZM300.926 41.256C300.358 41.848 299.618 42.144 298.706 42.144C297.794 42.144 297.054 41.848 296.486 41.256C295.918 40.664 295.634 39.88 295.634 38.904C295.634 37.92 295.918 37.132 296.486 36.54C297.046 35.956 297.786 35.664 298.706 35.664C299.626 35.664 300.366 35.956 300.926 36.54C301.486 37.124 301.766 37.912 301.766 38.904C301.766 39.888 301.486 40.672 300.926 41.256ZM297.374 40.524C297.702 40.916 298.146 41.112 298.706 41.112C299.266 41.112 299.706 40.916 300.026 40.524C300.354 40.132 300.518 39.592 300.518 38.904C300.518 38.216 300.354 37.676 300.026 37.284C299.706 36.892 299.266 36.696 298.706 36.696C298.146 36.696 297.702 36.892 297.374 37.284C297.046 37.676 296.882 38.216 296.882 38.904C296.882 39.592 297.046 40.132 297.374 40.524ZM307.372 36.648V33.456H308.572V42H307.42V41.088C306.956 41.792 306.272 42.144 305.368 42.144C304.504 42.144 303.816 41.852 303.304 41.268C302.792 40.684 302.536 39.896 302.536 38.904C302.536 37.912 302.792 37.124 303.304 36.54C303.816 35.956 304.504 35.664 305.368 35.664C306.24 35.664 306.908 35.992 307.372 36.648ZM303.784 38.952C303.784 39.64 303.948 40.172 304.276 40.548C304.604 40.924 305.044 41.112 305.596 41.112C306.164 41.112 306.608 40.916 306.928 40.524C307.248 40.148 307.408 39.608 307.408 38.904C307.408 38.208 307.248 37.664 306.928 37.272C306.608 36.888 306.164 36.696 305.596 36.696C305.044 36.696 304.604 36.896 304.276 37.296C303.948 37.696 303.784 38.248 303.784 38.952ZM312.844 35.808V35.244C312.844 34.028 313.464 33.42 314.704 33.42C314.824 33.42 315.052 33.432 315.388 33.456V34.428H314.848C314.312 34.428 314.044 34.7 314.044 35.244V35.808H315.34V36.792H314.044V42H312.844V36.792H311.848V35.808H312.844ZM316.24 34.932V33.648H317.464V34.932H316.24ZM317.452 42H316.252V35.808H317.452V42ZM321.893 35.712C322.069 35.712 322.185 35.716 322.241 35.724V36.864H321.941C321.325 36.864 320.849 37.016 320.513 37.32C320.177 37.624 320.009 38.064 320.009 38.64V42H318.809V35.808H319.961V36.912C320.353 36.112 320.997 35.712 321.893 35.712ZM325.202 42.156C323.482 42.156 322.578 41.448 322.49 40.032H323.69C323.738 40.464 323.878 40.768 324.11 40.944C324.342 41.12 324.71 41.208 325.214 41.208C326.126 41.208 326.582 40.92 326.582 40.344C326.582 40.096 326.486 39.904 326.294 39.768C326.102 39.632 325.758 39.52 325.262 39.432L324.626 39.312C323.314 39.072 322.658 38.456 322.658 37.464C322.658 36.912 322.87 36.476 323.294 36.156C323.718 35.828 324.302 35.664 325.046 35.664C326.75 35.664 327.622 36.356 327.662 37.74H326.498C326.474 37.324 326.346 37.032 326.114 36.864C325.882 36.688 325.526 36.6 325.046 36.6C324.662 36.6 324.366 36.672 324.158 36.816C323.95 36.96 323.846 37.164 323.846 37.428C323.846 37.668 323.938 37.856 324.122 37.992C324.306 38.12 324.598 38.224 324.998 38.304L325.646 38.412C326.406 38.556 326.954 38.772 327.29 39.06C327.626 39.348 327.794 39.748 327.794 40.26C327.794 40.86 327.566 41.328 327.11 41.664C326.654 41.992 326.018 42.156 325.202 42.156ZM331.522 35.808V36.792H330.274V40.512C330.274 40.696 330.326 40.832 330.43 40.92C330.542 41 330.726 41.04 330.982 41.04H331.522V42C331.258 42.024 331.014 42.036 330.79 42.036C330.206 42.036 329.774 41.924 329.494 41.7C329.214 41.476 329.074 41.116 329.074 40.62V36.792H328.078V35.808H329.074V34.032H330.274V35.808H331.522ZM336.122 34.932H334.898V33.648H336.122V34.932ZM336.11 42H334.91V35.808H336.11V42ZM339.745 42.156C338.025 42.156 337.121 41.448 337.033 40.032H338.233C338.281 40.464 338.421 40.768 338.653 40.944C338.885 41.12 339.253 41.208 339.757 41.208C340.669 41.208 341.125 40.92 341.125 40.344C341.125 40.096 341.029 39.904 340.837 39.768C340.645 39.632 340.301 39.52 339.805 39.432L339.169 39.312C337.857 39.072 337.201 38.456 337.201 37.464C337.201 36.912 337.413 36.476 337.837 36.156C338.261 35.828 338.845 35.664 339.589 35.664C341.293 35.664 342.165 36.356 342.205 37.74H341.041C341.017 37.324 340.889 37.032 340.657 36.864C340.425 36.688 340.069 36.6 339.589 36.6C339.205 36.6 338.909 36.672 338.701 36.816C338.493 36.96 338.389 37.164 338.389 37.428C338.389 37.668 338.481 37.856 338.665 37.992C338.849 38.12 339.141 38.224 339.541 38.304L340.189 38.412C340.949 38.556 341.497 38.772 341.833 39.06C342.169 39.348 342.337 39.748 342.337 40.26C342.337 40.86 342.109 41.328 341.653 41.664C341.197 41.992 340.561 42.156 339.745 42.156ZM345.663 42.156C343.943 42.156 343.039 41.448 342.951 40.032H344.151C344.199 40.464 344.339 40.768 344.571 40.944C344.803 41.12 345.171 41.208 345.675 41.208C346.587 41.208 347.043 40.92 347.043 40.344C347.043 40.096 346.947 39.904 346.755 39.768C346.563 39.632 346.219 39.52 345.723 39.432L345.087 39.312C343.775 39.072 343.119 38.456 343.119 37.464C343.119 36.912 343.331 36.476 343.755 36.156C344.179 35.828 344.763 35.664 345.507 35.664C347.211 35.664 348.083 36.356 348.123 37.74H346.959C346.935 37.324 346.807 37.032 346.575 36.864C346.343 36.688 345.987 36.6 345.507 36.6C345.123 36.6 344.827 36.672 344.619 36.816C344.411 36.96 344.307 37.164 344.307 37.428C344.307 37.668 344.399 37.856 344.583 37.992C344.767 38.12 345.059 38.224 345.459 38.304L346.107 38.412C346.867 38.556 347.415 38.772 347.751 39.06C348.087 39.348 348.255 39.748 348.255 40.26C348.255 40.86 348.027 41.328 347.571 41.664C347.115 41.992 346.479 42.156 345.663 42.156ZM353.217 39.3V35.808H354.417V42H353.265V41.076C352.793 41.788 352.145 42.144 351.321 42.144C350.641 42.144 350.109 41.952 349.725 41.568C349.341 41.184 349.149 40.648 349.149 39.96V35.808H350.349V39.792C350.349 40.656 350.785 41.088 351.657 41.088C352.097 41.088 352.465 40.932 352.761 40.62C353.065 40.3 353.217 39.86 353.217 39.3ZM361.362 38.952V39.3H356.694C356.75 39.908 356.93 40.368 357.234 40.68C357.538 40.984 357.95 41.136 358.47 41.136C359.254 41.136 359.766 40.792 360.006 40.104H361.218C361.05 40.736 360.722 41.236 360.234 41.604C359.754 41.964 359.158 42.144 358.446 42.144C357.558 42.144 356.842 41.848 356.298 41.256C355.754 40.664 355.482 39.88 355.482 38.904C355.482 37.928 355.754 37.144 356.298 36.552C356.842 35.96 357.55 35.664 358.422 35.664C359.334 35.664 360.054 35.972 360.582 36.588C361.102 37.204 361.362 37.992 361.362 38.952ZM358.422 36.672C357.95 36.672 357.562 36.816 357.258 37.104C356.962 37.392 356.778 37.808 356.706 38.352H360.126C360.07 37.848 359.89 37.444 359.586 37.14C359.29 36.828 358.902 36.672 358.422 36.672Z" fill="white"/>
<rect x="164" y="25" width="100" height="24" rx="12" fill="#FFC107"/>
<path d="M195.222 36.648V33.456H196.422V42H195.27V41.088C194.806 41.792 194.122 42.144 193.218 42.144C192.354 42.144 191.666 41.852 191.154 41.268C190.642 40.684 190.386 39.896 190.386 38.904C190.386 37.912 190.642 37.124 191.154 36.54C191.666 35.956 192.354 35.664 193.218 35.664C194.09 35.664 194.758 35.992 195.222 36.648ZM191.634 38.952C191.634 39.64 191.798 40.172 192.126 40.548C192.454 40.924 192.894 41.112 193.446 41.112C194.014 41.112 194.458 40.916 194.778 40.524C195.098 40.148 195.258 39.608 195.258 38.904C195.258 38.208 195.098 37.664 194.778 37.272C194.458 36.888 194.014 36.696 193.446 36.696C192.894 36.696 192.454 36.896 192.126 37.296C191.798 37.696 191.634 38.248 191.634 38.952ZM201.844 39.3V35.808H203.044V42H201.892V41.076C201.42 41.788 200.772 42.144 199.948 42.144C199.268 42.144 198.736 41.952 198.352 41.568C197.968 41.184 197.776 40.648 197.776 39.96V35.808H198.976V39.792C198.976 40.656 199.412 41.088 200.284 41.088C200.724 41.088 201.092 40.932 201.388 40.62C201.692 40.3 201.844 39.86 201.844 39.3ZM207.613 35.664C208.477 35.664 209.165 35.956 209.677 36.54C210.189 37.124 210.445 37.912 210.445 38.904C210.445 39.888 210.189 40.672 209.677 41.256C209.157 41.848 208.469 42.144 207.613 42.144C206.701 42.144 206.013 41.784 205.549 41.064V42H204.397V33.456H205.597V36.672C206.061 36 206.733 35.664 207.613 35.664ZM206.065 40.524C206.385 40.916 206.825 41.112 207.385 41.112C207.945 41.112 208.389 40.912 208.717 40.512C209.037 40.12 209.197 39.568 209.197 38.856C209.197 38.168 209.037 37.636 208.717 37.26C208.397 36.884 207.953 36.696 207.385 36.696C206.833 36.696 206.393 36.888 206.065 37.272C205.737 37.672 205.573 38.216 205.573 38.904C205.573 39.592 205.737 40.132 206.065 40.524ZM212.698 42H211.498V33.456H212.698V42ZM215.253 34.932H214.029V33.648H215.253V34.932ZM215.241 42H214.041V35.808H215.241V42ZM219.248 42.144C218.368 42.144 217.656 41.848 217.112 41.256C216.568 40.664 216.296 39.88 216.296 38.904C216.296 37.92 216.568 37.132 217.112 36.54C217.648 35.956 218.36 35.664 219.248 35.664C220.008 35.664 220.632 35.872 221.12 36.288C221.616 36.704 221.912 37.264 222.008 37.968H220.784C220.704 37.56 220.524 37.248 220.244 37.032C219.972 36.816 219.64 36.708 219.248 36.708C218.728 36.708 218.312 36.9 218 37.284C217.696 37.66 217.544 38.2 217.544 38.904C217.544 39.608 217.696 40.152 218 40.536C218.312 40.912 218.728 41.1 219.248 41.1C219.648 41.1 219.988 40.988 220.268 40.764C220.548 40.54 220.724 40.216 220.796 39.792H222.02C221.924 40.512 221.624 41.084 221.12 41.508C220.616 41.932 219.992 42.144 219.248 42.144ZM228.311 41.076H228.647V42C228.471 42.024 228.275 42.036 228.059 42.036C227.675 42.036 227.387 41.968 227.195 41.832C227.011 41.688 226.899 41.464 226.859 41.16C226.443 41.816 225.771 42.144 224.843 42.144C224.163 42.144 223.623 41.984 223.223 41.664C222.831 41.336 222.635 40.884 222.635 40.308C222.635 39.188 223.411 38.548 224.963 38.388L225.875 38.292C226.195 38.252 226.427 38.172 226.571 38.052C226.723 37.924 226.799 37.744 226.799 37.512C226.799 37.2 226.699 36.976 226.499 36.84C226.307 36.696 225.983 36.624 225.527 36.624C225.031 36.624 224.675 36.708 224.459 36.876C224.243 37.036 224.119 37.324 224.087 37.74H222.899C222.987 36.356 223.863 35.664 225.527 35.664C227.159 35.664 227.975 36.272 227.975 37.488V40.764C227.975 40.972 228.087 41.076 228.311 41.076ZM225.023 41.208C225.535 41.208 225.959 41.064 226.295 40.776C226.631 40.488 226.799 40.08 226.799 39.552V38.904C226.647 39.032 226.391 39.116 226.031 39.156L225.167 39.252C224.703 39.308 224.371 39.42 224.171 39.588C223.971 39.748 223.871 39.976 223.871 40.272C223.871 40.568 223.967 40.8 224.159 40.968C224.359 41.128 224.647 41.208 225.023 41.208ZM232.169 35.808V36.792H230.921V40.512C230.921 40.696 230.973 40.832 231.077 40.92C231.189 41 231.373 41.04 231.629 41.04H232.169V42C231.905 42.024 231.661 42.036 231.437 42.036C230.853 42.036 230.421 41.924 230.141 41.7C229.861 41.476 229.721 41.116 229.721 40.62V36.792H228.725V35.808H229.721V34.032H230.921V35.808H232.169ZM238.606 38.952V39.3H233.938C233.994 39.908 234.174 40.368 234.478 40.68C234.782 40.984 235.194 41.136 235.714 41.136C236.498 41.136 237.01 40.792 237.25 40.104H238.462C238.294 40.736 237.966 41.236 237.478 41.604C236.998 41.964 236.402 42.144 235.69 42.144C234.802 42.144 234.086 41.848 233.542 41.256C232.998 40.664 232.726 39.88 232.726 38.904C232.726 37.928 232.998 37.144 233.542 36.552C234.086 35.96 234.794 35.664 235.666 35.664C236.578 35.664 237.298 35.972 237.826 36.588C238.346 37.204 238.606 37.992 238.606 38.952ZM235.666 36.672C235.194 36.672 234.806 36.816 234.502 37.104C234.206 37.392 234.022 37.808 233.95 38.352H237.37C237.314 37.848 237.134 37.444 236.83 37.14C236.534 36.828 236.146 36.672 235.666 36.672Z" fill="white"/>
<rect x="264" y="35" width="3" height="8" fill="#C4C4C4"/>
</svg>
