<svg width="540" height="120" viewBox="0 0 540 120" fill="none" xmlns="http://www.w3.org/2000/svg">
<rect x="341" y="25" width="72" height="24" rx="12" fill="#B83239"/>
<path d="M371.058 35.664C371.922 35.664 372.61 35.956 373.122 36.54C373.634 37.124 373.89 37.912 373.89 38.904C373.89 39.888 373.634 40.672 373.122 41.256C372.602 41.848 371.914 42.144 371.058 42.144C370.146 42.144 369.458 41.784 368.994 41.064V42H367.842V33.456H369.042V36.672C369.506 36 370.178 35.664 371.058 35.664ZM369.51 40.524C369.83 40.916 370.27 41.112 370.83 41.112C371.39 41.112 371.834 40.912 372.162 40.512C372.482 40.12 372.642 39.568 372.642 38.856C372.642 38.168 372.482 37.636 372.162 37.26C371.842 36.884 371.398 36.696 370.83 36.696C370.278 36.696 369.838 36.888 369.51 37.272C369.182 37.672 369.018 38.216 369.018 38.904C369.018 39.592 369.182 40.132 369.51 40.524ZM378.847 39.3V35.808H380.047V42H378.895V41.076C378.423 41.788 377.775 42.144 376.951 42.144C376.271 42.144 375.739 41.952 375.355 41.568C374.971 41.184 374.779 40.648 374.779 39.96V35.808H375.979V39.792C375.979 40.656 376.415 41.088 377.287 41.088C377.727 41.088 378.095 40.932 378.391 40.62C378.695 40.3 378.847 39.86 378.847 39.3ZM385.997 36.684V35.808H387.149V41.772C387.149 42.62 386.893 43.284 386.381 43.764C385.869 44.252 385.141 44.496 384.197 44.496C383.389 44.496 382.745 44.312 382.265 43.944C381.793 43.576 381.525 43.072 381.461 42.432H382.661C382.757 43.16 383.273 43.524 384.209 43.524C385.369 43.524 385.949 42.948 385.949 41.796V41.112C385.477 41.752 384.813 42.072 383.957 42.072C383.093 42.072 382.405 41.78 381.893 41.196C381.373 40.604 381.113 39.828 381.113 38.868C381.113 37.908 381.373 37.132 381.893 36.54C382.405 35.956 383.089 35.664 383.945 35.664C384.849 35.664 385.533 36.004 385.997 36.684ZM384.173 41.04C384.733 41.04 385.173 40.848 385.493 40.464C385.821 40.072 385.985 39.54 385.985 38.868C385.985 38.196 385.821 37.668 385.493 37.284C385.173 36.892 384.733 36.696 384.173 36.696C383.621 36.696 383.181 36.892 382.853 37.284C382.525 37.676 382.361 38.204 382.361 38.868C382.361 39.54 382.525 40.072 382.853 40.464C383.181 40.848 383.621 41.04 384.173 41.04Z" fill="white"/>
<path d="M100.826 57.402L98.1439 66H97.0999L94.9219 59.442C94.9019 59.378 94.8819 59.31 94.8619 59.238C94.8459 59.166 94.8279 59.09 94.8079 59.01C94.7879 59.09 94.7679 59.166 94.7479 59.238C94.7279 59.31 94.7079 59.378 94.6879 59.442L92.4979 66H91.4539L88.7719 57.402H89.7379C89.8419 57.402 89.9279 57.428 89.9959 57.48C90.0679 57.532 90.1139 57.598 90.1339 57.678L91.9099 63.654C91.9379 63.762 91.9639 63.878 91.9879 64.002C92.0159 64.126 92.0419 64.258 92.0659 64.398C92.0939 64.258 92.1219 64.126 92.1499 64.002C92.1819 63.874 92.2159 63.758 92.2519 63.654L94.2739 57.678C94.2979 57.61 94.3439 57.548 94.4119 57.492C94.4839 57.432 94.5699 57.402 94.6699 57.402H95.0059C95.1099 57.402 95.1939 57.428 95.2579 57.48C95.3219 57.532 95.3699 57.598 95.4019 57.678L97.4179 63.654C97.4539 63.758 97.4859 63.87 97.5139 63.99C97.5459 64.11 97.5759 64.236 97.6039 64.368C97.6239 64.236 97.6459 64.11 97.6699 63.99C97.6939 63.87 97.7199 63.758 97.7479 63.654L99.5299 57.678C99.5499 57.606 99.5939 57.542 99.6619 57.486C99.7339 57.43 99.8199 57.402 99.9199 57.402H100.826ZM105.242 62.298C105.242 62.05 105.206 61.824 105.134 61.62C105.066 61.412 104.964 61.234 104.828 61.086C104.696 60.934 104.534 60.818 104.342 60.738C104.15 60.654 103.932 60.612 103.688 60.612C103.176 60.612 102.77 60.762 102.47 61.062C102.174 61.358 101.99 61.77 101.918 62.298H105.242ZM106.106 65.148C105.974 65.308 105.816 65.448 105.632 65.568C105.448 65.684 105.25 65.78 105.038 65.856C104.83 65.932 104.614 65.988 104.39 66.024C104.166 66.064 103.944 66.084 103.724 66.084C103.304 66.084 102.916 66.014 102.56 65.874C102.208 65.73 101.902 65.522 101.642 65.25C101.386 64.974 101.186 64.634 101.042 64.23C100.898 63.826 100.826 63.362 100.826 62.838C100.826 62.414 100.89 62.018 101.018 61.65C101.15 61.282 101.338 60.964 101.582 60.696C101.826 60.424 102.124 60.212 102.476 60.06C102.828 59.904 103.224 59.826 103.664 59.826C104.028 59.826 104.364 59.888 104.672 60.012C104.984 60.132 105.252 60.308 105.476 60.54C105.704 60.768 105.882 61.052 106.01 61.392C106.138 61.728 106.202 62.112 106.202 62.544C106.202 62.712 106.184 62.824 106.148 62.88C106.112 62.936 106.044 62.964 105.944 62.964H101.882C101.894 63.348 101.946 63.682 102.038 63.966C102.134 64.25 102.266 64.488 102.434 64.68C102.602 64.868 102.802 65.01 103.034 65.106C103.266 65.198 103.526 65.244 103.814 65.244C104.082 65.244 104.312 65.214 104.504 65.154C104.7 65.09 104.868 65.022 105.008 64.95C105.148 64.878 105.264 64.812 105.356 64.752C105.452 64.688 105.534 64.656 105.602 64.656C105.69 64.656 105.758 64.69 105.806 64.758L106.106 65.148ZM111.592 60.804C111.724 60.656 111.864 60.522 112.012 60.402C112.16 60.282 112.316 60.18 112.48 60.096C112.648 60.008 112.824 59.942 113.008 59.898C113.196 59.85 113.398 59.826 113.614 59.826C113.946 59.826 114.238 59.882 114.49 59.994C114.746 60.102 114.958 60.258 115.126 60.462C115.298 60.662 115.428 60.904 115.516 61.188C115.604 61.472 115.648 61.786 115.648 62.13V66H114.574V62.13C114.574 61.67 114.468 61.314 114.256 61.062C114.048 60.806 113.73 60.678 113.302 60.678C112.986 60.678 112.69 60.754 112.414 60.906C112.142 61.058 111.89 61.264 111.658 61.524V66H110.584V59.922H111.226C111.378 59.922 111.472 59.996 111.508 60.144L111.592 60.804ZM121.344 62.298C121.344 62.05 121.308 61.824 121.236 61.62C121.168 61.412 121.066 61.234 120.93 61.086C120.798 60.934 120.636 60.818 120.444 60.738C120.252 60.654 120.034 60.612 119.79 60.612C119.278 60.612 118.872 60.762 118.572 61.062C118.276 61.358 118.092 61.77 118.02 62.298H121.344ZM122.208 65.148C122.076 65.308 121.918 65.448 121.734 65.568C121.55 65.684 121.352 65.78 121.14 65.856C120.932 65.932 120.716 65.988 120.492 66.024C120.268 66.064 120.046 66.084 119.826 66.084C119.406 66.084 119.018 66.014 118.662 65.874C118.31 65.73 118.004 65.522 117.744 65.25C117.488 64.974 117.288 64.634 117.144 64.23C117 63.826 116.928 63.362 116.928 62.838C116.928 62.414 116.992 62.018 117.12 61.65C117.252 61.282 117.44 60.964 117.684 60.696C117.928 60.424 118.226 60.212 118.578 60.06C118.93 59.904 119.326 59.826 119.766 59.826C120.13 59.826 120.466 59.888 120.774 60.012C121.086 60.132 121.354 60.308 121.578 60.54C121.806 60.768 121.984 61.052 122.112 61.392C122.24 61.728 122.304 62.112 122.304 62.544C122.304 62.712 122.286 62.824 122.25 62.88C122.214 62.936 122.146 62.964 122.046 62.964H117.984C117.996 63.348 118.048 63.682 118.14 63.966C118.236 64.25 118.368 64.488 118.536 64.68C118.704 64.868 118.904 65.01 119.136 65.106C119.368 65.198 119.628 65.244 119.916 65.244C120.184 65.244 120.414 65.214 120.606 65.154C120.802 65.09 120.97 65.022 121.11 64.95C121.25 64.878 121.366 64.812 121.458 64.752C121.554 64.688 121.636 64.656 121.704 64.656C121.792 64.656 121.86 64.69 121.908 64.758L122.208 65.148ZM127.684 62.298C127.684 62.05 127.648 61.824 127.576 61.62C127.508 61.412 127.406 61.234 127.27 61.086C127.138 60.934 126.976 60.818 126.784 60.738C126.592 60.654 126.374 60.612 126.13 60.612C125.618 60.612 125.212 60.762 124.912 61.062C124.616 61.358 124.432 61.77 124.36 62.298H127.684ZM128.548 65.148C128.416 65.308 128.258 65.448 128.074 65.568C127.89 65.684 127.692 65.78 127.48 65.856C127.272 65.932 127.056 65.988 126.832 66.024C126.608 66.064 126.386 66.084 126.166 66.084C125.746 66.084 125.358 66.014 125.002 65.874C124.65 65.73 124.344 65.522 124.084 65.25C123.828 64.974 123.628 64.634 123.484 64.23C123.34 63.826 123.268 63.362 123.268 62.838C123.268 62.414 123.332 62.018 123.46 61.65C123.592 61.282 123.78 60.964 124.024 60.696C124.268 60.424 124.566 60.212 124.918 60.06C125.27 59.904 125.666 59.826 126.106 59.826C126.47 59.826 126.806 59.888 127.114 60.012C127.426 60.132 127.694 60.308 127.918 60.54C128.146 60.768 128.324 61.052 128.452 61.392C128.58 61.728 128.644 62.112 128.644 62.544C128.644 62.712 128.626 62.824 128.59 62.88C128.554 62.936 128.486 62.964 128.386 62.964H124.324C124.336 63.348 124.388 63.682 124.48 63.966C124.576 64.25 124.708 64.488 124.876 64.68C125.044 64.868 125.244 65.01 125.476 65.106C125.708 65.198 125.968 65.244 126.256 65.244C126.524 65.244 126.754 65.214 126.946 65.154C127.142 65.09 127.31 65.022 127.45 64.95C127.59 64.878 127.706 64.812 127.798 64.752C127.894 64.688 127.976 64.656 128.044 64.656C128.132 64.656 128.2 64.69 128.248 64.758L128.548 65.148ZM133.915 61.368C133.715 61.1 133.499 60.914 133.267 60.81C133.035 60.702 132.775 60.648 132.487 60.648C131.923 60.648 131.489 60.85 131.185 61.254C130.881 61.658 130.729 62.234 130.729 62.982C130.729 63.378 130.763 63.718 130.831 64.002C130.899 64.282 130.999 64.514 131.131 64.698C131.263 64.878 131.425 65.01 131.617 65.094C131.809 65.178 132.027 65.22 132.271 65.22C132.623 65.22 132.929 65.14 133.189 64.98C133.453 64.82 133.695 64.594 133.915 64.302V61.368ZM134.983 57.162V66H134.347C134.195 66 134.099 65.926 134.059 65.778L133.963 65.04C133.703 65.352 133.407 65.604 133.075 65.796C132.743 65.988 132.359 66.084 131.923 66.084C131.575 66.084 131.259 66.018 130.975 65.886C130.691 65.75 130.449 65.552 130.249 65.292C130.049 65.032 129.895 64.708 129.787 64.32C129.679 63.932 129.625 63.486 129.625 62.982C129.625 62.534 129.685 62.118 129.805 61.734C129.925 61.346 130.097 61.01 130.321 60.726C130.545 60.442 130.819 60.22 131.143 60.06C131.471 59.896 131.839 59.814 132.247 59.814C132.619 59.814 132.937 59.878 133.201 60.006C133.469 60.13 133.707 60.304 133.915 60.528V57.162H134.983ZM141.607 66.096C141.127 66.096 140.757 65.962 140.497 65.694C140.241 65.426 140.113 65.04 140.113 64.536V60.816H139.381C139.317 60.816 139.263 60.798 139.219 60.762C139.175 60.722 139.153 60.662 139.153 60.582V60.156L140.149 60.03L140.395 58.152C140.407 58.092 140.433 58.044 140.473 58.008C140.517 57.968 140.573 57.948 140.641 57.948H141.181V60.042H142.939V60.816H141.181V64.464C141.181 64.72 141.243 64.91 141.367 65.034C141.491 65.158 141.651 65.22 141.847 65.22C141.959 65.22 142.055 65.206 142.135 65.178C142.219 65.146 142.291 65.112 142.351 65.076C142.411 65.04 142.461 65.008 142.501 64.98C142.545 64.948 142.583 64.932 142.615 64.932C142.671 64.932 142.721 64.966 142.765 65.034L143.077 65.544C142.893 65.716 142.671 65.852 142.411 65.952C142.151 66.048 141.883 66.096 141.607 66.096ZM146.568 59.826C147.012 59.826 147.412 59.9 147.768 60.048C148.124 60.196 148.428 60.406 148.68 60.678C148.932 60.95 149.124 61.28 149.256 61.668C149.392 62.052 149.46 62.482 149.46 62.958C149.46 63.438 149.392 63.87 149.256 64.254C149.124 64.638 148.932 64.966 148.68 65.238C148.428 65.51 148.124 65.72 147.768 65.868C147.412 66.012 147.012 66.084 146.568 66.084C146.12 66.084 145.716 66.012 145.356 65.868C145 65.72 144.696 65.51 144.444 65.238C144.192 64.966 143.998 64.638 143.862 64.254C143.73 63.87 143.664 63.438 143.664 62.958C143.664 62.482 143.73 62.052 143.862 61.668C143.998 61.28 144.192 60.95 144.444 60.678C144.696 60.406 145 60.196 145.356 60.048C145.716 59.9 146.12 59.826 146.568 59.826ZM146.568 65.25C147.168 65.25 147.616 65.05 147.912 64.65C148.208 64.246 148.356 63.684 148.356 62.964C148.356 62.24 148.208 61.676 147.912 61.272C147.616 60.868 147.168 60.666 146.568 60.666C146.264 60.666 145.998 60.718 145.77 60.822C145.546 60.926 145.358 61.076 145.206 61.272C145.058 61.468 144.946 61.71 144.87 61.998C144.798 62.282 144.762 62.604 144.762 62.964C144.762 63.684 144.91 64.246 145.206 64.65C145.506 65.05 145.96 65.25 146.568 65.25ZM158.115 61.002C158.083 61.046 158.051 61.08 158.019 61.104C157.987 61.128 157.943 61.14 157.887 61.14C157.827 61.14 157.761 61.116 157.689 61.068C157.617 61.016 157.527 60.96 157.419 60.9C157.315 60.84 157.185 60.786 157.029 60.738C156.877 60.686 156.689 60.66 156.465 60.66C156.165 60.66 155.901 60.714 155.673 60.822C155.445 60.926 155.253 61.078 155.097 61.278C154.945 61.478 154.829 61.72 154.749 62.004C154.673 62.288 154.635 62.606 154.635 62.958C154.635 63.326 154.677 63.654 154.761 63.942C154.845 64.226 154.963 64.466 155.115 64.662C155.271 64.854 155.457 65.002 155.673 65.106C155.893 65.206 156.139 65.256 156.411 65.256C156.671 65.256 156.885 65.226 157.053 65.166C157.221 65.102 157.359 65.032 157.467 64.956C157.579 64.88 157.671 64.812 157.743 64.752C157.819 64.688 157.893 64.656 157.965 64.656C158.053 64.656 158.121 64.69 158.169 64.758L158.469 65.148C158.337 65.312 158.187 65.452 158.019 65.568C157.851 65.684 157.669 65.782 157.473 65.862C157.281 65.938 157.079 65.994 156.867 66.03C156.655 66.066 156.439 66.084 156.219 66.084C155.839 66.084 155.485 66.014 155.157 65.874C154.833 65.734 154.551 65.532 154.311 65.268C154.071 65 153.883 64.672 153.747 64.284C153.611 63.896 153.543 63.454 153.543 62.958C153.543 62.506 153.605 62.088 153.729 61.704C153.857 61.32 154.041 60.99 154.281 60.714C154.525 60.434 154.823 60.216 155.175 60.06C155.531 59.904 155.939 59.826 156.399 59.826C156.827 59.826 157.203 59.896 157.527 60.036C157.855 60.172 158.145 60.366 158.397 60.618L158.115 61.002ZM160.69 60.732C160.95 60.456 161.238 60.236 161.554 60.072C161.87 59.908 162.234 59.826 162.646 59.826C162.978 59.826 163.27 59.882 163.522 59.994C163.778 60.102 163.99 60.258 164.158 60.462C164.33 60.662 164.46 60.904 164.548 61.188C164.636 61.472 164.68 61.786 164.68 62.13V66H163.606V62.13C163.606 61.67 163.5 61.314 163.288 61.062C163.08 60.806 162.762 60.678 162.334 60.678C162.018 60.678 161.722 60.754 161.446 60.906C161.174 61.058 160.922 61.264 160.69 61.524V66H159.616V57.162H160.69V60.732ZM169.601 63.264C169.109 63.28 168.689 63.32 168.341 63.384C167.997 63.444 167.715 63.524 167.495 63.624C167.279 63.724 167.121 63.842 167.021 63.978C166.925 64.114 166.877 64.266 166.877 64.434C166.877 64.594 166.903 64.732 166.955 64.848C167.007 64.964 167.077 65.06 167.165 65.136C167.257 65.208 167.363 65.262 167.483 65.298C167.607 65.33 167.739 65.346 167.879 65.346C168.067 65.346 168.239 65.328 168.395 65.292C168.551 65.252 168.697 65.196 168.833 65.124C168.973 65.052 169.105 64.966 169.229 64.866C169.357 64.766 169.481 64.652 169.601 64.524V63.264ZM166.151 60.78C166.487 60.456 166.849 60.214 167.237 60.054C167.625 59.894 168.055 59.814 168.527 59.814C168.867 59.814 169.169 59.87 169.433 59.982C169.697 60.094 169.919 60.25 170.099 60.45C170.279 60.65 170.415 60.892 170.507 61.176C170.599 61.46 170.645 61.772 170.645 62.112V66H170.171C170.067 66 169.987 65.984 169.931 65.952C169.875 65.916 169.831 65.848 169.799 65.748L169.679 65.172C169.519 65.32 169.363 65.452 169.211 65.568C169.059 65.68 168.899 65.776 168.731 65.856C168.563 65.932 168.383 65.99 168.191 66.03C168.003 66.074 167.793 66.096 167.561 66.096C167.325 66.096 167.103 66.064 166.895 66C166.687 65.932 166.505 65.832 166.349 65.7C166.197 65.568 166.075 65.402 165.983 65.202C165.895 64.998 165.851 64.758 165.851 64.482C165.851 64.242 165.917 64.012 166.049 63.792C166.181 63.568 166.395 63.37 166.691 63.198C166.987 63.026 167.373 62.886 167.849 62.778C168.325 62.666 168.909 62.602 169.601 62.586V62.112C169.601 61.64 169.499 61.284 169.295 61.044C169.091 60.8 168.793 60.678 168.401 60.678C168.137 60.678 167.915 60.712 167.735 60.78C167.559 60.844 167.405 60.918 167.273 61.002C167.145 61.082 167.033 61.156 166.937 61.224C166.845 61.288 166.753 61.32 166.661 61.32C166.589 61.32 166.527 61.302 166.475 61.266C166.423 61.226 166.379 61.178 166.343 61.122L166.151 60.78ZM173.28 60.804C173.412 60.656 173.552 60.522 173.7 60.402C173.848 60.282 174.004 60.18 174.168 60.096C174.336 60.008 174.512 59.942 174.696 59.898C174.884 59.85 175.086 59.826 175.302 59.826C175.634 59.826 175.926 59.882 176.178 59.994C176.434 60.102 176.646 60.258 176.814 60.462C176.986 60.662 177.116 60.904 177.204 61.188C177.292 61.472 177.336 61.786 177.336 62.13V66H176.262V62.13C176.262 61.67 176.156 61.314 175.944 61.062C175.736 60.806 175.418 60.678 174.99 60.678C174.674 60.678 174.378 60.754 174.102 60.906C173.83 61.058 173.578 61.264 173.346 61.524V66H172.272V59.922H172.914C173.066 59.922 173.16 59.996 173.196 60.144L173.28 60.804ZM181.081 63.03C181.297 63.03 181.487 63 181.651 62.94C181.815 62.88 181.953 62.796 182.065 62.688C182.177 62.58 182.261 62.452 182.317 62.304C182.373 62.152 182.401 61.986 182.401 61.806C182.401 61.434 182.287 61.138 182.059 60.918C181.835 60.698 181.509 60.588 181.081 60.588C180.649 60.588 180.319 60.698 180.091 60.918C179.867 61.138 179.755 61.434 179.755 61.806C179.755 61.986 179.783 62.152 179.839 62.304C179.899 62.452 179.985 62.58 180.097 62.688C180.209 62.796 180.347 62.88 180.511 62.94C180.675 63 180.865 63.03 181.081 63.03ZM183.007 66.33C183.007 66.182 182.965 66.062 182.881 65.97C182.797 65.878 182.683 65.806 182.539 65.754C182.399 65.702 182.235 65.666 182.047 65.646C181.859 65.622 181.659 65.604 181.447 65.592C181.239 65.58 181.027 65.568 180.811 65.556C180.595 65.544 180.387 65.524 180.187 65.496C179.963 65.6 179.779 65.732 179.635 65.892C179.495 66.048 179.425 66.232 179.425 66.444C179.425 66.58 179.459 66.706 179.527 66.822C179.599 66.942 179.707 67.044 179.851 67.128C179.995 67.216 180.175 67.284 180.391 67.332C180.611 67.384 180.869 67.41 181.165 67.41C181.453 67.41 181.711 67.384 181.939 67.332C182.167 67.28 182.359 67.206 182.515 67.11C182.675 67.014 182.797 66.9 182.881 66.768C182.965 66.636 183.007 66.49 183.007 66.33ZM184.093 60.162V60.558C184.093 60.69 184.009 60.774 183.841 60.81L183.151 60.9C183.287 61.164 183.355 61.456 183.355 61.776C183.355 62.072 183.297 62.342 183.181 62.586C183.069 62.826 182.913 63.032 182.713 63.204C182.513 63.376 182.273 63.508 181.993 63.6C181.713 63.692 181.409 63.738 181.081 63.738C180.797 63.738 180.529 63.704 180.277 63.636C180.149 63.716 180.051 63.802 179.983 63.894C179.915 63.982 179.881 64.072 179.881 64.164C179.881 64.308 179.939 64.418 180.055 64.494C180.175 64.566 180.331 64.618 180.523 64.65C180.715 64.682 180.933 64.702 181.177 64.71C181.425 64.718 181.677 64.732 181.933 64.752C182.193 64.768 182.445 64.798 182.689 64.842C182.937 64.886 183.157 64.958 183.349 65.058C183.541 65.158 183.695 65.296 183.811 65.472C183.931 65.648 183.991 65.876 183.991 66.156C183.991 66.416 183.925 66.668 183.793 66.912C183.665 67.156 183.479 67.372 183.235 67.56C182.991 67.752 182.691 67.904 182.335 68.016C181.983 68.132 181.585 68.19 181.141 68.19C180.697 68.19 180.309 68.146 179.977 68.058C179.645 67.97 179.369 67.852 179.149 67.704C178.929 67.556 178.763 67.384 178.651 67.188C178.543 66.996 178.489 66.794 178.489 66.582C178.489 66.282 178.583 66.028 178.771 65.82C178.959 65.612 179.217 65.446 179.545 65.322C179.365 65.242 179.221 65.136 179.113 65.004C179.009 64.868 178.957 64.686 178.957 64.458C178.957 64.37 178.973 64.28 179.005 64.188C179.037 64.092 179.085 63.998 179.149 63.906C179.217 63.81 179.299 63.72 179.395 63.636C179.491 63.552 179.603 63.478 179.731 63.414C179.431 63.246 179.197 63.024 179.029 62.748C178.861 62.468 178.777 62.144 178.777 61.776C178.777 61.48 178.833 61.212 178.945 60.972C179.061 60.728 179.221 60.522 179.425 60.354C179.629 60.182 179.871 60.05 180.151 59.958C180.435 59.866 180.745 59.82 181.081 59.82C181.345 59.82 181.591 59.85 181.819 59.91C182.047 59.966 182.255 60.05 182.443 60.162H184.093ZM189.172 62.298C189.172 62.05 189.136 61.824 189.064 61.62C188.996 61.412 188.894 61.234 188.758 61.086C188.626 60.934 188.464 60.818 188.272 60.738C188.08 60.654 187.862 60.612 187.618 60.612C187.106 60.612 186.7 60.762 186.4 61.062C186.104 61.358 185.92 61.77 185.848 62.298H189.172ZM190.036 65.148C189.904 65.308 189.746 65.448 189.562 65.568C189.378 65.684 189.18 65.78 188.968 65.856C188.76 65.932 188.544 65.988 188.32 66.024C188.096 66.064 187.874 66.084 187.654 66.084C187.234 66.084 186.846 66.014 186.49 65.874C186.138 65.73 185.832 65.522 185.572 65.25C185.316 64.974 185.116 64.634 184.972 64.23C184.828 63.826 184.756 63.362 184.756 62.838C184.756 62.414 184.82 62.018 184.948 61.65C185.08 61.282 185.268 60.964 185.512 60.696C185.756 60.424 186.054 60.212 186.406 60.06C186.758 59.904 187.154 59.826 187.594 59.826C187.958 59.826 188.294 59.888 188.602 60.012C188.914 60.132 189.182 60.308 189.406 60.54C189.634 60.768 189.812 61.052 189.94 61.392C190.068 61.728 190.132 62.112 190.132 62.544C190.132 62.712 190.114 62.824 190.078 62.88C190.042 62.936 189.974 62.964 189.874 62.964H185.812C185.824 63.348 185.876 63.682 185.968 63.966C186.064 64.25 186.196 64.488 186.364 64.68C186.532 64.868 186.732 65.01 186.964 65.106C187.196 65.198 187.456 65.244 187.744 65.244C188.012 65.244 188.242 65.214 188.434 65.154C188.63 65.09 188.798 65.022 188.938 64.95C189.078 64.878 189.194 64.812 189.286 64.752C189.382 64.688 189.464 64.656 189.532 64.656C189.62 64.656 189.688 64.69 189.736 64.758L190.036 65.148ZM197.076 59.826C197.52 59.826 197.92 59.9 198.276 60.048C198.632 60.196 198.936 60.406 199.188 60.678C199.44 60.95 199.632 61.28 199.764 61.668C199.9 62.052 199.968 62.482 199.968 62.958C199.968 63.438 199.9 63.87 199.764 64.254C199.632 64.638 199.44 64.966 199.188 65.238C198.936 65.51 198.632 65.72 198.276 65.868C197.92 66.012 197.52 66.084 197.076 66.084C196.628 66.084 196.224 66.012 195.864 65.868C195.508 65.72 195.204 65.51 194.952 65.238C194.7 64.966 194.506 64.638 194.37 64.254C194.238 63.87 194.172 63.438 194.172 62.958C194.172 62.482 194.238 62.052 194.37 61.668C194.506 61.28 194.7 60.95 194.952 60.678C195.204 60.406 195.508 60.196 195.864 60.048C196.224 59.9 196.628 59.826 197.076 59.826ZM197.076 65.25C197.676 65.25 198.124 65.05 198.42 64.65C198.716 64.246 198.864 63.684 198.864 62.964C198.864 62.24 198.716 61.676 198.42 61.272C198.124 60.868 197.676 60.666 197.076 60.666C196.772 60.666 196.506 60.718 196.278 60.822C196.054 60.926 195.866 61.076 195.714 61.272C195.566 61.468 195.454 61.71 195.378 61.998C195.306 62.282 195.27 62.604 195.27 62.964C195.27 63.684 195.418 64.246 195.714 64.65C196.014 65.05 196.468 65.25 197.076 65.25ZM206.321 59.922V66H205.685C205.533 66 205.437 65.926 205.397 65.778L205.313 65.124C205.049 65.416 204.753 65.652 204.425 65.832C204.097 66.008 203.721 66.096 203.297 66.096C202.965 66.096 202.671 66.042 202.415 65.934C202.163 65.822 201.951 65.666 201.779 65.466C201.607 65.266 201.477 65.024 201.389 64.74C201.305 64.456 201.263 64.142 201.263 63.798V59.922H202.331V63.798C202.331 64.258 202.435 64.614 202.643 64.866C202.855 65.118 203.177 65.244 203.609 65.244C203.925 65.244 204.219 65.17 204.491 65.022C204.767 64.87 205.021 64.662 205.253 64.398V59.922H206.321ZM209.028 61.14C209.22 60.724 209.456 60.4 209.736 60.168C210.016 59.932 210.358 59.814 210.762 59.814C210.89 59.814 211.012 59.828 211.128 59.856C211.248 59.884 211.354 59.928 211.446 59.988L211.368 60.786C211.344 60.886 211.284 60.936 211.188 60.936C211.132 60.936 211.05 60.924 210.942 60.9C210.834 60.876 210.712 60.864 210.576 60.864C210.384 60.864 210.212 60.892 210.06 60.948C209.912 61.004 209.778 61.088 209.658 61.2C209.542 61.308 209.436 61.444 209.34 61.608C209.248 61.768 209.164 61.952 209.088 62.16V66H208.014V59.922H208.626C208.742 59.922 208.822 59.944 208.866 59.988C208.91 60.032 208.94 60.108 208.956 60.216L209.028 61.14ZM219.428 61.002C219.396 61.046 219.364 61.08 219.332 61.104C219.3 61.128 219.256 61.14 219.2 61.14C219.14 61.14 219.074 61.116 219.002 61.068C218.93 61.016 218.84 60.96 218.732 60.9C218.628 60.84 218.498 60.786 218.342 60.738C218.19 60.686 218.002 60.66 217.778 60.66C217.478 60.66 217.214 60.714 216.986 60.822C216.758 60.926 216.566 61.078 216.41 61.278C216.258 61.478 216.142 61.72 216.062 62.004C215.986 62.288 215.948 62.606 215.948 62.958C215.948 63.326 215.99 63.654 216.074 63.942C216.158 64.226 216.276 64.466 216.428 64.662C216.584 64.854 216.77 65.002 216.986 65.106C217.206 65.206 217.452 65.256 217.724 65.256C217.984 65.256 218.198 65.226 218.366 65.166C218.534 65.102 218.672 65.032 218.78 64.956C218.892 64.88 218.984 64.812 219.056 64.752C219.132 64.688 219.206 64.656 219.278 64.656C219.366 64.656 219.434 64.69 219.482 64.758L219.782 65.148C219.65 65.312 219.5 65.452 219.332 65.568C219.164 65.684 218.982 65.782 218.786 65.862C218.594 65.938 218.392 65.994 218.18 66.03C217.968 66.066 217.752 66.084 217.532 66.084C217.152 66.084 216.798 66.014 216.47 65.874C216.146 65.734 215.864 65.532 215.624 65.268C215.384 65 215.196 64.672 215.06 64.284C214.924 63.896 214.856 63.454 214.856 62.958C214.856 62.506 214.918 62.088 215.042 61.704C215.17 61.32 215.354 60.99 215.594 60.714C215.838 60.434 216.136 60.216 216.488 60.06C216.844 59.904 217.252 59.826 217.712 59.826C218.14 59.826 218.516 59.896 218.84 60.036C219.168 60.172 219.458 60.366 219.71 60.618L219.428 61.002ZM224.468 60.924C224.42 61.012 224.346 61.056 224.246 61.056C224.186 61.056 224.118 61.034 224.042 60.99C223.966 60.946 223.872 60.898 223.76 60.846C223.652 60.79 223.522 60.74 223.37 60.696C223.218 60.648 223.038 60.624 222.83 60.624C222.65 60.624 222.488 60.648 222.344 60.696C222.2 60.74 222.076 60.802 221.972 60.882C221.872 60.962 221.794 61.056 221.738 61.164C221.686 61.268 221.66 61.382 221.66 61.506C221.66 61.662 221.704 61.792 221.792 61.896C221.884 62 222.004 62.09 222.152 62.166C222.3 62.242 222.468 62.31 222.656 62.37C222.844 62.426 223.036 62.488 223.232 62.556C223.432 62.62 223.626 62.692 223.814 62.772C224.002 62.852 224.17 62.952 224.318 63.072C224.466 63.192 224.584 63.34 224.672 63.516C224.764 63.688 224.81 63.896 224.81 64.14C224.81 64.42 224.76 64.68 224.66 64.92C224.56 65.156 224.412 65.362 224.216 65.538C224.02 65.71 223.78 65.846 223.496 65.946C223.212 66.046 222.884 66.096 222.512 66.096C222.088 66.096 221.704 66.028 221.36 65.892C221.016 65.752 220.724 65.574 220.484 65.358L220.736 64.95C220.768 64.898 220.806 64.858 220.85 64.83C220.894 64.802 220.95 64.788 221.018 64.788C221.09 64.788 221.166 64.816 221.246 64.872C221.326 64.928 221.422 64.99 221.534 65.058C221.65 65.126 221.79 65.188 221.954 65.244C222.118 65.3 222.322 65.328 222.566 65.328C222.774 65.328 222.956 65.302 223.112 65.25C223.268 65.194 223.398 65.12 223.502 65.028C223.606 64.936 223.682 64.83 223.73 64.71C223.782 64.59 223.808 64.462 223.808 64.326C223.808 64.158 223.762 64.02 223.67 63.912C223.582 63.8 223.464 63.706 223.316 63.63C223.168 63.55 222.998 63.482 222.806 63.426C222.618 63.366 222.424 63.304 222.224 63.24C222.028 63.176 221.834 63.104 221.642 63.024C221.454 62.94 221.286 62.836 221.138 62.712C220.99 62.588 220.87 62.436 220.778 62.256C220.69 62.072 220.646 61.85 220.646 61.59C220.646 61.358 220.694 61.136 220.79 60.924C220.886 60.708 221.026 60.52 221.21 60.36C221.394 60.196 221.62 60.066 221.888 59.97C222.156 59.874 222.462 59.826 222.806 59.826C223.206 59.826 223.564 59.89 223.88 60.018C224.2 60.142 224.476 60.314 224.708 60.534L224.468 60.924ZM229.659 60.924C229.611 61.012 229.537 61.056 229.437 61.056C229.377 61.056 229.309 61.034 229.233 60.99C229.157 60.946 229.063 60.898 228.951 60.846C228.843 60.79 228.713 60.74 228.561 60.696C228.409 60.648 228.229 60.624 228.021 60.624C227.841 60.624 227.679 60.648 227.535 60.696C227.391 60.74 227.267 60.802 227.163 60.882C227.063 60.962 226.985 61.056 226.929 61.164C226.877 61.268 226.851 61.382 226.851 61.506C226.851 61.662 226.895 61.792 226.983 61.896C227.075 62 227.195 62.09 227.343 62.166C227.491 62.242 227.659 62.31 227.847 62.37C228.035 62.426 228.227 62.488 228.423 62.556C228.623 62.62 228.817 62.692 229.005 62.772C229.193 62.852 229.361 62.952 229.509 63.072C229.657 63.192 229.775 63.34 229.863 63.516C229.955 63.688 230.001 63.896 230.001 64.14C230.001 64.42 229.951 64.68 229.851 64.92C229.751 65.156 229.603 65.362 229.407 65.538C229.211 65.71 228.971 65.846 228.687 65.946C228.403 66.046 228.075 66.096 227.703 66.096C227.279 66.096 226.895 66.028 226.551 65.892C226.207 65.752 225.915 65.574 225.675 65.358L225.927 64.95C225.959 64.898 225.997 64.858 226.041 64.83C226.085 64.802 226.141 64.788 226.209 64.788C226.281 64.788 226.357 64.816 226.437 64.872C226.517 64.928 226.613 64.99 226.725 65.058C226.841 65.126 226.981 65.188 227.145 65.244C227.309 65.3 227.513 65.328 227.757 65.328C227.965 65.328 228.147 65.302 228.303 65.25C228.459 65.194 228.589 65.12 228.693 65.028C228.797 64.936 228.873 64.83 228.921 64.71C228.973 64.59 228.999 64.462 228.999 64.326C228.999 64.158 228.953 64.02 228.861 63.912C228.773 63.8 228.655 63.706 228.507 63.63C228.359 63.55 228.189 63.482 227.997 63.426C227.809 63.366 227.615 63.304 227.415 63.24C227.219 63.176 227.025 63.104 226.833 63.024C226.645 62.94 226.477 62.836 226.329 62.712C226.181 62.588 226.061 62.436 225.969 62.256C225.881 62.072 225.837 61.85 225.837 61.59C225.837 61.358 225.885 61.136 225.981 60.924C226.077 60.708 226.217 60.52 226.401 60.36C226.585 60.196 226.811 60.066 227.079 59.97C227.347 59.874 227.653 59.826 227.997 59.826C228.397 59.826 228.755 59.89 229.071 60.018C229.391 60.142 229.667 60.314 229.899 60.534L229.659 60.924ZM235.455 64.536C235.651 64.8 235.865 64.986 236.097 65.094C236.333 65.202 236.591 65.256 236.871 65.256C237.443 65.256 237.881 65.054 238.185 64.65C238.489 64.246 238.641 63.644 238.641 62.844C238.641 62.1 238.505 61.554 238.233 61.206C237.965 60.854 237.581 60.678 237.081 60.678C236.733 60.678 236.429 60.758 236.169 60.918C235.913 61.078 235.675 61.304 235.455 61.596V64.536ZM235.455 60.798C235.711 60.502 235.999 60.266 236.319 60.09C236.643 59.914 237.015 59.826 237.435 59.826C237.791 59.826 238.111 59.894 238.395 60.03C238.683 60.166 238.927 60.364 239.127 60.624C239.327 60.88 239.479 61.192 239.583 61.56C239.691 61.928 239.745 62.342 239.745 62.802C239.745 63.294 239.685 63.742 239.565 64.146C239.445 64.55 239.271 64.896 239.043 65.184C238.819 65.468 238.545 65.69 238.221 65.85C237.897 66.006 237.533 66.084 237.129 66.084C236.729 66.084 236.391 66.01 236.115 65.862C235.843 65.71 235.605 65.496 235.401 65.22L235.347 65.772C235.315 65.924 235.223 66 235.071 66H234.381V57.162H235.455V60.798ZM244.39 63.264C243.898 63.28 243.478 63.32 243.13 63.384C242.786 63.444 242.504 63.524 242.284 63.624C242.068 63.724 241.91 63.842 241.81 63.978C241.714 64.114 241.666 64.266 241.666 64.434C241.666 64.594 241.692 64.732 241.744 64.848C241.796 64.964 241.866 65.06 241.954 65.136C242.046 65.208 242.152 65.262 242.272 65.298C242.396 65.33 242.528 65.346 242.668 65.346C242.856 65.346 243.028 65.328 243.184 65.292C243.34 65.252 243.486 65.196 243.622 65.124C243.762 65.052 243.894 64.966 244.018 64.866C244.146 64.766 244.27 64.652 244.39 64.524V63.264ZM240.94 60.78C241.276 60.456 241.638 60.214 242.026 60.054C242.414 59.894 242.844 59.814 243.316 59.814C243.656 59.814 243.958 59.87 244.222 59.982C244.486 60.094 244.708 60.25 244.888 60.45C245.068 60.65 245.204 60.892 245.296 61.176C245.388 61.46 245.434 61.772 245.434 62.112V66H244.96C244.856 66 244.776 65.984 244.72 65.952C244.664 65.916 244.62 65.848 244.588 65.748L244.468 65.172C244.308 65.32 244.152 65.452 244 65.568C243.848 65.68 243.688 65.776 243.52 65.856C243.352 65.932 243.172 65.99 242.98 66.03C242.792 66.074 242.582 66.096 242.35 66.096C242.114 66.096 241.892 66.064 241.684 66C241.476 65.932 241.294 65.832 241.138 65.7C240.986 65.568 240.864 65.402 240.772 65.202C240.684 64.998 240.64 64.758 240.64 64.482C240.64 64.242 240.706 64.012 240.838 63.792C240.97 63.568 241.184 63.37 241.48 63.198C241.776 63.026 242.162 62.886 242.638 62.778C243.114 62.666 243.698 62.602 244.39 62.586V62.112C244.39 61.64 244.288 61.284 244.084 61.044C243.88 60.8 243.582 60.678 243.19 60.678C242.926 60.678 242.704 60.712 242.524 60.78C242.348 60.844 242.194 60.918 242.062 61.002C241.934 61.082 241.822 61.156 241.726 61.224C241.634 61.288 241.542 61.32 241.45 61.32C241.378 61.32 241.316 61.302 241.264 61.266C241.212 61.226 241.168 61.178 241.132 61.122L240.94 60.78ZM250.601 60.924C250.553 61.012 250.479 61.056 250.379 61.056C250.319 61.056 250.251 61.034 250.175 60.99C250.099 60.946 250.005 60.898 249.893 60.846C249.785 60.79 249.655 60.74 249.503 60.696C249.351 60.648 249.171 60.624 248.963 60.624C248.783 60.624 248.621 60.648 248.477 60.696C248.333 60.74 248.209 60.802 248.105 60.882C248.005 60.962 247.927 61.056 247.871 61.164C247.819 61.268 247.793 61.382 247.793 61.506C247.793 61.662 247.837 61.792 247.925 61.896C248.017 62 248.137 62.09 248.285 62.166C248.433 62.242 248.601 62.31 248.789 62.37C248.977 62.426 249.169 62.488 249.365 62.556C249.565 62.62 249.759 62.692 249.947 62.772C250.135 62.852 250.303 62.952 250.451 63.072C250.599 63.192 250.717 63.34 250.805 63.516C250.897 63.688 250.943 63.896 250.943 64.14C250.943 64.42 250.893 64.68 250.793 64.92C250.693 65.156 250.545 65.362 250.349 65.538C250.153 65.71 249.913 65.846 249.629 65.946C249.345 66.046 249.017 66.096 248.645 66.096C248.221 66.096 247.837 66.028 247.493 65.892C247.149 65.752 246.857 65.574 246.617 65.358L246.869 64.95C246.901 64.898 246.939 64.858 246.983 64.83C247.027 64.802 247.083 64.788 247.151 64.788C247.223 64.788 247.299 64.816 247.379 64.872C247.459 64.928 247.555 64.99 247.667 65.058C247.783 65.126 247.923 65.188 248.087 65.244C248.251 65.3 248.455 65.328 248.699 65.328C248.907 65.328 249.089 65.302 249.245 65.25C249.401 65.194 249.531 65.12 249.635 65.028C249.739 64.936 249.815 64.83 249.863 64.71C249.915 64.59 249.941 64.462 249.941 64.326C249.941 64.158 249.895 64.02 249.803 63.912C249.715 63.8 249.597 63.706 249.449 63.63C249.301 63.55 249.131 63.482 248.939 63.426C248.751 63.366 248.557 63.304 248.357 63.24C248.161 63.176 247.967 63.104 247.775 63.024C247.587 62.94 247.419 62.836 247.271 62.712C247.123 62.588 247.003 62.436 246.911 62.256C246.823 62.072 246.779 61.85 246.779 61.59C246.779 61.358 246.827 61.136 246.923 60.924C247.019 60.708 247.159 60.52 247.343 60.36C247.527 60.196 247.753 60.066 248.021 59.97C248.289 59.874 248.595 59.826 248.939 59.826C249.339 59.826 249.697 59.89 250.013 60.018C250.333 60.142 250.609 60.314 250.841 60.534L250.601 60.924ZM256.32 62.298C256.32 62.05 256.284 61.824 256.212 61.62C256.144 61.412 256.042 61.234 255.906 61.086C255.774 60.934 255.612 60.818 255.42 60.738C255.228 60.654 255.01 60.612 254.766 60.612C254.254 60.612 253.848 60.762 253.548 61.062C253.252 61.358 253.068 61.77 252.996 62.298H256.32ZM257.184 65.148C257.052 65.308 256.894 65.448 256.71 65.568C256.526 65.684 256.328 65.78 256.116 65.856C255.908 65.932 255.692 65.988 255.468 66.024C255.244 66.064 255.022 66.084 254.802 66.084C254.382 66.084 253.994 66.014 253.638 65.874C253.286 65.73 252.98 65.522 252.72 65.25C252.464 64.974 252.264 64.634 252.12 64.23C251.976 63.826 251.904 63.362 251.904 62.838C251.904 62.414 251.968 62.018 252.096 61.65C252.228 61.282 252.416 60.964 252.66 60.696C252.904 60.424 253.202 60.212 253.554 60.06C253.906 59.904 254.302 59.826 254.742 59.826C255.106 59.826 255.442 59.888 255.75 60.012C256.062 60.132 256.33 60.308 256.554 60.54C256.782 60.768 256.96 61.052 257.088 61.392C257.216 61.728 257.28 62.112 257.28 62.544C257.28 62.712 257.262 62.824 257.226 62.88C257.19 62.936 257.122 62.964 257.022 62.964H252.96C252.972 63.348 253.024 63.682 253.116 63.966C253.212 64.25 253.344 64.488 253.512 64.68C253.68 64.868 253.88 65.01 254.112 65.106C254.344 65.198 254.604 65.244 254.892 65.244C255.16 65.244 255.39 65.214 255.582 65.154C255.778 65.09 255.946 65.022 256.086 64.95C256.226 64.878 256.342 64.812 256.434 64.752C256.53 64.688 256.612 64.656 256.68 64.656C256.768 64.656 256.836 64.69 256.884 64.758L257.184 65.148ZM262.058 66V60.834L261.386 60.756C261.302 60.736 261.232 60.706 261.176 60.666C261.124 60.622 261.098 60.56 261.098 60.48V60.042H262.058V59.454C262.058 59.106 262.106 58.798 262.202 58.53C262.302 58.258 262.442 58.03 262.622 57.846C262.806 57.658 263.026 57.516 263.282 57.42C263.538 57.324 263.826 57.276 264.146 57.276C264.418 57.276 264.668 57.316 264.896 57.396L264.872 57.93C264.864 58.026 264.81 58.078 264.71 58.086C264.614 58.094 264.484 58.098 264.32 58.098C264.136 58.098 263.968 58.122 263.816 58.17C263.668 58.218 263.54 58.296 263.432 58.404C263.324 58.512 263.24 58.654 263.18 58.83C263.124 59.006 263.096 59.224 263.096 59.484V60.042H264.848V60.816H263.132V66H262.058ZM266.883 61.14C267.075 60.724 267.311 60.4 267.591 60.168C267.871 59.932 268.213 59.814 268.617 59.814C268.745 59.814 268.867 59.828 268.983 59.856C269.103 59.884 269.209 59.928 269.301 59.988L269.223 60.786C269.199 60.886 269.139 60.936 269.043 60.936C268.987 60.936 268.905 60.924 268.797 60.9C268.689 60.876 268.567 60.864 268.431 60.864C268.239 60.864 268.067 60.892 267.915 60.948C267.767 61.004 267.633 61.088 267.513 61.2C267.397 61.308 267.291 61.444 267.195 61.608C267.103 61.768 267.019 61.952 266.943 62.16V66H265.869V59.922H266.481C266.597 59.922 266.677 59.944 266.721 59.988C266.765 60.032 266.795 60.108 266.811 60.216L266.883 61.14ZM272.556 59.826C273 59.826 273.4 59.9 273.756 60.048C274.112 60.196 274.416 60.406 274.668 60.678C274.92 60.95 275.112 61.28 275.244 61.668C275.38 62.052 275.448 62.482 275.448 62.958C275.448 63.438 275.38 63.87 275.244 64.254C275.112 64.638 274.92 64.966 274.668 65.238C274.416 65.51 274.112 65.72 273.756 65.868C273.4 66.012 273 66.084 272.556 66.084C272.108 66.084 271.704 66.012 271.344 65.868C270.988 65.72 270.684 65.51 270.432 65.238C270.18 64.966 269.986 64.638 269.85 64.254C269.718 63.87 269.652 63.438 269.652 62.958C269.652 62.482 269.718 62.052 269.85 61.668C269.986 61.28 270.18 60.95 270.432 60.678C270.684 60.406 270.988 60.196 271.344 60.048C271.704 59.9 272.108 59.826 272.556 59.826ZM272.556 65.25C273.156 65.25 273.604 65.05 273.9 64.65C274.196 64.246 274.344 63.684 274.344 62.964C274.344 62.24 274.196 61.676 273.9 61.272C273.604 60.868 273.156 60.666 272.556 60.666C272.252 60.666 271.986 60.718 271.758 60.822C271.534 60.926 271.346 61.076 271.194 61.272C271.046 61.468 270.934 61.71 270.858 61.998C270.786 62.282 270.75 62.604 270.75 62.964C270.75 63.684 270.898 64.246 271.194 64.65C271.494 65.05 271.948 65.25 272.556 65.25ZM276.803 66V59.922H277.445C277.597 59.922 277.691 59.996 277.727 60.144L277.805 60.768C278.029 60.492 278.281 60.266 278.561 60.09C278.841 59.914 279.165 59.826 279.533 59.826C279.941 59.826 280.271 59.94 280.523 60.168C280.779 60.396 280.963 60.704 281.075 61.092C281.163 60.872 281.275 60.682 281.411 60.522C281.551 60.362 281.707 60.23 281.879 60.126C282.051 60.022 282.233 59.946 282.425 59.898C282.621 59.85 282.819 59.826 283.019 59.826C283.339 59.826 283.623 59.878 283.871 59.982C284.123 60.082 284.335 60.23 284.507 60.426C284.683 60.622 284.817 60.864 284.909 61.152C285.001 61.436 285.047 61.762 285.047 62.13V66H283.973V62.13C283.973 61.654 283.869 61.294 283.661 61.05C283.453 60.802 283.153 60.678 282.761 60.678C282.585 60.678 282.417 60.71 282.257 60.774C282.101 60.834 281.963 60.924 281.843 61.044C281.723 61.164 281.627 61.316 281.555 61.5C281.487 61.68 281.453 61.89 281.453 62.13V66H280.379V62.13C280.379 61.642 280.281 61.278 280.085 61.038C279.889 60.798 279.603 60.678 279.227 60.678C278.963 60.678 278.719 60.75 278.495 60.894C278.271 61.034 278.065 61.226 277.877 61.47V66H276.803ZM291.607 66.096C291.127 66.096 290.757 65.962 290.497 65.694C290.241 65.426 290.113 65.04 290.113 64.536V60.816H289.381C289.317 60.816 289.263 60.798 289.219 60.762C289.175 60.722 289.153 60.662 289.153 60.582V60.156L290.149 60.03L290.395 58.152C290.407 58.092 290.433 58.044 290.473 58.008C290.517 57.968 290.573 57.948 290.641 57.948H291.181V60.042H292.939V60.816H291.181V64.464C291.181 64.72 291.243 64.91 291.367 65.034C291.491 65.158 291.651 65.22 291.847 65.22C291.959 65.22 292.055 65.206 292.135 65.178C292.219 65.146 292.291 65.112 292.351 65.076C292.411 65.04 292.461 65.008 292.501 64.98C292.545 64.948 292.583 64.932 292.615 64.932C292.671 64.932 292.721 64.966 292.765 65.034L293.077 65.544C292.893 65.716 292.671 65.852 292.411 65.952C292.151 66.048 291.883 66.096 291.607 66.096ZM297.335 63.264C296.843 63.28 296.423 63.32 296.075 63.384C295.731 63.444 295.449 63.524 295.229 63.624C295.013 63.724 294.855 63.842 294.755 63.978C294.659 64.114 294.611 64.266 294.611 64.434C294.611 64.594 294.637 64.732 294.689 64.848C294.741 64.964 294.811 65.06 294.899 65.136C294.991 65.208 295.097 65.262 295.217 65.298C295.341 65.33 295.473 65.346 295.613 65.346C295.801 65.346 295.973 65.328 296.129 65.292C296.285 65.252 296.431 65.196 296.567 65.124C296.707 65.052 296.839 64.966 296.963 64.866C297.091 64.766 297.215 64.652 297.335 64.524V63.264ZM293.885 60.78C294.221 60.456 294.583 60.214 294.971 60.054C295.359 59.894 295.789 59.814 296.261 59.814C296.601 59.814 296.903 59.87 297.167 59.982C297.431 60.094 297.653 60.25 297.833 60.45C298.013 60.65 298.149 60.892 298.241 61.176C298.333 61.46 298.379 61.772 298.379 62.112V66H297.905C297.801 66 297.721 65.984 297.665 65.952C297.609 65.916 297.565 65.848 297.533 65.748L297.413 65.172C297.253 65.32 297.097 65.452 296.945 65.568C296.793 65.68 296.633 65.776 296.465 65.856C296.297 65.932 296.117 65.99 295.925 66.03C295.737 66.074 295.527 66.096 295.295 66.096C295.059 66.096 294.837 66.064 294.629 66C294.421 65.932 294.239 65.832 294.083 65.7C293.931 65.568 293.809 65.402 293.717 65.202C293.629 64.998 293.585 64.758 293.585 64.482C293.585 64.242 293.651 64.012 293.783 63.792C293.915 63.568 294.129 63.37 294.425 63.198C294.721 63.026 295.107 62.886 295.583 62.778C296.059 62.666 296.643 62.602 297.335 62.586V62.112C297.335 61.64 297.233 61.284 297.029 61.044C296.825 60.8 296.527 60.678 296.135 60.678C295.871 60.678 295.649 60.712 295.469 60.78C295.293 60.844 295.139 60.918 295.007 61.002C294.879 61.082 294.767 61.156 294.671 61.224C294.579 61.288 294.487 61.32 294.395 61.32C294.323 61.32 294.261 61.302 294.209 61.266C294.157 61.226 294.113 61.178 294.077 61.122L293.885 60.78ZM301.134 59.922V66H300.066V59.922H301.134ZM301.362 58.014C301.362 58.118 301.34 58.216 301.296 58.308C301.256 58.396 301.2 58.476 301.128 58.548C301.06 58.616 300.978 58.67 300.882 58.71C300.79 58.75 300.692 58.77 300.588 58.77C300.484 58.77 300.386 58.75 300.294 58.71C300.206 58.67 300.128 58.616 300.06 58.548C299.992 58.476 299.938 58.396 299.898 58.308C299.858 58.216 299.838 58.118 299.838 58.014C299.838 57.91 299.858 57.812 299.898 57.72C299.938 57.624 299.992 57.542 300.06 57.474C300.128 57.402 300.206 57.346 300.294 57.306C300.386 57.266 300.484 57.246 300.588 57.246C300.692 57.246 300.79 57.266 300.882 57.306C300.978 57.346 301.06 57.402 301.128 57.474C301.2 57.542 301.256 57.624 301.296 57.72C301.34 57.812 301.362 57.91 301.362 58.014ZM303.993 57.162V66H302.925V57.162H303.993ZM314.107 59.922L312.139 66H311.293C311.189 66 311.117 65.932 311.077 65.796L309.733 61.674C309.701 61.582 309.675 61.49 309.655 61.398C309.635 61.302 309.615 61.208 309.595 61.116C309.575 61.208 309.555 61.302 309.535 61.398C309.515 61.49 309.489 61.584 309.457 61.68L308.089 65.796C308.053 65.932 307.973 66 307.849 66H307.045L305.077 59.922H305.917C306.001 59.922 306.071 59.944 306.127 59.988C306.187 60.032 306.227 60.084 306.247 60.144L307.411 64.056C307.479 64.344 307.533 64.616 307.573 64.872C307.609 64.74 307.645 64.606 307.681 64.47C307.721 64.334 307.763 64.196 307.807 64.056L309.091 60.12C309.111 60.06 309.145 60.01 309.193 59.97C309.245 59.93 309.307 59.91 309.379 59.91H309.847C309.927 59.91 309.993 59.93 310.045 59.97C310.097 60.01 310.133 60.06 310.153 60.12L311.407 64.056C311.451 64.196 311.491 64.334 311.527 64.47C311.563 64.606 311.597 64.74 311.629 64.872C311.649 64.74 311.673 64.608 311.701 64.476C311.733 64.34 311.767 64.2 311.803 64.056L312.991 60.144C313.011 60.08 313.049 60.028 313.105 59.988C313.161 59.944 313.227 59.922 313.303 59.922H314.107ZM316.275 59.922V66H315.207V59.922H316.275ZM316.503 58.014C316.503 58.118 316.481 58.216 316.437 58.308C316.397 58.396 316.341 58.476 316.269 58.548C316.201 58.616 316.119 58.67 316.023 58.71C315.931 58.75 315.833 58.77 315.729 58.77C315.625 58.77 315.527 58.75 315.435 58.71C315.347 58.67 315.269 58.616 315.201 58.548C315.133 58.476 315.079 58.396 315.039 58.308C314.999 58.216 314.979 58.118 314.979 58.014C314.979 57.91 314.999 57.812 315.039 57.72C315.079 57.624 315.133 57.542 315.201 57.474C315.269 57.402 315.347 57.346 315.435 57.306C315.527 57.266 315.625 57.246 315.729 57.246C315.833 57.246 315.931 57.266 316.023 57.306C316.119 57.346 316.201 57.402 316.269 57.474C316.341 57.542 316.397 57.624 316.437 57.72C316.481 57.812 316.503 57.91 316.503 58.014ZM319.038 60.804C319.17 60.656 319.31 60.522 319.458 60.402C319.606 60.282 319.762 60.18 319.926 60.096C320.094 60.008 320.27 59.942 320.454 59.898C320.642 59.85 320.844 59.826 321.06 59.826C321.392 59.826 321.684 59.882 321.936 59.994C322.192 60.102 322.404 60.258 322.572 60.462C322.744 60.662 322.874 60.904 322.962 61.188C323.05 61.472 323.094 61.786 323.094 62.13V66H322.02V62.13C322.02 61.67 321.914 61.314 321.702 61.062C321.494 60.806 321.176 60.678 320.748 60.678C320.432 60.678 320.136 60.754 319.86 60.906C319.588 61.058 319.336 61.264 319.104 61.524V66H318.03V59.922H318.672C318.824 59.922 318.918 59.996 318.954 60.144L319.038 60.804ZM328.681 61.368C328.481 61.1 328.265 60.914 328.033 60.81C327.801 60.702 327.541 60.648 327.253 60.648C326.689 60.648 326.255 60.85 325.951 61.254C325.647 61.658 325.495 62.234 325.495 62.982C325.495 63.378 325.529 63.718 325.597 64.002C325.665 64.282 325.765 64.514 325.897 64.698C326.029 64.878 326.191 65.01 326.383 65.094C326.575 65.178 326.793 65.22 327.037 65.22C327.389 65.22 327.695 65.14 327.955 64.98C328.219 64.82 328.461 64.594 328.681 64.302V61.368ZM329.749 57.162V66H329.113C328.961 66 328.865 65.926 328.825 65.778L328.729 65.04C328.469 65.352 328.173 65.604 327.841 65.796C327.509 65.988 327.125 66.084 326.689 66.084C326.341 66.084 326.025 66.018 325.741 65.886C325.457 65.75 325.215 65.552 325.015 65.292C324.815 65.032 324.661 64.708 324.553 64.32C324.445 63.932 324.391 63.486 324.391 62.982C324.391 62.534 324.451 62.118 324.571 61.734C324.691 61.346 324.863 61.01 325.087 60.726C325.311 60.442 325.585 60.22 325.909 60.06C326.237 59.896 326.605 59.814 327.013 59.814C327.385 59.814 327.703 59.878 327.967 60.006C328.235 60.13 328.473 60.304 328.681 60.528V57.162H329.749ZM336.372 66.096C335.892 66.096 335.522 65.962 335.262 65.694C335.006 65.426 334.878 65.04 334.878 64.536V60.816H334.146C334.082 60.816 334.028 60.798 333.984 60.762C333.94 60.722 333.918 60.662 333.918 60.582V60.156L334.914 60.03L335.16 58.152C335.172 58.092 335.198 58.044 335.238 58.008C335.282 57.968 335.338 57.948 335.406 57.948H335.946V60.042H337.704V60.816H335.946V64.464C335.946 64.72 336.008 64.91 336.132 65.034C336.256 65.158 336.416 65.22 336.612 65.22C336.724 65.22 336.82 65.206 336.9 65.178C336.984 65.146 337.056 65.112 337.116 65.076C337.176 65.04 337.226 65.008 337.266 64.98C337.31 64.948 337.348 64.932 337.38 64.932C337.436 64.932 337.486 64.966 337.53 65.034L337.842 65.544C337.658 65.716 337.436 65.852 337.176 65.952C336.916 66.048 336.648 66.096 336.372 66.096ZM341.334 59.826C341.778 59.826 342.178 59.9 342.534 60.048C342.89 60.196 343.194 60.406 343.446 60.678C343.698 60.95 343.89 61.28 344.022 61.668C344.158 62.052 344.226 62.482 344.226 62.958C344.226 63.438 344.158 63.87 344.022 64.254C343.89 64.638 343.698 64.966 343.446 65.238C343.194 65.51 342.89 65.72 342.534 65.868C342.178 66.012 341.778 66.084 341.334 66.084C340.886 66.084 340.482 66.012 340.122 65.868C339.766 65.72 339.462 65.51 339.21 65.238C338.958 64.966 338.764 64.638 338.628 64.254C338.496 63.87 338.43 63.438 338.43 62.958C338.43 62.482 338.496 62.052 338.628 61.668C338.764 61.28 338.958 60.95 339.21 60.678C339.462 60.406 339.766 60.196 340.122 60.048C340.482 59.9 340.886 59.826 341.334 59.826ZM341.334 65.25C341.934 65.25 342.382 65.05 342.678 64.65C342.974 64.246 343.122 63.684 343.122 62.964C343.122 62.24 342.974 61.676 342.678 61.272C342.382 60.868 341.934 60.666 341.334 60.666C341.03 60.666 340.764 60.718 340.536 60.822C340.312 60.926 340.124 61.076 339.972 61.272C339.824 61.468 339.712 61.71 339.636 61.998C339.564 62.282 339.528 62.604 339.528 62.964C339.528 63.684 339.676 64.246 339.972 64.65C340.272 65.05 340.726 65.25 341.334 65.25ZM352.191 60.924C352.143 61.012 352.069 61.056 351.969 61.056C351.909 61.056 351.841 61.034 351.765 60.99C351.689 60.946 351.595 60.898 351.483 60.846C351.375 60.79 351.245 60.74 351.093 60.696C350.941 60.648 350.761 60.624 350.553 60.624C350.373 60.624 350.211 60.648 350.067 60.696C349.923 60.74 349.799 60.802 349.695 60.882C349.595 60.962 349.517 61.056 349.461 61.164C349.409 61.268 349.383 61.382 349.383 61.506C349.383 61.662 349.427 61.792 349.515 61.896C349.607 62 349.727 62.09 349.875 62.166C350.023 62.242 350.191 62.31 350.379 62.37C350.567 62.426 350.759 62.488 350.955 62.556C351.155 62.62 351.349 62.692 351.537 62.772C351.725 62.852 351.893 62.952 352.041 63.072C352.189 63.192 352.307 63.34 352.395 63.516C352.487 63.688 352.533 63.896 352.533 64.14C352.533 64.42 352.483 64.68 352.383 64.92C352.283 65.156 352.135 65.362 351.939 65.538C351.743 65.71 351.503 65.846 351.219 65.946C350.935 66.046 350.607 66.096 350.235 66.096C349.811 66.096 349.427 66.028 349.083 65.892C348.739 65.752 348.447 65.574 348.207 65.358L348.459 64.95C348.491 64.898 348.529 64.858 348.573 64.83C348.617 64.802 348.673 64.788 348.741 64.788C348.813 64.788 348.889 64.816 348.969 64.872C349.049 64.928 349.145 64.99 349.257 65.058C349.373 65.126 349.513 65.188 349.677 65.244C349.841 65.3 350.045 65.328 350.289 65.328C350.497 65.328 350.679 65.302 350.835 65.25C350.991 65.194 351.121 65.12 351.225 65.028C351.329 64.936 351.405 64.83 351.453 64.71C351.505 64.59 351.531 64.462 351.531 64.326C351.531 64.158 351.485 64.02 351.393 63.912C351.305 63.8 351.187 63.706 351.039 63.63C350.891 63.55 350.721 63.482 350.529 63.426C350.341 63.366 350.147 63.304 349.947 63.24C349.751 63.176 349.557 63.104 349.365 63.024C349.177 62.94 349.009 62.836 348.861 62.712C348.713 62.588 348.593 62.436 348.501 62.256C348.413 62.072 348.369 61.85 348.369 61.59C348.369 61.358 348.417 61.136 348.513 60.924C348.609 60.708 348.749 60.52 348.933 60.36C349.117 60.196 349.343 60.066 349.611 59.97C349.879 59.874 350.185 59.826 350.529 59.826C350.929 59.826 351.287 59.89 351.603 60.018C351.923 60.142 352.199 60.314 352.431 60.534L352.191 60.924ZM355.708 66.096C355.228 66.096 354.858 65.962 354.598 65.694C354.342 65.426 354.214 65.04 354.214 64.536V60.816H353.482C353.418 60.816 353.364 60.798 353.32 60.762C353.276 60.722 353.254 60.662 353.254 60.582V60.156L354.25 60.03L354.496 58.152C354.508 58.092 354.534 58.044 354.574 58.008C354.618 57.968 354.674 57.948 354.742 57.948H355.282V60.042H357.04V60.816H355.282V64.464C355.282 64.72 355.344 64.91 355.468 65.034C355.592 65.158 355.752 65.22 355.948 65.22C356.06 65.22 356.156 65.206 356.236 65.178C356.32 65.146 356.392 65.112 356.452 65.076C356.512 65.04 356.562 65.008 356.602 64.98C356.646 64.948 356.684 64.932 356.716 64.932C356.772 64.932 356.822 64.966 356.866 65.034L357.178 65.544C356.994 65.716 356.772 65.852 356.512 65.952C356.252 66.048 355.984 66.096 355.708 66.096ZM363.387 59.922L359.997 67.794C359.961 67.874 359.915 67.938 359.859 67.986C359.807 68.034 359.725 68.058 359.613 68.058H358.821L359.931 65.646L357.423 59.922H358.347C358.439 59.922 358.511 59.946 358.563 59.994C358.619 60.038 358.657 60.088 358.677 60.144L360.303 63.972C360.367 64.14 360.421 64.316 360.465 64.5C360.521 64.312 360.581 64.134 360.645 63.966L362.223 60.144C362.247 60.08 362.287 60.028 362.343 59.988C362.403 59.944 362.469 59.922 362.541 59.922H363.387ZM365.434 57.162V66H364.366V57.162H365.434ZM371.234 62.298C371.234 62.05 371.198 61.824 371.126 61.62C371.058 61.412 370.956 61.234 370.82 61.086C370.688 60.934 370.526 60.818 370.334 60.738C370.142 60.654 369.924 60.612 369.68 60.612C369.168 60.612 368.762 60.762 368.462 61.062C368.166 61.358 367.982 61.77 367.91 62.298H371.234ZM372.098 65.148C371.966 65.308 371.808 65.448 371.624 65.568C371.44 65.684 371.242 65.78 371.03 65.856C370.822 65.932 370.606 65.988 370.382 66.024C370.158 66.064 369.936 66.084 369.716 66.084C369.296 66.084 368.908 66.014 368.552 65.874C368.2 65.73 367.894 65.522 367.634 65.25C367.378 64.974 367.178 64.634 367.034 64.23C366.89 63.826 366.818 63.362 366.818 62.838C366.818 62.414 366.882 62.018 367.01 61.65C367.142 61.282 367.33 60.964 367.574 60.696C367.818 60.424 368.116 60.212 368.468 60.06C368.82 59.904 369.216 59.826 369.656 59.826C370.02 59.826 370.356 59.888 370.664 60.012C370.976 60.132 371.244 60.308 371.468 60.54C371.696 60.768 371.874 61.052 372.002 61.392C372.13 61.728 372.194 62.112 372.194 62.544C372.194 62.712 372.176 62.824 372.14 62.88C372.104 62.936 372.036 62.964 371.936 62.964H367.874C367.886 63.348 367.938 63.682 368.03 63.966C368.126 64.25 368.258 64.488 368.426 64.68C368.594 64.868 368.794 65.01 369.026 65.106C369.258 65.198 369.518 65.244 369.806 65.244C370.074 65.244 370.304 65.214 370.496 65.154C370.692 65.09 370.86 65.022 371 64.95C371.14 64.878 371.256 64.812 371.348 64.752C371.444 64.688 371.526 64.656 371.594 64.656C371.682 64.656 371.75 64.69 371.798 64.758L372.098 65.148ZM377.466 61.368C377.266 61.1 377.05 60.914 376.818 60.81C376.586 60.702 376.326 60.648 376.038 60.648C375.474 60.648 375.04 60.85 374.736 61.254C374.432 61.658 374.28 62.234 374.28 62.982C374.28 63.378 374.314 63.718 374.382 64.002C374.45 64.282 374.55 64.514 374.682 64.698C374.814 64.878 374.976 65.01 375.168 65.094C375.36 65.178 375.578 65.22 375.822 65.22C376.174 65.22 376.48 65.14 376.74 64.98C377.004 64.82 377.246 64.594 377.466 64.302V61.368ZM378.534 57.162V66H377.898C377.746 66 377.65 65.926 377.61 65.778L377.514 65.04C377.254 65.352 376.958 65.604 376.626 65.796C376.294 65.988 375.91 66.084 375.474 66.084C375.126 66.084 374.81 66.018 374.526 65.886C374.242 65.75 374 65.552 373.8 65.292C373.6 65.032 373.446 64.708 373.338 64.32C373.23 63.932 373.176 63.486 373.176 62.982C373.176 62.534 373.236 62.118 373.356 61.734C373.476 61.346 373.648 61.01 373.872 60.726C374.096 60.442 374.37 60.22 374.694 60.06C375.022 59.896 375.39 59.814 375.798 59.814C376.17 59.814 376.488 59.878 376.752 60.006C377.02 60.13 377.258 60.304 377.466 60.528V57.162H378.534ZM387.521 61.002C387.489 61.046 387.457 61.08 387.425 61.104C387.393 61.128 387.349 61.14 387.293 61.14C387.233 61.14 387.167 61.116 387.095 61.068C387.023 61.016 386.933 60.96 386.825 60.9C386.721 60.84 386.591 60.786 386.435 60.738C386.283 60.686 386.095 60.66 385.871 60.66C385.571 60.66 385.307 60.714 385.079 60.822C384.851 60.926 384.659 61.078 384.503 61.278C384.351 61.478 384.235 61.72 384.155 62.004C384.079 62.288 384.041 62.606 384.041 62.958C384.041 63.326 384.083 63.654 384.167 63.942C384.251 64.226 384.369 64.466 384.521 64.662C384.677 64.854 384.863 65.002 385.079 65.106C385.299 65.206 385.545 65.256 385.817 65.256C386.077 65.256 386.291 65.226 386.459 65.166C386.627 65.102 386.765 65.032 386.873 64.956C386.985 64.88 387.077 64.812 387.149 64.752C387.225 64.688 387.299 64.656 387.371 64.656C387.459 64.656 387.527 64.69 387.575 64.758L387.875 65.148C387.743 65.312 387.593 65.452 387.425 65.568C387.257 65.684 387.075 65.782 386.879 65.862C386.687 65.938 386.485 65.994 386.273 66.03C386.061 66.066 385.845 66.084 385.625 66.084C385.245 66.084 384.891 66.014 384.563 65.874C384.239 65.734 383.957 65.532 383.717 65.268C383.477 65 383.289 64.672 383.153 64.284C383.017 63.896 382.949 63.454 382.949 62.958C382.949 62.506 383.011 62.088 383.135 61.704C383.263 61.32 383.447 60.99 383.687 60.714C383.931 60.434 384.229 60.216 384.581 60.06C384.937 59.904 385.345 59.826 385.805 59.826C386.233 59.826 386.609 59.896 386.933 60.036C387.261 60.172 387.551 60.366 387.803 60.618L387.521 61.002ZM391.478 59.826C391.922 59.826 392.322 59.9 392.678 60.048C393.034 60.196 393.338 60.406 393.59 60.678C393.842 60.95 394.034 61.28 394.166 61.668C394.302 62.052 394.37 62.482 394.37 62.958C394.37 63.438 394.302 63.87 394.166 64.254C394.034 64.638 393.842 64.966 393.59 65.238C393.338 65.51 393.034 65.72 392.678 65.868C392.322 66.012 391.922 66.084 391.478 66.084C391.03 66.084 390.626 66.012 390.266 65.868C389.91 65.72 389.606 65.51 389.354 65.238C389.102 64.966 388.908 64.638 388.772 64.254C388.64 63.87 388.574 63.438 388.574 62.958C388.574 62.482 388.64 62.052 388.772 61.668C388.908 61.28 389.102 60.95 389.354 60.678C389.606 60.406 389.91 60.196 390.266 60.048C390.626 59.9 391.03 59.826 391.478 59.826ZM391.478 65.25C392.078 65.25 392.526 65.05 392.822 64.65C393.118 64.246 393.266 63.684 393.266 62.964C393.266 62.24 393.118 61.676 392.822 61.272C392.526 60.868 392.078 60.666 391.478 60.666C391.174 60.666 390.908 60.718 390.68 60.822C390.456 60.926 390.268 61.076 390.116 61.272C389.968 61.468 389.856 61.71 389.78 61.998C389.708 62.282 389.672 62.604 389.672 62.964C389.672 63.684 389.82 64.246 390.116 64.65C390.416 65.05 390.87 65.25 391.478 65.25ZM395.725 66V59.922H396.367C396.519 59.922 396.613 59.996 396.649 60.144L396.727 60.768C396.951 60.492 397.203 60.266 397.483 60.09C397.763 59.914 398.087 59.826 398.455 59.826C398.863 59.826 399.193 59.94 399.445 60.168C399.701 60.396 399.885 60.704 399.997 61.092C400.085 60.872 400.197 60.682 400.333 60.522C400.473 60.362 400.629 60.23 400.801 60.126C400.973 60.022 401.155 59.946 401.347 59.898C401.543 59.85 401.741 59.826 401.941 59.826C402.261 59.826 402.545 59.878 402.793 59.982C403.045 60.082 403.257 60.23 403.429 60.426C403.605 60.622 403.739 60.864 403.831 61.152C403.923 61.436 403.969 61.762 403.969 62.13V66H402.895V62.13C402.895 61.654 402.791 61.294 402.583 61.05C402.375 60.802 402.075 60.678 401.683 60.678C401.507 60.678 401.339 60.71 401.179 60.774C401.023 60.834 400.885 60.924 400.765 61.044C400.645 61.164 400.549 61.316 400.477 61.5C400.409 61.68 400.375 61.89 400.375 62.13V66H399.301V62.13C399.301 61.642 399.203 61.278 399.007 61.038C398.811 60.798 398.525 60.678 398.149 60.678C397.885 60.678 397.641 60.75 397.417 60.894C397.193 61.034 396.987 61.226 396.799 61.47V66H395.725ZM406.666 64.536C406.862 64.8 407.076 64.986 407.308 65.094C407.54 65.202 407.8 65.256 408.088 65.256C408.656 65.256 409.092 65.054 409.396 64.65C409.7 64.246 409.852 63.67 409.852 62.922C409.852 62.526 409.816 62.186 409.744 61.902C409.676 61.618 409.576 61.386 409.444 61.206C409.312 61.022 409.15 60.888 408.958 60.804C408.766 60.72 408.548 60.678 408.304 60.678C407.956 60.678 407.65 60.758 407.386 60.918C407.126 61.078 406.886 61.304 406.666 61.596V64.536ZM406.612 60.864C406.868 60.548 407.164 60.294 407.5 60.102C407.836 59.91 408.22 59.814 408.652 59.814C409.004 59.814 409.322 59.882 409.606 60.018C409.89 60.15 410.132 60.348 410.332 60.612C410.532 60.872 410.686 61.196 410.794 61.584C410.902 61.972 410.956 62.418 410.956 62.922C410.956 63.37 410.896 63.788 410.776 64.176C410.656 64.56 410.482 64.894 410.254 65.178C410.03 65.458 409.754 65.68 409.426 65.844C409.102 66.004 408.736 66.084 408.328 66.084C407.956 66.084 407.636 66.022 407.368 65.898C407.104 65.77 406.87 65.594 406.666 65.37V68.058H405.592V59.922H406.234C406.386 59.922 406.48 59.996 406.516 60.144L406.612 60.864ZM414.881 59.826C415.325 59.826 415.725 59.9 416.081 60.048C416.437 60.196 416.741 60.406 416.993 60.678C417.245 60.95 417.437 61.28 417.569 61.668C417.705 62.052 417.773 62.482 417.773 62.958C417.773 63.438 417.705 63.87 417.569 64.254C417.437 64.638 417.245 64.966 416.993 65.238C416.741 65.51 416.437 65.72 416.081 65.868C415.725 66.012 415.325 66.084 414.881 66.084C414.433 66.084 414.029 66.012 413.669 65.868C413.313 65.72 413.009 65.51 412.757 65.238C412.505 64.966 412.311 64.638 412.175 64.254C412.043 63.87 411.977 63.438 411.977 62.958C411.977 62.482 412.043 62.052 412.175 61.668C412.311 61.28 412.505 60.95 412.757 60.678C413.009 60.406 413.313 60.196 413.669 60.048C414.029 59.9 414.433 59.826 414.881 59.826ZM414.881 65.25C415.481 65.25 415.929 65.05 416.225 64.65C416.521 64.246 416.669 63.684 416.669 62.964C416.669 62.24 416.521 61.676 416.225 61.272C415.929 60.868 415.481 60.666 414.881 60.666C414.577 60.666 414.311 60.718 414.083 60.822C413.859 60.926 413.671 61.076 413.519 61.272C413.371 61.468 413.259 61.71 413.183 61.998C413.111 62.282 413.075 62.604 413.075 62.964C413.075 63.684 413.223 64.246 413.519 64.65C413.819 65.05 414.273 65.25 414.881 65.25ZM420.135 60.804C420.267 60.656 420.407 60.522 420.555 60.402C420.703 60.282 420.859 60.18 421.023 60.096C421.191 60.008 421.367 59.942 421.551 59.898C421.739 59.85 421.941 59.826 422.157 59.826C422.489 59.826 422.781 59.882 423.033 59.994C423.289 60.102 423.501 60.258 423.669 60.462C423.841 60.662 423.971 60.904 424.059 61.188C424.147 61.472 424.191 61.786 424.191 62.13V66H423.117V62.13C423.117 61.67 423.011 61.314 422.799 61.062C422.591 60.806 422.273 60.678 421.845 60.678C421.529 60.678 421.233 60.754 420.957 60.906C420.685 61.058 420.433 61.264 420.201 61.524V66H419.127V59.922H419.769C419.921 59.922 420.015 59.996 420.051 60.144L420.135 60.804ZM429.887 62.298C429.887 62.05 429.851 61.824 429.779 61.62C429.711 61.412 429.609 61.234 429.473 61.086C429.341 60.934 429.179 60.818 428.987 60.738C428.795 60.654 428.577 60.612 428.333 60.612C427.821 60.612 427.415 60.762 427.115 61.062C426.819 61.358 426.635 61.77 426.563 62.298H429.887ZM430.751 65.148C430.619 65.308 430.461 65.448 430.277 65.568C430.093 65.684 429.895 65.78 429.683 65.856C429.475 65.932 429.259 65.988 429.035 66.024C428.811 66.064 428.589 66.084 428.369 66.084C427.949 66.084 427.561 66.014 427.205 65.874C426.853 65.73 426.547 65.522 426.287 65.25C426.031 64.974 425.831 64.634 425.687 64.23C425.543 63.826 425.471 63.362 425.471 62.838C425.471 62.414 425.535 62.018 425.663 61.65C425.795 61.282 425.983 60.964 426.227 60.696C426.471 60.424 426.769 60.212 427.121 60.06C427.473 59.904 427.869 59.826 428.309 59.826C428.673 59.826 429.009 59.888 429.317 60.012C429.629 60.132 429.897 60.308 430.121 60.54C430.349 60.768 430.527 61.052 430.655 61.392C430.783 61.728 430.847 62.112 430.847 62.544C430.847 62.712 430.829 62.824 430.793 62.88C430.757 62.936 430.689 62.964 430.589 62.964H426.527C426.539 63.348 426.591 63.682 426.683 63.966C426.779 64.25 426.911 64.488 427.079 64.68C427.247 64.868 427.447 65.01 427.679 65.106C427.911 65.198 428.171 65.244 428.459 65.244C428.727 65.244 428.957 65.214 429.149 65.154C429.345 65.09 429.513 65.022 429.653 64.95C429.793 64.878 429.909 64.812 430.001 64.752C430.097 64.688 430.179 64.656 430.247 64.656C430.335 64.656 430.403 64.69 430.451 64.758L430.751 65.148ZM433.167 60.804C433.299 60.656 433.439 60.522 433.587 60.402C433.735 60.282 433.891 60.18 434.055 60.096C434.223 60.008 434.399 59.942 434.583 59.898C434.771 59.85 434.973 59.826 435.189 59.826C435.521 59.826 435.813 59.882 436.065 59.994C436.321 60.102 436.533 60.258 436.701 60.462C436.873 60.662 437.003 60.904 437.091 61.188C437.179 61.472 437.223 61.786 437.223 62.13V66H436.149V62.13C436.149 61.67 436.043 61.314 435.831 61.062C435.623 60.806 435.305 60.678 434.877 60.678C434.561 60.678 434.265 60.754 433.989 60.906C433.717 61.058 433.465 61.264 433.233 61.524V66H432.159V59.922H432.801C432.953 59.922 433.047 59.996 433.083 60.144L433.167 60.804ZM440.634 66.096C440.154 66.096 439.784 65.962 439.524 65.694C439.268 65.426 439.14 65.04 439.14 64.536V60.816H438.408C438.344 60.816 438.29 60.798 438.246 60.762C438.202 60.722 438.18 60.662 438.18 60.582V60.156L439.176 60.03L439.422 58.152C439.434 58.092 439.46 58.044 439.5 58.008C439.544 57.968 439.6 57.948 439.668 57.948H440.208V60.042H441.966V60.816H440.208V64.464C440.208 64.72 440.27 64.91 440.394 65.034C440.518 65.158 440.678 65.22 440.874 65.22C440.986 65.22 441.082 65.206 441.162 65.178C441.246 65.146 441.318 65.112 441.378 65.076C441.438 65.04 441.488 65.008 441.528 64.98C441.572 64.948 441.61 64.932 441.642 64.932C441.698 64.932 441.748 64.966 441.792 65.034L442.104 65.544C441.92 65.716 441.698 65.852 441.438 65.952C441.178 66.048 440.91 66.096 440.634 66.096ZM446.609 60.924C446.561 61.012 446.487 61.056 446.387 61.056C446.327 61.056 446.259 61.034 446.183 60.99C446.107 60.946 446.013 60.898 445.901 60.846C445.793 60.79 445.663 60.74 445.511 60.696C445.359 60.648 445.179 60.624 444.971 60.624C444.791 60.624 444.629 60.648 444.485 60.696C444.341 60.74 444.217 60.802 444.113 60.882C444.013 60.962 443.935 61.056 443.879 61.164C443.827 61.268 443.801 61.382 443.801 61.506C443.801 61.662 443.845 61.792 443.933 61.896C444.025 62 444.145 62.09 444.293 62.166C444.441 62.242 444.609 62.31 444.797 62.37C444.985 62.426 445.177 62.488 445.373 62.556C445.573 62.62 445.767 62.692 445.955 62.772C446.143 62.852 446.311 62.952 446.459 63.072C446.607 63.192 446.725 63.34 446.813 63.516C446.905 63.688 446.951 63.896 446.951 64.14C446.951 64.42 446.901 64.68 446.801 64.92C446.701 65.156 446.553 65.362 446.357 65.538C446.161 65.71 445.921 65.846 445.637 65.946C445.353 66.046 445.025 66.096 444.653 66.096C444.229 66.096 443.845 66.028 443.501 65.892C443.157 65.752 442.865 65.574 442.625 65.358L442.877 64.95C442.909 64.898 442.947 64.858 442.991 64.83C443.035 64.802 443.091 64.788 443.159 64.788C443.231 64.788 443.307 64.816 443.387 64.872C443.467 64.928 443.563 64.99 443.675 65.058C443.791 65.126 443.931 65.188 444.095 65.244C444.259 65.3 444.463 65.328 444.707 65.328C444.915 65.328 445.097 65.302 445.253 65.25C445.409 65.194 445.539 65.12 445.643 65.028C445.747 64.936 445.823 64.83 445.871 64.71C445.923 64.59 445.949 64.462 445.949 64.326C445.949 64.158 445.903 64.02 445.811 63.912C445.723 63.8 445.605 63.706 445.457 63.63C445.309 63.55 445.139 63.482 444.947 63.426C444.759 63.366 444.565 63.304 444.365 63.24C444.169 63.176 443.975 63.104 443.783 63.024C443.595 62.94 443.427 62.836 443.279 62.712C443.131 62.588 443.011 62.436 442.919 62.256C442.831 62.072 442.787 61.85 442.787 61.59C442.787 61.358 442.835 61.136 442.931 60.924C443.027 60.708 443.167 60.52 443.351 60.36C443.535 60.196 443.761 60.066 444.029 59.97C444.297 59.874 444.603 59.826 444.947 59.826C445.347 59.826 445.705 59.89 446.021 60.018C446.341 60.142 446.617 60.314 446.849 60.534L446.609 60.924Z" fill="black"/>
<path d="M268 94C263.582 94 260 97.582 260 102C260 106.419 263.582 110 268 110C272.419 110 276 106.419 276 102C276 97.582 272.418 94 268 94ZM268 108.5C264.41 108.5 261.5 105.59 261.5 102C261.5 98.41 264.41 95.5 268 95.5C271.59 95.5 274.5 98.41 274.5 102C274.5 105.59 271.59 108.5 268 108.5ZM268.001 97.5085C267.428 97.5085 266.994 97.8075 266.994 98.2905V102.72C266.994 103.204 267.427 103.502 268.001 103.502C268.56 103.502 269.007 103.191 269.007 102.72V98.2905C269.007 97.819 268.56 97.5085 268.001 97.5085ZM268.001 104.5C267.45 104.5 267.002 104.948 267.002 105.499C267.002 106.049 267.45 106.497 268.001 106.497C268.551 106.497 268.999 106.049 268.999 105.499C268.998 104.948 268.551 104.5 268.001 104.5Z" fill="#1FB79B"/>
<path d="M188.244 77.264L188.16 77.684H186.744L186.324 79.772H187.74L187.656 80.192H186.24L185.664 83H185.172L185.748 80.192H183.684L183.108 83H182.616L183.192 80.192H181.764L181.848 79.772H183.276L183.696 77.684H182.268L182.352 77.264H183.78L184.356 74.456H184.848L184.272 77.264H186.336L186.912 74.456H187.404L186.828 77.264H188.244ZM183.768 79.772H185.832L186.252 77.684H184.188L183.768 79.772ZM192.284 77.54C193.108 77.54 193.78 77.804 194.3 78.332C194.812 78.868 195.068 79.548 195.068 80.372C195.068 81.196 194.812 81.868 194.3 82.388C193.788 82.924 193.112 83.192 192.272 83.192C191.568 83.192 190.968 82.988 190.472 82.58C189.648 81.9 189.236 80.64 189.236 78.8C189.236 77.4 189.492 76.296 190.004 75.488C190.524 74.672 191.304 74.264 192.344 74.264C193.032 74.264 193.608 74.46 194.072 74.852C194.536 75.244 194.828 75.772 194.948 76.436H194.444C194.332 75.908 194.088 75.492 193.712 75.188C193.344 74.884 192.888 74.732 192.344 74.732C190.616 74.732 189.752 76.084 189.752 78.788C189.752 79.036 189.764 79.276 189.788 79.508C189.916 78.94 190.216 78.468 190.688 78.092C191.136 77.724 191.668 77.54 192.284 77.54ZM192.272 82.724C192.936 82.724 193.476 82.504 193.892 82.064C194.316 81.616 194.528 81.052 194.528 80.372C194.528 79.684 194.316 79.116 193.892 78.668C193.476 78.228 192.936 78.008 192.272 78.008C191.6 78.008 191.056 78.228 190.64 78.668C190.216 79.116 190.004 79.684 190.004 80.372C190.004 81.052 190.216 81.616 190.64 82.064C191.056 82.504 191.6 82.724 192.272 82.724ZM199.268 77.54C200.092 77.54 200.764 77.804 201.284 78.332C201.796 78.868 202.052 79.548 202.052 80.372C202.052 81.196 201.796 81.868 201.284 82.388C200.772 82.924 200.096 83.192 199.256 83.192C198.552 83.192 197.952 82.988 197.456 82.58C196.632 81.9 196.22 80.64 196.22 78.8C196.22 77.4 196.476 76.296 196.988 75.488C197.508 74.672 198.288 74.264 199.328 74.264C200.016 74.264 200.592 74.46 201.056 74.852C201.52 75.244 201.812 75.772 201.932 76.436H201.428C201.316 75.908 201.072 75.492 200.696 75.188C200.328 74.884 199.872 74.732 199.328 74.732C197.6 74.732 196.736 76.084 196.736 78.788C196.736 79.036 196.748 79.276 196.772 79.508C196.9 78.94 197.2 78.468 197.672 78.092C198.12 77.724 198.652 77.54 199.268 77.54ZM199.256 82.724C199.92 82.724 200.46 82.504 200.876 82.064C201.3 81.616 201.512 81.052 201.512 80.372C201.512 79.684 201.3 79.116 200.876 78.668C200.46 78.228 199.92 78.008 199.256 78.008C198.584 78.008 198.04 78.228 197.624 78.668C197.2 79.116 196.988 79.684 196.988 80.372C196.988 81.052 197.2 81.616 197.624 82.064C198.04 82.504 198.584 82.724 199.256 82.724ZM205.875 83V82.244H206.643V83.324C206.643 84.004 206.407 84.424 205.935 84.584L205.839 84.62V84.248L205.899 84.224C206.155 84.112 206.283 83.824 206.283 83.36V83H205.875ZM213.673 80.096L214.885 76.808H215.425L212.785 83.828C212.585 84.364 212.345 84.756 212.065 85.004C211.785 85.252 211.433 85.376 211.009 85.376C210.769 85.376 210.609 85.372 210.529 85.364V84.944H210.997C211.573 84.944 212.013 84.536 212.317 83.72C212.381 83.56 212.453 83.372 212.533 83.156L210.037 76.808H210.577L211.849 80.084C212.009 80.492 212.321 81.324 212.785 82.58C212.849 82.396 213.145 81.568 213.673 80.096ZM221.129 79.88V80.06H216.173C216.197 80.884 216.409 81.528 216.809 81.992C217.209 82.456 217.757 82.688 218.453 82.688C218.997 82.688 219.449 82.536 219.809 82.232C220.169 81.92 220.401 81.496 220.505 80.96H221.009C220.889 81.624 220.601 82.156 220.145 82.556C219.689 82.948 219.121 83.144 218.441 83.144C217.585 83.144 216.909 82.848 216.413 82.256C215.917 81.664 215.669 80.88 215.669 79.904C215.669 78.92 215.913 78.136 216.401 77.552C216.881 76.96 217.549 76.664 218.405 76.664C219.269 76.664 219.941 76.964 220.421 77.564C220.893 78.18 221.129 78.952 221.129 79.88ZM218.405 77.12C217.741 77.12 217.213 77.34 216.821 77.78C216.437 78.22 216.225 78.828 216.185 79.604H220.613C220.573 78.844 220.357 78.24 219.965 77.792C219.581 77.344 219.061 77.12 218.405 77.12ZM224.444 83.144C223.66 83.144 223.052 82.964 222.62 82.604C222.196 82.244 221.964 81.744 221.924 81.104H222.428C222.516 82.176 223.188 82.712 224.444 82.712C225.7 82.712 226.328 82.276 226.328 81.404C226.328 81.052 226.208 80.78 225.968 80.588C225.728 80.388 225.32 80.236 224.744 80.132L224.06 80.024C223.388 79.912 222.896 79.72 222.584 79.448C222.272 79.168 222.116 78.788 222.116 78.308C222.116 77.796 222.308 77.396 222.692 77.108C223.084 76.812 223.624 76.664 224.312 76.664C225.824 76.664 226.62 77.276 226.7 78.5H226.196C226.156 78.028 225.984 77.676 225.68 77.444C225.384 77.212 224.928 77.096 224.312 77.096C223.776 77.096 223.356 77.2 223.052 77.408C222.756 77.616 222.608 77.912 222.608 78.296C222.608 78.664 222.732 78.944 222.98 79.136C223.236 79.328 223.652 79.476 224.228 79.58L224.9 79.688C225.572 79.808 226.06 80.004 226.364 80.276C226.676 80.54 226.832 80.908 226.832 81.38C226.832 81.948 226.616 82.384 226.184 82.688C225.76 82.992 225.18 83.144 224.444 83.144ZM230.242 76.808V77.24H228.694V81.728C228.694 82.024 228.77 82.244 228.922 82.388C229.082 82.524 229.334 82.592 229.678 82.592C229.982 82.592 230.17 82.588 230.242 82.58V83C229.874 83.016 229.666 83.024 229.618 83.024C228.674 83.024 228.202 82.604 228.202 81.764V77.24H227.134V76.808H228.202V75.056H228.694V76.808H230.242ZM236.234 79.88V80.06H231.278C231.302 80.884 231.514 81.528 231.914 81.992C232.314 82.456 232.862 82.688 233.558 82.688C234.102 82.688 234.554 82.536 234.914 82.232C235.274 81.92 235.506 81.496 235.61 80.96H236.114C235.994 81.624 235.706 82.156 235.25 82.556C234.794 82.948 234.226 83.144 233.546 83.144C232.69 83.144 232.014 82.848 231.518 82.256C231.022 81.664 230.774 80.88 230.774 79.904C230.774 78.92 231.018 78.136 231.506 77.552C231.986 76.96 232.654 76.664 233.51 76.664C234.374 76.664 235.046 76.964 235.526 77.564C235.998 78.18 236.234 78.952 236.234 79.88ZM233.51 77.12C232.846 77.12 232.318 77.34 231.926 77.78C231.542 78.22 231.33 78.828 231.29 79.604H235.718C235.678 78.844 235.462 78.24 235.07 77.792C234.686 77.344 234.166 77.12 233.51 77.12ZM240.113 76.736C240.297 76.736 240.421 76.74 240.485 76.748V77.216C240.429 77.208 240.317 77.204 240.149 77.204C239.437 77.204 238.885 77.416 238.493 77.84C238.101 78.264 237.905 78.84 237.905 79.568V83H237.413V76.808H237.881V78.26C238.049 77.796 238.325 77.428 238.709 77.156C239.093 76.876 239.561 76.736 240.113 76.736ZM245.741 78.164V74.456H246.233V83H245.765V81.584C245.325 82.624 244.545 83.144 243.425 83.144C242.585 83.144 241.917 82.844 241.421 82.244C240.917 81.66 240.665 80.88 240.665 79.904C240.665 78.936 240.917 78.152 241.421 77.552C241.917 76.96 242.585 76.664 243.425 76.664C243.953 76.664 244.417 76.796 244.817 77.06C245.217 77.316 245.525 77.684 245.741 78.164ZM241.805 81.944C242.213 82.448 242.769 82.7 243.473 82.7C244.177 82.7 244.737 82.444 245.153 81.932C245.561 81.412 245.765 80.736 245.765 79.904C245.765 79.072 245.561 78.396 245.153 77.876C244.737 77.364 244.177 77.108 243.473 77.108C242.769 77.108 242.213 77.364 241.805 77.876C241.389 78.388 241.181 79.072 241.181 79.928C241.181 80.776 241.389 81.448 241.805 81.944ZM252.754 82.604C252.778 82.604 252.826 82.604 252.898 82.604C252.978 82.596 253.026 82.592 253.042 82.592V83C252.866 83.016 252.742 83.024 252.67 83.024C252.358 83.024 252.13 82.948 251.986 82.796C251.842 82.644 251.77 82.404 251.77 82.076V81.776C251.346 82.688 250.546 83.144 249.37 83.144C248.73 83.144 248.23 82.988 247.87 82.676C247.518 82.356 247.342 81.928 247.342 81.392C247.342 80.352 248.062 79.74 249.502 79.556L250.498 79.436C250.978 79.372 251.306 79.26 251.482 79.1C251.666 78.932 251.758 78.676 251.758 78.332C251.758 77.508 251.182 77.096 250.03 77.096C249.358 77.096 248.87 77.216 248.566 77.456C248.27 77.696 248.11 78.088 248.086 78.632H247.606C247.622 77.976 247.826 77.484 248.218 77.156C248.61 76.828 249.214 76.664 250.03 76.664C250.758 76.664 251.306 76.812 251.674 77.108C252.05 77.404 252.238 77.812 252.238 78.332V82.052C252.238 82.42 252.41 82.604 252.754 82.604ZM249.394 82.724C250.106 82.724 250.678 82.528 251.11 82.136C251.542 81.744 251.758 81.18 251.758 80.444V79.364C251.55 79.596 251.154 79.752 250.57 79.832L249.574 79.964C248.974 80.044 248.534 80.196 248.254 80.42C247.982 80.644 247.846 80.964 247.846 81.38C247.846 81.796 247.978 82.124 248.242 82.364C248.514 82.604 248.898 82.724 249.394 82.724ZM256.529 80.096L257.741 76.808H258.281L255.641 83.828C255.441 84.364 255.201 84.756 254.921 85.004C254.641 85.252 254.289 85.376 253.865 85.376C253.625 85.376 253.465 85.372 253.385 85.364V84.944H253.853C254.429 84.944 254.869 84.536 255.173 83.72C255.237 83.56 255.309 83.372 255.389 83.156L252.893 76.808H253.433L254.705 80.084C254.865 80.492 255.177 81.324 255.641 82.58C255.705 82.396 256.001 81.568 256.529 80.096ZM258.058 83V82.244H258.826V83.324C258.826 84.004 258.59 84.424 258.118 84.584L258.022 84.62V84.248L258.082 84.224C258.338 84.112 258.466 83.824 258.466 83.36V83H258.058ZM265.593 76.664C266.433 76.664 267.101 76.96 267.597 77.552C268.093 78.16 268.341 78.944 268.341 79.904C268.341 80.872 268.093 81.652 267.597 82.244C267.101 82.844 266.433 83.144 265.593 83.144C264.465 83.144 263.681 82.624 263.241 81.584V83H262.773V74.456H263.265V78.164C263.713 77.164 264.489 76.664 265.593 76.664ZM263.865 81.932C264.273 82.444 264.829 82.7 265.533 82.7C266.229 82.7 266.789 82.44 267.213 81.92C267.629 81.408 267.837 80.728 267.837 79.88C267.837 79.04 267.629 78.368 267.213 77.864C266.797 77.36 266.237 77.108 265.533 77.108C264.829 77.108 264.273 77.364 263.865 77.876C263.449 78.388 263.241 79.064 263.241 79.904C263.241 80.744 263.449 81.42 263.865 81.932ZM272.232 80.096L273.444 76.808H273.984L271.344 83.828C271.144 84.364 270.904 84.756 270.624 85.004C270.344 85.252 269.992 85.376 269.568 85.376C269.328 85.376 269.168 85.372 269.088 85.364V84.944H269.556C270.132 84.944 270.572 84.536 270.876 83.72C270.94 83.56 271.012 83.372 271.092 83.156L268.596 76.808H269.136L270.408 80.084C270.568 80.492 270.88 81.324 271.344 82.58C271.408 82.396 271.704 81.568 272.232 80.096ZM282.974 74.456V74.924H278.114V78.296H282.422V78.764H278.114V83H277.598V74.456H282.974ZM288.058 80.252V76.808H288.55V83H288.07V81.692C287.878 82.148 287.598 82.504 287.23 82.76C286.862 83.016 286.43 83.144 285.934 83.144C285.23 83.144 284.686 82.944 284.302 82.544C283.918 82.144 283.726 81.572 283.726 80.828V76.808H284.218V80.78C284.218 81.404 284.374 81.88 284.686 82.208C284.998 82.536 285.442 82.7 286.018 82.7C286.586 82.7 287.066 82.496 287.458 82.088C287.842 81.688 288.042 81.076 288.058 80.252ZM292.695 76.736C292.879 76.736 293.003 76.74 293.067 76.748V77.216C293.011 77.208 292.899 77.204 292.731 77.204C292.019 77.204 291.467 77.416 291.075 77.84C290.683 78.264 290.487 78.84 290.487 79.568V83H289.995V76.808H290.463V78.26C290.631 77.796 290.907 77.428 291.291 77.156C291.675 76.876 292.143 76.736 292.695 76.736ZM298.948 83H298.384L295.888 79.424L294.472 80.696V83H293.98V74.456H294.472V80.12L298.108 76.808H298.768L296.248 79.1L298.948 83ZM304.551 82.604C304.575 82.604 304.623 82.604 304.695 82.604C304.775 82.596 304.823 82.592 304.839 82.592V83C304.663 83.016 304.539 83.024 304.467 83.024C304.155 83.024 303.927 82.948 303.783 82.796C303.639 82.644 303.567 82.404 303.567 82.076V81.776C303.143 82.688 302.343 83.144 301.167 83.144C300.527 83.144 300.027 82.988 299.667 82.676C299.315 82.356 299.139 81.928 299.139 81.392C299.139 80.352 299.859 79.74 301.299 79.556L302.295 79.436C302.775 79.372 303.103 79.26 303.279 79.1C303.463 78.932 303.555 78.676 303.555 78.332C303.555 77.508 302.979 77.096 301.827 77.096C301.155 77.096 300.667 77.216 300.363 77.456C300.067 77.696 299.907 78.088 299.883 78.632H299.403C299.419 77.976 299.623 77.484 300.015 77.156C300.407 76.828 301.011 76.664 301.827 76.664C302.555 76.664 303.103 76.812 303.471 77.108C303.847 77.404 304.035 77.812 304.035 78.332V82.052C304.035 82.42 304.207 82.604 304.551 82.604ZM301.191 82.724C301.903 82.724 302.475 82.528 302.907 82.136C303.339 81.744 303.555 81.18 303.555 80.444V79.364C303.347 79.596 302.951 79.752 302.367 79.832L301.371 79.964C300.771 80.044 300.331 80.196 300.051 80.42C299.779 80.644 299.643 80.964 299.643 81.38C299.643 81.796 299.775 82.124 300.039 82.364C300.311 82.604 300.695 82.724 301.191 82.724ZM308.268 76.664C308.972 76.664 309.516 76.864 309.9 77.264C310.284 77.664 310.476 78.236 310.476 78.98V83H309.984V79.028C309.984 78.404 309.828 77.928 309.516 77.6C309.204 77.272 308.76 77.108 308.184 77.108C307.632 77.108 307.156 77.312 306.756 77.72C306.356 78.128 306.152 78.74 306.144 79.556V83H305.652V76.808H306.12V78.152C306.296 77.688 306.572 77.324 306.948 77.06C307.324 76.796 307.764 76.664 308.268 76.664ZM311.923 74.456H315.343C316.175 74.456 316.827 74.68 317.299 75.128C317.771 75.568 318.007 76.176 318.007 76.952C318.007 77.72 317.771 78.328 317.299 78.776C316.835 79.216 316.183 79.436 315.343 79.436H312.439V83H311.923V74.456ZM312.439 78.968H315.343C316.023 78.968 316.547 78.792 316.915 78.44C317.291 78.088 317.479 77.592 317.479 76.952C317.479 76.312 317.291 75.816 316.915 75.464C316.547 75.104 316.023 74.924 315.343 74.924H312.439V78.968ZM323.255 82.244C322.743 82.844 322.063 83.144 321.215 83.144C320.383 83.144 319.707 82.844 319.187 82.244C318.667 81.636 318.407 80.856 318.407 79.904C318.407 78.952 318.667 78.172 319.187 77.564C319.707 76.964 320.383 76.664 321.215 76.664C322.063 76.664 322.743 76.964 323.255 77.564C323.775 78.172 324.035 78.952 324.035 79.904C324.035 80.856 323.775 81.636 323.255 82.244ZM321.215 82.7C321.919 82.7 322.479 82.444 322.895 81.932C323.311 81.42 323.519 80.744 323.519 79.904C323.519 79.064 323.311 78.388 322.895 77.876C322.479 77.364 321.919 77.108 321.215 77.108C320.519 77.108 319.963 77.364 319.547 77.876C319.131 78.388 318.923 79.064 318.923 79.904C318.923 80.744 319.131 81.42 319.547 81.932C319.963 82.444 320.519 82.7 321.215 82.7ZM327.91 76.736C328.094 76.736 328.218 76.74 328.282 76.748V77.216C328.226 77.208 328.114 77.204 327.946 77.204C327.234 77.204 326.682 77.416 326.29 77.84C325.898 78.264 325.702 78.84 325.702 79.568V83H325.21V76.808H325.678V78.26C325.846 77.796 326.122 77.428 326.506 77.156C326.89 76.876 327.358 76.736 327.91 76.736ZM331.82 76.808V77.24H330.272V81.728C330.272 82.024 330.348 82.244 330.5 82.388C330.66 82.524 330.912 82.592 331.256 82.592C331.56 82.592 331.748 82.588 331.82 82.58V83C331.452 83.016 331.244 83.024 331.196 83.024C330.252 83.024 329.78 82.604 329.78 81.764V77.24H328.712V76.808H329.78V75.056H330.272V76.808H331.82ZM337.727 82.604C337.751 82.604 337.799 82.604 337.871 82.604C337.951 82.596 337.999 82.592 338.015 82.592V83C337.839 83.016 337.715 83.024 337.643 83.024C337.331 83.024 337.103 82.948 336.959 82.796C336.815 82.644 336.743 82.404 336.743 82.076V81.776C336.319 82.688 335.519 83.144 334.343 83.144C333.703 83.144 333.203 82.988 332.843 82.676C332.491 82.356 332.315 81.928 332.315 81.392C332.315 80.352 333.035 79.74 334.475 79.556L335.471 79.436C335.951 79.372 336.279 79.26 336.455 79.1C336.639 78.932 336.731 78.676 336.731 78.332C336.731 77.508 336.155 77.096 335.003 77.096C334.331 77.096 333.843 77.216 333.539 77.456C333.243 77.696 333.083 78.088 333.059 78.632H332.579C332.595 77.976 332.799 77.484 333.191 77.156C333.583 76.828 334.187 76.664 335.003 76.664C335.731 76.664 336.279 76.812 336.647 77.108C337.023 77.404 337.211 77.812 337.211 78.332V82.052C337.211 82.42 337.383 82.604 337.727 82.604ZM334.367 82.724C335.079 82.724 335.651 82.528 336.083 82.136C336.515 81.744 336.731 81.18 336.731 80.444V79.364C336.523 79.596 336.127 79.752 335.543 79.832L334.547 79.964C333.947 80.044 333.507 80.196 333.227 80.42C332.955 80.644 332.819 80.964 332.819 81.38C332.819 81.796 332.951 82.124 333.215 82.364C333.487 82.604 333.871 82.724 334.367 82.724ZM343.737 83H343.173L340.677 79.424L339.261 80.696V83H338.769V74.456H339.261V80.12L342.897 76.808H343.557L341.037 79.1L343.737 83ZM349.34 82.604C349.364 82.604 349.412 82.604 349.484 82.604C349.564 82.596 349.612 82.592 349.628 82.592V83C349.452 83.016 349.328 83.024 349.256 83.024C348.944 83.024 348.716 82.948 348.572 82.796C348.428 82.644 348.356 82.404 348.356 82.076V81.776C347.932 82.688 347.132 83.144 345.956 83.144C345.316 83.144 344.816 82.988 344.456 82.676C344.104 82.356 343.928 81.928 343.928 81.392C343.928 80.352 344.648 79.74 346.088 79.556L347.084 79.436C347.564 79.372 347.892 79.26 348.068 79.1C348.252 78.932 348.344 78.676 348.344 78.332C348.344 77.508 347.768 77.096 346.616 77.096C345.944 77.096 345.456 77.216 345.152 77.456C344.856 77.696 344.696 78.088 344.672 78.632H344.192C344.208 77.976 344.412 77.484 344.804 77.156C345.196 76.828 345.8 76.664 346.616 76.664C347.344 76.664 347.892 76.812 348.26 77.108C348.636 77.404 348.824 77.812 348.824 78.332V82.052C348.824 82.42 348.996 82.604 349.34 82.604ZM345.98 82.724C346.692 82.724 347.264 82.528 347.696 82.136C348.128 81.744 348.344 81.18 348.344 80.444V79.364C348.136 79.596 347.74 79.752 347.156 79.832L346.16 79.964C345.56 80.044 345.12 80.196 344.84 80.42C344.568 80.644 344.432 80.964 344.432 81.38C344.432 81.796 344.564 82.124 344.828 82.364C345.1 82.604 345.484 82.724 345.98 82.724ZM350.874 83H350.382V74.456H350.874V83Z" fill="black"/>
<rect x="1" y="1" width="538" height="118" rx="29" stroke="#3CB09B" stroke-opacity="0.2" stroke-width="2"/>
<rect x="223" y="25" width="108" height="24" rx="12" fill="#16B83F"/>
<path d="M242.514 36.684V35.808H243.666V41.772C243.666 42.62 243.41 43.284 242.898 43.764C242.386 44.252 241.658 44.496 240.714 44.496C239.906 44.496 239.262 44.312 238.782 43.944C238.31 43.576 238.042 43.072 237.978 42.432H239.178C239.274 43.16 239.79 43.524 240.726 43.524C241.886 43.524 242.466 42.948 242.466 41.796V41.112C241.994 41.752 241.33 42.072 240.474 42.072C239.61 42.072 238.922 41.78 238.41 41.196C237.89 40.604 237.63 39.828 237.63 38.868C237.63 37.908 237.89 37.132 238.41 36.54C238.922 35.956 239.606 35.664 240.462 35.664C241.366 35.664 242.05 36.004 242.514 36.684ZM240.69 41.04C241.25 41.04 241.69 40.848 242.01 40.464C242.338 40.072 242.502 39.54 242.502 38.868C242.502 38.196 242.338 37.668 242.01 37.284C241.69 36.892 241.25 36.696 240.69 36.696C240.138 36.696 239.698 36.892 239.37 37.284C239.042 37.676 238.878 38.204 238.878 38.868C238.878 39.54 239.042 40.072 239.37 40.464C239.698 40.848 240.138 41.04 240.69 41.04ZM250.024 41.256C249.456 41.848 248.716 42.144 247.804 42.144C246.892 42.144 246.152 41.848 245.584 41.256C245.016 40.664 244.732 39.88 244.732 38.904C244.732 37.92 245.016 37.132 245.584 36.54C246.144 35.956 246.884 35.664 247.804 35.664C248.724 35.664 249.464 35.956 250.024 36.54C250.584 37.124 250.864 37.912 250.864 38.904C250.864 39.888 250.584 40.672 250.024 41.256ZM246.472 40.524C246.8 40.916 247.244 41.112 247.804 41.112C248.364 41.112 248.804 40.916 249.124 40.524C249.452 40.132 249.616 39.592 249.616 38.904C249.616 38.216 249.452 37.676 249.124 37.284C248.804 36.892 248.364 36.696 247.804 36.696C247.244 36.696 246.8 36.892 246.472 37.284C246.144 37.676 245.98 38.216 245.98 38.904C245.98 39.592 246.144 40.132 246.472 40.524ZM256.926 41.256C256.358 41.848 255.618 42.144 254.706 42.144C253.794 42.144 253.054 41.848 252.486 41.256C251.918 40.664 251.634 39.88 251.634 38.904C251.634 37.92 251.918 37.132 252.486 36.54C253.046 35.956 253.786 35.664 254.706 35.664C255.626 35.664 256.366 35.956 256.926 36.54C257.486 37.124 257.766 37.912 257.766 38.904C257.766 39.888 257.486 40.672 256.926 41.256ZM253.374 40.524C253.702 40.916 254.146 41.112 254.706 41.112C255.266 41.112 255.706 40.916 256.026 40.524C256.354 40.132 256.518 39.592 256.518 38.904C256.518 38.216 256.354 37.676 256.026 37.284C255.706 36.892 255.266 36.696 254.706 36.696C254.146 36.696 253.702 36.892 253.374 37.284C253.046 37.676 252.882 38.216 252.882 38.904C252.882 39.592 253.046 40.132 253.374 40.524ZM263.372 36.648V33.456H264.572V42H263.42V41.088C262.956 41.792 262.272 42.144 261.368 42.144C260.504 42.144 259.816 41.852 259.304 41.268C258.792 40.684 258.536 39.896 258.536 38.904C258.536 37.912 258.792 37.124 259.304 36.54C259.816 35.956 260.504 35.664 261.368 35.664C262.24 35.664 262.908 35.992 263.372 36.648ZM259.784 38.952C259.784 39.64 259.948 40.172 260.276 40.548C260.604 40.924 261.044 41.112 261.596 41.112C262.164 41.112 262.608 40.916 262.928 40.524C263.248 40.148 263.408 39.608 263.408 38.904C263.408 38.208 263.248 37.664 262.928 37.272C262.608 36.888 262.164 36.696 261.596 36.696C261.044 36.696 260.604 36.896 260.276 37.296C259.948 37.696 259.784 38.248 259.784 38.952ZM268.844 35.808V35.244C268.844 34.028 269.464 33.42 270.704 33.42C270.824 33.42 271.052 33.432 271.388 33.456V34.428H270.848C270.312 34.428 270.044 34.7 270.044 35.244V35.808H271.34V36.792H270.044V42H268.844V36.792H267.848V35.808H268.844ZM272.24 34.932V33.648H273.464V34.932H272.24ZM273.452 42H272.252V35.808H273.452V42ZM277.893 35.712C278.069 35.712 278.185 35.716 278.241 35.724V36.864H277.941C277.325 36.864 276.849 37.016 276.513 37.32C276.177 37.624 276.009 38.064 276.009 38.64V42H274.809V35.808H275.961V36.912C276.353 36.112 276.997 35.712 277.893 35.712ZM281.202 42.156C279.482 42.156 278.578 41.448 278.49 40.032H279.69C279.738 40.464 279.878 40.768 280.11 40.944C280.342 41.12 280.71 41.208 281.214 41.208C282.126 41.208 282.582 40.92 282.582 40.344C282.582 40.096 282.486 39.904 282.294 39.768C282.102 39.632 281.758 39.52 281.262 39.432L280.626 39.312C279.314 39.072 278.658 38.456 278.658 37.464C278.658 36.912 278.87 36.476 279.294 36.156C279.718 35.828 280.302 35.664 281.046 35.664C282.75 35.664 283.622 36.356 283.662 37.74H282.498C282.474 37.324 282.346 37.032 282.114 36.864C281.882 36.688 281.526 36.6 281.046 36.6C280.662 36.6 280.366 36.672 280.158 36.816C279.95 36.96 279.846 37.164 279.846 37.428C279.846 37.668 279.938 37.856 280.122 37.992C280.306 38.12 280.598 38.224 280.998 38.304L281.646 38.412C282.406 38.556 282.954 38.772 283.29 39.06C283.626 39.348 283.794 39.748 283.794 40.26C283.794 40.86 283.566 41.328 283.11 41.664C282.654 41.992 282.018 42.156 281.202 42.156ZM287.522 35.808V36.792H286.274V40.512C286.274 40.696 286.326 40.832 286.43 40.92C286.542 41 286.726 41.04 286.982 41.04H287.522V42C287.258 42.024 287.014 42.036 286.79 42.036C286.206 42.036 285.774 41.924 285.494 41.7C285.214 41.476 285.074 41.116 285.074 40.62V36.792H284.078V35.808H285.074V34.032H286.274V35.808H287.522ZM292.122 34.932H290.898V33.648H292.122V34.932ZM292.11 42H290.91V35.808H292.11V42ZM295.745 42.156C294.025 42.156 293.121 41.448 293.033 40.032H294.233C294.281 40.464 294.421 40.768 294.653 40.944C294.885 41.12 295.253 41.208 295.757 41.208C296.669 41.208 297.125 40.92 297.125 40.344C297.125 40.096 297.029 39.904 296.837 39.768C296.645 39.632 296.301 39.52 295.805 39.432L295.169 39.312C293.857 39.072 293.201 38.456 293.201 37.464C293.201 36.912 293.413 36.476 293.837 36.156C294.261 35.828 294.845 35.664 295.589 35.664C297.293 35.664 298.165 36.356 298.205 37.74H297.041C297.017 37.324 296.889 37.032 296.657 36.864C296.425 36.688 296.069 36.6 295.589 36.6C295.205 36.6 294.909 36.672 294.701 36.816C294.493 36.96 294.389 37.164 294.389 37.428C294.389 37.668 294.481 37.856 294.665 37.992C294.849 38.12 295.141 38.224 295.541 38.304L296.189 38.412C296.949 38.556 297.497 38.772 297.833 39.06C298.169 39.348 298.337 39.748 298.337 40.26C298.337 40.86 298.109 41.328 297.653 41.664C297.197 41.992 296.561 42.156 295.745 42.156ZM301.663 42.156C299.943 42.156 299.039 41.448 298.951 40.032H300.151C300.199 40.464 300.339 40.768 300.571 40.944C300.803 41.12 301.171 41.208 301.675 41.208C302.587 41.208 303.043 40.92 303.043 40.344C303.043 40.096 302.947 39.904 302.755 39.768C302.563 39.632 302.219 39.52 301.723 39.432L301.087 39.312C299.775 39.072 299.119 38.456 299.119 37.464C299.119 36.912 299.331 36.476 299.755 36.156C300.179 35.828 300.763 35.664 301.507 35.664C303.211 35.664 304.083 36.356 304.123 37.74H302.959C302.935 37.324 302.807 37.032 302.575 36.864C302.343 36.688 301.987 36.6 301.507 36.6C301.123 36.6 300.827 36.672 300.619 36.816C300.411 36.96 300.307 37.164 300.307 37.428C300.307 37.668 300.399 37.856 300.583 37.992C300.767 38.12 301.059 38.224 301.459 38.304L302.107 38.412C302.867 38.556 303.415 38.772 303.751 39.06C304.087 39.348 304.255 39.748 304.255 40.26C304.255 40.86 304.027 41.328 303.571 41.664C303.115 41.992 302.479 42.156 301.663 42.156ZM309.217 39.3V35.808H310.417V42H309.265V41.076C308.793 41.788 308.145 42.144 307.321 42.144C306.641 42.144 306.109 41.952 305.725 41.568C305.341 41.184 305.149 40.648 305.149 39.96V35.808H306.349V39.792C306.349 40.656 306.785 41.088 307.657 41.088C308.097 41.088 308.465 40.932 308.761 40.62C309.065 40.3 309.217 39.86 309.217 39.3ZM317.362 38.952V39.3H312.694C312.75 39.908 312.93 40.368 313.234 40.68C313.538 40.984 313.95 41.136 314.47 41.136C315.254 41.136 315.766 40.792 316.006 40.104H317.218C317.05 40.736 316.722 41.236 316.234 41.604C315.754 41.964 315.158 42.144 314.446 42.144C313.558 42.144 312.842 41.848 312.298 41.256C311.754 40.664 311.482 39.88 311.482 38.904C311.482 37.928 311.754 37.144 312.298 36.552C312.842 35.96 313.55 35.664 314.422 35.664C315.334 35.664 316.054 35.972 316.582 36.588C317.102 37.204 317.362 37.992 317.362 38.952ZM314.422 36.672C313.95 36.672 313.562 36.816 313.258 37.104C312.962 37.392 312.778 37.808 312.706 38.352H316.126C316.07 37.848 315.89 37.444 315.586 37.14C315.29 36.828 314.902 36.672 314.422 36.672Z" fill="white"/>
<rect x="120" y="25" width="100" height="24" rx="12" fill="#FFC107"/>
<path d="M151.222 36.648V33.456H152.422V42H151.27V41.088C150.806 41.792 150.122 42.144 149.218 42.144C148.354 42.144 147.666 41.852 147.154 41.268C146.642 40.684 146.386 39.896 146.386 38.904C146.386 37.912 146.642 37.124 147.154 36.54C147.666 35.956 148.354 35.664 149.218 35.664C150.09 35.664 150.758 35.992 151.222 36.648ZM147.634 38.952C147.634 39.64 147.798 40.172 148.126 40.548C148.454 40.924 148.894 41.112 149.446 41.112C150.014 41.112 150.458 40.916 150.778 40.524C151.098 40.148 151.258 39.608 151.258 38.904C151.258 38.208 151.098 37.664 150.778 37.272C150.458 36.888 150.014 36.696 149.446 36.696C148.894 36.696 148.454 36.896 148.126 37.296C147.798 37.696 147.634 38.248 147.634 38.952ZM157.844 39.3V35.808H159.044V42H157.892V41.076C157.42 41.788 156.772 42.144 155.948 42.144C155.268 42.144 154.736 41.952 154.352 41.568C153.968 41.184 153.776 40.648 153.776 39.96V35.808H154.976V39.792C154.976 40.656 155.412 41.088 156.284 41.088C156.724 41.088 157.092 40.932 157.388 40.62C157.692 40.3 157.844 39.86 157.844 39.3ZM163.613 35.664C164.477 35.664 165.165 35.956 165.677 36.54C166.189 37.124 166.445 37.912 166.445 38.904C166.445 39.888 166.189 40.672 165.677 41.256C165.157 41.848 164.469 42.144 163.613 42.144C162.701 42.144 162.013 41.784 161.549 41.064V42H160.397V33.456H161.597V36.672C162.061 36 162.733 35.664 163.613 35.664ZM162.065 40.524C162.385 40.916 162.825 41.112 163.385 41.112C163.945 41.112 164.389 40.912 164.717 40.512C165.037 40.12 165.197 39.568 165.197 38.856C165.197 38.168 165.037 37.636 164.717 37.26C164.397 36.884 163.953 36.696 163.385 36.696C162.833 36.696 162.393 36.888 162.065 37.272C161.737 37.672 161.573 38.216 161.573 38.904C161.573 39.592 161.737 40.132 162.065 40.524ZM168.698 42H167.498V33.456H168.698V42ZM171.253 34.932H170.029V33.648H171.253V34.932ZM171.241 42H170.041V35.808H171.241V42ZM175.248 42.144C174.368 42.144 173.656 41.848 173.112 41.256C172.568 40.664 172.296 39.88 172.296 38.904C172.296 37.92 172.568 37.132 173.112 36.54C173.648 35.956 174.36 35.664 175.248 35.664C176.008 35.664 176.632 35.872 177.12 36.288C177.616 36.704 177.912 37.264 178.008 37.968H176.784C176.704 37.56 176.524 37.248 176.244 37.032C175.972 36.816 175.64 36.708 175.248 36.708C174.728 36.708 174.312 36.9 174 37.284C173.696 37.66 173.544 38.2 173.544 38.904C173.544 39.608 173.696 40.152 174 40.536C174.312 40.912 174.728 41.1 175.248 41.1C175.648 41.1 175.988 40.988 176.268 40.764C176.548 40.54 176.724 40.216 176.796 39.792H178.02C177.924 40.512 177.624 41.084 177.12 41.508C176.616 41.932 175.992 42.144 175.248 42.144ZM184.311 41.076H184.647V42C184.471 42.024 184.275 42.036 184.059 42.036C183.675 42.036 183.387 41.968 183.195 41.832C183.011 41.688 182.899 41.464 182.859 41.16C182.443 41.816 181.771 42.144 180.843 42.144C180.163 42.144 179.623 41.984 179.223 41.664C178.831 41.336 178.635 40.884 178.635 40.308C178.635 39.188 179.411 38.548 180.963 38.388L181.875 38.292C182.195 38.252 182.427 38.172 182.571 38.052C182.723 37.924 182.799 37.744 182.799 37.512C182.799 37.2 182.699 36.976 182.499 36.84C182.307 36.696 181.983 36.624 181.527 36.624C181.031 36.624 180.675 36.708 180.459 36.876C180.243 37.036 180.119 37.324 180.087 37.74H178.899C178.987 36.356 179.863 35.664 181.527 35.664C183.159 35.664 183.975 36.272 183.975 37.488V40.764C183.975 40.972 184.087 41.076 184.311 41.076ZM181.023 41.208C181.535 41.208 181.959 41.064 182.295 40.776C182.631 40.488 182.799 40.08 182.799 39.552V38.904C182.647 39.032 182.391 39.116 182.031 39.156L181.167 39.252C180.703 39.308 180.371 39.42 180.171 39.588C179.971 39.748 179.871 39.976 179.871 40.272C179.871 40.568 179.967 40.8 180.159 40.968C180.359 41.128 180.647 41.208 181.023 41.208ZM188.169 35.808V36.792H186.921V40.512C186.921 40.696 186.973 40.832 187.077 40.92C187.189 41 187.373 41.04 187.629 41.04H188.169V42C187.905 42.024 187.661 42.036 187.437 42.036C186.853 42.036 186.421 41.924 186.141 41.7C185.861 41.476 185.721 41.116 185.721 40.62V36.792H184.725V35.808H185.721V34.032H186.921V35.808H188.169ZM194.606 38.952V39.3H189.938C189.994 39.908 190.174 40.368 190.478 40.68C190.782 40.984 191.194 41.136 191.714 41.136C192.498 41.136 193.01 40.792 193.25 40.104H194.462C194.294 40.736 193.966 41.236 193.478 41.604C192.998 41.964 192.402 42.144 191.69 42.144C190.802 42.144 190.086 41.848 189.542 41.256C188.998 40.664 188.726 39.88 188.726 38.904C188.726 37.928 188.998 37.144 189.542 36.552C190.086 35.96 190.794 35.664 191.666 35.664C192.578 35.664 193.298 35.972 193.826 36.588C194.346 37.204 194.606 37.992 194.606 38.952ZM191.666 36.672C191.194 36.672 190.806 36.816 190.502 37.104C190.206 37.392 190.022 37.808 189.95 38.352H193.37C193.314 37.848 193.134 37.444 192.83 37.14C192.534 36.828 192.146 36.672 191.666 36.672Z" fill="white"/>
</svg>
