<svg width="396" height="465" viewBox="0 0 396 465" fill="none" xmlns="http://www.w3.org/2000/svg">
<path d="M8 15C8 7.26801 14.268 1 22 1H377C384.732 1 391 7.26801 391 15V33C391 40.732 384.732 47 377 47H22C14.268 47 8 40.732 8 33V15Z" stroke="#18CFAB" stroke-width="2" stroke-linejoin="round"/>
<path fill-rule="evenodd" clip-rule="evenodd" d="M28.6293 18.0022C27.634 18.0022 26.6794 18.4239 25.9756 19.1746C25.2718 19.9253 24.8764 20.9435 24.8764 22.0051C24.8764 23.0667 25.2718 24.0849 25.9756 24.8356C26.6794 25.5862 27.634 26.008 28.6293 26.008C29.6246 26.008 30.5792 25.5862 31.283 24.8356C31.9868 24.0849 32.3822 23.0667 32.3822 22.0051C32.3822 20.9435 31.9868 19.9253 31.283 19.1746C30.5792 18.4239 29.6246 18.0022 28.6293 18.0022ZM23 22.0051C22.9999 21.0601 23.2089 20.1285 23.61 19.2859C24.0111 18.4433 24.593 17.7136 25.3084 17.1561C26.0238 16.5987 26.8524 16.2291 27.7269 16.0777C28.6014 15.9262 29.4971 15.997 30.3411 16.2843C31.1851 16.5717 31.9536 17.0674 32.5841 17.7313C33.2146 18.3952 33.6893 19.2084 33.9695 20.1049C34.2498 21.0013 34.3278 21.9556 34.197 22.8903C34.0663 23.8249 33.7306 24.7134 33.2172 25.4836L37.7366 30.3041C37.9075 30.4928 38.0021 30.7456 38 31.008C37.9978 31.2704 37.8992 31.5214 37.7252 31.7069C37.5512 31.8924 37.3159 31.9977 37.0699 32C36.8239 32.0022 36.5869 31.9014 36.41 31.7191L31.8915 26.8996C31.0493 27.5384 30.0586 27.9175 29.0278 27.9955C27.997 28.0735 26.9659 27.8474 26.0476 27.3419C25.1293 26.8364 24.3592 26.071 23.8216 25.1297C23.2841 24.1883 22.9998 23.1073 23 22.0051Z" fill="#3F3F46"/>
<path d="M59.81 18.184V19.156H52.232V23.818H59.09V24.79H52.232V30.028H59.81V31H51.17V18.184H59.81ZM65.5015 21.496C66.5455 21.496 67.3555 21.79 67.9315 22.378C68.5075 22.966 68.7955 23.8 68.7955 24.88V31H67.7695V24.97C67.7695 23.266 66.9475 22.414 65.3035 22.414C64.5475 22.414 63.8875 22.702 63.3235 23.278C62.7715 23.854 62.4835 24.694 62.4595 25.798V31H61.4335V21.712H62.4055V23.44C62.7055 22.828 63.1255 22.354 63.6655 22.018C64.2055 21.67 64.8175 21.496 65.5015 21.496ZM74.5153 21.712V22.612H72.3553V29.056C72.3553 29.788 72.7933 30.154 73.6693 30.154C74.1253 30.154 74.4073 30.148 74.5153 30.136V31C74.1673 31.036 73.8433 31.054 73.5433 31.054C72.0793 31.054 71.3473 30.418 71.3473 29.146V22.612H69.7633V21.712H71.3473V19.084H72.3553V21.712H74.5153ZM83.6973 26.338V26.698H76.4073C76.4553 27.85 76.7553 28.738 77.3073 29.362C77.8713 29.974 78.6393 30.28 79.6113 30.28C80.3553 30.28 80.9733 30.082 81.4653 29.686C81.9573 29.278 82.2813 28.726 82.4373 28.03H83.4993C83.2833 29.014 82.8333 29.794 82.1493 30.37C81.4653 30.934 80.6073 31.216 79.5753 31.216C78.2793 31.216 77.2533 30.772 76.4973 29.884C75.7413 28.996 75.3633 27.82 75.3633 26.356C75.3633 24.904 75.7413 23.728 76.4973 22.828C77.2413 21.94 78.2553 21.496 79.5393 21.496C80.8473 21.496 81.8673 21.952 82.5993 22.864C83.3313 23.776 83.6973 24.934 83.6973 26.338ZM79.5393 22.432C78.6513 22.432 77.9313 22.726 77.3793 23.314C76.8273 23.902 76.5093 24.724 76.4253 25.78H82.5993C82.5393 24.76 82.2393 23.95 81.6993 23.35C81.1713 22.738 80.4513 22.432 79.5393 22.432ZM89.6037 21.586C89.8677 21.586 90.0417 21.592 90.1257 21.604V22.576H89.6937C88.6737 22.576 87.8757 22.864 87.2997 23.44C86.7357 24.016 86.4537 24.802 86.4537 25.798V31H85.4277V21.712H86.3997V23.656C87.0237 22.276 88.0917 21.586 89.6037 21.586ZM100.038 26.212L101.658 21.712H102.756L98.8136 32.332C98.5256 33.124 98.1596 33.694 97.7156 34.042C97.2716 34.402 96.7016 34.582 96.0056 34.582C95.7776 34.582 95.5196 34.564 95.2316 34.528V33.682H95.9876C96.8396 33.682 97.4636 33.16 97.8596 32.116C97.9676 31.852 98.0756 31.564 98.1836 31.252L94.5296 21.712H95.6456L97.3376 26.212C97.4336 26.452 97.7456 27.328 98.2736 28.84C98.4296 29.284 98.5736 29.686 98.7056 30.046C99.1976 28.582 99.6416 27.304 100.038 26.212ZM110.519 29.866C109.703 30.766 108.653 31.216 107.369 31.216C106.085 31.216 105.047 30.766 104.255 29.866C103.451 28.99 103.049 27.82 103.049 26.356C103.049 24.892 103.451 23.716 104.255 22.828C105.047 21.94 106.085 21.496 107.369 21.496C108.653 21.496 109.703 21.94 110.519 22.828C111.311 23.728 111.707 24.904 111.707 26.356C111.707 27.82 111.311 28.99 110.519 29.866ZM104.993 29.218C105.581 29.938 106.373 30.298 107.369 30.298C108.365 30.298 109.163 29.938 109.763 29.218C110.351 28.522 110.645 27.568 110.645 26.356C110.645 25.144 110.351 24.184 109.763 23.476C109.163 22.768 108.365 22.414 107.369 22.414C106.385 22.414 105.593 22.768 104.993 23.476C104.405 24.184 104.111 25.144 104.111 26.356C104.111 27.568 104.405 28.522 104.993 29.218ZM119.555 26.914V21.712H120.581V31H119.609V29.272C119.309 29.884 118.889 30.364 118.349 30.712C117.809 31.048 117.197 31.216 116.513 31.216C115.469 31.216 114.659 30.922 114.083 30.334C113.507 29.746 113.219 28.912 113.219 27.832V21.712H114.245V27.742C114.245 29.446 115.067 30.298 116.711 30.298C117.527 30.298 118.199 30.004 118.727 29.416C119.267 28.828 119.543 27.994 119.555 26.914ZM126.922 21.586C127.186 21.586 127.36 21.592 127.444 21.604V22.576H127.012C125.992 22.576 125.194 22.864 124.618 23.44C124.054 24.016 123.772 24.802 123.772 25.798V31H122.746V21.712H123.718V23.656C124.342 22.276 125.41 21.586 126.922 21.586ZM136.006 31.216C134.818 31.216 133.894 30.952 133.234 30.424C132.574 29.896 132.214 29.128 132.154 28.12H133.198C133.318 29.596 134.254 30.334 136.006 30.334C137.734 30.334 138.598 29.746 138.598 28.57C138.598 28.09 138.424 27.718 138.076 27.454C137.728 27.19 137.14 26.98 136.312 26.824L135.358 26.662C134.362 26.482 133.624 26.182 133.144 25.762C132.676 25.33 132.442 24.754 132.442 24.034C132.442 23.242 132.736 22.624 133.324 22.18C133.912 21.724 134.728 21.496 135.772 21.496C138.136 21.496 139.36 22.456 139.444 24.376H138.4C138.352 23.692 138.118 23.188 137.698 22.864C137.278 22.54 136.636 22.378 135.772 22.378C135.04 22.378 134.47 22.522 134.062 22.81C133.666 23.098 133.468 23.5 133.468 24.016C133.468 24.496 133.636 24.868 133.972 25.132C134.32 25.396 134.884 25.6 135.664 25.744L136.6 25.906C137.668 26.098 138.436 26.404 138.904 26.824C139.384 27.232 139.624 27.796 139.624 28.516C139.624 29.392 139.3 30.064 138.652 30.532C138.016 30.988 137.134 31.216 136.006 31.216ZM149.07 26.338V26.698H141.78C141.828 27.85 142.128 28.738 142.68 29.362C143.244 29.974 144.012 30.28 144.984 30.28C145.728 30.28 146.346 30.082 146.838 29.686C147.33 29.278 147.654 28.726 147.81 28.03H148.872C148.656 29.014 148.206 29.794 147.522 30.37C146.838 30.934 145.98 31.216 144.948 31.216C143.652 31.216 142.626 30.772 141.87 29.884C141.114 28.996 140.736 27.82 140.736 26.356C140.736 24.904 141.114 23.728 141.87 22.828C142.614 21.94 143.628 21.496 144.912 21.496C146.22 21.496 147.24 21.952 147.972 22.864C148.704 23.776 149.07 24.934 149.07 26.338ZM144.912 22.432C144.024 22.432 143.304 22.726 142.752 23.314C142.2 23.902 141.882 24.724 141.798 25.78H147.972C147.912 24.76 147.612 23.95 147.072 23.35C146.544 22.738 145.824 22.432 144.912 22.432ZM158.326 30.172H158.812V31C158.608 31.036 158.386 31.054 158.146 31.054C157.642 31.054 157.276 30.934 157.048 30.694C156.82 30.442 156.706 30.058 156.706 29.542V29.416C156.082 30.616 154.96 31.216 153.34 31.216C152.344 31.216 151.57 30.982 151.018 30.514C150.478 30.034 150.208 29.38 150.208 28.552C150.208 26.944 151.312 26.008 153.52 25.744L154.96 25.582C155.596 25.498 156.04 25.342 156.292 25.114C156.544 24.886 156.67 24.538 156.67 24.07C156.67 22.942 155.872 22.378 154.276 22.378C153.352 22.378 152.68 22.54 152.26 22.864C151.852 23.188 151.63 23.734 151.594 24.502H150.604C150.664 22.498 151.888 21.496 154.276 21.496C155.404 21.496 156.25 21.724 156.814 22.18C157.378 22.624 157.66 23.254 157.66 24.07V29.506C157.66 29.95 157.882 30.172 158.326 30.172ZM153.394 30.352C154.318 30.352 155.098 30.088 155.734 29.56C156.358 29.044 156.67 28.27 156.67 27.238V25.834C156.37 26.134 155.854 26.326 155.122 26.41L153.682 26.59C152.83 26.698 152.212 26.908 151.828 27.22C151.456 27.52 151.27 27.958 151.27 28.534C151.27 29.098 151.45 29.542 151.81 29.866C152.17 30.19 152.698 30.352 153.394 30.352ZM164.205 21.586C164.469 21.586 164.643 21.592 164.727 21.604V22.576H164.295C163.275 22.576 162.477 22.864 161.901 23.44C161.337 24.016 161.055 24.802 161.055 25.798V31H160.029V21.712H161.001V23.656C161.625 22.276 162.693 21.586 164.205 21.586ZM169.241 31.216C167.969 31.216 166.955 30.778 166.199 29.902C165.431 29.026 165.047 27.844 165.047 26.356C165.047 24.868 165.431 23.686 166.199 22.81C166.955 21.934 167.969 21.496 169.241 21.496C170.285 21.496 171.155 21.796 171.851 22.396C172.547 22.996 172.967 23.788 173.111 24.772H172.067C171.923 24.04 171.593 23.464 171.077 23.044C170.573 22.624 169.961 22.414 169.241 22.414C168.293 22.414 167.531 22.762 166.955 23.458C166.391 24.154 166.109 25.12 166.109 26.356C166.109 27.592 166.391 28.558 166.955 29.254C167.531 29.95 168.293 30.298 169.241 30.298C169.973 30.298 170.597 30.076 171.113 29.632C171.641 29.176 171.965 28.57 172.085 27.814H173.129C173.009 28.798 172.589 29.614 171.869 30.262C171.137 30.898 170.261 31.216 169.241 31.216ZM178.757 21.496C179.801 21.496 180.611 21.79 181.187 22.378C181.763 22.966 182.051 23.8 182.051 24.88V31H181.025V24.97C181.025 23.266 180.203 22.414 178.559 22.414C177.803 22.414 177.143 22.702 176.579 23.278C176.027 23.854 175.739 24.694 175.715 25.798V31H174.689V18.184H175.715V23.332C176.015 22.756 176.429 22.306 176.957 21.982C177.485 21.658 178.085 21.496 178.757 21.496ZM189.058 20.308H187.978V18.616H189.058V20.308ZM189.04 31H188.014V21.712H189.04V31ZM195.101 21.712V22.612H192.941V29.056C192.941 29.788 193.379 30.154 194.255 30.154C194.711 30.154 194.993 30.148 195.101 30.136V31C194.753 31.036 194.429 31.054 194.129 31.054C192.665 31.054 191.933 30.418 191.933 29.146V22.612H190.349V21.712H191.933V19.084H192.941V21.712H195.101ZM204.283 26.338V26.698H196.993C197.041 27.85 197.341 28.738 197.893 29.362C198.457 29.974 199.225 30.28 200.197 30.28C200.941 30.28 201.559 30.082 202.051 29.686C202.543 29.278 202.867 28.726 203.023 28.03H204.085C203.869 29.014 203.419 29.794 202.735 30.37C202.051 30.934 201.193 31.216 200.161 31.216C198.865 31.216 197.839 30.772 197.083 29.884C196.327 28.996 195.949 27.82 195.949 26.356C195.949 24.904 196.327 23.728 197.083 22.828C197.827 21.94 198.841 21.496 200.125 21.496C201.433 21.496 202.453 21.952 203.185 22.864C203.917 23.776 204.283 24.934 204.283 26.338ZM200.125 22.432C199.237 22.432 198.517 22.726 197.965 23.314C197.413 23.902 197.095 24.724 197.011 25.78H203.185C203.125 24.76 202.825 23.95 202.285 23.35C201.757 22.738 201.037 22.432 200.125 22.432ZM215.824 21.496C216.844 21.496 217.624 21.796 218.164 22.396C218.716 22.984 218.992 23.806 218.992 24.862V31H217.984V24.97C217.984 23.266 217.222 22.414 215.698 22.414C214.918 22.414 214.276 22.72 213.772 23.332C213.28 23.932 213.028 24.79 213.016 25.906V31H211.99V24.97C211.99 23.266 211.228 22.414 209.704 22.414C208.936 22.414 208.3 22.72 207.796 23.332C207.304 23.932 207.052 24.79 207.04 25.906V31H206.014V21.712H206.986V23.422C207.562 22.138 208.522 21.496 209.866 21.496C211.378 21.496 212.362 22.174 212.818 23.53C213.454 22.174 214.456 21.496 215.824 21.496ZM222.3 31H220.878V29.596H222.3V31Z" fill="#212121" fill-opacity="0.7"/>
<g filter="url(#filter0_d)">
<rect x="4" y="63" width="388" height="48" rx="15" fill="#58C2AE"/>
</g>
<path d="M171.114 89.2959C169.667 88.8799 168.612 88.3701 167.95 87.7666C167.294 87.1572 166.966 86.4072 166.966 85.5166C166.966 84.5088 167.367 83.6768 168.17 83.0205C168.979 82.3584 170.027 82.0273 171.316 82.0273C172.195 82.0273 172.978 82.1973 173.663 82.5371C174.354 82.877 174.888 83.3457 175.263 83.9434C175.644 84.541 175.834 85.1943 175.834 85.9033H174.138C174.138 85.1299 173.892 84.5234 173.399 84.084C172.907 83.6387 172.213 83.416 171.316 83.416C170.484 83.416 169.834 83.6006 169.365 83.9697C168.902 84.333 168.671 84.8398 168.671 85.4902C168.671 86.0117 168.891 86.4541 169.33 86.8174C169.775 87.1748 170.528 87.5029 171.589 87.8018C172.655 88.1006 173.487 88.4316 174.085 88.7949C174.688 89.1523 175.134 89.5713 175.421 90.0518C175.714 90.5322 175.86 91.0977 175.86 91.748C175.86 92.7852 175.456 93.6172 174.647 94.2441C173.839 94.8652 172.758 95.1758 171.404 95.1758C170.525 95.1758 169.705 95.0088 168.943 94.6748C168.182 94.335 167.593 93.8721 167.177 93.2861C166.767 92.7002 166.562 92.0352 166.562 91.291H168.258C168.258 92.0645 168.542 92.6768 169.11 93.1279C169.685 93.5732 170.449 93.7959 171.404 93.7959C172.295 93.7959 172.978 93.6143 173.452 93.251C173.927 92.8877 174.164 92.3926 174.164 91.7656C174.164 91.1387 173.944 90.6553 173.505 90.3154C173.065 89.9697 172.269 89.6299 171.114 89.2959ZM181.723 95.1758C180.434 95.1758 179.385 94.7539 178.576 93.9102C177.768 93.0605 177.363 91.9268 177.363 90.5088V90.21C177.363 89.2666 177.542 88.4258 177.899 87.6875C178.263 86.9434 178.767 86.3633 179.411 85.9473C180.062 85.5254 180.765 85.3145 181.521 85.3145C182.757 85.3145 183.718 85.7217 184.403 86.5361C185.089 87.3506 185.432 88.5166 185.432 90.0342V90.7109H178.989C179.013 91.6484 179.285 92.4072 179.807 92.9873C180.334 93.5615 181.002 93.8486 181.811 93.8486C182.385 93.8486 182.871 93.7314 183.27 93.4971C183.668 93.2627 184.017 92.9521 184.315 92.5654L185.309 93.3389C184.512 94.5635 183.316 95.1758 181.723 95.1758ZM181.521 86.6504C180.864 86.6504 180.313 86.8906 179.868 87.3711C179.423 87.8457 179.147 88.5137 179.042 89.375H183.806V89.252C183.759 88.4258 183.536 87.7871 183.138 87.3359C182.739 86.8789 182.2 86.6504 181.521 86.6504ZM193.192 95C193.099 94.8125 193.022 94.4785 192.964 93.998C192.208 94.7832 191.306 95.1758 190.257 95.1758C189.319 95.1758 188.549 94.9121 187.945 94.3848C187.348 93.8516 187.049 93.1777 187.049 92.3633C187.049 91.373 187.424 90.6055 188.174 90.0605C188.93 89.5098 189.99 89.2344 191.355 89.2344H192.938V88.4873C192.938 87.9189 192.768 87.4678 192.428 87.1338C192.088 86.7939 191.587 86.624 190.925 86.624C190.345 86.624 189.858 86.7705 189.466 87.0635C189.073 87.3564 188.877 87.7109 188.877 88.127H187.242C187.242 87.6523 187.409 87.1953 187.743 86.7559C188.083 86.3105 188.54 85.959 189.114 85.7012C189.694 85.4434 190.33 85.3145 191.021 85.3145C192.117 85.3145 192.976 85.5898 193.597 86.1406C194.218 86.6855 194.54 87.4385 194.563 88.3994V92.7764C194.563 93.6494 194.675 94.3438 194.897 94.8594V95H193.192ZM190.494 93.7607C191.004 93.7607 191.487 93.6289 191.944 93.3652C192.401 93.1016 192.732 92.7588 192.938 92.3369V90.3857H191.663C189.671 90.3857 188.675 90.9688 188.675 92.1348C188.675 92.6445 188.845 93.043 189.185 93.3301C189.524 93.6172 189.961 93.7607 190.494 93.7607ZM201.709 86.9492C201.463 86.9082 201.196 86.8877 200.909 86.8877C199.843 86.8877 199.119 87.3418 198.738 88.25V95H197.112V85.4902H198.694L198.721 86.5889C199.254 85.7393 200.01 85.3145 200.988 85.3145C201.305 85.3145 201.545 85.3555 201.709 85.4375V86.9492ZM206.851 93.8486C207.431 93.8486 207.938 93.6729 208.371 93.3213C208.805 92.9697 209.045 92.5303 209.092 92.0029H210.63C210.601 92.5479 210.413 93.0664 210.067 93.5586C209.722 94.0508 209.259 94.4434 208.679 94.7363C208.104 95.0293 207.495 95.1758 206.851 95.1758C205.556 95.1758 204.524 94.7451 203.757 93.8838C202.995 93.0166 202.614 91.833 202.614 90.333V90.0605C202.614 89.1348 202.784 88.3115 203.124 87.5908C203.464 86.8701 203.95 86.3105 204.583 85.9121C205.222 85.5137 205.975 85.3145 206.842 85.3145C207.908 85.3145 208.793 85.6338 209.496 86.2725C210.205 86.9111 210.583 87.7402 210.63 88.7598H209.092C209.045 88.1445 208.811 87.6406 208.389 87.248C207.973 86.8496 207.457 86.6504 206.842 86.6504C206.016 86.6504 205.374 86.9492 204.917 87.5469C204.466 88.1387 204.24 88.9971 204.24 90.1221V90.4297C204.24 91.5254 204.466 92.3691 204.917 92.9609C205.368 93.5527 206.013 93.8486 206.851 93.8486ZM214.084 86.6416C214.805 85.7568 215.742 85.3145 216.896 85.3145C218.906 85.3145 219.92 86.4482 219.938 88.7158V95H218.312V88.707C218.306 88.0215 218.147 87.5146 217.837 87.1865C217.532 86.8584 217.055 86.6943 216.404 86.6943C215.877 86.6943 215.414 86.835 215.016 87.1162C214.617 87.3975 214.307 87.7666 214.084 88.2236V95H212.458V81.5H214.084V86.6416Z" fill="white"/>
<rect x="7" y="315" width="389" height="32" rx="16" fill="#21C4A6"/>
<rect x="7" y="428" width="389" height="32" rx="16" fill="#0A3830"/>
<rect x="7" y="370" width="389" height="32" rx="16" fill="#147866"/>
<rect x="360" y="320" width="22" height="22" rx="11" fill="white" stroke="#18CFAB" stroke-width="2"/>
<rect x="360" y="433" width="22" height="22" rx="11" fill="white" stroke="#1B433C" stroke-width="2"/>
<rect x="360" y="375" width="22" height="22" rx="11" fill="white" stroke="#257F6E" stroke-width="2"/>
<path d="M10 173C10 165.268 16.268 159 24 159H380C387.732 159 394 165.268 394 173V191C394 198.732 387.732 205 380 205H24C16.268 205 10 198.732 10 191V173Z" stroke="#18CFAB" stroke-width="2" stroke-linejoin="round"/>
<path d="M12.682 134.184V145.632H19.126V147H11.17V134.184H12.682ZM27.9924 145.83H28.5144V147C28.2744 147.036 28.0104 147.054 27.7224 147.054C26.7504 147.054 26.2284 146.61 26.1564 145.722C25.5084 146.718 24.5004 147.216 23.1324 147.216C22.1124 147.216 21.3084 146.982 20.7204 146.514C20.1444 146.034 19.8564 145.362 19.8564 144.498C19.8564 142.818 21.0024 141.858 23.2944 141.618L24.6264 141.474C25.5984 141.366 26.0844 140.94 26.0844 140.196C26.0844 139.68 25.9224 139.308 25.5984 139.08C25.2864 138.852 24.7524 138.738 23.9964 138.738C23.1924 138.738 22.6104 138.876 22.2504 139.152C21.9024 139.416 21.7044 139.89 21.6564 140.574H20.2164C20.3364 138.522 21.5964 137.496 23.9964 137.496C26.3244 137.496 27.4884 138.396 27.4884 140.196V145.38C27.4884 145.68 27.6564 145.83 27.9924 145.83ZM23.2044 145.992C23.9724 145.992 24.6444 145.758 25.2204 145.29C25.7964 144.834 26.0844 144.18 26.0844 143.328V142.23C25.8204 142.434 25.4124 142.566 24.8604 142.626L23.5104 142.788C22.7304 142.884 22.1724 143.064 21.8364 143.328C21.5124 143.592 21.3504 143.97 21.3504 144.462C21.3504 144.942 21.5064 145.32 21.8184 145.596C22.1304 145.86 22.5924 145.992 23.2044 145.992ZM34.0671 137.496C35.0991 137.496 35.9031 137.778 36.4791 138.342C37.0551 138.906 37.3431 139.698 37.3431 140.718V147H35.9031V140.862C35.9031 139.482 35.1951 138.792 33.7791 138.792C33.1071 138.792 32.5131 139.044 31.9971 139.548C31.4811 140.052 31.2231 140.784 31.2231 141.744V147H29.7831V137.712H31.1511V139.098C31.8591 138.03 32.8311 137.496 34.0671 137.496ZM46.5598 139.062V137.712H47.9278V146.64C47.9278 147.912 47.5558 148.914 46.8118 149.646C46.0678 150.378 44.9998 150.744 43.6078 150.744C42.4558 150.744 41.5318 150.48 40.8358 149.952C40.1398 149.424 39.7438 148.692 39.6478 147.756H41.0878C41.2678 148.932 42.1078 149.52 43.6078 149.52C45.5278 149.52 46.4878 148.56 46.4878 146.64V145.74C45.7558 146.724 44.7178 147.216 43.3738 147.216C42.0658 147.216 41.0218 146.772 40.2418 145.884C39.4498 144.996 39.0538 143.82 39.0538 142.356C39.0538 140.868 39.4498 139.686 40.2418 138.81C41.0098 137.934 42.0538 137.496 43.3738 137.496C44.7538 137.496 45.8158 138.018 46.5598 139.062ZM43.5538 145.92C44.4658 145.92 45.1918 145.602 45.7318 144.966C46.2718 144.33 46.5418 143.46 46.5418 142.356C46.5418 141.252 46.2718 140.382 45.7318 139.746C45.1918 139.11 44.4658 138.792 43.5538 138.792C42.6538 138.792 41.9278 139.116 41.3758 139.764C40.8358 140.412 40.5658 141.276 40.5658 142.356C40.5658 143.436 40.8358 144.3 41.3758 144.948C41.9278 145.596 42.6538 145.92 43.5538 145.92ZM56.2059 142.968V137.712H57.6459V147H56.2779V145.614C55.5699 146.682 54.5979 147.216 53.3619 147.216C52.3299 147.216 51.5259 146.934 50.9499 146.37C50.3739 145.806 50.0859 145.014 50.0859 143.994V137.712H51.5259V143.85C51.5259 145.23 52.2339 145.92 53.6499 145.92C54.3219 145.92 54.9159 145.668 55.4319 145.164C55.9479 144.66 56.2059 143.928 56.2059 142.968ZM67.4026 145.83H67.9246V147C67.6846 147.036 67.4206 147.054 67.1326 147.054C66.1606 147.054 65.6386 146.61 65.5666 145.722C64.9186 146.718 63.9106 147.216 62.5426 147.216C61.5226 147.216 60.7186 146.982 60.1306 146.514C59.5546 146.034 59.2666 145.362 59.2666 144.498C59.2666 142.818 60.4126 141.858 62.7046 141.618L64.0366 141.474C65.0086 141.366 65.4946 140.94 65.4946 140.196C65.4946 139.68 65.3326 139.308 65.0086 139.08C64.6966 138.852 64.1626 138.738 63.4066 138.738C62.6026 138.738 62.0206 138.876 61.6606 139.152C61.3126 139.416 61.1146 139.89 61.0666 140.574H59.6266C59.7466 138.522 61.0066 137.496 63.4066 137.496C65.7346 137.496 66.8986 138.396 66.8986 140.196V145.38C66.8986 145.68 67.0666 145.83 67.4026 145.83ZM62.6146 145.992C63.3826 145.992 64.0546 145.758 64.6306 145.29C65.2066 144.834 65.4946 144.18 65.4946 143.328V142.23C65.2306 142.434 64.8226 142.566 64.2706 142.626L62.9206 142.788C62.1406 142.884 61.5826 143.064 61.2466 143.328C60.9226 143.592 60.7606 143.97 60.7606 144.462C60.7606 144.942 60.9166 145.32 61.2286 145.596C61.5406 145.86 62.0026 145.992 62.6146 145.992ZM76.0735 139.062V137.712H77.4415V146.64C77.4415 147.912 77.0695 148.914 76.3255 149.646C75.5815 150.378 74.5135 150.744 73.1215 150.744C71.9695 150.744 71.0455 150.48 70.3495 149.952C69.6535 149.424 69.2575 148.692 69.1615 147.756H70.6015C70.7815 148.932 71.6215 149.52 73.1215 149.52C75.0415 149.52 76.0015 148.56 76.0015 146.64V145.74C75.2695 146.724 74.2315 147.216 72.8875 147.216C71.5795 147.216 70.5355 146.772 69.7555 145.884C68.9635 144.996 68.5675 143.82 68.5675 142.356C68.5675 140.868 68.9635 139.686 69.7555 138.81C70.5235 137.934 71.5675 137.496 72.8875 137.496C74.2675 137.496 75.3295 138.018 76.0735 139.062ZM73.0675 145.92C73.9795 145.92 74.7055 145.602 75.2455 144.966C75.7855 144.33 76.0555 143.46 76.0555 142.356C76.0555 141.252 75.7855 140.382 75.2455 139.746C74.7055 139.11 73.9795 138.792 73.0675 138.792C72.1675 138.792 71.4415 139.116 70.8895 139.764C70.3495 140.412 70.0795 141.276 70.0795 142.356C70.0795 143.436 70.3495 144.3 70.8895 144.948C71.4415 145.596 72.1675 145.92 73.0675 145.92ZM87.6995 142.356V142.86H80.6435C80.7155 143.868 80.9975 144.63 81.4895 145.146C81.9815 145.65 82.6535 145.902 83.5055 145.902C84.7895 145.902 85.6115 145.326 85.9715 144.174H87.4655C87.2135 145.11 86.7455 145.854 86.0615 146.406C85.3775 146.946 84.5135 147.216 83.4695 147.216C82.1855 147.216 81.1475 146.778 80.3555 145.902C79.5515 145.026 79.1495 143.844 79.1495 142.356C79.1495 140.892 79.5455 139.716 80.3375 138.828C81.1175 137.94 82.1495 137.496 83.4335 137.496C84.7655 137.496 85.8095 137.958 86.5655 138.882C87.3215 139.806 87.6995 140.964 87.6995 142.356ZM83.4335 138.81C82.6775 138.81 82.0595 139.05 81.5795 139.53C81.0995 139.998 80.7995 140.676 80.6795 141.564H86.1515C86.0795 140.748 85.8035 140.088 85.3235 139.584C84.8435 139.068 84.2135 138.81 83.4335 138.81Z" fill="#212121" fill-opacity="0.3"/>
<path d="M31.308 188.226C30.6 188.934 29.64 189.288 28.428 189.288C27.204 189.288 26.25 188.934 25.566 188.226C24.882 187.518 24.54 186.564 24.54 185.364V184.518H26.016V185.364C26.016 186.192 26.226 186.828 26.646 187.272C27.066 187.704 27.66 187.92 28.428 187.92C29.196 187.92 29.79 187.704 30.21 187.272C30.63 186.828 30.84 186.192 30.84 185.364V176.184H32.352V185.364C32.352 186.576 32.004 187.53 31.308 188.226ZM42.01 187.83H42.532V189C42.292 189.036 42.028 189.054 41.74 189.054C40.768 189.054 40.246 188.61 40.174 187.722C39.526 188.718 38.518 189.216 37.15 189.216C36.13 189.216 35.326 188.982 34.738 188.514C34.162 188.034 33.874 187.362 33.874 186.498C33.874 184.818 35.02 183.858 37.312 183.618L38.644 183.474C39.616 183.366 40.102 182.94 40.102 182.196C40.102 181.68 39.94 181.308 39.616 181.08C39.304 180.852 38.77 180.738 38.014 180.738C37.21 180.738 36.628 180.876 36.268 181.152C35.92 181.416 35.722 181.89 35.674 182.574H34.234C34.354 180.522 35.614 179.496 38.014 179.496C40.342 179.496 41.506 180.396 41.506 182.196V187.38C41.506 187.68 41.674 187.83 42.01 187.83ZM37.222 187.992C37.99 187.992 38.662 187.758 39.238 187.29C39.814 186.834 40.102 186.18 40.102 185.328V184.23C39.838 184.434 39.43 184.566 38.878 184.626L37.528 184.788C36.748 184.884 36.19 185.064 35.854 185.328C35.53 185.592 35.368 185.97 35.368 186.462C35.368 186.942 35.524 187.32 35.836 187.596C36.148 187.86 36.61 187.992 37.222 187.992ZM48.0777 183.834L49.6077 179.712H51.1557L47.5017 189H45.9897L42.3537 179.712H43.9197L45.4497 183.852C46.2057 185.88 46.6437 187.08 46.7637 187.452C46.9797 186.816 47.4177 185.61 48.0777 183.834ZM59.4651 187.83H59.9871V189C59.7471 189.036 59.4831 189.054 59.1951 189.054C58.2231 189.054 57.7011 188.61 57.6291 187.722C56.9811 188.718 55.9731 189.216 54.6051 189.216C53.5851 189.216 52.7811 188.982 52.1931 188.514C51.6171 188.034 51.3291 187.362 51.3291 186.498C51.3291 184.818 52.4751 183.858 54.7671 183.618L56.0991 183.474C57.0711 183.366 57.5571 182.94 57.5571 182.196C57.5571 181.68 57.3951 181.308 57.0711 181.08C56.7591 180.852 56.2251 180.738 55.4691 180.738C54.6651 180.738 54.0831 180.876 53.7231 181.152C53.3751 181.416 53.1771 181.89 53.1291 182.574H51.6891C51.8091 180.522 53.0691 179.496 55.4691 179.496C57.7971 179.496 58.9611 180.396 58.9611 182.196V187.38C58.9611 187.68 59.1291 187.83 59.4651 187.83ZM54.6771 187.992C55.4451 187.992 56.1171 187.758 56.6931 187.29C57.2691 186.834 57.5571 186.18 57.5571 185.328V184.23C57.2931 184.434 56.8851 184.566 56.3331 184.626L54.9831 184.788C54.2031 184.884 53.6451 185.064 53.3091 185.328C52.9851 185.592 52.8231 185.97 52.8231 186.462C52.8231 186.942 52.9791 187.32 53.2911 187.596C53.6031 187.86 54.0651 187.992 54.6771 187.992ZM64.5318 189.216C62.0478 189.216 60.7338 188.16 60.5898 186.048H62.0478C62.1318 186.744 62.3598 187.242 62.7318 187.542C63.1158 187.83 63.7158 187.974 64.5318 187.974C66.0198 187.974 66.7638 187.494 66.7638 186.534C66.7638 186.114 66.6078 185.796 66.2958 185.58C65.9958 185.364 65.4438 185.178 64.6398 185.022L63.7758 184.86C61.8438 184.5 60.8778 183.588 60.8778 182.124C60.8778 181.32 61.1778 180.684 61.7778 180.216C62.3898 179.736 63.2178 179.496 64.2618 179.496C66.7218 179.496 67.9818 180.522 68.0418 182.574H66.6018C66.5658 181.902 66.3618 181.428 65.9898 181.152C65.6178 180.876 65.0418 180.738 64.2618 180.738C63.6378 180.738 63.1578 180.858 62.8218 181.098C62.4858 181.338 62.3178 181.674 62.3178 182.106C62.3178 182.514 62.4618 182.82 62.7498 183.024C63.0378 183.228 63.5178 183.402 64.1898 183.546L65.0178 183.708C66.1578 183.936 66.9738 184.26 67.4658 184.68C67.9698 185.1 68.2218 185.688 68.2218 186.444C68.2218 187.32 67.8918 188.004 67.2318 188.496C66.5838 188.976 65.6838 189.216 64.5318 189.216ZM73.5101 189.216C72.2261 189.216 71.1881 188.772 70.3961 187.884C69.6041 186.996 69.2081 185.82 69.2081 184.356C69.2081 182.868 69.6041 181.686 70.3961 180.81C71.1641 179.934 72.2021 179.496 73.5101 179.496C74.6141 179.496 75.5201 179.796 76.2281 180.396C76.9361 180.996 77.3621 181.818 77.5061 182.862H76.0121C75.9041 182.202 75.6161 181.692 75.1481 181.332C74.6921 180.972 74.1461 180.792 73.5101 180.792C72.6581 180.792 71.9801 181.104 71.4761 181.728C70.9721 182.34 70.7201 183.216 70.7201 184.356C70.7201 185.484 70.9721 186.36 71.4761 186.984C71.9921 187.608 72.6701 187.92 73.5101 187.92C74.1461 187.92 74.6981 187.734 75.1661 187.362C75.6341 186.99 75.9221 186.474 76.0301 185.814H77.5061C77.3501 186.858 76.9061 187.686 76.1741 188.298C75.4541 188.91 74.5661 189.216 73.5101 189.216ZM83.4008 179.568C83.6408 179.568 83.8028 179.574 83.8868 179.586V180.972H83.5268C82.5668 180.972 81.8168 181.212 81.2768 181.692C80.7488 182.16 80.4848 182.832 80.4848 183.708V189H79.0448V179.712H80.4128V181.35C81.0368 180.162 82.0328 179.568 83.4008 179.568ZM86.7083 178.308H85.1783V176.544H86.7083V178.308ZM86.6723 189H85.2323V179.712H86.6723V189ZM93.3899 179.496C94.6979 179.496 95.7479 179.934 96.5399 180.81C97.3199 181.698 97.7099 182.88 97.7099 184.356C97.7099 185.82 97.3199 186.996 96.5399 187.884C95.7479 188.772 94.6979 189.216 93.3899 189.216C92.0579 189.216 91.0199 188.7 90.2759 187.668V192.528H88.8359V179.712H90.2039V181.152C90.9479 180.048 92.0099 179.496 93.3899 179.496ZM93.2099 187.92C94.1099 187.92 94.8299 187.596 95.3699 186.948C95.9219 186.288 96.1979 185.4 96.1979 184.284C96.1979 183.192 95.9279 182.34 95.3879 181.728C94.8599 181.104 94.1339 180.792 93.2099 180.792C92.2979 180.792 91.5719 181.104 91.0319 181.728C90.4919 182.352 90.2219 183.228 90.2219 184.356C90.2219 185.472 90.4919 186.342 91.0319 186.966C91.5719 187.602 92.2979 187.92 93.2099 187.92ZM102.941 179.712V180.972H101.033V187.002C101.033 187.53 101.387 187.794 102.095 187.794H102.941V189C102.545 189.036 102.203 189.054 101.915 189.054C100.367 189.054 99.593 188.412 99.593 187.128V180.972H98.063V179.712H99.593V177.084H101.033V179.712H102.941ZM104.193 189V187.2H106.011V189.162C106.011 190.602 105.465 191.376 104.373 191.484L104.193 191.502V190.53L104.319 190.512C104.763 190.464 104.985 190.056 104.985 189.288V189H104.193ZM116.808 189.288C115.068 189.288 113.646 188.682 112.542 187.47C111.438 186.258 110.886 184.632 110.886 182.592C110.886 180.552 111.438 178.926 112.542 177.714C113.646 176.502 115.068 175.896 116.808 175.896C118.188 175.896 119.364 176.274 120.336 177.03C121.308 177.774 121.95 178.866 122.262 180.306H120.732C120.192 178.29 118.884 177.282 116.808 177.282C115.5 177.282 114.45 177.75 113.658 178.686C112.866 179.634 112.47 180.936 112.47 182.592C112.47 184.248 112.866 185.544 113.658 186.48C114.45 187.428 115.5 187.902 116.808 187.902C117.792 187.902 118.668 187.596 119.436 186.984C120.192 186.396 120.654 185.514 120.822 184.338H122.334C122.166 185.934 121.56 187.152 120.516 187.992C119.46 188.856 118.224 189.288 116.808 189.288ZM128.745 189.288C127.077 189.288 125.775 188.91 124.839 188.154C123.903 187.398 123.429 186.27 123.417 184.77H124.983C125.019 186.87 126.273 187.92 128.745 187.92C129.789 187.92 130.587 187.716 131.139 187.308C131.703 186.9 131.985 186.306 131.985 185.526C131.985 184.914 131.751 184.44 131.283 184.104C130.827 183.756 130.023 183.456 128.871 183.204L127.737 182.952C126.441 182.652 125.469 182.22 124.821 181.656C124.173 181.08 123.849 180.276 123.849 179.244C123.849 178.224 124.245 177.414 125.037 176.814C125.829 176.202 126.891 175.896 128.223 175.896C129.123 175.896 129.903 176.004 130.563 176.22C131.235 176.436 131.757 176.742 132.129 177.138C132.501 177.522 132.771 177.942 132.939 178.398C133.119 178.854 133.215 179.358 133.227 179.91H131.679C131.607 178.998 131.307 178.332 130.779 177.912C130.263 177.48 129.411 177.264 128.223 177.264C127.323 177.264 126.627 177.438 126.135 177.786C125.655 178.134 125.415 178.62 125.415 179.244C125.415 179.868 125.625 180.354 126.045 180.702C126.453 181.05 127.245 181.356 128.421 181.62L129.555 181.872C130.971 182.184 131.991 182.634 132.615 183.222C133.239 183.798 133.551 184.566 133.551 185.526C133.551 186.69 133.125 187.608 132.273 188.28C131.421 188.952 130.245 189.288 128.745 189.288ZM139.96 189.288C138.292 189.288 136.99 188.91 136.054 188.154C135.118 187.398 134.644 186.27 134.632 184.77H136.198C136.234 186.87 137.488 187.92 139.96 187.92C141.004 187.92 141.802 187.716 142.354 187.308C142.918 186.9 143.2 186.306 143.2 185.526C143.2 184.914 142.966 184.44 142.498 184.104C142.042 183.756 141.238 183.456 140.086 183.204L138.952 182.952C137.656 182.652 136.684 182.22 136.036 181.656C135.388 181.08 135.064 180.276 135.064 179.244C135.064 178.224 135.46 177.414 136.252 176.814C137.044 176.202 138.106 175.896 139.438 175.896C140.338 175.896 141.118 176.004 141.778 176.22C142.45 176.436 142.972 176.742 143.344 177.138C143.716 177.522 143.986 177.942 144.154 178.398C144.334 178.854 144.43 179.358 144.442 179.91H142.894C142.822 178.998 142.522 178.332 141.994 177.912C141.478 177.48 140.626 177.264 139.438 177.264C138.538 177.264 137.842 177.438 137.35 177.786C136.87 178.134 136.63 178.62 136.63 179.244C136.63 179.868 136.84 180.354 137.26 180.702C137.668 181.05 138.46 181.356 139.636 181.62L140.77 181.872C142.186 182.184 143.206 182.634 143.83 183.222C144.454 183.798 144.766 184.566 144.766 185.526C144.766 186.69 144.34 187.608 143.488 188.28C142.636 188.952 141.46 189.288 139.96 189.288Z" fill="#212121" fill-opacity="0.7"/>
<path d="M10 257C10 249.268 16.268 243 24 243H380C387.732 243 394 249.268 394 257V275C394 282.732 387.732 289 380 289H24C16.268 289 10 282.732 10 275V257Z" stroke="#18CFAB" stroke-width="2" stroke-linejoin="round"/>
<path d="M15.868 232.288C14.2 232.288 12.898 231.91 11.962 231.154C11.026 230.398 10.552 229.27 10.54 227.77H12.106C12.142 229.87 13.396 230.92 15.868 230.92C16.912 230.92 17.71 230.716 18.262 230.308C18.826 229.9 19.108 229.306 19.108 228.526C19.108 227.914 18.874 227.44 18.406 227.104C17.95 226.756 17.146 226.456 15.994 226.204L14.86 225.952C13.564 225.652 12.592 225.22 11.944 224.656C11.296 224.08 10.972 223.276 10.972 222.244C10.972 221.224 11.368 220.414 12.16 219.814C12.952 219.202 14.014 218.896 15.346 218.896C16.246 218.896 17.026 219.004 17.686 219.22C18.358 219.436 18.88 219.742 19.252 220.138C19.624 220.522 19.894 220.942 20.062 221.398C20.242 221.854 20.338 222.358 20.35 222.91H18.802C18.73 221.998 18.43 221.332 17.902 220.912C17.386 220.48 16.534 220.264 15.346 220.264C14.446 220.264 13.75 220.438 13.258 220.786C12.778 221.134 12.538 221.62 12.538 222.244C12.538 222.868 12.748 223.354 13.168 223.702C13.576 224.05 14.368 224.356 15.544 224.62L16.678 224.872C18.094 225.184 19.114 225.634 19.738 226.222C20.362 226.798 20.674 227.566 20.674 228.526C20.674 229.69 20.248 230.608 19.396 231.28C18.544 231.952 17.368 232.288 15.868 232.288ZM26.0992 222.712V223.972H24.1912V230.002C24.1912 230.53 24.5452 230.794 25.2532 230.794H26.0992V232C25.7032 232.036 25.3612 232.054 25.0732 232.054C23.5252 232.054 22.7512 231.412 22.7512 230.128V223.972H21.2212V222.712H22.7512V220.084H24.1912V222.712H26.0992ZM35.1291 230.83H35.6511V232C35.4111 232.036 35.1471 232.054 34.8591 232.054C33.8871 232.054 33.3651 231.61 33.2931 230.722C32.6451 231.718 31.6371 232.216 30.2691 232.216C29.2491 232.216 28.4451 231.982 27.8571 231.514C27.2811 231.034 26.9931 230.362 26.9931 229.498C26.9931 227.818 28.1391 226.858 30.4311 226.618L31.7631 226.474C32.7351 226.366 33.2211 225.94 33.2211 225.196C33.2211 224.68 33.0591 224.308 32.7351 224.08C32.4231 223.852 31.8891 223.738 31.1331 223.738C30.3291 223.738 29.7471 223.876 29.3871 224.152C29.0391 224.416 28.8411 224.89 28.7931 225.574H27.3531C27.4731 223.522 28.7331 222.496 31.1331 222.496C33.4611 222.496 34.6251 223.396 34.6251 225.196V230.38C34.6251 230.68 34.7931 230.83 35.1291 230.83ZM30.3411 230.992C31.1091 230.992 31.7811 230.758 32.3571 230.29C32.9331 229.834 33.2211 229.18 33.2211 228.328V227.23C32.9571 227.434 32.5491 227.566 31.9971 227.626L30.6471 227.788C29.8671 227.884 29.3091 228.064 28.9731 228.328C28.6491 228.592 28.4871 228.97 28.4871 229.462C28.4871 229.942 28.6431 230.32 28.9551 230.596C29.2671 230.86 29.7291 230.992 30.3411 230.992ZM40.6363 222.712V223.972H38.7283V230.002C38.7283 230.53 39.0823 230.794 39.7903 230.794H40.6363V232C40.2403 232.036 39.8983 232.054 39.6103 232.054C38.0623 232.054 37.2883 231.412 37.2883 230.128V223.972H35.7583V222.712H37.2883V220.084H38.7283V222.712H40.6363ZM48.2781 227.968V222.712H49.7181V232H48.3501V230.614C47.6421 231.682 46.6701 232.216 45.4341 232.216C44.4021 232.216 43.5981 231.934 43.0221 231.37C42.4461 230.806 42.1581 230.014 42.1581 228.994V222.712H43.5981V228.85C43.5981 230.23 44.3061 230.92 45.7221 230.92C46.3941 230.92 46.9881 230.668 47.5041 230.164C48.0201 229.66 48.2781 228.928 48.2781 227.968ZM55.1548 232.216C52.6708 232.216 51.3568 231.16 51.2128 229.048H52.6708C52.7548 229.744 52.9828 230.242 53.3548 230.542C53.7388 230.83 54.3388 230.974 55.1548 230.974C56.6428 230.974 57.3868 230.494 57.3868 229.534C57.3868 229.114 57.2308 228.796 56.9188 228.58C56.6188 228.364 56.0668 228.178 55.2628 228.022L54.3988 227.86C52.4668 227.5 51.5008 226.588 51.5008 225.124C51.5008 224.32 51.8008 223.684 52.4008 223.216C53.0128 222.736 53.8408 222.496 54.8848 222.496C57.3448 222.496 58.6048 223.522 58.6648 225.574H57.2248C57.1888 224.902 56.9848 224.428 56.6128 224.152C56.2408 223.876 55.6648 223.738 54.8848 223.738C54.2608 223.738 53.7808 223.858 53.4448 224.098C53.1088 224.338 52.9408 224.674 52.9408 225.106C52.9408 225.514 53.0848 225.82 53.3728 226.024C53.6608 226.228 54.1408 226.402 54.8128 226.546L55.6408 226.708C56.7808 226.936 57.5968 227.26 58.0888 227.68C58.5928 228.1 58.8448 228.688 58.8448 229.444C58.8448 230.32 58.5148 231.004 57.8548 231.496C57.2068 231.976 56.3068 232.216 55.1548 232.216Z" fill="#212121" fill-opacity="0.3"/>
<path d="M36.258 271H34.656L33.162 267.274H27.33L25.854 271H24.27L29.382 258.184H31.074L36.258 271ZM27.924 265.762L27.87 265.906H32.622L32.55 265.744C32.25 265.012 31.47 263.038 30.21 259.822C29.358 262.102 28.596 264.082 27.924 265.762ZM41.9914 261.496C43.2994 261.496 44.3494 261.934 45.1414 262.81C45.9214 263.698 46.3114 264.88 46.3114 266.356C46.3114 267.82 45.9214 268.996 45.1414 269.884C44.3494 270.772 43.2994 271.216 41.9914 271.216C40.6594 271.216 39.6214 270.7 38.8774 269.668V274.528H37.4374V261.712H38.8054V263.152C39.5494 262.048 40.6114 261.496 41.9914 261.496ZM41.8114 269.92C42.7114 269.92 43.4314 269.596 43.9714 268.948C44.5234 268.288 44.7994 267.4 44.7994 266.284C44.7994 265.192 44.5294 264.34 43.9894 263.728C43.4614 263.104 42.7354 262.792 41.8114 262.792C40.8994 262.792 40.1734 263.104 39.6334 263.728C39.0934 264.352 38.8234 265.228 38.8234 266.356C38.8234 267.472 39.0934 268.342 39.6334 268.966C40.1734 269.602 40.8994 269.92 41.8114 269.92ZM52.5735 261.496C53.8815 261.496 54.9315 261.934 55.7235 262.81C56.5035 263.698 56.8935 264.88 56.8935 266.356C56.8935 267.82 56.5035 268.996 55.7235 269.884C54.9315 270.772 53.8815 271.216 52.5735 271.216C51.2415 271.216 50.2035 270.7 49.4595 269.668V274.528H48.0195V261.712H49.3875V263.152C50.1315 262.048 51.1935 261.496 52.5735 261.496ZM52.3935 269.92C53.2935 269.92 54.0135 269.596 54.5535 268.948C55.1055 268.288 55.3815 267.4 55.3815 266.284C55.3815 265.192 55.1115 264.34 54.5715 263.728C54.0435 263.104 53.3175 262.792 52.3935 262.792C51.4815 262.792 50.7555 263.104 50.2155 263.728C49.6755 264.352 49.4055 265.228 49.4055 266.356C49.4055 267.472 49.6755 268.342 50.2155 268.966C50.7555 269.602 51.4815 269.92 52.3935 269.92ZM62.9575 261.568C63.1975 261.568 63.3595 261.574 63.4435 261.586V262.972H63.0835C62.1235 262.972 61.3735 263.212 60.8335 263.692C60.3055 264.16 60.0415 264.832 60.0415 265.708V271H58.6015V261.712H59.9695V263.35C60.5935 262.162 61.5895 261.568 62.9575 261.568ZM71.5341 269.884C70.6821 270.772 69.6021 271.216 68.2941 271.216C66.9861 271.216 65.9061 270.772 65.0541 269.884C64.2141 269.008 63.7941 267.832 63.7941 266.356C63.7941 264.88 64.2141 263.704 65.0541 262.828C65.9061 261.94 66.9861 261.496 68.2941 261.496C69.6021 261.496 70.6821 261.94 71.5341 262.828C72.3741 263.704 72.7941 264.88 72.7941 266.356C72.7941 267.832 72.3741 269.008 71.5341 269.884ZM66.1161 268.966C66.6561 269.602 67.3821 269.92 68.2941 269.92C69.2061 269.92 69.9321 269.602 70.4721 268.966C71.0121 268.342 71.2821 267.472 71.2821 266.356C71.2821 265.228 71.0121 264.352 70.4721 263.728C69.9321 263.104 69.2061 262.792 68.2941 262.792C67.3821 262.792 66.6561 263.104 66.1161 263.728C65.5761 264.352 65.3061 265.228 65.3061 266.356C65.3061 267.472 65.5761 268.342 66.1161 268.966ZM78.6988 265.834L80.2288 261.712H81.7768L78.1228 271H76.6108L72.9748 261.712H74.5408L76.0708 265.852C76.8268 267.88 77.2648 269.08 77.3848 269.452C77.6008 268.816 78.0388 267.61 78.6988 265.834ZM90.5023 266.356V266.86H83.4463C83.5183 267.868 83.8003 268.63 84.2923 269.146C84.7843 269.65 85.4563 269.902 86.3083 269.902C87.5923 269.902 88.4143 269.326 88.7743 268.174H90.2683C90.0163 269.11 89.5483 269.854 88.8643 270.406C88.1803 270.946 87.3163 271.216 86.2723 271.216C84.9883 271.216 83.9503 270.778 83.1583 269.902C82.3543 269.026 81.9523 267.844 81.9523 266.356C81.9523 264.892 82.3483 263.716 83.1403 262.828C83.9203 261.94 84.9523 261.496 86.2363 261.496C87.5683 261.496 88.6123 261.958 89.3683 262.882C90.1243 263.806 90.5023 264.964 90.5023 266.356ZM86.2363 262.81C85.4803 262.81 84.8623 263.05 84.3823 263.53C83.9023 263.998 83.6023 264.676 83.4823 265.564H88.9543C88.8823 264.748 88.6063 264.088 88.1263 263.584C87.6463 263.068 87.0163 262.81 86.2363 262.81ZM99.1949 263.044V258.184H100.635V271H99.2669V269.56C98.5229 270.664 97.4609 271.216 96.0809 271.216C94.7729 271.216 93.7289 270.772 92.9489 269.884C92.1569 268.996 91.7609 267.82 91.7609 266.356C91.7609 264.868 92.1569 263.686 92.9489 262.81C93.7169 261.934 94.7609 261.496 96.0809 261.496C97.4129 261.496 98.4509 262.012 99.1949 263.044ZM93.2729 266.428C93.2729 267.532 93.5429 268.39 94.0829 269.002C94.6229 269.614 95.3489 269.92 96.2609 269.92C97.1729 269.92 97.8989 269.602 98.4389 268.966C98.9789 268.342 99.2489 267.472 99.2489 266.356C99.2489 265.252 98.9789 264.382 98.4389 263.746C97.8989 263.11 97.1729 262.792 96.2609 262.792C95.3609 262.792 94.6349 263.122 94.0829 263.782C93.5429 264.43 93.2729 265.312 93.2729 266.428Z" fill="#212121" fill-opacity="0.7"/>
<path d="M176.124 324.608V325.824H169.548V329.456H175.484V330.672H169.548V334.784H176.06V336H168.204V324.608H176.124ZM184.235 334.96H184.699V336C184.486 336.032 184.251 336.048 183.995 336.048C183.131 336.048 182.667 335.653 182.603 334.864C182.027 335.749 181.131 336.192 179.915 336.192C179.009 336.192 178.294 335.984 177.771 335.568C177.259 335.141 177.003 334.544 177.003 333.776C177.003 332.283 178.022 331.429 180.059 331.216L181.243 331.088C182.107 330.992 182.539 330.613 182.539 329.952C182.539 329.493 182.395 329.163 182.107 328.96C181.83 328.757 181.355 328.656 180.683 328.656C179.969 328.656 179.451 328.779 179.131 329.024C178.822 329.259 178.646 329.68 178.603 330.288H177.323C177.43 328.464 178.55 327.552 180.683 327.552C182.753 327.552 183.787 328.352 183.787 329.952V334.56C183.787 334.827 183.937 334.96 184.235 334.96ZM179.979 335.104C180.662 335.104 181.259 334.896 181.771 334.48C182.283 334.075 182.539 333.493 182.539 332.736V331.76C182.305 331.941 181.942 332.059 181.451 332.112L180.251 332.256C179.558 332.341 179.062 332.501 178.763 332.736C178.475 332.971 178.331 333.307 178.331 333.744C178.331 334.171 178.47 334.507 178.747 334.752C179.025 334.987 179.435 335.104 179.979 335.104ZM188.739 336.192C186.531 336.192 185.363 335.253 185.235 333.376H186.531C186.606 333.995 186.809 334.437 187.139 334.704C187.481 334.96 188.014 335.088 188.739 335.088C190.062 335.088 190.723 334.661 190.723 333.808C190.723 333.435 190.585 333.152 190.307 332.96C190.041 332.768 189.55 332.603 188.835 332.464L188.067 332.32C186.35 332 185.491 331.189 185.491 329.888C185.491 329.173 185.758 328.608 186.291 328.192C186.835 327.765 187.571 327.552 188.499 327.552C190.686 327.552 191.806 328.464 191.859 330.288H190.579C190.547 329.691 190.366 329.269 190.035 329.024C189.705 328.779 189.193 328.656 188.499 328.656C187.945 328.656 187.518 328.763 187.219 328.976C186.921 329.189 186.771 329.488 186.771 329.872C186.771 330.235 186.899 330.507 187.155 330.688C187.411 330.869 187.838 331.024 188.435 331.152L189.171 331.296C190.185 331.499 190.91 331.787 191.347 332.16C191.795 332.533 192.019 333.056 192.019 333.728C192.019 334.507 191.726 335.115 191.139 335.552C190.563 335.979 189.763 336.192 188.739 336.192ZM197.204 331.168L198.372 327.744H199.764L196.276 337.296C196.03 337.989 195.694 338.475 195.268 338.752C194.841 339.04 194.281 339.184 193.588 339.184C193.353 339.184 193.097 339.168 192.82 339.136V338.064H193.572C194.308 338.064 194.809 337.723 195.076 337.04L195.364 336.272L192.26 327.744H193.668L194.836 331.184C195.252 332.4 195.646 333.589 196.02 334.752C196.329 333.76 196.724 332.565 197.204 331.168Z" fill="white"/>
<path d="M169.554 436.608V437.824H162.978V441.456H168.914V442.672H162.978V446.784H169.49V448H161.634V436.608H169.554ZM177.649 439.744L174.657 443.776L177.809 448H176.305L175.857 447.376C175.078 446.267 174.433 445.371 173.921 444.688C173.153 445.723 172.497 446.624 171.953 447.392L171.521 448H170.033L173.185 443.776L170.193 439.744H171.697L172.337 440.624C173.052 441.584 173.585 442.331 173.937 442.864C174.748 441.723 175.281 440.976 175.537 440.624L176.161 439.744H177.649ZM182.742 439.552C183.905 439.552 184.838 439.941 185.542 440.72C186.236 441.509 186.582 442.56 186.582 443.872C186.582 445.173 186.236 446.219 185.542 447.008C184.838 447.797 183.905 448.192 182.742 448.192C181.558 448.192 180.636 447.733 179.974 446.816V451.136H178.694V439.744H179.91V441.024C180.572 440.043 181.516 439.552 182.742 439.552ZM182.582 447.04C183.382 447.04 184.022 446.752 184.502 446.176C184.993 445.589 185.238 444.8 185.238 443.808C185.238 442.837 184.998 442.08 184.518 441.536C184.049 440.981 183.404 440.704 182.582 440.704C181.772 440.704 181.126 440.981 180.646 441.536C180.166 442.091 179.926 442.869 179.926 443.872C179.926 444.864 180.166 445.637 180.646 446.192C181.126 446.757 181.772 447.04 182.582 447.04ZM195.301 443.872V444.32H189.029C189.093 445.216 189.343 445.893 189.781 446.352C190.218 446.8 190.815 447.024 191.573 447.024C192.714 447.024 193.445 446.512 193.765 445.488H195.093C194.869 446.32 194.453 446.981 193.845 447.472C193.237 447.952 192.469 448.192 191.541 448.192C190.399 448.192 189.477 447.803 188.773 447.024C188.058 446.245 187.701 445.195 187.701 443.872C187.701 442.571 188.053 441.525 188.757 440.736C189.45 439.947 190.367 439.552 191.509 439.552C192.693 439.552 193.621 439.963 194.293 440.784C194.965 441.605 195.301 442.635 195.301 443.872ZM191.509 440.72C190.837 440.72 190.287 440.933 189.861 441.36C189.434 441.776 189.167 442.379 189.061 443.168H193.925C193.861 442.443 193.615 441.856 193.189 441.408C192.762 440.949 192.202 440.72 191.509 440.72ZM200.691 439.616C200.905 439.616 201.049 439.621 201.123 439.632V440.864H200.803C199.95 440.864 199.283 441.077 198.803 441.504C198.334 441.92 198.099 442.517 198.099 443.296V448H196.819V439.744H198.035V441.2C198.59 440.144 199.475 439.616 200.691 439.616ZM206.014 439.744V440.864H204.318V446.224C204.318 446.693 204.632 446.928 205.262 446.928H206.014V448C205.662 448.032 205.358 448.048 205.102 448.048C203.726 448.048 203.038 447.477 203.038 446.336V440.864H201.678V439.744H203.038V437.408H204.318V439.744H206.014Z" fill="white"/>
<path d="M163.166 385.896L165.71 379.608H167.47V391H166.158V387.352C166.158 384.952 166.174 383.016 166.206 381.544C165.95 382.248 165.614 383.112 165.198 384.136L162.382 391H161.23L158.398 384.136C157.982 383.112 157.646 382.248 157.39 381.544C157.422 383.016 157.438 384.952 157.438 387.352V391H156.126V379.608H157.886L160.526 386.088C160.921 387.059 161.353 388.152 161.822 389.368C162.473 387.64 162.921 386.483 163.166 385.896ZM176.668 386.872V387.32H170.396C170.46 388.216 170.71 388.893 171.148 389.352C171.585 389.8 172.182 390.024 172.94 390.024C174.081 390.024 174.812 389.512 175.132 388.488H176.46C176.236 389.32 175.82 389.981 175.212 390.472C174.604 390.952 173.836 391.192 172.908 391.192C171.766 391.192 170.844 390.803 170.14 390.024C169.425 389.245 169.068 388.195 169.068 386.872C169.068 385.571 169.42 384.525 170.124 383.736C170.817 382.947 171.734 382.552 172.876 382.552C174.06 382.552 174.988 382.963 175.66 383.784C176.332 384.605 176.668 385.635 176.668 386.872ZM172.876 383.72C172.204 383.72 171.654 383.933 171.228 384.36C170.801 384.776 170.534 385.379 170.428 386.168H175.292C175.228 385.443 174.982 384.856 174.556 384.408C174.129 383.949 173.569 383.72 172.876 383.72ZM184.395 383.928V379.608H185.675V391H184.459V389.72C183.797 390.701 182.853 391.192 181.627 391.192C180.464 391.192 179.536 390.797 178.843 390.008C178.139 389.219 177.787 388.173 177.787 386.872C177.787 385.549 178.139 384.499 178.843 383.72C179.525 382.941 180.453 382.552 181.627 382.552C182.811 382.552 183.733 383.011 184.395 383.928ZM179.131 386.936C179.131 387.917 179.371 388.68 179.851 389.224C180.331 389.768 180.976 390.04 181.787 390.04C182.597 390.04 183.243 389.757 183.723 389.192C184.203 388.637 184.443 387.864 184.443 386.872C184.443 385.891 184.203 385.117 183.723 384.552C183.243 383.987 182.597 383.704 181.787 383.704C180.987 383.704 180.341 383.997 179.851 384.584C179.371 385.16 179.131 385.944 179.131 386.936ZM188.905 381.496H187.545V379.928H188.905V381.496ZM188.873 391H187.593V382.744H188.873V391ZM196.236 387.416V382.744H197.516V391H196.3V389.768C195.671 390.717 194.807 391.192 193.708 391.192C192.791 391.192 192.076 390.941 191.564 390.44C191.052 389.939 190.796 389.235 190.796 388.328V382.744H192.076V388.2C192.076 389.427 192.705 390.04 193.964 390.04C194.561 390.04 195.089 389.816 195.548 389.368C196.007 388.92 196.236 388.269 196.236 387.416ZM208.125 382.552C209.021 382.552 209.714 382.813 210.205 383.336C210.706 383.848 210.957 384.536 210.957 385.4V391H209.677V385.528C209.677 384.312 209.101 383.704 207.949 383.704C207.341 383.704 206.834 383.949 206.429 384.44C206.034 384.92 205.837 385.603 205.837 386.488V391H204.557V385.528C204.557 384.312 203.981 383.704 202.829 383.704C202.231 383.704 201.73 383.949 201.325 384.44C200.919 384.92 200.717 385.603 200.717 386.488V391H199.437V382.744H200.653V383.96C201.197 383.021 201.991 382.552 203.037 382.552C204.274 382.552 205.122 383.069 205.581 384.104C206.157 383.069 207.005 382.552 208.125 382.552Z" fill="white"/>
<defs>
<filter id="filter0_d" x="0" y="62" width="396" height="56" filterUnits="userSpaceOnUse" color-interpolation-filters="sRGB">
<feFlood flood-opacity="0" result="BackgroundImageFix"/>
<feColorMatrix in="SourceAlpha" type="matrix" values="0 0 0 0 0 0 0 0 0 0 0 0 0 0 0 0 0 0 127 0"/>
<feOffset dy="3"/>
<feGaussianBlur stdDeviation="2"/>
<feColorMatrix type="matrix" values="0 0 0 0 0 0 0 0 0 0 0 0 0 0 0 0 0 0 0.25 0"/>
<feBlend mode="normal" in2="BackgroundImageFix" result="effect1_dropShadow"/>
<feBlend mode="normal" in="SourceGraphic" in2="effect1_dropShadow" result="shape"/>
</filter>
</defs>
</svg>
