<svg width="13" height="14" viewBox="0 0 13 14" fill="none" xmlns="http://www.w3.org/2000/svg">
<path d="M2.66667 7.00004H7.66667C8.85135 7.00004 9.82983 6.11716 9.98002 4.97346C8.85901 4.80319 8 3.83526 8 2.66671C8 1.37804 9.04467 0.333374 10.3333 0.333374C11.622 0.333374 12.6667 1.37804 12.6667 2.66671C12.6667 3.84774 11.7892 4.82384 10.6506 4.97865C10.4946 6.48892 9.21819 7.66671 7.66667 7.66671H2.66667V9.02367C3.79743 9.18541 4.66667 10.1579 4.66667 11.3334C4.66667 12.622 3.622 13.6667 2.33333 13.6667C1.04467 13.6667 0 12.622 0 11.3334C0 10.1579 0.869235 9.18541 2 9.02367V4.97641C0.869235 4.81467 0 3.8422 0 2.66671C0 1.37804 1.04467 0.333374 2.33333 0.333374C3.622 0.333374 4.66667 1.37804 4.66667 2.66671C4.66667 3.8422 3.79743 4.81467 2.66667 4.97641V7.00004ZM0.666667 11.3334C0.666667 12.2538 1.41286 13 2.33333 13C3.25381 13 4 12.2538 4 11.3334C4 10.4129 3.25381 9.66671 2.33333 9.66671C1.41286 9.66671 0.666667 10.4129 0.666667 11.3334ZM0.666667 2.66671C0.666667 3.58718 1.41286 4.33337 2.33333 4.33337C3.25381 4.33337 4 3.58718 4 2.66671C4 1.74623 3.25381 1.00004 2.33333 1.00004C1.41286 1.00004 0.666667 1.74623 0.666667 2.66671ZM10.3333 1.00004C9.41286 1.00004 8.66667 1.74623 8.66667 2.66671C8.66667 3.58718 9.41286 4.33337 10.3333 4.33337C11.2538 4.33337 12 3.58718 12 2.66671C12 1.74623 11.2538 1.00004 10.3333 1.00004Z" fill="#4B7D74"/>
</svg>
