<svg width="16" height="18" viewBox="0 0 16 18" fill="none" xmlns="http://www.w3.org/2000/svg">
<path d="M10.196 7.10177L10.3426 7.42314L10.6948 7.45084L14.8588 7.77831L13.7635 9.22284L12.5546 10.8173L12.1562 11.3427L12.0445 11.49L12.0151 11.5288L12.0075 11.5388L12.0056 11.5414L12.005 11.5422L12.0046 11.5426C12.0043 11.543 11.9676 11.5977 11.9372 11.6558L11.8606 11.8238L11.8918 12.0058L12.7091 16.7804L8.26671 14.5729L7.99969 14.4403L7.73268 14.573L3.28692 16.7825L4.09194 12.0048L4.13487 11.75L3.97923 11.5437L1.13785 7.77805L5.27399 7.45075L5.62423 7.42304L5.77144 7.10403L7.99665 2.28228L10.196 7.10177Z" stroke="#4B7D74" stroke-width="1.2"/>
</svg>
